<?xml version="1.0" standalone="no"?>
<!DOCTYPE svg PUBLIC "-//W3C//DTD SVG 20010904//EN"
 "http://www.w3.org/TR/2001/REC-SVG-20010904/DTD/svg10.dtd">
<svg version="1.0" xmlns="http://www.w3.org/2000/svg"
 width="1532.000000pt" height="1656.000000pt" viewBox="0 0 1532.000000 1656.000000"
 preserveAspectRatio="xMidYMid meet">

<g transform="translate(0.000000,1656.000000) scale(0.100000,-0.100000)"
fill="#000000" stroke="none">
<path d="M8730 9396 c-6 -14 -14 -37 -20 -51 -8 -21 -7 -25 10 -25 11 0 20 -9
23 -22 l4 -23 2 22 c1 15 6 21 15 17 8 -3 12 -12 9 -19 -7 -20 6 -38 20 -27
18 14 47 11 47 -5 0 -7 8 -13 18 -14 61 -1 107 -9 110 -18 2 -6 10 -11 18 -11
8 0 14 -5 14 -11 0 -5 5 -7 11 -4 5 4 22 4 37 0 25 -6 26 -7 7 -18 -22 -12
-37 -23 -66 -49 -10 -10 -22 -18 -26 -19 -5 -1 -7 -5 -5 -11 1 -5 -2 -7 -7 -4
-13 8 -42 -4 -36 -15 6 -9 56 -5 77 6 7 4 5 0 -4 -8 -21 -16 -23 -28 -6 -24 7
1 13 -5 13 -13 3 -36 16 -49 41 -40 16 6 24 6 24 -1 0 -6 13 -8 30 -5 16 2 32
0 36 -5 3 -5 0 -9 -6 -9 -7 0 -5 -6 4 -15 8 -8 22 -15 31 -15 13 0 14 -4 5
-22 l-11 -23 18 21 c17 19 20 20 39 5 20 -15 20 -16 -12 -101 -63 -168 -395
-992 -408 -1013 -8 -12 -40 -89 -71 -172 -65 -169 -67 -151 29 -207 l46 -27
-7 -98 c-3 -54 -6 -99 -7 -100 -1 -1 -44 23 -96 52 -52 30 -98 51 -101 47 -4
-4 -24 -50 -45 -102 -20 -52 -42 -100 -48 -107 -24 -25 -1081 -653 -1099 -653
-7 0 -223 121 -482 269 l-469 269 -43 99 c-23 54 -42 103 -43 109 0 6 197 123
438 260 l437 250 3 195 2 196 -192 111 -192 110 -50 -121 -51 -121 -172 -101
c-99 -57 -171 -105 -168 -112 2 -7 -4 -10 -15 -8 -25 5 -36 -12 -13 -19 10 -3
22 -5 27 -5 13 1 28 -29 21 -41 -8 -14 8 -13 22 1 9 9 10 3 7 -21 -5 -27 -3
-32 10 -27 16 6 20 -3 17 -32 -2 -8 2 -10 10 -6 7 5 10 3 7 -6 -4 -12 -263
-178 -279 -179 -4 0 -25 44 -48 97 -24 54 -46 100 -49 103 -4 3 -111 247 -237
543 -126 295 -232 537 -235 537 -3 0 -239 -137 -525 -304 l-520 -304 1 -56 1
-56 -38 31 c-21 17 -42 29 -46 26 -5 -2 -74 -41 -155 -87 l-148 -84 0 -262 0
-261 67 -40 c37 -22 69 -45 71 -51 1 -5 -29 -28 -67 -49 -60 -32 -71 -42 -71
-64 0 -14 -8 -33 -17 -41 -25 -22 -189 -118 -202 -118 -5 0 -26 -9 -45 -21
l-36 -21 29 -24 c16 -13 31 -24 34 -24 3 0 52 27 110 60 57 33 109 60 115 60
8 0 12 -58 14 -192 l3 -192 65 -37 c35 -21 66 -42 68 -48 2 -5 -28 -28 -67
-50 -69 -41 -70 -42 -73 -88 l-3 -46 -105 -63 c-58 -35 -108 -64 -112 -64 -5
0 -8 44 -8 99 0 110 4 103 -84 151 l-58 32 3 -187 4 -187 -379 -219 c-208
-120 -386 -219 -396 -219 -26 0 -134 74 -163 112 -52 67 -71 126 -71 219 0 77
3 93 32 152 21 42 48 79 75 100 44 36 631 377 648 377 13 0 153 82 157 92 2 4
21 18 43 30 35 19 39 26 39 61 l0 39 -42 -25 c-24 -14 -97 -53 -163 -87 -66
-35 -124 -69 -130 -75 -5 -7 -86 -57 -180 -111 -447 -257 -459 -266 -518 -392
-29 -61 -32 -76 -32 -162 0 -86 3 -101 32 -162 34 -72 95 -145 149 -179 19
-11 34 -27 34 -34 0 -7 -22 -29 -50 -49 -124 -89 -192 -260 -161 -405 32 -152
99 -221 351 -367 102 -58 361 -208 575 -331 215 -124 397 -233 407 -243 19
-21 141 -90 158 -90 6 0 84 -42 173 -94 1131 -654 2116 -1220 2172 -1248 183
-92 358 -132 570 -132 162 0 257 14 400 61 133 44 177 67 845 453 843 486
1179 680 1610 927 195 112 362 208 370 213 26 16 311 181 349 202 20 11 41 24
46 28 6 4 60 33 120 65 61 31 126 69 145 83 19 15 77 52 130 83 l95 57 50 -25
c66 -34 915 -487 983 -525 l53 -30 -3 57 -3 57 -480 254 c-264 140 -484 259
-488 263 -4 4 34 32 85 61 611 351 665 384 716 433 145 142 166 345 54 516
-32 48 -111 121 -144 134 -9 3 -4 13 14 31 15 14 30 26 33 26 17 0 98 94 121
141 32 62 30 54 44 140 9 54 8 79 -4 133 -41 173 -82 210 -513 456 -188 107
-342 200 -343 205 0 11 -130 85 -149 85 -6 0 -102 53 -213 117 -112 64 -215
124 -230 132 l-28 16 0 273 c0 155 -4 272 -9 272 -10 0 -72 36 -966 563 -506
298 -571 334 -582 319 -12 -14 -13 -14 -13 4 0 14 -25 34 -92 73 -51 30 -169
99 -263 154 -93 55 -173 102 -178 104 -4 2 -12 -7 -17 -21z m317 -346 c-1 -12
-5 -16 -10 -11 -5 5 -6 14 -3 20 11 16 15 13 13 -9z m-22 -20 c3 -5 1 -10 -4
-10 -6 0 -11 5 -11 10 0 6 2 10 4 10 3 0 8 -4 11 -10z m1563 -1012 l-73 -67
-3 52 c-4 57 -9 49 98 139 l45 38 3 -48 4 -47 -74 -67z m-6182 -259 l54 -30 0
-139 c0 -110 3 -140 15 -150 8 -7 15 -16 15 -21 0 -11 -23 -1 -93 39 l-57 33
0 150 c0 82 3 149 6 149 4 0 31 -14 60 -31z m702 -404 l382 -220 0 -153 0
-154 -68 39 c-38 21 -236 135 -440 253 l-372 215 0 153 0 153 58 -33 c32 -18
230 -132 440 -253z m5698 244 c70 -31 396 -219 414 -238 20 -22 152 -101 169
-101 21 0 728 -411 771 -448 22 -18 51 -58 67 -90 25 -50 28 -68 28 -152 0
-76 -4 -104 -21 -141 -29 -63 -85 -122 -155 -164 -51 -31 -61 -34 -81 -24 -73
38 -1136 654 -1151 667 -15 14 -16 18 -2 38 12 19 13 62 8 284 l-6 261 -31 23
c-17 13 -50 34 -73 46 -49 27 -52 33 -20 48 30 15 28 15 83 -9z m-1771 -318
l80 -48 3 -151 c1 -84 1 -152 -2 -152 -2 0 -36 18 -75 41 l-71 41 0 49 c0 35
-4 51 -15 55 -12 5 -15 27 -15 110 0 57 3 104 8 104 4 -1 43 -22 87 -49z m495
-119 c0 -93 -1 -99 -22 -110 -13 -6 -47 -25 -75 -42 l-53 -30 0 99 0 99 68 40
c37 23 70 41 75 42 4 0 7 -44 7 -98z m-3642 -99 l-3 -97 -65 -38 c-36 -21 -69
-38 -73 -38 -4 0 -6 44 -5 97 l3 97 65 38 c36 21 69 38 73 38 4 0 6 -44 5 -97z
m-928 -336 l525 -304 3 -152 c1 -83 0 -151 -4 -151 -3 0 -47 24 -97 54 -51 29
-307 177 -569 327 l-477 274 -1 153 0 152 48 -24 c26 -14 283 -162 572 -329z
m4960 279 l0 -53 -75 -62 -75 -62 0 55 c0 31 3 56 8 56 4 1 36 28 72 60 36 33
66 60 68 60 1 0 2 -24 2 -54z m925 -181 c6 0 154 -83 330 -185 176 -101 419
-242 540 -311 121 -70 220 -131 222 -136 2 -8 -1045 -615 -1072 -621 -12 -3
-15 35 -17 250 l-3 253 -72 40 c-40 22 -73 43 -73 46 0 4 34 26 75 50 l75 43
0 266 0 266 -66 38 c-45 26 -63 41 -54 46 8 5 31 -3 59 -19 25 -14 51 -26 56
-26z m-1905 -13 c0 -10 -34 -49 -75 -86 -67 -61 -75 -65 -75 -43 0 17 18 39
63 78 34 30 64 57 65 61 7 15 22 8 22 -10z m-2222 -387 l502 -290 0 -153 0
-153 -59 33 c-32 18 -288 166 -569 328 l-512 295 0 153 0 154 68 -39 c38 -21
294 -168 570 -328z m2331 134 l71 -41 0 -153 0 -153 -75 41 -75 42 0 51 c0 37
-4 54 -15 58 -11 4 -15 23 -15 80 0 56 4 75 15 80 8 3 15 12 15 21 0 8 2 15 4
15 2 0 36 -18 75 -41z m481 -108 l0 -99 -67 -39 c-38 -21 -71 -39 -75 -41 -5
-2 -8 41 -8 95 l0 99 73 42 c39 23 73 42 75 42 1 0 2 -45 2 -99z m-3640 -99
c0 -82 -3 -99 -17 -108 -10 -6 -44 -25 -75 -43 l-58 -32 0 99 0 100 68 40 c37
22 70 40 75 41 4 1 7 -43 7 -97z m-995 -302 c193 -111 356 -207 363 -212 14
-12 18 -312 4 -306 -5 2 -214 122 -465 267 l-457 265 0 152 0 153 103 -58 c56
-32 260 -149 452 -261z m-675 141 l0 -169 68 -39 c37 -21 67 -43 66 -48 0 -6
-31 -27 -67 -49 l-67 -38 0 -264 0 -264 46 -28 c25 -15 54 -34 64 -42 10 -8
43 -31 75 -50 31 -19 69 -45 84 -56 14 -12 36 -24 49 -28 36 -12 26 -40 -27
-73 l-48 -30 -109 61 c-60 34 -121 70 -136 80 -16 10 -28 14 -28 10 0 -5 -4
-4 -8 2 -4 7 -68 47 -142 89 -582 335 -860 496 -864 503 -4 7 527 319 697 410
44 23 93 54 109 67 16 14 35 25 41 25 7 1 48 23 92 50 44 27 86 49 93 49 9 1
12 -39 12 -168z m6183 2 c-90 -82 -93 -83 -93 -25 0 48 1 50 73 112 l72 63 3
-49 c3 -48 2 -49 -55 -101z m-2775 -130 l-3 -98 -65 -37 c-36 -21 -68 -38 -73
-38 -4 0 -6 44 -5 97 l3 97 65 38 c36 21 69 38 73 38 4 0 6 -44 5 -97z m4478
39 c69 -45 127 -123 145 -195 6 -26 9 -82 7 -125 -6 -90 -35 -156 -95 -214
-31 -30 -485 -300 -778 -464 l-61 -34 -287 154 c-159 84 -292 157 -297 162 -5
5 105 74 268 168 152 88 430 248 617 356 385 223 396 229 411 230 6 0 37 -17
70 -38z m-5201 -500 l310 -179 3 -152 c1 -83 0 -151 -3 -151 -5 0 -250 140
-792 454 l-343 199 0 153 0 153 258 -148 c141 -82 397 -230 567 -329z m2193
216 c21 -11 22 -15 22 -165 l0 -155 -72 41 -73 40 -5 52 -5 53 -65 37 c-35 21
-66 42 -68 47 -2 6 27 27 64 47 36 21 69 46 71 56 5 17 9 16 57 -12 28 -17 61
-35 74 -41z m430 -85 l-3 -97 -65 -38 c-36 -21 -69 -38 -73 -38 -4 0 -6 44 -5
97 l3 97 65 38 c36 21 69 38 73 38 4 0 6 -44 5 -97z m-4067 -10 l29 -17 0
-154 0 -153 -29 17 c-19 12 -31 28 -34 48 -7 49 -9 276 -2 276 4 0 20 -8 36
-17z m429 -82 l0 -99 -69 -41 c-38 -22 -72 -41 -75 -41 -3 0 -6 44 -6 98 l0
97 73 42 c39 23 73 42 75 42 1 1 2 -43 2 -98z m-2672 6 c70 -41 305 -177 522
-302 217 -126 446 -257 508 -292 75 -43 112 -70 112 -81 0 -11 -21 -29 -54
-47 -30 -16 -53 -33 -50 -36 2 -4 87 -55 189 -114 l184 -106 61 35 c34 20 64
36 67 36 3 0 39 -19 80 -41 l75 -41 -61 -36 c-34 -20 -61 -39 -61 -42 0 -3 75
-49 168 -102 92 -53 266 -153 387 -223 121 -70 232 -133 246 -140 24 -13 31
-11 91 24 l64 38 177 -101 c97 -56 176 -105 177 -111 0 -5 -25 -23 -55 -40
-30 -16 -55 -32 -55 -36 0 -4 125 -79 278 -167 274 -158 445 -257 750 -433 86
-50 196 -114 244 -141 l88 -50 77 44 c67 38 563 324 733 423 211 123 645 374
695 402 33 19 63 38 67 41 4 4 -56 43 -132 87 -77 44 -138 84 -137 89 2 5 63
44 137 86 74 43 142 85 150 93 8 7 30 22 48 33 l34 19 138 -73 139 -72 801
460 801 460 154 -83 c85 -45 156 -86 157 -92 3 -10 -198 -133 -221 -134 -16
-1 -77 -36 -106 -61 -11 -10 -31 -21 -44 -25 -13 -4 -706 -401 -1540 -883
-834 -481 -1557 -895 -1606 -918 -247 -117 -558 -144 -830 -70 -178 48 -129
22 -1670 913 -456 264 -864 501 -906 527 -42 25 -82 46 -88 46 -7 0 -283 156
-614 347 -410 237 -616 361 -645 389 -67 67 -86 120 -87 239 0 89 3 105 27
150 14 28 42 65 61 83 35 34 126 99 140 101 4 1 65 -32 135 -72z m5431 -79
c-63 -57 -74 -64 -77 -47 -4 21 6 31 93 106 41 35 51 40 54 26 2 -12 -22 -41
-70 -85z m-3839 -183 c245 -141 447 -261 451 -266 9 -15 11 -299 2 -299 -4 0
-213 119 -463 264 l-455 263 -3 153 c-2 120 0 151 10 147 7 -2 213 -120 458
-262z m548 20 c52 -49 53 -51 50 -99 l-3 -49 -67 57 -68 57 0 56 c0 63 -5 65
88 -22z m2272 -53 c0 -82 -3 -99 -17 -108 -10 -6 -44 -25 -75 -43 l-58 -32 0
99 0 100 68 40 c37 22 70 40 75 41 4 1 7 -43 7 -97z m-1063 -268 c263 -152
517 -299 566 -326 l87 -50 0 -154 0 -153 -32 18 c-639 368 -959 553 -1025 593
l-83 49 0 150 c0 82 2 149 5 149 2 0 219 -124 482 -276z m2485 46 l68 -41 0
-149 c0 -83 -3 -150 -6 -150 -3 0 -37 18 -75 40 l-69 41 0 49 0 49 -75 41
c-41 23 -75 43 -75 45 0 2 34 23 75 47 41 23 75 49 75 56 0 18 8 16 82 -28z
m-1064 -91 c-34 -32 -66 -58 -70 -59 -5 0 -8 10 -7 23 0 14 23 41 67 78 58 49
67 53 70 36 3 -14 -15 -37 -60 -78z m1542 -16 c0 -96 -1 -98 -28 -114 -15 -8
-48 -28 -74 -43 l-48 -28 0 100 0 100 68 40 c37 22 70 41 75 41 4 1 7 -43 7
-96z m-4062 -19 c21 -14 22 -21 22 -165 l0 -151 -32 19 c-33 19 -33 19 -32 99
2 167 4 214 12 214 4 0 18 -7 30 -16z m422 -81 l0 -98 -75 -42 -75 -41 0 98 0
99 68 40 c37 22 70 40 75 41 4 0 7 -44 7 -97z m-777 -133 c5 -4 -19 -24 -53
-45 l-61 -37 -74 43 c-41 23 -73 45 -70 48 3 2 31 19 63 37 l57 33 65 -36 c36
-20 69 -39 73 -43z m2517 -150 l0 -99 -69 -41 c-38 -22 -72 -40 -75 -40 -3 0
-6 44 -6 98 l0 97 73 42 c39 23 73 42 75 42 1 1 2 -44 2 -99z m-922 -350 l511
-295 1 -153 0 -154 -47 27 c-27 14 -283 162 -570 328 l-523 302 0 152 0 153
58 -33 c32 -17 289 -165 570 -327z m922 -367 l0 -98 -75 -42 -75 -42 0 99 0
99 68 40 c37 22 70 40 75 41 4 0 7 -44 7 -97z"/>
<path d="M8917 9229 c7 -7 15 -10 18 -7 3 3 -2 9 -12 12 -14 6 -15 5 -6 -5z"/>
<path d="M8910 9068 c0 -11 38 -10 44 1 3 5 -5 8 -19 7 -14 0 -25 -4 -25 -8z"/>
<path d="M7039 8803 c-51 -131 -56 -149 -48 -170 6 -15 14 -20 28 -16 15 4 21
1 21 -11 0 -10 4 -15 9 -11 6 3 19 -5 30 -17 12 -12 21 -19 21 -15 0 8 120
-70 130 -83 3 -4 22 -13 43 -19 20 -7 35 -16 32 -20 -5 -8 44 -36 58 -33 4 1
8 -4 8 -10 3 -30 17 52 18 105 0 31 6 57 11 57 6 0 10 -5 10 -11 0 -5 5 -7 10
-4 6 4 8 11 5 16 -9 14 9 11 31 -6 21 -16 38 -20 30 -6 -4 5 0 12 6 15 9 3 8
9 -6 20 -11 9 -24 12 -30 8 -6 -4 -23 -9 -38 -11 -20 -2 -28 2 -28 13 0 9 7
16 15 16 8 0 15 -4 15 -8 0 -5 7 -9 17 -9 36 0 -58 60 -299 191 l-88 48 -11
-29z"/>
<path d="M7893 8751 c-330 -205 -324 -202 -360 -195 -42 8 -45 -12 -3 -30 24
-10 28 -15 17 -26 -10 -10 -9 -11 3 -4 8 5 27 9 43 10 22 1 27 -3 27 -22 0
-12 5 -26 10 -29 6 -3 10 -2 10 2 0 5 16 9 35 10 22 1 35 -4 35 -12 0 -7 10
-11 25 -10 14 2 23 -1 20 -5 -3 -5 -12 -7 -19 -4 -8 3 -17 0 -22 -7 -5 -8 -3
-10 7 -4 8 5 11 4 6 -1 -5 -5 -54 -37 -110 -70 l-102 -62 1 -53 c1 -30 2 -121
3 -202 l1 -148 22 15 c19 14 26 13 79 -17 l57 -32 66 35 c103 55 105 57 110
125 l5 60 -19 -37 c-25 -47 -100 -98 -137 -92 -7 1 -22 2 -34 3 -11 0 -17 6
-14 12 4 6 1 10 -6 8 -24 -3 -52 1 -47 7 3 3 -10 21 -28 41 -31 32 -34 41 -31
82 4 54 15 83 28 75 8 -4 13 8 11 27 -2 12 64 67 83 71 11 2 25 8 32 14 18 17
95 5 120 -19 30 -27 56 -99 51 -137 -3 -16 -1 -30 4 -30 4 0 63 31 131 69 196
110 237 135 237 142 0 10 -213 506 -221 513 -2 2 -59 -31 -126 -73z m-336
-217 c-3 -3 -12 -4 -19 -1 -8 3 -5 6 6 6 11 1 17 -2 13 -5z"/>
<path d="M6956 8594 c-7 -18 30 -53 56 -54 9 0 19 -4 22 -9 4 -5 27 -19 54
-32 26 -12 54 -28 62 -35 8 -7 18 -13 22 -14 11 -1 60 -30 135 -77 46 -29 69
-39 74 -31 15 24 11 28 -126 102 -38 21 -74 42 -80 46 -14 11 -205 120 -209
120 -2 0 -7 -7 -10 -16z"/>
<path d="M7355 7900 c-11 -4 -33 -6 -50 -3 -28 4 -26 2 18 -27 26 -18 50 -30
53 -27 3 3 4 18 2 35 -2 25 -6 28 -23 22z"/>
<path d="M11833 7692 l-323 -194 0 -79 0 -78 123 71 c252 146 512 300 520 307
4 5 7 44 5 88 l-3 79 -322 -194z"/>
<path d="M6344 7831 c0 -13 6 -17 19 -13 10 2 16 5 15 6 -2 1 -10 7 -18 13
-13 10 -16 8 -16 -6z"/>
<path d="M6410 7752 c0 -4 10 -13 23 -21 22 -14 22 -14 3 8 -20 22 -26 25 -26
13z"/>
<path d="M2360 7398 c-300 -170 -777 -441 -1060 -600 -283 -159 -519 -293
-523 -298 -5 -4 -7 -30 -5 -57 l3 -50 245 140 c135 76 524 297 865 489 341
193 711 402 823 465 l202 114 0 55 c0 30 -1 54 -2 53 -2 0 -248 -140 -548
-311z"/>
<path d="M12932 6675 l3 -57 320 -180 c475 -267 1767 -998 1793 -1014 22 -14
22 -14 22 40 l0 55 -202 114 c-112 63 -432 244 -713 402 -592 334 -1146 648
-1193 677 l-33 20 3 -57z"/>
<path d="M1214 5861 l-32 -19 -7 -274 c-6 -260 -2 -566 10 -764 l6 -91 -172
-99 c-95 -54 -316 -182 -493 -284 l-321 -186 -3 -46 -3 -46 198 -115 c109 -64
211 -121 226 -128 15 -7 27 -17 26 -23 0 -6 -26 -24 -57 -39 -76 -38 -372
-210 -372 -217 0 -3 33 -23 73 -46 64 -36 386 -221 647 -372 95 -55 525 -303
717 -414 l102 -59 308 179 c170 98 401 232 515 298 114 65 207 121 208 124 0
3 -95 59 -210 125 -115 66 -210 125 -210 130 0 6 56 41 123 79 67 38 165 94
218 125 l97 56 6 410 c4 226 6 502 4 614 l-3 203 -440 254 c-242 139 -494 285
-560 323 -66 38 -218 126 -338 195 -119 69 -221 126 -225 126 -4 0 -21 -9 -38
-19z m123 -202 c135 -62 223 -109 483 -259 146 -84 297 -172 336 -194 40 -23
137 -79 218 -126 80 -47 154 -89 164 -95 10 -5 45 -31 78 -58 59 -46 61 -49
73 -115 13 -66 10 -493 -5 -715 l-5 -88 -32 19 c-18 11 -155 90 -304 177 -150
87 -273 162 -273 167 0 5 -5 6 -12 2 -8 -5 -9 -2 -5 10 4 9 3 14 -2 11 -5 -3
-12 -1 -15 4 -3 5 1 11 9 15 11 4 15 22 15 68 0 35 -4 58 -8 53 -4 -6 -33 -29
-66 -52 l-58 -41 -87 50 c-173 102 -376 223 -381 228 -3 3 -16 10 -29 16 -24
10 -39 57 -16 47 7 -2 15 3 18 11 4 9 3 16 -1 16 -4 0 -5 153 -2 340 4 278 3
340 -8 340 -10 0 -9 4 2 16 9 8 13 20 10 25 -7 11 -32 -3 -116 -68 l-58 -44
-2 -297 c-1 -229 -3 -271 -8 -182 -16 255 -8 750 11 750 5 0 39 -14 76 -31z"/>
<path d="M12925 5104 c-110 -64 -245 -141 -300 -172 -54 -31 -116 -73 -137
-94 -69 -69 -68 -51 -68 -882 l0 -741 23 -27 c12 -14 38 -33 57 -42 19 -9 51
-25 70 -36 38 -21 80 -26 80 -10 0 6 4 10 10 10 15 0 592 339 618 363 13 12
34 40 45 62 22 40 22 44 25 798 2 514 -1 764 -8 777 -14 26 -159 110 -190 110
-14 0 -115 -52 -225 -116z m363 -106 c16 -16 17 -1215 1 -1251 -6 -12 -31 -36
-57 -51 -132 -80 -537 -309 -553 -313 -50 -13 -49 -25 -49 631 0 673 -3 638
62 672 19 10 43 13 66 10 101 -16 314 118 453 283 28 32 56 40 77 19z m-161
-44 c8 -21 -13 -64 -32 -64 -8 0 -16 6 -16 13 -5 49 33 90 48 51z"/>
<path d="M3875 4216 c-49 -29 -169 -100 -265 -157 -96 -57 -203 -122 -236
-145 -65 -43 -67 -52 -27 -92 7 -7 13 -18 13 -23 0 -22 49 -4 165 61 69 39
128 70 132 70 5 0 7 -309 6 -687 -1 -403 2 -703 7 -724 19 -72 57 -98 620
-430 752 -445 777 -459 790 -459 20 0 132 61 156 85 l24 24 0 678 c0 639 -2
680 -19 718 -10 22 -31 52 -47 66 -44 40 -1325 793 -1356 797 -16 2 -28 9 -28
16 0 6 53 41 118 78 64 37 123 72 131 77 11 7 4 19 -33 55 -25 25 -49 46 -54
46 -4 0 -47 -24 -97 -54z m-72 -402 c62 -32 743 -434 984 -581 66 -40 124 -81
127 -89 3 -9 6 -308 6 -664 0 -745 7 -693 -90 -637 -129 73 -990 583 -1040
616 l-55 36 -3 655 c-1 360 0 661 3 668 6 17 30 15 68 -4z m-87 -899 c-3 -9
-14 -15 -23 -13 -20 4 -28 30 -18 55 5 15 8 14 27 -4 13 -13 18 -28 14 -38z"/>
<path d="M11000 4170 c-14 -11 -32 -20 -40 -20 -9 0 -26 -7 -38 -16 -13 -9
-30 -13 -38 -10 -8 3 -17 -1 -20 -9 -4 -8 -15 -15 -25 -15 -10 0 -19 -4 -19
-10 0 -5 -7 -10 -15 -10 -8 0 -15 -3 -15 -7 0 -9 -49 -33 -67 -33 -7 0 -13 -9
-13 -20 0 -13 -7 -20 -18 -20 -20 0 -73 -25 -137 -65 -22 -14 -50 -31 -62 -37
-13 -6 -23 -15 -23 -19 0 -4 -21 -18 -47 -31 -27 -12 -55 -31 -64 -40 -9 -10
-24 -18 -33 -18 -9 0 -19 -7 -22 -15 -4 -8 -17 -15 -30 -15 -15 0 -24 -6 -24
-15 0 -8 -9 -15 -20 -15 -11 0 -20 -4 -20 -9 0 -5 -16 -16 -35 -25 -19 -9 -37
-21 -40 -25 -3 -5 -18 -12 -34 -16 -16 -3 -36 -14 -46 -25 -9 -10 -31 -24 -48
-31 -18 -7 -57 -30 -87 -50 -30 -20 -80 -50 -110 -66 -30 -16 -74 -42 -98 -57
-24 -15 -51 -30 -60 -34 -22 -8 -142 -82 -164 -100 -16 -14 -18 -43 -18 -337
0 -177 3 -451 7 -609 l6 -286 38 -23 c21 -12 122 -69 223 -127 102 -58 185
-109 185 -115 0 -5 -23 -21 -51 -35 -41 -20 -366 -205 -375 -214 -2 -1 52 -33
120 -71 67 -38 151 -87 187 -109 36 -21 85 -50 110 -64 25 -14 173 -99 329
-190 l284 -164 36 21 c20 11 99 57 176 102 77 44 147 85 155 89 47 28 325 189
380 220 36 21 87 50 114 66 52 32 72 43 269 153 72 41 161 92 197 114 36 22
94 56 130 75 36 19 69 38 73 42 8 7 -35 33 -320 198 -45 26 -83 54 -83 62 0
14 118 86 357 219 l82 46 1 45 0 45 -118 68 c-64 37 -124 72 -132 77 -8 5
-150 86 -315 181 -165 94 -321 184 -346 200 -25 16 -53 29 -62 29 -16 0 -17
46 -17 578 l0 578 -35 17 c-44 21 -44 21 -75 -3z m54 -485 c-1 -201 -8 -447
-14 -505 l-7 -55 -1 73 c-2 74 -12 87 -40 50 -7 -10 -20 -18 -28 -18 -8 0 -14
-4 -14 -10 0 -5 -7 -7 -15 -4 -9 4 -15 0 -15 -9 0 -8 -10 -17 -23 -21 -12 -3
-32 -14 -43 -25 -12 -11 -43 -27 -70 -36 -27 -9 -59 -26 -71 -38 -41 -41 -53
-49 -53 -36 0 7 -10 0 -23 -14 -12 -15 -28 -27 -35 -27 -8 0 -10 -5 -6 -12 5
-8 2 -9 -10 -5 -10 4 -19 1 -22 -8 -4 -8 -9 -13 -13 -11 -3 2 -15 -2 -26 -10
-10 -8 -15 -14 -9 -14 5 0 3 -4 -5 -9 -8 -5 -33 -44 -55 -87 l-41 -77 -120
-69 c-66 -38 -148 -86 -183 -105 l-63 -36 44 89 c24 49 42 95 39 103 -3 9 0
11 8 6 9 -6 11 -4 5 5 -6 10 -12 7 -26 -11 -9 -13 -16 -26 -14 -30 2 -3 -2 -6
-10 -6 -8 0 -12 4 -9 9 3 4 0 8 -5 8 -6 0 -11 -10 -11 -22 0 -16 -3 -19 -8
-10 -7 9 -13 8 -27 -8 -10 -11 -22 -17 -26 -14 -5 3 -9 1 -9 -4 0 -5 -27 -22
-59 -39 -33 -17 -57 -34 -54 -37 4 -3 1 -7 -5 -7 -7 -1 -17 -2 -23 -3 -6 0
-17 -10 -25 -20 -8 -11 -14 -16 -14 -11 0 5 -12 -2 -26 -16 -14 -13 -27 -23
-30 -21 -13 8 -44 0 -44 -11 0 -8 -20 -24 -44 -37 -48 -24 -55 -38 -57 -115
-4 -107 -17 203 -20 450 -2 294 6 364 46 385 14 7 25 17 25 22 0 5 5 6 12 2 6
-4 8 -3 4 4 -7 12 42 48 164 117 47 27 129 75 183 107 54 32 100 58 103 58 3
0 18 9 34 20 15 11 95 58 176 104 82 46 221 125 309 177 188 109 232 132 248
126 7 -2 39 11 72 29 l60 34 10 -98 c5 -53 9 -151 9 -217z"/>
<path d="M13140 3223 c-91 -52 -298 -172 -460 -266 -162 -93 -306 -176 -319
-184 -23 -15 -23 -15 35 -49 33 -19 66 -39 74 -44 56 -35 121 -70 130 -70 8 0
189 100 390 216 14 7 148 84 298 170 149 86 272 160 272 164 0 5 -48 36 -107
71 -60 34 -117 68 -128 75 -18 11 -39 2 -185 -83z"/>
<path d="M3620 2172 c-41 -25 -94 -57 -117 -71 l-41 -26 241 -139 c133 -77
424 -245 647 -375 599 -347 571 -332 595 -317 11 7 62 37 113 66 50 30 92 57
92 60 0 3 -76 48 -168 102 -363 209 -993 574 -1107 640 -66 39 -133 78 -150
87 -30 17 -31 16 -105 -27z"/>
<path d="M7450 1695 l0 -54 208 -117 c114 -65 390 -222 615 -350 l407 -233 0
54 0 54 -242 137 c-134 76 -411 233 -615 350 l-373 213 0 -54z"/>
<path d="M3094 1097 c-232 -133 -507 -291 -613 -350 l-191 -108 0 -54 0 -54
373 213 c204 117 481 274 615 350 l242 137 0 55 c0 30 -1 54 -2 53 -2 0 -192
-110 -424 -242z"/>
</g>
</svg>
