<?xml version="1.0" standalone="no"?>
<!DOCTYPE svg PUBLIC "-//W3C//DTD SVG 20010904//EN"
 "http://www.w3.org/TR/2001/REC-SVG-20010904/DTD/svg10.dtd">
<svg version="1.0" xmlns="http://www.w3.org/2000/svg"
 width="1283.000000pt" height="877.000000pt" viewBox="0 0 1283.000000 877.000000"
 preserveAspectRatio="xMidYMid meet">

<g transform="translate(0.000000,877.000000) scale(0.100000,-0.100000)"
fill="#000000" stroke="none">
<path d="M1570 7345 l0 -135 85 0 c78 0 85 2 85 20 0 18 -7 20 -60 20 l-60 0
0 40 0 40 55 0 c48 0 55 2 55 20 0 18 -7 20 -55 20 l-55 0 0 35 0 35 60 0 c53
0 60 2 60 20 0 18 -7 20 -85 20 l-85 0 0 -135z"/>
<path d="M2540 7435 c0 -16 -6 -25 -15 -25 -8 0 -15 -7 -15 -15 0 -8 7 -15 15
-15 12 0 15 -14 15 -69 0 -79 13 -101 62 -101 23 0 29 4 24 16 -3 9 -6 18 -6
20 0 2 -7 4 -15 4 -12 0 -15 14 -15 65 0 58 2 65 20 65 11 0 20 7 20 15 0 8
-9 15 -20 15 -15 0 -20 7 -20 25 0 20 -5 25 -25 25 -20 0 -25 -5 -25 -25z"/>
<path d="M1855 7413 c-23 -6 -55 -32 -55 -45 0 -12 34 -10 47 3 18 18 58 7 61
-17 3 -18 -4 -22 -44 -28 -26 -3 -53 -11 -60 -17 -19 -15 -18 -64 2 -83 20
-21 73 -20 96 1 17 15 18 15 18 0 0 -10 8 -17 20 -17 18 0 20 7 20 79 0 61 -4
83 -17 99 -19 22 -56 32 -88 25z m45 -159 c-16 -19 -59 -18 -66 1 -9 21 12 43
44 47 30 3 42 -23 22 -48z"/>
<path d="M2043 7405 c-64 -28 -51 -86 25 -107 36 -10 47 -18 47 -33 0 -25 -46
-33 -65 -11 -16 20 -50 21 -50 2 0 -56 148 -60 165 -4 12 37 -4 57 -61 74 -41
12 -54 20 -52 32 4 20 46 28 61 13 12 -12 47 -15 47 -3 0 16 -17 31 -43 41
-35 13 -35 13 -74 -4z"/>
<path d="M2712 7405 c-35 -16 -52 -48 -52 -101 0 -49 45 -94 94 -94 101 0 133
157 40 196 -40 17 -41 17 -82 -1z m76 -37 c18 -18 15 -94 -4 -112 -19 -20 -35
-20 -59 -2 -23 17 -27 85 -6 110 16 19 52 21 69 4z"/>
<path d="M3253 7405 c-64 -28 -51 -86 25 -107 36 -10 47 -18 47 -33 0 -25 -46
-33 -65 -11 -16 20 -50 21 -50 2 0 -56 148 -60 165 -4 12 37 -4 57 -61 74 -41
12 -54 20 -52 32 4 20 46 28 61 13 12 -12 47 -15 47 -3 0 16 -17 31 -43 41
-35 13 -35 13 -74 -4z"/>
<path d="M3462 7405 c-34 -15 -52 -47 -52 -95 0 -65 37 -100 105 -100 36 0 81
32 70 50 -9 15 -31 12 -45 -5 -17 -21 -46 -19 -70 5 -33 33 -24 40 55 40 l75
0 -6 28 c-18 75 -67 104 -132 77z m76 -37 c26 -26 13 -38 -38 -38 -54 0 -59 4
-33 32 18 21 53 24 71 6z"/>
<path d="M2236 7313 c39 -108 40 -136 7 -141 -13 -2 -23 -10 -23 -18 0 -19 54
-19 73 0 12 12 97 234 97 252 0 3 -10 4 -22 2 -18 -2 -26 -16 -43 -70 -11 -37
-23 -69 -26 -72 -3 -4 -16 28 -28 69 -19 66 -24 75 -45 75 l-24 0 34 -97z"/>
<path d="M2990 7327 c0 -69 3 -87 18 -100 25 -23 68 -21 92 3 l20 20 0 -20 c0
-13 7 -20 20 -20 19 0 20 7 20 100 0 93 -1 100 -20 100 -18 0 -20 -7 -20 -61
0 -71 -12 -99 -43 -99 -37 0 -47 19 -47 92 0 61 -2 68 -20 68 -18 0 -20 -7
-20 -83z"/>
<path d="M8270 6425 l0 -135 64 0 c36 0 76 4 90 10 54 20 59 97 8 124 -15 9
-22 15 -15 16 18 0 43 30 43 51 0 11 -11 31 -25 44 -21 22 -33 25 -95 25 l-70
0 0 -135z m135 60 c0 -28 -3 -30 -42 -33 l-43 -3 0 36 0 36 43 -3 c39 -3 42
-5 42 -33z m9 -97 c18 -29 -4 -53 -53 -56 l-41 -3 0 41 0 41 41 -3 c27 -2 46
-9 53 -20z"/>
<path d="M8740 6425 c0 -128 1 -135 20 -135 19 0 20 7 20 135 0 128 -1 135
-20 135 -19 0 -20 -7 -20 -135z"/>
<path d="M8575 6493 c-23 -6 -55 -32 -55 -45 0 -12 34 -10 47 3 18 18 58 7 61
-17 3 -18 -4 -22 -44 -28 -26 -3 -53 -11 -60 -17 -19 -15 -18 -64 2 -83 20
-21 73 -20 96 1 17 15 18 15 18 0 0 -10 8 -17 20 -17 18 0 20 7 20 79 0 61 -4
83 -17 99 -19 22 -56 32 -88 25z m45 -159 c-16 -19 -59 -18 -66 1 -9 21 12 43
44 47 30 3 42 -23 22 -48z"/>
<path d="M8885 6493 c-23 -6 -55 -32 -55 -45 0 -12 34 -10 47 3 18 18 58 7 61
-17 3 -18 -4 -22 -44 -28 -26 -3 -53 -11 -60 -17 -19 -15 -18 -64 2 -83 20
-21 73 -20 96 1 17 15 18 15 18 0 0 -10 8 -17 20 -17 18 0 20 7 20 79 0 61 -4
83 -17 99 -19 22 -56 32 -88 25z m45 -159 c-16 -19 -59 -18 -66 1 -9 21 12 43
44 47 30 3 42 -23 22 -48z"/>
<path d="M9125 6488 c-11 -6 -23 -16 -27 -22 -5 -7 -8 -4 -8 7 0 10 -8 17 -20
17 -19 0 -20 -7 -20 -100 0 -93 1 -100 20 -100 18 0 20 7 20 69 0 71 14 101
45 101 31 0 45 -30 45 -101 0 -62 2 -69 20 -69 18 0 20 7 20 83 0 67 -3 87
-17 99 -26 23 -55 29 -78 16z"/>
<path d="M9322 6485 c-48 -21 -67 -91 -41 -148 23 -51 104 -63 144 -22 14 13
25 29 25 35 0 17 -33 11 -57 -12 -19 -18 -27 -20 -47 -10 -52 23 -39 124 16
130 19 2 30 -3 38 -17 11 -21 50 -30 50 -12 0 18 -45 60 -70 65 -14 3 -40 -1
-58 -9z"/>
<path d="M9532 6485 c-34 -15 -52 -47 -52 -95 0 -65 37 -100 105 -100 36 0 81
32 70 50 -9 15 -31 12 -45 -5 -17 -21 -46 -19 -70 5 -33 33 -24 40 55 40 l75
0 -6 28 c-18 75 -67 104 -132 77z m76 -37 c26 -26 13 -38 -38 -38 -54 0 -59 4
-33 32 18 21 53 24 71 6z"/>
<path d="M1988 6182 c-16 -10 -28 -25 -28 -36 0 -17 1 -17 25 -2 13 9 27 16
30 16 3 0 5 -45 5 -100 0 -93 1 -100 20 -100 19 0 20 7 20 120 0 118 0 120
-22 119 -13 0 -35 -8 -50 -17z"/>
<path d="M2149 6174 c-21 -22 -24 -35 -24 -94 0 -59 3 -72 24 -94 33 -35 88
-36 120 -2 40 43 40 157 0 197 -29 29 -89 26 -120 -7z m95 -26 c35 -49 11
-158 -34 -158 -28 0 -50 39 -50 90 0 51 22 90 50 90 10 0 26 -10 34 -22z"/>
<path d="M2369 6174 c-21 -22 -24 -35 -24 -94 0 -59 3 -72 24 -94 33 -35 88
-36 120 -2 40 43 40 157 0 197 -29 29 -89 26 -120 -7z m95 -26 c35 -49 11
-158 -34 -158 -28 0 -50 39 -50 90 0 51 22 90 50 90 10 0 26 -10 34 -22z"/>
<path d="M2640 6185 c0 -11 11 -15 40 -15 l40 0 0 -105 c0 -98 1 -105 20 -105
19 0 20 7 20 105 l0 105 35 0 c24 0 35 5 35 15 0 12 -17 15 -95 15 -78 0 -95
-3 -95 -15z"/>
<path d="M2880 6079 l0 -121 71 4 c55 3 74 8 85 23 21 28 17 71 -6 88 -18 13
-19 16 -5 27 8 7 15 25 15 41 0 40 -32 59 -102 59 l-58 0 0 -121z m108 82 c8
-4 12 -19 10 -32 -2 -20 -10 -25 -40 -27 -37 -3 -38 -3 -38 32 0 33 3 36 28
36 15 0 33 -4 40 -9z m15 -112 c18 -29 1 -49 -43 -49 -39 0 -40 1 -40 36 0 34
1 35 36 32 21 -2 42 -10 47 -19z"/>
<path d="M7028 6182 c-16 -10 -28 -25 -28 -36 0 -17 1 -17 25 -2 13 9 27 16
30 16 3 0 5 -45 5 -100 0 -93 1 -100 20 -100 19 0 20 7 20 120 0 118 0 120
-22 119 -13 0 -35 -8 -50 -17z"/>
<path d="M7189 6174 c-21 -22 -24 -35 -24 -94 0 -59 3 -72 24 -94 33 -35 88
-36 120 -2 40 43 40 157 0 197 -29 29 -89 26 -120 -7z m95 -26 c35 -49 11
-158 -34 -158 -28 0 -50 39 -50 90 0 51 22 90 50 90 10 0 26 -10 34 -22z"/>
<path d="M7409 6174 c-21 -22 -24 -35 -24 -94 0 -59 3 -72 24 -94 33 -35 88
-36 120 -2 40 43 40 157 0 197 -29 29 -89 26 -120 -7z m95 -26 c35 -49 11
-158 -34 -158 -28 0 -50 39 -50 90 0 51 22 90 50 90 10 0 26 -10 34 -22z"/>
<path d="M7680 6185 c0 -9 9 -15 25 -15 16 0 25 6 25 15 0 9 -9 15 -25 15 -16
0 -25 -6 -25 -15z"/>
<path d="M4020 6075 c0 -125 18 -143 22 -22 l3 82 34 -82 c18 -46 37 -83 41
-83 4 0 23 37 41 83 l34 82 3 -82 c4 -121 22 -103 22 22 0 133 -13 136 -60 15
-19 -49 -37 -90 -40 -90 -3 0 -21 41 -40 90 -47 121 -60 118 -60 -15z"/>
<path d="M4295 6105 c-50 -49 -22 -135 43 -135 16 0 37 9 47 20 10 11 13 20 7
20 -6 0 -14 -4 -17 -10 -9 -14 -58 -13 -73 2 -7 7 -12 20 -12 30 0 15 9 18 55
18 48 0 55 2 55 20 0 26 -34 60 -60 60 -12 0 -32 -11 -45 -25z m73 -7 c25 -25
13 -38 -33 -38 -30 0 -45 4 -45 13 0 19 21 37 45 37 12 0 26 -5 33 -12z"/>
<path d="M4452 6050 c1 -83 1 -84 7 -23 7 69 18 86 52 81 22 -3 24 -8 27 -70
2 -38 7 -68 12 -68 5 0 10 30 12 68 l3 67 30 0 30 0 3 -67 c4 -86 22 -89 22
-4 0 45 -5 69 -16 80 -20 20 -48 20 -64 1 -12 -14 -15 -14 -30 0 -21 19 -44
19 -61 -1 -12 -14 -14 -14 -20 3 -4 10 -7 -20 -7 -67z"/>
<path d="M4719 6111 c-18 -14 -24 -29 -24 -61 0 -72 68 -105 113 -57 30 32 29
81 -3 112 -29 30 -55 32 -86 6z m79 -13 c21 -21 15 -85 -9 -102 -51 -35 -101
34 -69 95 12 22 59 26 78 7z"/>
<path d="M4870 6050 c0 -94 18 -108 22 -17 3 53 6 63 26 72 12 5 22 13 22 17
0 13 -18 9 -34 -8 -15 -14 -16 -14 -16 0 0 9 -4 16 -10 16 -6 0 -10 -33 -10
-80z"/>
<path d="M4980 6122 c0 -5 12 -40 26 -78 26 -70 26 -114 -1 -114 -8 0 -15 -5
-15 -11 0 -6 7 -8 16 -5 9 3 18 6 20 6 5 0 11 14 55 133 16 42 25 77 20 77 -5
0 -20 -30 -34 -67 l-25 -68 -16 39 c-9 22 -19 50 -22 63 -6 23 -24 42 -24 25z"/>
<path d="M9761 5673 c-65 -32 -61 117 -61 -2108 l0 -2025 110 0 110 0 0 2025
c0 2231 5 2076 -63 2108 -43 21 -53 21 -96 0z"/>
<path d="M7450 5491 c-125 -40 -281 -136 -394 -243 -56 -52 -68 -69 -59 -79
10 -9 25 0 74 45 155 143 339 244 481 261 47 6 115 -3 161 -21 12 -4 17 -1 17
13 0 43 -175 58 -280 24z"/>
<path d="M1992 3874 c-12 -8 -22 -22 -22 -30 0 -19 36 -18 44 1 7 20 50 19 67
-1 18 -21 0 -48 -35 -52 -33 -4 -35 -32 -2 -32 45 0 61 -50 24 -74 -14 -8 -26
-6 -52 8 -49 26 -67 16 -34 -17 48 -48 135 -31 153 30 4 17 -1 30 -19 48 -19
19 -22 27 -12 32 25 15 27 49 5 76 -24 32 -80 37 -117 11z"/>
<path d="M2257 3853 c-13 -21 -36 -57 -50 -80 -40 -64 -37 -73 28 -73 52 0 55
-1 55 -25 0 -18 5 -25 20 -25 13 0 20 7 20 20 0 11 7 23 15 26 8 4 15 12 15
20 0 8 -7 14 -15 14 -12 0 -15 16 -15 80 0 79 0 80 -25 80 -18 0 -31 -11 -48
-37z m30 -120 c-3 -2 -19 -3 -35 -1 l-31 3 32 51 32 51 3 -49 c2 -28 1 -52 -1
-55z"/>
<path d="M2421 3864 c-12 -15 -21 -31 -21 -35 0 -17 35 -9 48 12 20 31 66 23
70 -14 3 -22 -8 -40 -57 -91 -34 -34 -61 -68 -61 -74 0 -8 27 -12 86 -12 76 0
85 2 82 18 -2 12 -16 18 -52 22 -46 5 -48 6 -31 20 33 27 75 92 75 117 0 62
-99 88 -139 37z"/>
<path d="M2615 3834 c-7 -60 4 -80 35 -68 36 15 48 15 64 -1 19 -19 21 -56 4
-73 -17 -17 -57 -15 -64 3 -8 19 -44 20 -44 1 0 -22 40 -46 78 -46 72 0 108
85 57 135 -26 27 -46 31 -76 14 -19 -10 -20 -8 -17 23 3 32 4 33 56 36 37 2
52 7 52 18 0 11 -15 14 -69 14 l-69 0 -7 -56z"/>
<path d="M7028 3872 c-16 -10 -28 -25 -28 -36 0 -17 1 -17 25 -2 13 9 27 16
30 16 3 0 5 -45 5 -100 0 -93 1 -100 20 -100 19 0 20 7 20 120 0 118 0 120
-22 119 -13 0 -35 -8 -50 -17z"/>
<path d="M7189 3864 c-21 -22 -24 -35 -24 -94 0 -59 3 -72 24 -94 33 -35 88
-36 120 -2 40 43 40 157 0 197 -29 29 -89 26 -120 -7z m95 -26 c35 -49 11
-158 -34 -158 -28 0 -50 39 -50 90 0 51 22 90 50 90 10 0 26 -10 34 -22z"/>
<path d="M7409 3864 c-21 -22 -24 -35 -24 -94 0 -59 3 -72 24 -94 33 -35 88
-36 120 -2 40 43 40 157 0 197 -29 29 -89 26 -120 -7z m95 -26 c35 -49 11
-158 -34 -158 -28 0 -50 39 -50 90 0 51 22 90 50 90 10 0 26 -10 34 -22z"/>
<path d="M7680 3875 c0 -9 9 -15 25 -15 16 0 25 6 25 15 0 9 -9 15 -25 15 -16
0 -25 -6 -25 -15z"/>
<path d="M4020 3765 c0 -125 18 -143 22 -22 l3 82 34 -82 c18 -46 37 -83 41
-83 4 0 23 37 41 83 l34 82 3 -82 c4 -121 22 -103 22 22 0 133 -13 136 -60 15
-19 -49 -37 -90 -40 -90 -3 0 -21 41 -40 90 -47 121 -60 118 -60 -15z"/>
<path d="M4295 3795 c-50 -49 -22 -135 43 -135 16 0 37 9 47 20 10 11 13 20 7
20 -6 0 -14 -4 -17 -10 -9 -14 -58 -13 -73 2 -7 7 -12 20 -12 30 0 15 9 18 55
18 48 0 55 2 55 20 0 26 -34 60 -60 60 -12 0 -32 -11 -45 -25z m73 -7 c25 -25
13 -38 -33 -38 -30 0 -45 4 -45 13 0 19 21 37 45 37 12 0 26 -5 33 -12z"/>
<path d="M4452 3740 c1 -83 1 -84 7 -23 7 69 18 86 52 81 22 -3 24 -8 27 -70
2 -38 7 -68 12 -68 5 0 10 30 12 68 l3 67 30 0 30 0 3 -67 c4 -86 22 -89 22
-4 0 45 -5 69 -16 80 -20 20 -48 20 -64 1 -12 -14 -15 -14 -30 0 -21 19 -44
19 -61 -1 -12 -14 -14 -14 -20 3 -4 10 -7 -20 -7 -67z"/>
<path d="M4719 3801 c-18 -14 -24 -29 -24 -61 0 -72 68 -105 113 -57 30 32 29
81 -3 112 -29 30 -55 32 -86 6z m79 -13 c21 -21 15 -85 -9 -102 -51 -35 -101
34 -69 95 12 22 59 26 78 7z"/>
<path d="M4870 3740 c0 -94 18 -108 22 -17 3 53 6 63 26 72 12 5 22 13 22 17
0 13 -18 9 -34 -8 -15 -14 -16 -14 -16 0 0 9 -4 16 -10 16 -6 0 -10 -33 -10
-80z"/>
<path d="M4980 3812 c0 -5 12 -40 26 -78 26 -70 26 -114 -1 -114 -8 0 -15 -5
-15 -11 0 -6 7 -8 16 -5 9 3 18 6 20 6 5 0 11 14 55 133 16 42 25 77 20 77 -5
0 -20 -30 -34 -67 l-25 -68 -16 39 c-9 22 -19 50 -22 63 -6 23 -24 42 -24 25z"/>
<path d="M7443 3176 c-89 -29 -187 -82 -278 -150 -135 -102 -196 -166 -156
-166 4 0 39 27 77 61 213 188 443 280 589 235 53 -16 61 -15 52 8 -16 41 -174
47 -284 12z"/>
</g>
</svg>
