<?xml version="1.0" standalone="no"?>
<!DOCTYPE svg PUBLIC "-//W3C//DTD SVG 20010904//EN"
 "http://www.w3.org/TR/2001/REC-SVG-20010904/DTD/svg10.dtd">
<svg version="1.0" xmlns="http://www.w3.org/2000/svg"
 width="1225.000000pt" height="788.000000pt" viewBox="0 0 1225.000000 788.000000"
 preserveAspectRatio="xMidYMid meet">

<g transform="translate(0.000000,788.000000) scale(0.100000,-0.100000)"
fill="#000000" stroke="none">
<path d="M146 7862 c-2 -4 -1 -14 4 -22 7 -11 12 -12 21 -3 6 6 8 16 5 22 -8
13 -23 14 -30 3z"/>
<path d="M350 7849 c0 -12 5 -19 12 -17 18 6 20 25 3 31 -10 5 -15 0 -15 -14z"/>
<path d="M546 7862 c-2 -4 -1 -14 4 -22 7 -11 12 -12 21 -3 6 6 8 16 5 22 -8
13 -23 14 -30 3z"/>
<path d="M763 7862 c-7 -4 -8 -13 -4 -20 6 -10 10 -10 20 2 13 16 2 29 -16 18z"/>
<path d="M955 7860 c-7 -11 2 -30 15 -30 4 0 10 6 13 14 6 16 -19 30 -28 16z"/>
<path d="M1163 7862 c-7 -4 -8 -13 -4 -20 6 -10 10 -10 20 2 13 16 2 29 -16
18z"/>
<path d="M1356 7862 c-2 -4 0 -14 5 -22 8 -13 10 -13 18 0 10 15 6 30 -9 30
-5 0 -11 -4 -14 -8z"/>
<path d="M1563 7862 c-8 -5 -9 -13 -3 -22 7 -12 12 -12 22 -2 14 14 -1 35 -19
24z"/>
<path d="M1756 7862 c-2 -4 0 -14 5 -22 8 -13 10 -13 18 0 10 15 6 30 -9 30
-5 0 -11 -4 -14 -8z"/>
<path d="M1963 7862 c-8 -5 -9 -13 -3 -22 7 -12 12 -12 22 -2 14 14 -1 35 -19
24z"/>
<path d="M2165 7860 c-8 -12 2 -30 17 -30 6 0 6 6 -2 15 -11 13 -10 14 5 9 13
-5 16 -4 11 4 -9 15 -23 15 -31 2z"/>
<path d="M2367 7855 c-8 -19 13 -31 23 -14 9 14 4 29 -10 29 -4 0 -10 -7 -13
-15z"/>
<path d="M2565 7860 c-8 -12 2 -30 17 -30 6 0 6 6 -2 15 -11 13 -10 14 5 9 13
-5 16 -4 11 4 -9 15 -23 15 -31 2z"/>
<path d="M2764 7859 c-5 -9 -2 -10 11 -5 16 6 16 4 4 -10 -12 -15 -12 -17 1
-12 18 6 20 30 3 35 -6 2 -15 -1 -19 -8z"/>
<path d="M2966 7862 c-2 -4 -1 -14 4 -21 10 -17 31 -5 23 14 -6 16 -19 20 -27
7z"/>
<path d="M3164 7859 c-5 -9 -2 -10 11 -5 16 6 16 4 4 -10 -12 -15 -12 -17 1
-12 18 6 20 30 3 35 -6 2 -15 -1 -19 -8z"/>
<path d="M3366 7862 c-2 -4 -1 -14 4 -21 10 -17 31 -5 23 14 -6 16 -19 20 -27
7z"/>
<path d="M3576 7862 c-2 -4 0 -14 5 -22 8 -13 10 -13 18 0 10 15 6 30 -9 30
-5 0 -11 -4 -14 -8z"/>
<path d="M3775 7860 c-7 -11 2 -30 15 -30 4 0 10 6 13 14 6 16 -19 30 -28 16z"/>
<path d="M3976 7862 c-2 -4 0 -14 5 -22 8 -13 10 -13 18 0 10 15 6 30 -9 30
-5 0 -11 -4 -14 -8z"/>
<path d="M4175 7860 c-7 -11 2 -30 15 -30 4 0 10 6 13 14 6 16 -19 30 -28 16z"/>
<path d="M4383 7862 c-8 -5 -9 -13 -3 -22 7 -12 12 -12 22 -2 14 14 -1 35 -19
24z"/>
<path d="M4575 7861 c-2 -5 1 -14 9 -20 10 -9 15 -8 19 3 6 15 -19 31 -28 17z"/>
<path d="M4783 7862 c-8 -5 -9 -13 -3 -22 7 -12 12 -12 22 -2 14 14 -1 35 -19
24z"/>
<path d="M4990 7860 c-12 -7 -12 -12 -3 -21 15 -15 26 -7 21 15 -2 11 -7 13
-18 6z"/>
<path d="M5184 7859 c-3 -6 -1 -16 5 -22 9 -9 14 -8 21 3 9 15 4 30 -10 30 -5
0 -12 -5 -16 -11z"/>
<path d="M5390 7860 c-12 -7 -12 -12 -3 -21 15 -15 26 -7 21 15 -2 11 -7 13
-18 6z"/>
<path d="M5584 7859 c-3 -6 -1 -16 5 -22 9 -9 14 -8 21 3 9 15 4 30 -10 30 -5
0 -12 -5 -16 -11z"/>
<path d="M5790 7849 c0 -12 5 -19 12 -17 18 6 20 25 3 31 -10 5 -15 0 -15 -14z"/>
<path d="M5986 7862 c-2 -4 -1 -14 4 -22 7 -11 12 -12 21 -3 6 6 8 16 5 22 -8
13 -23 14 -30 3z"/>
<path d="M145 7571 c-3 -6 -1 -11 5 -11 6 0 8 -5 4 -11 -4 -7 -1 -10 7 -7 17
6 19 30 2 35 -6 2 -14 -1 -18 -6z"/>
<path d="M346 7572 c-2 -4 -1 -14 4 -22 7 -11 12 -12 21 -3 6 6 8 16 5 22 -8
13 -23 14 -30 3z"/>
<path d="M554 7566 c-8 -22 3 -33 18 -18 9 9 9 15 0 24 -9 9 -13 7 -18 -6z"/>
<path d="M761 7570 c-14 -8 -7 -30 9 -30 11 0 21 28 12 34 -5 3 -14 1 -21 -4z"/>
<path d="M954 7569 c-3 -6 0 -15 7 -20 14 -8 32 9 23 23 -7 11 -22 10 -30 -3z"/>
<path d="M1155 7570 c-7 -12 2 -30 16 -30 5 0 9 9 9 20 0 21 -15 27 -25 10z"/>
<path d="M1356 7572 c-2 -4 -1 -14 4 -22 7 -11 12 -12 21 -3 6 6 8 16 5 22 -8
13 -23 14 -30 3z"/>
<path d="M1556 7572 c-2 -4 -1 -14 4 -22 7 -11 12 -12 21 -3 6 6 8 16 5 22 -8
13 -23 14 -30 3z"/>
<path d="M1756 7572 c-2 -4 -1 -14 4 -22 7 -11 12 -12 21 -3 6 6 8 16 5 22 -8
13 -23 14 -30 3z"/>
<path d="M1956 7572 c-2 -4 -1 -14 4 -22 7 -11 12 -12 21 -3 6 6 8 16 5 22 -8
13 -23 14 -30 3z"/>
<path d="M2164 7569 c-3 -6 0 -15 7 -20 14 -8 32 9 23 23 -7 11 -22 10 -30 -3z"/>
<path d="M2364 7569 c-3 -6 -1 -16 5 -22 9 -9 14 -8 21 3 9 15 4 30 -10 30 -5
0 -12 -5 -16 -11z"/>
<path d="M2564 7569 c-3 -6 0 -15 7 -20 14 -8 32 9 23 23 -7 11 -22 10 -30 -3z"/>
<path d="M2766 7572 c-9 -14 9 -31 23 -23 7 5 10 14 7 20 -8 13 -23 14 -30 3z"/>
<path d="M2966 7572 c-2 -4 -1 -14 4 -22 7 -11 12 -12 21 -3 6 6 8 16 5 22 -8
13 -23 14 -30 3z"/>
<path d="M3166 7572 c-9 -14 9 -31 23 -23 7 5 10 14 7 20 -8 13 -23 14 -30 3z"/>
<path d="M3366 7572 c-2 -4 -1 -14 4 -22 7 -11 12 -12 21 -3 6 6 8 16 5 22 -8
13 -23 14 -30 3z"/>
<path d="M3574 7569 c-3 -6 -1 -16 5 -22 9 -9 14 -8 21 3 9 15 4 30 -10 30 -5
0 -12 -5 -16 -11z"/>
<path d="M3774 7569 c-3 -6 -1 -16 5 -22 9 -9 14 -8 21 3 9 15 4 30 -10 30 -5
0 -12 -5 -16 -11z"/>
<path d="M3974 7569 c-3 -6 -1 -16 5 -22 9 -9 14 -8 21 3 9 15 4 30 -10 30 -5
0 -12 -5 -16 -11z"/>
<path d="M4174 7569 c-3 -6 -1 -16 5 -22 9 -9 14 -8 21 3 9 15 4 30 -10 30 -5
0 -12 -5 -16 -11z"/>
<path d="M4376 7572 c-9 -14 9 -31 23 -23 7 5 10 14 7 20 -8 13 -23 14 -30 3z"/>
<path d="M4576 7572 c-2 -4 -1 -14 4 -22 7 -11 12 -12 21 -3 6 6 8 16 5 22 -8
13 -23 14 -30 3z"/>
<path d="M4776 7572 c-9 -14 9 -31 23 -23 7 5 10 14 7 20 -8 13 -23 14 -30 3z"/>
<path d="M4991 7570 c-14 -8 -7 -30 9 -30 11 0 21 28 12 34 -5 3 -14 1 -21 -4z"/>
<path d="M5184 7569 c-3 -6 -1 -16 5 -22 9 -9 14 -8 21 3 9 15 4 30 -10 30 -5
0 -12 -5 -16 -11z"/>
<path d="M5391 7570 c-14 -8 -7 -30 9 -30 11 0 21 28 12 34 -5 3 -14 1 -21 -4z"/>
<path d="M5584 7569 c-3 -6 -1 -16 5 -22 9 -9 14 -8 21 3 9 15 4 30 -10 30 -5
0 -12 -5 -16 -11z"/>
<path d="M5786 7572 c-8 -13 11 -35 23 -28 6 4 11 11 11 16 0 11 -28 21 -34
12z"/>
<path d="M5986 7572 c-2 -4 -1 -14 4 -22 7 -11 12 -12 21 -3 6 6 8 16 5 22 -8
13 -23 14 -30 3z"/>
<path d="M152 7281 c-10 -6 -10 -10 2 -20 16 -13 29 -2 18 16 -4 7 -13 8 -20
4z"/>
<path d="M350 7270 c0 -13 5 -20 13 -17 6 2 12 10 12 17 0 7 -6 15 -12 18 -8
2 -13 -5 -13 -18z"/>
<path d="M546 7282 c-2 -4 -1 -14 4 -22 7 -11 12 -12 21 -3 6 6 8 16 5 22 -8
13 -23 14 -30 3z"/>
<path d="M146 6992 c-2 -4 -1 -14 4 -21 10 -17 31 -5 23 14 -6 16 -19 20 -27
7z"/>
<path d="M346 6992 c-2 -4 -1 -14 4 -22 7 -11 12 -12 21 -3 6 6 8 16 5 22 -8
13 -23 14 -30 3z"/>
<path d="M546 6992 c-2 -4 -1 -14 4 -22 7 -11 12 -12 21 -3 6 6 8 16 5 22 -8
13 -23 14 -30 3z"/>
<path d="M1406 6839 c-43 -12 -66 -38 -66 -74 0 -39 12 -51 80 -73 29 -9 58
-24 63 -34 27 -42 -66 -69 -100 -28 -20 23 -53 27 -53 6 0 -34 36 -59 92 -64
47 -4 58 -1 82 20 56 48 30 108 -60 134 -61 17 -76 40 -44 66 28 23 42 23 73
-2 26 -21 57 -27 57 -11 0 18 -36 52 -65 60 -16 4 -43 4 -59 0z"/>
<path d="M2630 6705 l0 -135 25 0 c23 0 25 3 25 50 0 47 2 50 25 50 20 0 30
-10 50 -50 20 -40 30 -50 50 -50 14 0 25 2 25 4 0 2 -12 24 -26 50 l-26 46 21
26 c31 39 28 97 -5 123 -21 17 -41 21 -95 21 l-69 0 0 -135z m140 76 c5 -11
10 -24 10 -30 0 -20 -33 -41 -66 -41 -34 0 -34 0 -34 45 l0 45 40 0 c29 0 42
-5 50 -19z"/>
<path d="M4000 6795 c0 -16 -6 -25 -15 -25 -8 0 -15 -7 -15 -15 0 -8 7 -15 15
-15 12 0 15 -14 15 -69 0 -79 13 -101 62 -101 23 0 29 4 24 16 -3 9 -6 18 -6
20 0 2 -7 4 -15 4 -12 0 -15 14 -15 65 0 58 2 65 20 65 11 0 20 7 20 15 0 8
-9 15 -20 15 -15 0 -20 7 -20 25 0 20 -5 25 -25 25 -20 0 -25 -5 -25 -25z"/>
<path d="M1622 6765 c-34 -15 -52 -47 -52 -95 0 -65 37 -100 105 -100 36 0 81
32 70 50 -9 15 -31 12 -45 -5 -17 -21 -46 -19 -70 5 -33 33 -24 40 55 40 l75
0 -6 28 c-18 75 -67 104 -132 77z m76 -37 c26 -26 13 -38 -38 -38 -54 0 -59 4
-33 32 18 21 53 24 71 6z"/>
<path d="M1880 6773 c-8 -3 -21 -12 -27 -21 -12 -14 -13 -14 -13 1 0 10 -8 17
-20 17 -19 0 -20 -7 -20 -100 0 -93 1 -100 20 -100 17 0 19 8 22 73 3 70 4 72
35 87 18 8 33 23 33 33 0 18 -4 19 -30 10z"/>
<path d="M2212 6765 c-34 -15 -52 -47 -52 -95 0 -65 37 -100 105 -100 36 0 81
32 70 50 -9 15 -31 12 -45 -5 -17 -21 -46 -19 -70 5 -33 33 -24 40 55 40 l75
0 -6 28 c-18 75 -67 104 -132 77z m76 -37 c26 -26 13 -38 -38 -38 -54 0 -59 4
-33 32 18 21 53 24 71 6z"/>
<path d="M2470 6773 c-8 -3 -21 -12 -27 -21 -12 -14 -13 -14 -13 1 0 10 -8 17
-20 17 -19 0 -20 -7 -20 -100 0 -93 1 -100 20 -100 17 0 19 8 22 73 3 70 4 72
35 87 18 8 33 23 33 33 0 18 -4 19 -30 10z"/>
<path d="M2912 6765 c-34 -15 -52 -47 -52 -95 0 -65 37 -100 105 -100 36 0 81
32 70 50 -9 15 -31 12 -45 -5 -17 -21 -46 -19 -70 5 -33 33 -24 40 55 40 l75
0 -6 28 c-18 75 -67 104 -132 77z m76 -37 c26 -26 13 -38 -38 -38 -54 0 -59 4
-33 32 18 21 53 24 71 6z"/>
<path d="M3143 6770 c-38 -16 -56 -54 -51 -112 4 -38 12 -57 28 -70 28 -22 68
-23 92 -1 17 15 18 14 18 -40 0 -54 1 -57 25 -57 l25 0 0 140 0 140 -25 0
c-17 0 -25 -6 -25 -17 0 -15 -1 -15 -12 -1 -17 21 -48 29 -75 18z m71 -46 c9
-9 16 -32 16 -54 0 -30 -5 -43 -24 -55 -31 -20 -53 -11 -66 29 -22 68 30 125
74 80z"/>
<path d="M3602 6765 c-34 -15 -52 -47 -52 -95 0 -65 37 -100 105 -100 36 0 81
32 70 50 -9 15 -31 12 -45 -5 -17 -21 -46 -19 -70 5 -33 33 -24 40 55 40 l75
0 -6 28 c-18 75 -67 104 -132 77z m76 -37 c26 -26 13 -38 -38 -38 -54 0 -59 4
-33 32 18 21 53 24 71 6z"/>
<path d="M3813 6765 c-64 -28 -51 -86 25 -107 36 -10 47 -18 47 -33 0 -25 -46
-33 -65 -11 -16 20 -50 21 -50 2 0 -56 148 -60 165 -4 12 37 -4 57 -61 74 -41
12 -54 20 -52 32 4 20 46 28 61 13 12 -12 47 -15 47 -3 0 16 -17 31 -43 41
-35 13 -35 13 -74 -4z"/>
<path d="M1978 6669 c33 -94 36 -100 60 -97 23 3 30 14 58 93 40 109 39 107
12 103 -18 -2 -26 -16 -43 -70 -12 -37 -23 -70 -26 -72 -3 -3 -15 28 -27 69
-19 66 -25 75 -45 75 l-24 0 35 -101z"/>
<path d="M3330 6687 c0 -69 3 -87 18 -100 25 -23 68 -21 92 3 l20 20 0 -20 c0
-13 7 -20 20 -20 19 0 20 7 20 100 0 93 -1 100 -20 100 -18 0 -20 -7 -20 -61
0 -71 -12 -99 -43 -99 -37 0 -47 19 -47 92 0 61 -2 68 -20 68 -18 0 -20 -7
-20 -83z"/>
<path d="M7392 6725 c-75 -33 -73 -139 3 -171 33 -14 40 -13 73 3 110 54 36
216 -76 168z"/>
<path d="M7650 6704 c0 -27 43 -145 52 -142 6 2 17 25 25 51 7 26 16 47 18 47
2 0 11 -21 18 -47 8 -26 19 -49 25 -51 6 -2 18 22 27 55 9 32 19 66 22 77 3
12 1 17 -8 14 -7 -2 -19 -26 -25 -52 -7 -26 -15 -50 -17 -53 -3 -2 -11 21 -18
51 -7 31 -18 56 -25 56 -6 0 -18 -26 -27 -57 -15 -60 -18 -59 -37 15 -6 23
-15 42 -20 42 -6 0 -10 -3 -10 -6z"/>
<path d="M7980 6635 c0 -43 4 -75 10 -75 6 0 10 5 10 11 0 8 4 8 15 -1 37 -31
79 26 56 77 -9 21 -17 24 -41 21 -26 -4 -30 -1 -30 19 0 13 -4 23 -10 23 -6 0
-10 -32 -10 -75z m75 -5 c9 -28 -5 -51 -29 -48 -13 2 -22 12 -24 26 -7 46 39
65 53 22z"/>
<path d="M8878 6699 c-22 -12 -24 -31 -3 -23 12 5 15 -5 15 -55 0 -34 4 -61
10 -61 6 0 10 32 10 75 0 77 -2 82 -32 64z"/>
<path d="M9575 6689 c5 -13 14 -46 21 -73 7 -26 15 -50 18 -53 11 -11 24 9 35
53 13 52 22 49 40 -14 7 -24 17 -42 23 -40 14 5 52 137 43 146 -9 10 -23 -18
-30 -60 -9 -52 -21 -48 -35 12 -7 28 -18 50 -24 50 -7 0 -18 -25 -25 -56 -7
-30 -15 -53 -18 -51 -2 3 -10 27 -17 53 -6 26 -18 50 -25 52 -10 3 -11 -2 -6
-19z"/>
<path d="M9900 6635 c0 -43 4 -75 10 -75 6 0 10 5 10 10 0 6 8 5 20 -2 28 -18
54 1 58 41 4 43 -14 64 -50 57 -25 -5 -28 -3 -28 19 0 14 -4 25 -10 25 -6 0
-10 -32 -10 -75z m70 11 c6 -8 10 -25 8 -38 -2 -17 -10 -23 -28 -23 -18 0 -26
6 -28 23 -3 22 13 52 28 52 4 0 13 -7 20 -14z"/>
<path d="M10096 6694 c-27 -27 -17 -45 37 -68 22 -9 37 -21 35 -28 -6 -18 -46
-22 -64 -7 -8 6 -18 9 -22 5 -9 -10 27 -36 51 -36 29 0 57 19 57 39 0 23 -16
37 -53 46 -35 9 -38 45 -4 45 13 0 28 -5 35 -12 6 -6 14 -9 17 -6 11 10 -26
38 -50 38 -13 0 -31 -7 -39 -16z"/>
<path d="M10810 6695 c-16 -19 -5 -34 12 -17 17 17 45 15 52 -3 3 -10 -9 -32
-34 -59 -22 -24 -40 -46 -40 -50 0 -3 23 -6 50 -6 28 0 50 5 50 10 0 6 -13 10
-30 10 -16 0 -30 3 -30 6 0 4 14 22 30 41 34 39 36 46 14 67 -20 20 -58 21
-74 1z"/>
<path d="M153 6692 c-8 -5 -9 -13 -3 -22 7 -12 12 -12 22 -2 14 14 -1 35 -19
24z"/>
<path d="M346 6692 c-2 -4 -1 -14 4 -22 7 -11 12 -12 21 -3 6 6 8 16 5 22 -8
13 -23 14 -30 3z"/>
<path d="M546 6692 c-2 -4 -1 -14 4 -22 7 -11 12 -12 21 -3 6 6 8 16 5 22 -8
13 -23 14 -30 3z"/>
<path d="M7860 6651 c-14 -28 -12 -57 6 -75 20 -20 58 -21 74 -1 10 13 7 14
-25 12 -23 -1 -40 3 -42 11 -3 8 8 12 36 12 42 0 48 8 31 41 -7 12 -21 19 -40
19 -19 0 -33 -7 -40 -19z m60 -6 c10 -12 9 -16 -4 -21 -9 -3 -23 -3 -32 0 -13
5 -14 9 -4 21 7 8 16 15 20 15 4 0 13 -7 20 -15z"/>
<path d="M8164 6655 c-9 -23 2 -43 27 -47 12 -2 25 -9 27 -17 4 -11 -2 -13
-27 -8 -18 4 -31 2 -31 -4 0 -15 27 -22 55 -15 36 9 33 44 -5 57 -16 6 -30 15
-30 19 0 16 21 22 35 10 13 -11 30 1 18 14 -13 12 -64 6 -69 -9z"/>
<path d="M8280 6651 c-14 -28 -12 -57 6 -75 20 -20 58 -21 74 -1 10 13 7 14
-25 12 -23 -1 -40 3 -42 11 -3 8 8 12 36 12 42 0 48 8 31 41 -7 12 -21 19 -40
19 -19 0 -33 -7 -40 -19z m60 -6 c10 -12 9 -16 -4 -21 -9 -3 -23 -3 -32 0 -13
5 -14 9 -4 21 7 8 16 15 20 15 4 0 13 -7 20 -15z"/>
<path d="M8400 6613 c0 -29 5 -53 10 -53 6 0 10 18 10 41 0 32 4 42 20 46 30
8 24 22 -10 21 -29 -1 -30 -2 -30 -55z"/>
<path d="M8480 6664 c0 -23 37 -104 47 -104 7 0 13 1 13 3 0 1 9 26 20 55 16
43 17 52 5 52 -8 0 -17 -14 -21 -35 -9 -49 -19 -51 -33 -5 -6 22 -16 40 -21
40 -6 0 -10 -3 -10 -6z"/>
<path d="M8611 6656 c-17 -20 -10 -77 10 -89 18 -11 69 -2 69 13 0 5 -13 7
-28 4 -19 -4 -32 -1 -41 10 -12 14 -9 16 28 16 33 0 41 4 41 18 0 39 -55 58
-79 28z m59 -22 c0 -8 -10 -14 -25 -14 -26 0 -35 25 -12 33 18 6 37 -3 37 -19z"/>
<path d="M8720 6613 c0 -29 5 -53 10 -53 6 0 10 13 10 29 0 39 9 61 26 61 8 0
14 4 14 8 0 5 -13 9 -30 9 -30 0 -30 -1 -30 -54z"/>
<path d="M9786 6654 c-34 -33 -9 -94 38 -94 13 0 29 7 36 15 10 12 6 13 -23 8
-26 -4 -36 -1 -40 11 -5 13 1 16 33 16 32 0 40 4 40 18 0 40 -54 57 -84 26z
m53 -3 c17 -11 6 -31 -18 -31 -25 0 -33 11 -20 27 13 15 19 16 38 4z"/>
<path d="M10231 6656 c-17 -20 -10 -77 10 -89 18 -11 69 -2 69 13 0 5 -13 7
-28 4 -19 -4 -32 -1 -41 10 -12 14 -9 16 28 16 33 0 41 4 41 18 0 39 -55 58
-79 28z m59 -22 c0 -8 -10 -14 -25 -14 -26 0 -35 25 -12 33 18 6 37 -3 37 -19z"/>
<path d="M10340 6613 c0 -29 5 -53 10 -53 6 0 10 18 10 41 0 32 4 42 20 46 30
8 24 22 -10 21 -29 -1 -30 -2 -30 -55z"/>
<path d="M10439 6618 c23 -67 43 -73 60 -17 7 22 15 47 18 55 3 8 0 14 -6 14
-5 0 -16 -18 -22 -40 -14 -46 -25 -44 -35 5 -3 19 -12 35 -20 35 -10 0 -9 -11
5 -52z"/>
<path d="M10550 6651 c-14 -28 -12 -57 6 -75 20 -20 58 -21 74 -1 10 13 7 14
-25 12 -23 -1 -40 3 -42 11 -3 8 8 12 36 12 42 0 48 8 31 41 -7 12 -21 19 -40
19 -19 0 -33 -7 -40 -19z m60 -6 c10 -12 9 -16 -4 -21 -9 -3 -23 -3 -32 0 -13
5 -14 9 -4 21 7 8 16 15 20 15 4 0 13 -7 20 -15z"/>
<path d="M10670 6614 c0 -30 5 -54 10 -54 6 0 10 18 10 40 0 27 5 43 15 46 23
9 18 22 -10 22 -24 0 -25 -4 -25 -54z"/>
<path d="M1358 6059 c-22 -12 -24 -31 -3 -23 12 5 15 -5 15 -55 0 -48 3 -61
15 -61 12 0 15 15 15 75 0 78 -5 86 -42 64z"/>
<path d="M1462 6062 c-19 -13 -30 -63 -20 -99 9 -36 48 -54 77 -36 25 16 36
75 20 109 -15 30 -51 42 -77 26z m53 -67 c0 -41 -3 -50 -19 -53 -22 -5 -36 14
-36 50 0 42 10 59 34 56 18 -3 21 -10 21 -53z"/>
<path d="M1602 6062 c-19 -13 -30 -63 -20 -99 9 -36 48 -54 77 -36 25 16 36
75 20 109 -15 30 -51 42 -77 26z m53 -67 c0 -41 -3 -50 -19 -53 -22 -5 -36 14
-36 50 0 42 10 59 34 56 18 -3 21 -10 21 -53z"/>
<path d="M1460 5230 c0 -5 16 -10 35 -10 19 0 35 -2 35 -5 0 -3 -14 -32 -30
-65 -20 -40 -26 -60 -17 -60 12 0 77 118 77 140 0 6 -22 10 -50 10 -27 0 -50
-4 -50 -10z"/>
<path d="M1597 5233 c-4 -3 -7 -21 -7 -40 0 -31 2 -33 33 -31 28 3 32 0 35
-24 3 -22 -1 -28 -15 -28 -11 0 -24 5 -31 12 -17 17 -28 2 -12 -17 26 -31 90
-5 90 37 0 25 -36 51 -60 43 -18 -6 -21 -3 -18 12 2 12 14 19 36 21 17 2 32 7
32 13 0 10 -73 13 -83 2z"/>
<path d="M10085 4589 c-167 -13 -322 -60 -489 -146 -77 -40 -109 -65 -201
-158 -113 -113 -128 -135 -302 -432 -72 -123 -147 -207 -208 -234 -123 -54
-299 -51 -600 10 -268 54 -360 65 -485 58 -175 -9 -269 -43 -413 -150 -126
-93 -197 -158 -219 -202 l-21 -40 24 20 c13 11 51 44 84 74 169 153 305 231
449 256 152 26 240 19 566 -48 193 -39 215 -42 375 -42 153 0 176 3 226 23
106 43 163 107 300 344 40 67 94 157 122 198 61 91 193 223 270 268 85 51 227
109 335 138 132 35 355 44 487 20 122 -23 253 -68 354 -122 77 -40 101 -46
101 -24 0 13 -188 105 -273 134 -149 49 -319 69 -482 55z"/>
<path d="M1457 4403 c-4 -3 -7 -21 -7 -40 0 -31 2 -33 33 -31 28 3 32 0 35
-24 3 -22 -1 -28 -15 -28 -11 0 -24 5 -31 12 -17 17 -28 2 -12 -17 26 -31 90
-5 90 37 0 25 -36 51 -60 43 -18 -6 -21 -3 -18 12 2 12 14 19 36 21 17 2 32 7
32 13 0 10 -73 13 -83 2z"/>
<path d="M1602 4402 c-19 -13 -30 -63 -20 -99 9 -36 48 -54 77 -36 25 16 36
75 20 109 -15 30 -51 42 -77 26z m53 -67 c0 -41 -3 -50 -19 -53 -22 -5 -36 14
-36 50 0 42 10 59 34 56 18 -3 21 -10 21 -53z"/>
<path d="M1473 3563 c-15 -6 -17 -33 -3 -33 6 0 10 5 10 10 0 16 40 11 47 -6
4 -10 -9 -30 -36 -58 -22 -23 -41 -45 -41 -49 0 -4 25 -7 55 -7 30 0 55 5 55
10 0 6 -17 10 -37 10 l-37 0 32 33 c33 34 40 65 20 85 -12 12 -43 15 -65 5z"/>
<path d="M1597 3563 c-4 -3 -7 -21 -7 -40 0 -31 2 -33 33 -31 28 3 32 0 35
-24 3 -22 -1 -28 -15 -28 -11 0 -24 5 -31 12 -17 17 -28 2 -12 -17 26 -31 90
-5 90 37 0 25 -36 51 -60 43 -18 -6 -21 -3 -18 12 2 12 14 19 36 21 17 2 32 7
32 13 0 10 -73 13 -83 2z"/>
<path d="M5189 3367 c-125 -36 -235 -146 -385 -390 -48 -77 -119 -235 -111
-244 2 -1 30 43 62 100 96 165 208 327 275 396 84 85 146 114 254 115 122 1
208 -25 395 -121 91 -45 166 -81 168 -80 1 2 -12 17 -30 35 -39 38 -224 131
-331 167 -95 32 -228 42 -297 22z"/>
<path d="M7025 3224 c-370 -335 -571 -369 -970 -165 -139 71 -135 70 -100 31
37 -40 176 -111 298 -152 165 -56 327 -49 461 19 125 63 304 205 340 269 14
24 24 44 23 44 -1 -1 -24 -21 -52 -46z"/>
<path d="M1498 2729 c-22 -12 -24 -31 -3 -23 12 5 15 -5 15 -55 0 -48 3 -61
15 -61 12 0 15 15 15 75 0 78 -5 86 -42 64z"/>
<path d="M1602 2732 c-19 -13 -30 -63 -20 -99 9 -36 48 -54 77 -36 25 16 36
75 20 109 -15 30 -51 42 -77 26z m53 -67 c0 -41 -3 -50 -19 -53 -22 -5 -36 14
-36 50 0 42 10 59 34 56 18 -3 21 -10 21 -53z"/>
<path d="M4520 2482 c-136 -242 -263 -403 -353 -446 -143 -69 -352 -55 -595
40 -79 31 -83 31 -69 11 8 -12 43 -34 78 -49 210 -88 463 -102 598 -33 80 40
205 184 304 350 32 55 101 215 94 221 -1 2 -27 -41 -57 -94z"/>
<path d="M2875 2275 c-208 -56 -478 -192 -659 -330 -123 -95 -132 -103 -119
-116 9 -9 23 -2 60 29 185 154 454 302 679 372 135 42 251 24 470 -74 55 -24
101 -42 103 -40 24 22 -183 121 -323 154 -94 23 -141 24 -211 5z"/>
<path d="M1602 1902 c-19 -13 -30 -63 -20 -99 9 -36 48 -54 77 -36 25 16 36
75 20 109 -15 30 -51 42 -77 26z m53 -67 c0 -41 -3 -50 -19 -53 -22 -5 -36 14
-36 50 0 42 10 59 34 56 18 -3 21 -10 21 -53z"/>
<path d="M11626 1502 c-2 -4 -1 -14 4 -22 7 -11 12 -12 21 -3 6 6 8 16 5 22
-8 13 -23 14 -30 3z"/>
<path d="M11826 1502 c-2 -4 -1 -14 4 -22 7 -11 12 -12 21 -3 6 6 8 16 5 22
-8 13 -23 14 -30 3z"/>
<path d="M12027 1503 c-10 -16 11 -39 23 -27 8 8 7 14 -4 23 -8 7 -17 8 -19 4z"/>
<path d="M2558 1476 c-24 -18 -23 -25 2 -19 18 5 20 0 20 -56 0 -34 4 -61 10
-61 6 0 10 32 10 75 0 78 -7 88 -42 61z"/>
<path d="M2656 1468 c-33 -47 -9 -128 38 -128 34 0 56 31 56 77 0 66 -61 99
-94 51z m62 -10 c17 -17 15 -73 -3 -88 -34 -28 -68 27 -46 76 12 26 30 31 49
12z"/>
<path d="M2838 1479 c-22 -12 -24 -31 -3 -23 12 5 15 -5 15 -55 0 -34 4 -61
10 -61 6 0 10 32 10 75 0 77 -2 82 -32 64z"/>
<path d="M3398 1476 c-24 -18 -23 -25 2 -19 18 5 20 0 20 -56 0 -34 4 -61 10
-61 6 0 10 32 10 75 0 78 -7 88 -42 61z"/>
<path d="M3496 1468 c-33 -47 -9 -128 38 -128 34 0 56 31 56 77 0 66 -61 99
-94 51z m62 -10 c17 -17 15 -73 -3 -88 -34 -28 -68 27 -46 76 12 26 30 31 49
12z"/>
<path d="M3693 1483 c-15 -6 -17 -33 -3 -33 6 0 10 5 10 10 0 16 40 11 47 -6
3 -10 -8 -29 -31 -53 -48 -49 -46 -61 9 -61 25 0 45 5 45 10 0 6 -14 10 -31
10 l-31 0 31 35 c33 38 39 63 19 83 -12 12 -43 15 -65 5z"/>
<path d="M4132 1478 c-17 -17 -15 -29 3 -22 12 5 15 -5 15 -55 0 -34 4 -61 10
-61 6 0 10 32 10 75 0 76 -9 92 -38 63z"/>
<path d="M4235 1476 c-13 -10 -18 -26 -18 -61 0 -35 5 -51 18 -61 45 -33 85
-5 85 61 0 66 -40 94 -85 61z m60 -61 c0 -40 -3 -50 -19 -53 -26 -5 -38 11
-38 51 0 46 9 59 35 55 19 -3 22 -9 22 -53z"/>
<path d="M4420 1475 c-16 -19 -5 -34 12 -17 7 7 20 12 30 12 23 0 24 -35 2
-44 -14 -5 -13 -9 7 -24 12 -11 19 -24 15 -30 -9 -15 -39 -15 -54 0 -17 17
-28 2 -12 -17 14 -17 43 -19 71 -5 23 13 25 46 3 58 -11 6 -13 11 -5 16 17 11
13 53 -5 60 -27 10 -51 7 -64 -9z"/>
<path d="M5022 1478 c-17 -17 -15 -29 3 -22 12 5 15 -5 15 -55 0 -34 4 -61 10
-61 6 0 10 32 10 75 0 76 -9 92 -38 63z"/>
<path d="M5125 1476 c-26 -19 -26 -103 0 -122 45 -33 85 -5 85 61 0 66 -40 94
-85 61z m60 -61 c0 -40 -3 -50 -19 -53 -26 -5 -38 11 -38 51 0 46 9 59 35 55
19 -3 22 -9 22 -53z"/>
<path d="M5331 1442 c-40 -62 -39 -72 4 -72 24 0 35 -5 35 -15 0 -8 5 -15 10
-15 6 0 10 6 10 14 0 8 6 17 13 20 10 5 10 7 0 12 -8 3 -13 25 -13 55 0 64
-18 64 -59 1z m39 -17 c0 -31 -3 -35 -25 -35 l-24 0 20 35 c12 19 23 35 25 35
2 0 4 -16 4 -35z"/>
<path d="M5972 1478 c-17 -17 -15 -29 3 -22 12 5 15 -5 15 -55 0 -34 4 -61 10
-61 6 0 10 32 10 75 0 76 -9 92 -38 63z"/>
<path d="M6075 1476 c-26 -19 -26 -103 0 -122 45 -33 85 -5 85 61 0 66 -40 94
-85 61z m60 -61 c0 -40 -3 -50 -19 -53 -26 -5 -38 11 -38 51 0 46 9 59 35 55
19 -3 22 -9 22 -53z"/>
<path d="M6259 1465 c-1 -14 -2 -31 -3 -37 -1 -9 10 -12 31 -10 24 2 33 -1 38
-17 3 -12 3 -25 0 -31 -8 -14 -38 -13 -53 2 -6 6 -15 8 -19 4 -10 -10 25 -36
48 -36 23 0 49 27 49 50 0 29 -29 52 -57 45 -20 -5 -24 -2 -21 12 2 12 14 19
36 21 46 5 40 22 -8 22 -36 0 -40 -3 -41 -25z"/>
<path d="M6808 1476 c-24 -18 -23 -25 2 -19 18 5 20 0 20 -56 0 -34 4 -61 10
-61 6 0 10 32 10 75 0 78 -7 88 -42 61z"/>
<path d="M6906 1468 c-33 -47 -9 -128 38 -128 34 0 56 31 56 77 0 66 -61 99
-94 51z m62 -10 c17 -17 15 -73 -3 -88 -34 -28 -68 27 -46 76 12 26 30 31 49
12z"/>
<path d="M7096 1468 c-22 -31 -20 -91 2 -111 37 -34 82 -15 82 35 0 34 -31 54
-60 38 -16 -8 -20 -8 -20 3 0 8 7 20 16 28 13 10 19 10 36 0 24 -15 35 -7 18
14 -18 22 -56 18 -74 -7z m59 -78 c0 -18 -6 -26 -21 -28 -26 -4 -40 24 -23 45
18 21 44 11 44 -17z"/>
<path d="M7698 1479 c-24 -14 -23 -28 2 -22 18 5 20 0 20 -56 0 -34 4 -61 10
-61 6 0 10 32 10 75 0 78 -5 86 -42 64z"/>
<path d="M7797 1472 c-21 -23 -22 -81 -1 -110 33 -47 94 -13 94 53 0 64 -56
98 -93 57z m64 -26 c14 -29 4 -75 -16 -83 -23 -8 -45 16 -45 51 0 55 41 76 61
32z"/>
<path d="M7970 1480 c0 -5 16 -10 35 -10 19 0 35 -2 35 -5 0 -3 -13 -29 -30
-58 -32 -58 -35 -67 -20 -67 11 0 70 112 70 135 0 11 -11 15 -45 15 -25 0 -45
-4 -45 -10z"/>
<path d="M8468 1476 c-24 -18 -23 -25 2 -19 18 5 20 0 20 -56 0 -34 4 -61 10
-61 6 0 10 32 10 75 0 78 -7 88 -42 61z"/>
<path d="M8575 1476 c-26 -19 -26 -103 0 -122 45 -33 85 -5 85 61 0 66 -40 94
-85 61z m60 -61 c0 -40 -3 -50 -19 -53 -26 -5 -38 11 -38 51 0 46 9 59 35 55
19 -3 22 -9 22 -53z"/>
<path d="M8763 1484 c-16 -7 -17 -50 -2 -60 8 -5 6 -10 -5 -16 -22 -12 -20
-45 3 -58 28 -14 57 -12 75 6 20 19 20 29 2 46 -10 10 -11 17 -2 30 21 35 -28
70 -71 52z m57 -39 c0 -8 -6 -15 -12 -18 -21 -7 -38 4 -38 23 0 10 6 20 13 23
15 5 37 -11 37 -28z m-3 -46 c17 -17 4 -39 -22 -39 -13 0 -25 6 -28 14 -6 15
11 36 28 36 6 0 16 -5 22 -11z"/>
<path d="M9358 1476 c-24 -18 -23 -25 2 -19 18 5 20 0 20 -56 0 -34 4 -61 10
-61 6 0 10 32 10 75 0 78 -7 88 -42 61z"/>
<path d="M9456 1468 c-33 -47 -9 -128 38 -128 34 0 56 31 56 77 0 66 -61 99
-94 51z m62 -10 c17 -17 15 -73 -3 -88 -34 -28 -68 27 -46 76 12 26 30 31 49
12z"/>
<path d="M9646 1474 c-36 -35 -7 -81 44 -70 33 6 35 4 20 -25 -12 -21 -46 -26
-52 -7 -2 6 -10 9 -17 7 -11 -4 -10 -9 3 -22 36 -36 83 -13 93 45 11 69 -48
115 -91 72z m62 -32 c4 -28 -24 -41 -44 -20 -20 20 -7 50 20 46 13 -2 22 -12
24 -26z"/>
<path d="M10148 1479 c-24 -14 -23 -28 2 -22 18 5 20 0 20 -56 0 -34 4 -61 10
-61 6 0 10 32 10 75 0 78 -5 86 -42 64z"/>
<path d="M10247 1472 c-21 -23 -22 -81 -1 -110 33 -47 94 -13 94 53 0 64 -56
98 -93 57z m64 -26 c14 -29 4 -75 -16 -83 -23 -8 -45 16 -45 51 0 55 41 76 61
32z"/>
<path d="M10422 1478 c-17 -17 -15 -29 3 -22 12 5 15 -5 15 -55 0 -34 4 -61
10 -61 6 0 10 32 10 75 0 76 -9 92 -38 63z"/>
<path d="M10525 1476 c-13 -10 -18 -26 -18 -61 0 -35 5 -51 18 -61 45 -33 85
-5 85 61 0 66 -40 94 -85 61z m60 -61 c0 -40 -3 -50 -19 -53 -26 -5 -38 11
-38 51 0 46 9 59 35 55 19 -3 22 -9 22 -53z"/>
<path d="M2780 1355 c0 -8 5 -15 10 -15 6 0 10 7 10 15 0 8 -4 15 -10 15 -5 0
-10 -7 -10 -15z"/>
<path d="M3620 1355 c0 -8 5 -15 10 -15 6 0 10 7 10 15 0 8 -4 15 -10 15 -5 0
-10 -7 -10 -15z"/>
<path d="M4350 1355 c0 -9 5 -15 11 -13 6 2 11 8 11 13 0 5 -5 11 -11 13 -6 2
-11 -4 -11 -13z"/>
<path d="M5240 1355 c0 -9 5 -15 11 -13 6 2 11 8 11 13 0 5 -5 11 -11 13 -6 2
-11 -4 -11 -13z"/>
<path d="M6190 1355 c0 -9 5 -15 11 -13 6 2 11 8 11 13 0 5 -5 11 -11 13 -6 2
-11 -4 -11 -13z"/>
<path d="M7030 1355 c0 -8 5 -15 10 -15 6 0 10 7 10 15 0 8 -4 15 -10 15 -5 0
-10 -7 -10 -15z"/>
<path d="M7920 1355 c0 -8 5 -15 10 -15 6 0 10 7 10 15 0 8 -4 15 -10 15 -5 0
-10 -7 -10 -15z"/>
<path d="M8690 1355 c0 -9 5 -15 11 -13 6 2 11 8 11 13 0 5 -5 11 -11 13 -6 2
-11 -4 -11 -13z"/>
<path d="M9580 1355 c0 -8 5 -15 10 -15 6 0 10 7 10 15 0 8 -4 15 -10 15 -5 0
-10 -7 -10 -15z"/>
<path d="M10370 1355 c0 -8 5 -15 10 -15 6 0 10 7 10 15 0 8 -4 15 -10 15 -5
0 -10 -7 -10 -15z"/>
<path d="M11626 1212 c-2 -4 -1 -14 4 -22 7 -11 12 -12 21 -3 6 6 8 16 5 22
-8 13 -23 14 -30 3z"/>
<path d="M11826 1212 c-2 -4 -1 -14 4 -22 7 -11 12 -12 21 -3 6 6 8 16 5 22
-8 13 -23 14 -30 3z"/>
<path d="M12026 1212 c-9 -14 9 -31 23 -23 7 5 10 14 7 20 -8 13 -23 14 -30 3z"/>
<path d="M11626 922 c-2 -4 -1 -14 4 -22 7 -11 12 -12 21 -3 6 6 8 16 5 22 -8
13 -23 14 -30 3z"/>
<path d="M11826 921 c-3 -5 1 -14 8 -20 16 -13 32 2 21 19 -8 12 -22 13 -29 1z"/>
<path d="M12026 922 c-2 -4 -1 -14 4 -22 7 -11 12 -12 21 -3 6 6 8 16 5 22 -8
13 -23 14 -30 3z"/>
<path d="M6186 632 c-2 -4 -1 -14 4 -22 7 -11 12 -12 21 -3 6 6 8 16 5 22 -8
13 -23 14 -30 3z"/>
<path d="M6394 629 c-3 -6 -1 -16 5 -22 9 -9 14 -8 21 3 9 15 4 30 -10 30 -5
0 -12 -5 -16 -11z"/>
<path d="M6594 629 c-3 -6 -1 -16 5 -22 9 -9 14 -8 21 3 9 15 4 30 -10 30 -5
0 -12 -5 -16 -11z"/>
<path d="M6794 629 c-3 -6 -1 -16 5 -22 9 -9 14 -8 21 3 9 15 4 30 -10 30 -5
0 -12 -5 -16 -11z"/>
<path d="M6994 629 c-3 -6 -1 -16 5 -22 9 -9 14 -8 21 3 9 15 4 30 -10 30 -5
0 -12 -5 -16 -11z"/>
<path d="M7196 632 c-2 -4 -1 -14 4 -22 7 -11 12 -12 21 -3 6 6 8 16 5 22 -8
13 -23 14 -30 3z"/>
<path d="M7396 632 c-2 -4 -1 -14 4 -22 7 -11 12 -12 21 -3 6 6 8 16 5 22 -8
13 -23 14 -30 3z"/>
<path d="M7596 632 c-2 -4 -1 -14 4 -22 7 -11 12 -12 21 -3 6 6 8 16 5 22 -8
13 -23 14 -30 3z"/>
<path d="M7796 632 c-2 -4 -1 -14 4 -22 7 -11 12 -12 21 -3 6 6 8 16 5 22 -8
13 -23 14 -30 3z"/>
<path d="M8004 629 c-3 -6 -1 -16 5 -22 9 -9 14 -8 21 3 9 15 4 30 -10 30 -5
0 -12 -5 -16 -11z"/>
<path d="M8204 629 c-3 -6 -1 -16 5 -22 9 -9 14 -8 21 3 9 15 4 30 -10 30 -5
0 -12 -5 -16 -11z"/>
<path d="M8404 629 c-3 -6 -1 -16 5 -22 9 -9 14 -8 21 3 9 15 4 30 -10 30 -5
0 -12 -5 -16 -11z"/>
<path d="M8606 632 c-2 -4 -1 -14 4 -22 7 -11 12 -12 21 -3 6 6 8 16 5 22 -8
13 -23 14 -30 3z"/>
<path d="M8806 632 c-2 -4 -1 -14 4 -22 7 -11 12 -12 21 -3 6 6 8 16 5 22 -8
13 -23 14 -30 3z"/>
<path d="M9006 632 c-2 -4 -1 -14 4 -22 7 -11 12 -12 21 -3 6 6 8 16 5 22 -8
13 -23 14 -30 3z"/>
<path d="M9206 632 c-2 -4 -1 -14 4 -22 7 -11 12 -12 21 -3 6 6 8 16 5 22 -8
13 -23 14 -30 3z"/>
<path d="M9414 629 c-3 -6 -1 -16 5 -22 9 -9 14 -8 21 3 9 15 4 30 -10 30 -5
0 -12 -5 -16 -11z"/>
<path d="M9614 629 c-3 -6 -1 -16 5 -22 9 -9 14 -8 21 3 9 15 4 30 -10 30 -5
0 -12 -5 -16 -11z"/>
<path d="M9814 629 c-3 -6 -1 -16 5 -22 9 -9 14 -8 21 3 9 15 4 30 -10 30 -5
0 -12 -5 -16 -11z"/>
<path d="M10016 632 c-2 -4 -1 -14 4 -22 7 -11 12 -12 21 -3 6 6 8 16 5 22 -8
13 -23 14 -30 3z"/>
<path d="M10216 632 c-2 -4 -1 -14 4 -22 7 -11 12 -12 21 -3 6 6 8 16 5 22 -8
13 -23 14 -30 3z"/>
<path d="M10416 632 c-2 -4 -1 -14 4 -22 7 -11 12 -12 21 -3 6 6 8 16 5 22 -8
13 -23 14 -30 3z"/>
<path d="M10616 632 c-2 -4 -1 -14 4 -22 7 -11 12 -12 21 -3 6 6 8 16 5 22 -8
13 -23 14 -30 3z"/>
<path d="M10824 629 c-3 -6 -1 -16 5 -22 9 -9 14 -8 21 3 9 15 4 30 -10 30 -5
0 -12 -5 -16 -11z"/>
<path d="M11024 629 c-3 -6 -1 -16 5 -22 9 -9 14 -8 21 3 9 15 4 30 -10 30 -5
0 -12 -5 -16 -11z"/>
<path d="M11224 629 c-3 -6 -1 -16 5 -22 9 -9 14 -8 21 3 9 15 4 30 -10 30 -5
0 -12 -5 -16 -11z"/>
<path d="M11424 629 c-3 -6 -1 -16 5 -22 9 -9 14 -8 21 3 9 15 4 30 -10 30 -5
0 -12 -5 -16 -11z"/>
<path d="M11626 632 c-2 -4 -1 -14 4 -22 7 -11 12 -12 21 -3 6 6 8 16 5 22 -8
13 -23 14 -30 3z"/>
<path d="M11826 632 c-2 -4 -1 -14 4 -22 7 -11 12 -12 21 -3 6 6 8 16 5 22 -8
13 -23 14 -30 3z"/>
<path d="M12026 632 c-8 -13 8 -32 21 -24 8 5 7 11 -3 19 -7 7 -15 9 -18 5z"/>
<path d="M6186 342 c-2 -4 -1 -14 4 -22 7 -11 12 -12 21 -3 6 6 8 16 5 22 -8
13 -23 14 -30 3z"/>
<path d="M6394 339 c-3 -6 -1 -16 5 -22 9 -9 14 -8 21 3 9 15 4 30 -10 30 -5
0 -12 -5 -16 -11z"/>
<path d="M6594 339 c-3 -6 -1 -16 5 -22 9 -9 14 -8 21 3 9 15 4 30 -10 30 -5
0 -12 -5 -16 -11z"/>
<path d="M6794 339 c-3 -6 -1 -16 5 -22 9 -9 14 -8 21 3 9 15 4 30 -10 30 -5
0 -12 -5 -16 -11z"/>
<path d="M6994 339 c-3 -6 -1 -16 5 -22 9 -9 14 -8 21 3 9 15 4 30 -10 30 -5
0 -12 -5 -16 -11z"/>
<path d="M7196 342 c-2 -4 -1 -14 4 -22 7 -11 12 -12 21 -3 6 6 8 16 5 22 -8
13 -23 14 -30 3z"/>
<path d="M7396 342 c-2 -4 -1 -14 4 -22 7 -11 12 -12 21 -3 6 6 8 16 5 22 -8
13 -23 14 -30 3z"/>
<path d="M7596 342 c-2 -4 -1 -14 4 -22 7 -11 12 -12 21 -3 6 6 8 16 5 22 -8
13 -23 14 -30 3z"/>
<path d="M7796 342 c-2 -4 -1 -14 4 -22 7 -11 12 -12 21 -3 6 6 8 16 5 22 -8
13 -23 14 -30 3z"/>
<path d="M8004 339 c-3 -6 -1 -16 5 -22 9 -9 14 -8 21 3 9 15 4 30 -10 30 -5
0 -12 -5 -16 -11z"/>
<path d="M8204 339 c-3 -6 -1 -16 5 -22 9 -9 14 -8 21 3 9 15 4 30 -10 30 -5
0 -12 -5 -16 -11z"/>
<path d="M8404 339 c-3 -6 -1 -16 5 -22 9 -9 14 -8 21 3 9 15 4 30 -10 30 -5
0 -12 -5 -16 -11z"/>
<path d="M8606 342 c-2 -4 -1 -14 4 -22 7 -11 12 -12 21 -3 6 6 8 16 5 22 -8
13 -23 14 -30 3z"/>
<path d="M8806 342 c-2 -4 -1 -14 4 -22 7 -11 12 -12 21 -3 6 6 8 16 5 22 -8
13 -23 14 -30 3z"/>
<path d="M9006 342 c-2 -4 -1 -14 4 -22 7 -11 12 -12 21 -3 6 6 8 16 5 22 -8
13 -23 14 -30 3z"/>
<path d="M9206 342 c-2 -4 -1 -14 4 -22 7 -11 12 -12 21 -3 6 6 8 16 5 22 -8
13 -23 14 -30 3z"/>
<path d="M9414 339 c-3 -6 -1 -16 5 -22 9 -9 14 -8 21 3 9 15 4 30 -10 30 -5
0 -12 -5 -16 -11z"/>
<path d="M9614 339 c-3 -6 -1 -16 5 -22 9 -9 14 -8 21 3 9 15 4 30 -10 30 -5
0 -12 -5 -16 -11z"/>
<path d="M9814 339 c-3 -6 -1 -16 5 -22 9 -9 14 -8 21 3 9 15 4 30 -10 30 -5
0 -12 -5 -16 -11z"/>
<path d="M10016 342 c-2 -4 -1 -14 4 -22 7 -11 12 -12 21 -3 6 6 8 16 5 22 -8
13 -23 14 -30 3z"/>
<path d="M10216 342 c-2 -4 -1 -14 4 -22 7 -11 12 -12 21 -3 6 6 8 16 5 22 -8
13 -23 14 -30 3z"/>
<path d="M10416 342 c-2 -4 -1 -14 4 -22 7 -11 12 -12 21 -3 6 6 8 16 5 22 -8
13 -23 14 -30 3z"/>
<path d="M10616 342 c-2 -4 -1 -14 4 -22 7 -11 12 -12 21 -3 6 6 8 16 5 22 -8
13 -23 14 -30 3z"/>
<path d="M10824 339 c-3 -6 -1 -16 5 -22 9 -9 14 -8 21 3 9 15 4 30 -10 30 -5
0 -12 -5 -16 -11z"/>
<path d="M11024 339 c-3 -6 -1 -16 5 -22 9 -9 14 -8 21 3 9 15 4 30 -10 30 -5
0 -12 -5 -16 -11z"/>
<path d="M11231 340 c-14 -8 -7 -30 9 -30 11 0 21 28 12 34 -5 3 -14 1 -21 -4z"/>
<path d="M11424 339 c-3 -6 -1 -16 5 -22 9 -9 14 -8 21 3 9 15 4 30 -10 30 -5
0 -12 -5 -16 -11z"/>
<path d="M11626 342 c-3 -6 -1 -14 5 -17 15 -10 25 3 12 16 -7 7 -13 7 -17 1z"/>
<path d="M11827 343 c-10 -16 11 -39 23 -27 8 8 7 14 -4 23 -8 7 -17 8 -19 4z"/>
<path d="M12030 329 c0 -12 5 -19 12 -17 18 6 20 25 3 31 -10 5 -15 0 -15 -14z"/>
</g>
</svg>
