<?xml version="1.0" standalone="no"?>
<!DOCTYPE svg PUBLIC "-//W3C//DTD SVG 20010904//EN"
 "http://www.w3.org/TR/2001/REC-SVG-20010904/DTD/svg10.dtd">
<svg version="1.0" xmlns="http://www.w3.org/2000/svg"
 width="1517.000000pt" height="1047.000000pt" viewBox="0 0 1517.000000 1047.000000"
 preserveAspectRatio="xMidYMid meet">

<g transform="translate(0.000000,1047.000000) scale(0.100000,-0.100000)"
fill="#000000" stroke="none">
<path d="M976 10034 c-181 -44 -337 -202 -381 -385 -13 -57 -15 -559 -15
-4319 0 -3657 2 -4263 15 -4309 46 -175 186 -320 359 -373 62 -19 76 -28 130
-86 115 -123 297 -239 481 -305 98 -35 259 -73 400 -94 114 -17 372 -18 5605
-18 5233 0 5491 1 5605 18 141 21 302 59 400 94 184 66 366 182 481 305 54 58
68 67 130 86 173 53 313 198 359 373 13 46 15 652 15 4309 0 3760 -2 4262 -15
4319 -44 186 -200 342 -386 386 -57 13 -803 15 -6594 14 -5605 -1 -6538 -3
-6589 -15z m13064 -4694 l0 -4190 -6470 0 -6470 0 0 4190 0 4190 6470 0 6470
0 0 -4190z"/>
<path d="M1335 9404 c-28 -31 -31 -52 -11 -79 13 -19 15 -18 23 15 7 29 15 36
38 38 19 3 33 -2 42 -14 12 -16 13 -16 13 9 0 28 -32 57 -63 57 -10 0 -29 -12
-42 -26z"/>
<path d="M2128 9403 c12 -2 30 -2 40 0 9 3 -1 5 -23 4 -22 0 -30 -2 -17 -4z"/>
<path d="M2044 9379 c-3 -6 2 -18 12 -27 17 -16 17 -16 5 0 -7 9 -10 22 -6 28
3 5 4 10 1 10 -3 0 -8 -5 -12 -11z"/>
<path d="M2372 9340 c0 -19 2 -27 5 -17 2 9 2 25 0 35 -3 9 -5 1 -5 -18z"/>
<path d="M2457 9363 c-2 -5 -1 -21 3 -38 l6 -30 5 33 c5 30 -4 53 -14 35z"/>
<path d="M2428 9333 c5 -21 7 -23 10 -9 2 10 0 22 -6 28 -6 6 -7 0 -4 -19z"/>
<path d="M2502 9348 c-7 -7 -12 -19 -11 -27 0 -9 5 -5 10 9 8 20 12 22 19 10
5 -8 12 -12 15 -9 3 4 -1 11 -8 17 -10 9 -17 8 -25 0z"/>
<path d="M2563 9353 c-7 -3 -13 -14 -12 -26 0 -22 0 -22 10 1 13 33 30 18 22
-20 -4 -22 -3 -29 5 -24 7 4 12 20 12 36 0 28 -14 41 -37 33z"/>
<path d="M2622 9351 c-8 -5 -12 -17 -10 -27 2 -15 5 -13 15 9 14 30 14 30 -5
18z"/>
<path d="M2666 9353 c7 -4 14 -19 17 -33 4 -22 5 -21 4 4 -1 17 -9 31 -17 33
-10 3 -11 2 -4 -4z"/>
<path d="M2710 9350 c0 -5 5 -10 10 -10 6 0 10 5 10 10 0 6 -4 10 -10 10 -5 0
-10 -4 -10 -10z"/>
<path d="M2780 9345 c-6 -8 -10 -19 -8 -24 1 -6 8 1 15 14 13 28 11 31 -7 10z"/>
<path d="M2868 9333 c5 -21 7 -23 10 -9 2 10 0 22 -6 28 -6 6 -7 0 -4 -19z"/>
<path d="M2905 9350 c-3 -6 0 -17 9 -25 21 -22 32 -18 12 4 -13 15 -14 20 -4
24 9 4 9 6 1 6 -6 1 -15 -4 -18 -9z"/>
<path d="M2120 9340 c0 -5 11 -10 24 -10 14 0 28 5 31 10 4 6 -7 10 -24 10
-17 0 -31 -4 -31 -10z"/>
<path d="M2812 9330 c0 -14 2 -19 5 -12 2 6 2 18 0 25 -3 6 -5 1 -5 -13z"/>
<path d="M2073 9273 c20 -2 54 -2 75 0 20 2 3 4 -38 4 -41 0 -58 -2 -37 -4z"/>
<path d="M1435 9210 c-3 -5 -1 -10 4 -10 6 0 11 5 11 10 0 6 -2 10 -4 10 -3 0
-8 -4 -11 -10z"/>
<path d="M1320 9200 c0 -5 7 -10 16 -10 8 0 12 5 9 10 -3 6 -10 10 -16 10 -5
0 -9 -4 -9 -10z"/>
<path d="M1385 9172 c3 -3 0 -12 -7 -19 -10 -12 -2 -13 53 -8 114 12 121 26
14 30 -36 1 -63 0 -60 -3z"/>
<path d="M2380 8510 l0 -110 25 0 25 0 0 110 0 110 -25 0 -25 0 0 -110z"/>
<path d="M3570 8605 c0 -8 9 -15 20 -15 11 0 20 7 20 15 0 8 -9 15 -20 15 -11
0 -20 -7 -20 -15z"/>
<path d="M2670 8586 c0 -13 -8 -27 -17 -31 -17 -6 -17 -7 0 -19 12 -9 17 -27
17 -59 0 -66 7 -77 46 -77 38 0 44 14 14 30 -29 16 -28 82 2 102 l22 15 -22
12 c-12 6 -22 21 -22 31 0 13 -7 20 -20 20 -14 0 -20 -7 -20 -24z"/>
<path d="M3470 8585 c0 -16 -6 -25 -15 -25 -8 0 -15 -7 -15 -15 0 -8 7 -15 15
-15 10 0 15 -16 17 -62 3 -63 3 -63 36 -66 23 -2 32 1 32 11 0 8 -7 17 -15 21
-10 4 -15 20 -15 51 0 33 4 45 15 45 8 0 15 7 15 15 0 8 -7 15 -15 15 -9 0
-15 9 -15 25 0 18 -5 25 -20 25 -15 0 -20 -7 -20 -25z"/>
<path d="M2470 8479 c0 -72 2 -79 20 -79 17 0 20 7 20 48 0 59 20 92 47 76 13
-8 19 -26 21 -68 3 -48 6 -56 22 -56 18 0 20 7 20 61 0 90 -7 98 -85 97 l-65
-1 0 -78z"/>
<path d="M2792 8537 c-39 -42 -25 -119 25 -138 30 -11 88 4 97 26 7 20 -12 29
-29 15 -20 -17 -69 -8 -73 13 -3 14 5 17 52 17 53 0 56 1 56 25 0 60 -85 88
-128 42z m83 -27 c0 -16 -28 -25 -52 -16 -12 5 -13 9 -3 22 16 18 55 15 55 -6z"/>
<path d="M2975 8544 c-57 -57 -6 -164 66 -137 26 10 29 9 29 -8 0 -29 -32 -40
-65 -23 -21 11 -31 12 -39 4 -17 -18 22 -40 70 -40 62 0 74 22 74 131 l0 86
-60 1 c-41 1 -64 -4 -75 -14z m83 -26 c17 -17 15 -54 -4 -72 -21 -22 -31 -20
-50 9 -30 46 17 100 54 63z"/>
<path d="M3147 8553 c-4 -3 -7 -39 -7 -80 0 -71 1 -73 24 -73 23 0 25 4 28 52
3 46 6 54 31 66 15 7 27 20 27 28 0 16 -31 19 -47 3 -8 -8 -13 -8 -17 0 -8 12
-29 15 -39 4z"/>
<path d="M3298 8549 c-10 -5 -18 -17 -18 -24 0 -17 26 -20 35 -5 3 6 17 10 31
10 41 0 27 -33 -16 -40 -50 -8 -60 -17 -60 -51 0 -37 24 -47 98 -41 l52 4 0
69 c0 57 -3 70 -19 79 -25 13 -81 13 -103 -1z m82 -85 c0 -18 -24 -44 -41 -44
-24 0 -37 29 -18 41 16 10 59 12 59 3z"/>
<path d="M3570 8480 c0 -73 2 -80 20 -80 18 0 20 7 20 80 0 73 -2 80 -20 80
-18 0 -20 -7 -20 -80z"/>
<path d="M3665 8535 c-53 -52 -14 -140 61 -138 110 3 108 163 -3 163 -23 0
-42 -8 -58 -25z m81 -13 c35 -24 20 -92 -21 -92 -33 0 -50 35 -36 73 10 26 34
35 57 19z"/>
<path d="M3845 8552 c-3 -3 -5 -38 -5 -79 0 -71 1 -73 25 -73 23 0 24 4 27 63
3 59 4 62 28 62 24 0 25 -3 28 -62 3 -59 4 -63 27 -63 23 0 25 3 25 53 0 28
-6 63 -13 77 -11 22 -19 25 -75 26 -34 0 -64 -2 -67 -4z"/>
<path d="M4046 8547 c-33 -24 -17 -59 34 -77 26 -9 45 -22 45 -30 0 -21 -44
-25 -51 -6 -9 22 -46 21 -42 -1 7 -38 88 -52 125 -22 7 6 13 22 13 34 0 28
-17 43 -58 51 -18 4 -32 13 -32 20 0 17 32 18 47 3 7 -7 19 -9 29 -5 16 6 16
8 -1 26 -21 23 -82 27 -109 7z"/>
<path d="M2380 8005 c0 -73 1 -75 24 -75 42 0 73 17 83 47 20 58 -15 103 -79
103 l-28 0 0 -75z m92 29 c18 -38 -7 -79 -47 -79 -28 0 -30 3 -33 39 -5 53 3
66 38 66 23 0 33 -6 42 -26z"/>
<path d="M3837 8058 c-15 -25 -12 -118 4 -118 5 0 10 19 10 43 3 66 3 71 12
85 5 7 4 12 -2 12 -6 0 -17 -10 -24 -22z"/>
<path d="M5580 8065 c-19 -23 -7 -49 28 -61 39 -12 57 -28 48 -43 -11 -17 -57
-13 -72 7 -13 16 -13 16 -14 -1 0 -41 92 -47 105 -6 9 26 -9 46 -46 54 -34 8
-49 32 -28 46 20 12 25 11 44 -7 20 -20 33 -11 15 11 -16 19 -64 20 -80 0z"/>
<path d="M3400 8004 c0 -41 4 -63 10 -59 6 3 10 33 10 66 0 33 -4 59 -10 59
-6 0 -10 -29 -10 -66z"/>
<path d="M3592 8055 c-19 -36 12 -144 35 -121 4 4 1 11 -6 16 -10 5 -12 20 -9
46 3 22 2 48 -2 59 -7 19 -7 19 -18 0z"/>
<path d="M4180 8005 c0 -37 4 -65 10 -65 6 0 10 28 10 65 0 37 -4 65 -10 65
-6 0 -10 -28 -10 -65z"/>
<path d="M4493 8055 c-20 -41 10 -151 32 -115 3 5 1 10 -6 10 -8 0 -10 14 -7
43 3 23 2 51 -2 62 -7 19 -7 19 -17 0z"/>
<path d="M4830 8010 c0 -56 2 -61 26 -70 34 -13 40 -13 58 6 36 35 6 101 -40
90 -19 -5 -24 -2 -24 14 0 11 -4 20 -10 20 -6 0 -10 -27 -10 -60z m82 -7 c8
-36 -3 -54 -31 -51 -26 3 -38 26 -27 54 8 20 54 18 58 -3z"/>
<path d="M5110 8011 c0 -33 5 -63 10 -66 6 -4 10 18 10 59 0 37 -4 66 -10 66
-6 0 -10 -26 -10 -59z"/>
<path d="M5163 8051 c-8 -13 -9 -22 -3 -26 6 -3 10 -24 10 -45 0 -38 14 -60
28 -45 4 4 1 10 -5 12 -7 3 -13 20 -13 38 0 18 6 36 13 38 8 4 9 8 1 14 -6 4
-13 14 -15 21 -3 8 -8 6 -16 -7z"/>
<path d="M6010 8050 c0 -16 -5 -19 -24 -14 -46 11 -76 -55 -40 -91 10 -10 25
-14 38 -11 12 3 27 6 34 6 8 0 12 20 12 65 0 37 -4 65 -10 65 -5 0 -10 -9 -10
-20z m-5 -65 c0 -25 -4 -30 -25 -30 -16 0 -26 6 -28 18 -6 30 6 49 30 45 18
-2 23 -9 23 -33z"/>
<path d="M2571 8031 c-19 -12 -7 -39 24 -51 37 -14 32 -34 -7 -26 -30 6 -32 5
-16 -10 22 -23 68 -11 68 17 0 13 -10 24 -30 31 -17 5 -29 15 -27 22 5 12 11
12 42 0 18 -7 18 -6 6 9 -15 19 -38 22 -60 8z"/>
<path d="M2676 8024 c-9 -8 -16 -26 -16 -39 0 -44 50 -71 78 -43 19 19 14 30
-7 17 -28 -18 -53 -4 -49 28 3 25 7 28 36 26 27 -1 31 1 21 13 -15 19 -44 18
-63 -2z"/>
<path d="M2787 8022 c-22 -24 -21 -55 1 -75 24 -22 45 -21 65 1 21 23 22 56 1
76 -21 21 -47 20 -67 -2z m58 -37 c0 -25 -4 -30 -25 -30 -16 0 -26 6 -28 18
-6 30 6 49 30 45 18 -2 23 -9 23 -33z"/>
<path d="M3007 8022 c-22 -24 -21 -55 1 -75 23 -21 46 -22 61 -3 10 12 6 14
-20 13 -18 -1 -34 4 -36 11 -3 8 7 12 31 12 29 0 36 4 36 20 0 18 -26 40 -48
40 -5 0 -16 -8 -25 -18z m53 -17 c0 -16 -35 -21 -44 -6 -8 12 4 21 26 21 10 0
18 -7 18 -15z"/>
<path d="M3123 8032 c-20 -3 -23 -9 -23 -48 0 -24 5 -44 10 -44 6 0 10 16 10
35 0 22 6 37 17 44 22 12 15 18 -14 13z"/>
<path d="M3243 8033 c-25 -9 -13 -22 12 -13 15 6 26 6 30 0 9 -15 -4 -30 -24
-30 -10 0 -24 -7 -31 -15 -19 -22 2 -40 46 -40 33 0 34 1 34 41 0 55 -24 75
-67 57z m47 -68 c0 -9 -9 -15 -25 -15 -24 0 -32 10 -18 23 12 13 43 7 43 -8z"/>
<path d="M3490 8025 c-15 -19 1 -42 32 -47 12 -2 24 -9 26 -17 4 -11 -3 -13
-32 -8 -32 5 -36 4 -26 -8 16 -20 45 -19 65 1 19 19 7 39 -30 48 -14 4 -25 11
-25 16 0 16 21 22 36 9 8 -6 18 -9 21 -5 9 9 -16 26 -38 26 -9 0 -22 -7 -29
-15z"/>
<path d="M3720 8020 c-11 -11 -20 -27 -20 -35 0 -17 35 -55 51 -55 29 0 49 22
49 55 0 24 -6 38 -19 45 -28 14 -38 13 -61 -10z m65 -19 c9 -28 -5 -51 -30
-51 -25 0 -39 23 -30 51 4 12 16 19 30 19 14 0 26 -7 30 -19z"/>
<path d="M3963 8033 c-7 -2 -13 -9 -13 -14 0 -6 7 -6 18 0 20 11 48 -1 38 -17
-3 -5 -19 -12 -36 -15 -21 -5 -30 -12 -30 -27 0 -21 4 -22 57 -24 32 -1 33 0
33 40 0 55 -24 75 -67 57z m45 -65 c-5 -15 -48 -24 -48 -10 0 14 12 22 33 22
10 0 17 -5 15 -12z"/>
<path d="M4078 8033 c-15 -4 -18 -15 -17 -71 1 -37 4 -57 6 -44 3 17 9 21 23
17 11 -3 28 -1 40 5 27 15 28 75 1 90 -20 10 -25 11 -53 3z m57 -32 c9 -28 -5
-51 -31 -51 -17 0 -25 7 -30 24 -3 14 -3 30 1 35 11 18 53 13 60 -8z"/>
<path d="M4274 8015 c-14 -21 -15 -31 -6 -51 7 -13 19 -27 28 -31 19 -7 46 7
52 26 3 10 0 10 -16 0 -29 -18 -54 -5 -50 28 3 25 7 28 36 27 34 -2 43 10 16
20 -29 11 -43 6 -60 -19z"/>
<path d="M4390 8030 c-21 -13 -5 -23 19 -11 13 7 22 8 26 1 9 -15 -3 -30 -24
-30 -10 0 -24 -7 -31 -15 -20 -24 4 -45 48 -41 36 4 37 4 33 42 -5 59 -31 79
-71 54z m50 -65 c0 -9 -9 -15 -25 -15 -24 0 -32 10 -18 23 12 13 43 7 43 -8z"/>
<path d="M4606 8018 c-21 -30 -20 -44 4 -68 24 -24 43 -25 64 -4 32 32 10 94
-34 94 -10 0 -26 -10 -34 -22z m63 -17 c13 -24 -8 -55 -35 -49 -20 3 -30 29
-20 54 8 20 43 17 55 -5z"/>
<path d="M4738 8033 c-14 -3 -18 -14 -17 -51 l2 -47 6 40 c5 31 11 41 28 43
17 2 24 -3 27 -20 3 -13 7 -32 9 -43 3 -11 5 1 6 26 1 34 -3 49 -15 53 -17 6
-19 6 -46 -1z"/>
<path d="M5298 8029 c-26 -15 -24 -75 2 -89 43 -23 93 26 70 69 -15 30 -43 37
-72 20z m57 -44 c0 -25 -4 -31 -26 -33 -29 -3 -44 18 -33 50 4 14 13 18 32 16
23 -2 27 -8 27 -33z"/>
<path d="M5423 8033 c-20 -4 -23 -11 -23 -49 0 -28 4 -43 10 -39 6 3 10 22 10
41 0 31 3 35 23 32 17 -2 23 -11 28 -43 4 -31 7 -36 13 -22 11 24 -6 82 -24
83 -8 1 -25 -1 -37 -3z"/>
<path d="M5718 8029 c-27 -15 -24 -75 3 -90 48 -25 95 30 65 76 -17 26 -40 31
-68 14z m57 -44 c0 -23 -5 -31 -21 -33 -27 -4 -47 21 -39 48 5 16 14 20 33 18
23 -2 27 -8 27 -33z"/>
<path d="M6067 8022 c-22 -24 -21 -55 1 -75 24 -22 45 -21 65 1 21 23 22 56 1
76 -21 21 -47 20 -67 -2z m58 -37 c0 -25 -4 -30 -25 -30 -16 0 -26 6 -28 18
-6 30 6 49 30 45 18 -2 23 -9 23 -33z"/>
<path d="M6193 8033 c-20 -4 -23 -11 -23 -49 0 -54 18 -59 22 -6 2 30 7 38 26
40 20 3 22 -1 22 -37 0 -23 5 -41 10 -41 14 0 12 74 -2 88 -12 12 -16 13 -55
5z"/>
<path d="M2523 7985 c0 -27 2 -38 4 -22 2 15 2 37 0 50 -2 12 -4 0 -4 -28z"/>
<path d="M2896 8008 c25 -83 37 -90 58 -38 18 45 20 64 7 56 -4 -3 -11 -19
-15 -36 -7 -37 -22 -32 -31 10 -4 17 -11 30 -16 30 -6 0 -7 -10 -3 -22z"/>
<path d="M3440 7985 c0 -25 5 -45 10 -45 6 0 10 20 10 45 0 25 -4 45 -10 45
-5 0 -10 -20 -10 -45z"/>
<path d="M4220 7985 c0 -25 5 -45 10 -45 6 0 10 20 10 45 0 25 -4 45 -10 45
-5 0 -10 -20 -10 -45z"/>
<path d="M4550 7985 c0 -25 5 -45 10 -45 6 0 10 20 10 45 0 25 -4 45 -10 45
-5 0 -10 -20 -10 -45z"/>
<path d="M4961 7988 c-1 -54 5 -60 48 -52 29 6 31 9 31 50 0 24 -5 44 -10 44
-6 0 -10 -6 -9 -12 1 -7 1 -26 0 -41 -1 -23 -5 -28 -23 -25 -18 2 -24 11 -29
43 l-6 40 -2 -47z"/>
<path d="M5070 7985 c0 -25 5 -45 10 -45 6 0 10 20 10 45 0 25 -4 45 -10 45
-5 0 -10 -20 -10 -45z"/>
<path d="M5820 7991 c0 -47 17 -63 59 -55 29 6 31 9 31 50 0 54 -18 59 -22 7
-2 -31 -7 -39 -25 -41 -21 -3 -23 1 -23 37 0 23 -4 41 -10 41 -5 0 -10 -17
-10 -39z"/>
<path d="M4930 6358 c-48 -33 -72 -70 -77 -121 -7 -61 1 -90 37 -131 78 -89
209 -79 271 20 27 45 24 145 -6 186 -50 67 -160 90 -225 46z m136 -44 c82 -39
84 -158 4 -199 -37 -19 -64 -19 -105 1 -89 42 -79 165 15 203 35 14 47 13 86
-5z"/>
<path d="M4943 6263 c-30 -12 -8 -22 55 -25 37 -2 75 -8 85 -12 12 -6 17 -4
17 8 0 9 -12 21 -26 26 -26 10 -109 12 -131 3z"/>
<path d="M4945 6220 c-7 -12 -10 -11 45 -14 25 -2 57 -6 73 -11 34 -9 36 8 2
23 -32 15 -112 16 -120 2z"/>
<path d="M4973 6192 c-42 -6 -23 -19 35 -25 57 -4 71 -2 59 9 -9 9 -70 20 -94
16z"/>
<path d="M2986 6300 c-20 -50 -20 -56 -1 -40 8 7 15 21 15 31 0 11 5 19 11 19
6 0 8 -7 5 -16 -3 -8 1 -22 9 -30 9 -9 15 -11 15 -4 0 14 -28 80 -33 80 -3 0
-12 -18 -21 -40z"/>
<path d="M3341 6293 c0 -39 2 -44 9 -25 5 12 7 28 4 36 -7 19 15 31 29 17 9
-9 8 -14 -3 -21 -13 -8 -12 -10 3 -10 22 0 23 36 1 44 -37 14 -44 7 -43 -41z"/>
<path d="M5301 6326 c-10 -12 -7 -18 13 -31 34 -22 34 -39 0 -31 -17 5 -23 3
-19 -4 8 -14 52 -13 61 2 4 6 -4 20 -19 33 -32 25 -35 39 -6 30 15 -5 19 -4
15 4 -10 15 -31 14 -45 -3z"/>
<path d="M5593 6323 c-5 -10 -7 -31 -3 -48 6 -29 6 -28 13 14 8 48 4 63 -10
34z"/>
<path d="M5731 6293 c0 -36 3 -43 9 -28 4 11 6 30 3 43 -4 15 -1 22 9 22 22 0
29 -12 17 -27 -9 -9 -8 -13 0 -13 6 0 14 7 18 16 7 18 -12 34 -39 34 -15 0
-18 -9 -17 -47z"/>
<path d="M7617 6333 c-14 -14 -6 -34 18 -43 33 -13 33 -34 -1 -27 -16 3 -22 1
-16 -5 15 -15 46 -5 50 15 2 11 -6 20 -23 27 -30 11 -24 34 7 24 14 -4 18 -2
14 5 -8 12 -39 15 -49 4z"/>
<path d="M7986 6324 c-19 -19 -20 -35 -3 -58 15 -20 49 -19 53 2 1 7 0 8 -3 2
-8 -18 -41 -11 -48 10 -9 28 12 52 38 44 13 -4 17 -2 13 5 -10 16 -32 14 -50
-5z"/>
<path d="M9947 6334 c-4 -4 -7 -25 -7 -46 0 -36 2 -38 30 -38 36 0 43 13 32
55 -8 29 -39 45 -55 29z m38 -15 c10 -15 -1 -23 -20 -15 -9 3 -13 10 -10 16 8
13 22 13 30 -1z m10 -38 c3 -5 1 -13 -5 -16 -15 -9 -43 3 -35 15 8 13 32 13
40 1z"/>
<path d="M12260 6300 c0 -22 5 -40 10 -40 6 0 10 6 10 13 0 7 10 17 23 22 23
11 30 36 10 42 -7 3 -9 -3 -6 -16 4 -15 1 -21 -12 -21 -12 0 -16 6 -12 20 3
13 0 20 -9 20 -10 0 -14 -12 -14 -40z"/>
<path d="M12460 6330 c0 -5 -9 -10 -19 -10 -10 0 -21 -7 -25 -15 -9 -25 4 -45
30 -45 21 0 24 4 24 40 0 22 -2 40 -5 40 -3 0 -5 -4 -5 -10z m-2 -43 c2 -10
-3 -17 -12 -17 -18 0 -29 16 -21 31 9 14 29 6 33 -14z"/>
<path d="M12690 6302 c0 -23 3 -42 8 -42 9 0 9 66 -1 76 -4 4 -7 -11 -7 -34z"/>
<path d="M3203 6295 c0 -22 2 -30 4 -17 2 12 2 30 0 40 -3 9 -5 -1 -4 -23z"/>
<path d="M3530 6320 c0 -5 -9 -10 -19 -10 -11 0 -21 -6 -24 -12 -4 -10 -7 -10
-18 0 -30 28 -74 -3 -48 -34 15 -18 34 -18 50 2 11 14 13 14 21 0 5 -9 18 -16
28 -16 17 0 20 7 20 40 0 22 -2 40 -5 40 -3 0 -5 -4 -5 -10z m-70 -40 c0 -11
-7 -20 -15 -20 -8 0 -15 9 -15 20 0 11 7 20 15 20 8 0 15 -9 15 -20z m70 0 c0
-11 -7 -20 -15 -20 -8 0 -15 9 -15 20 0 11 7 20 15 20 8 0 15 -9 15 -20z"/>
<path d="M5520 6297 c0 -20 4 -38 8 -41 11 -6 9 60 -1 70 -4 4 -7 -9 -7 -29z"/>
<path d="M5920 6320 c0 -5 -9 -10 -19 -10 -11 0 -21 -6 -24 -12 -4 -10 -7 -10
-18 0 -32 30 -76 -5 -44 -37 13 -13 19 -14 36 -2 15 9 24 10 32 2 6 -6 19 -11
29 -11 14 0 18 8 18 40 0 22 -2 40 -5 40 -3 0 -5 -4 -5 -10z m-70 -40 c0 -11
-6 -20 -14 -20 -18 0 -29 16 -21 30 11 18 35 11 35 -10z m70 0 c0 -11 -6 -20
-14 -20 -18 0 -29 16 -21 30 11 18 35 11 35 -10z"/>
<path d="M6150 6297 c0 -20 4 -38 8 -41 11 -6 9 60 -1 70 -4 4 -7 -9 -7 -29z"/>
<path d="M7927 6312 c-35 -17 -34 -55 1 -60 25 -4 35 14 30 50 -3 22 -5 23
-31 10z m18 -32 c0 -8 -8 -16 -17 -18 -13 -2 -18 3 -18 18 0 15 5 20 18 18 9
-2 17 -10 17 -18z"/>
<path d="M8063 6290 c0 -25 2 -35 4 -22 2 12 2 32 0 45 -2 12 -4 2 -4 -23z"/>
<path d="M8257 6312 c-35 -17 -34 -55 1 -60 25 -4 35 14 30 50 -3 22 -5 23
-31 10z m13 -32 c0 -11 -7 -20 -15 -20 -8 0 -15 9 -15 20 0 11 7 20 15 20 8 0
15 -9 15 -20z"/>
<path d="M9640 6316 c0 -11 10 -16 31 -16 38 0 35 24 -4 28 -19 2 -27 -1 -27
-12z"/>
<path d="M3640 6310 c-13 -8 -12 -10 3 -10 11 0 17 -8 17 -25 0 -14 5 -25 10
-25 15 0 12 46 -3 58 -8 7 -18 7 -27 2z"/>
<path d="M3760 6305 c0 -8 5 -15 10 -15 6 0 10 7 10 15 0 8 -4 15 -10 15 -5 0
-10 -7 -10 -15z"/>
<path d="M6030 6310 c-13 -8 -12 -10 3 -10 11 0 17 -8 17 -25 0 -14 5 -25 10
-25 15 0 12 46 -3 58 -8 7 -18 7 -27 2z"/>
<path d="M6096 6313 c-12 -12 -6 -33 9 -33 21 0 19 -18 -2 -23 -14 -4 -12 -5
5 -6 26 -1 31 26 5 36 -15 6 -15 7 2 13 16 6 16 7 3 13 -9 3 -19 3 -22 0z"/>
<path d="M10220 6305 c-9 -11 -6 -16 12 -26 22 -12 22 -12 3 -20 -16 -6 -17
-8 -3 -8 25 -1 34 20 14 35 -16 12 -16 12 1 16 16 3 16 4 1 10 -9 4 -22 1 -28
-7z"/>
<path d="M10448 6313 c-21 -5 -29 -26 -17 -44 7 -11 9 -9 9 9 0 13 6 22 15 22
8 0 15 -9 15 -19 0 -11 4 -22 8 -25 4 -2 8 11 8 30 0 33 -4 36 -38 27z"/>
<path d="M12345 6300 c-8 -25 1 -40 25 -40 10 0 22 5 25 10 11 17 -6 50 -25
50 -10 0 -21 -9 -25 -20z m43 -13 c2 -10 -3 -17 -12 -17 -18 0 -29 16 -21 31
9 14 29 6 33 -14z"/>
<path d="M12494 6305 c-10 -24 4 -45 28 -44 l23 2 -22 4 c-15 3 -23 12 -23 25
0 15 5 19 20 15 11 -3 20 -1 20 4 0 15 -40 10 -46 -6z"/>
<path d="M12560 6311 c0 -6 7 -8 15 -5 11 5 15 -1 15 -20 0 -14 5 -26 11 -26
6 0 9 12 7 28 -2 19 -9 28 -25 30 -13 2 -23 -1 -23 -7z"/>
<path d="M12625 6311 c-3 -6 5 -15 17 -22 22 -12 22 -12 3 -20 -19 -7 -19 -8
3 -8 26 -1 30 24 5 33 -15 6 -15 8 -3 16 13 8 12 10 -2 10 -9 0 -19 -4 -23 -9z"/>
<path d="M3060 6268 c0 -24 4 -38 8 -32 4 6 15 13 25 17 10 4 17 17 17 32 0
20 -5 25 -25 25 -23 0 -25 -4 -25 -42z m40 12 c0 -11 -7 -20 -15 -20 -8 0 -15
9 -15 20 0 11 7 20 15 20 8 0 15 -9 15 -20z"/>
<path d="M3131 6268 c0 -24 3 -37 6 -30 2 6 13 12 23 12 10 0 20 7 24 15 9 25
-4 45 -30 45 -22 0 -24 -4 -23 -42z m45 21 c10 -17 -13 -36 -27 -22 -12 12 -4
33 11 33 5 0 12 -5 16 -11z"/>
<path d="M3236 6294 c-7 -18 10 -44 28 -43 7 0 6 2 -1 6 -15 6 -17 43 -3 43 6
0 10 -4 10 -10 0 -5 4 -10 10 -10 5 0 7 7 4 15 -8 20 -40 19 -48 -1z"/>
<path d="M3564 6295 c-13 -32 23 -63 40 -36 4 5 -3 7 -14 4 -15 -4 -20 0 -20
15 0 13 8 22 23 25 l22 4 -23 2 c-12 0 -25 -6 -28 -14z"/>
<path d="M3700 6295 c0 -8 7 -15 15 -15 21 0 19 -18 -2 -23 -14 -4 -12 -5 5
-6 26 -1 31 26 5 36 -15 6 -15 7 3 14 17 7 17 8 -3 8 -14 1 -23 -5 -23 -14z"/>
<path d="M5370 6271 l0 -39 31 15 c39 20 38 56 -3 61 -26 3 -28 1 -28 -37z
m50 9 c0 -11 -6 -20 -14 -20 -18 0 -29 16 -21 30 11 18 35 11 35 -10z"/>
<path d="M5446 6294 c-9 -22 17 -49 39 -40 10 3 15 15 13 28 -4 29 -42 37 -52
12z m44 -14 c0 -11 -6 -20 -14 -20 -18 0 -29 16 -21 30 11 18 35 11 35 -10z"/>
<path d="M5562 6280 c0 -19 2 -27 5 -17 2 9 2 25 0 35 -3 9 -5 1 -5 -18z"/>
<path d="M5954 6295 c-13 -32 23 -63 40 -36 4 5 -3 7 -14 4 -15 -4 -20 0 -20
15 0 13 8 22 23 25 l22 4 -23 2 c-12 0 -25 -6 -28 -14z"/>
<path d="M7686 6294 c-9 -22 17 -49 39 -40 10 3 15 15 13 28 -4 29 -42 37 -52
12z m44 -14 c0 -23 -25 -27 -33 -6 -7 16 1 26 20 26 7 0 13 -9 13 -20z"/>
<path d="M7764 6280 c1 -18 7 -26 24 -28 19 -3 22 1 21 30 -2 30 -2 31 -6 6
-5 -34 -30 -37 -36 -5 -3 19 -4 19 -3 -3z"/>
<path d="M7831 6283 c2 -24 2 -25 6 -5 6 31 31 28 36 -5 4 -26 4 -26 6 5 1 28
-2 32 -24 32 -21 0 -25 -4 -24 -27z"/>
<path d="M8094 6295 c-8 -21 2 -45 19 -45 21 0 38 25 31 44 -8 20 -43 21 -50
1z m41 -15 c0 -8 -8 -16 -17 -18 -13 -2 -18 3 -18 18 0 15 5 20 18 18 9 -2 17
-10 17 -18z"/>
<path d="M8163 6286 c1 -16 9 -32 17 -34 12 -4 13 -2 4 9 -7 8 -14 23 -17 34
-4 13 -5 9 -4 -9z"/>
<path d="M10068 6285 c-6 -30 -3 -43 8 -33 3 4 4 19 2 35 l-3 28 -7 -30z"/>
<path d="M10107 6303 c9 -3 9 -11 -3 -29 -16 -23 -15 -24 7 -23 13 0 18 3 11
6 -10 4 -10 10 3 29 15 23 14 24 -7 23 -13 0 -17 -3 -11 -6z"/>
<path d="M10167 6303 c9 -3 9 -11 -3 -29 -16 -23 -15 -24 7 -23 13 0 18 3 11
6 -10 4 -10 10 3 29 15 23 14 24 -7 23 -13 0 -17 -3 -11 -6z"/>
<path d="M10281 6268 c0 -24 3 -37 6 -30 2 6 13 12 23 12 10 0 20 7 24 15 9
25 -4 45 -30 45 -22 0 -24 -4 -23 -42z m44 12 c0 -8 -8 -16 -17 -18 -13 -2
-18 3 -18 18 0 15 5 20 18 18 9 -2 17 -10 17 -18z"/>
<path d="M10356 6294 c-9 -22 17 -49 39 -40 10 3 15 15 13 28 -4 29 -42 37
-52 12z m44 -14 c0 -21 -24 -28 -35 -10 -8 14 3 30 21 30 8 0 14 -9 14 -20z"/>
<path d="M5634 6265 c1 -41 8 -44 24 -10 15 32 16 56 2 35 -8 -12 -12 -12 -18
-2 -5 8 -8 -1 -8 -23z"/>
<path d="M10030 6275 c0 -14 4 -25 9 -25 4 0 6 11 3 25 -2 14 -6 25 -8 25 -2
0 -4 -11 -4 -25z"/>
<path d="M12560 6275 c0 -8 4 -15 10 -15 5 0 7 7 4 15 -4 8 -8 15 -10 15 -2 0
-4 -7 -4 -15z"/>
<path d="M3626 6272 c-3 -6 -1 -14 5 -17 14 -9 20 -2 10 14 -6 8 -11 9 -15 3z"/>
<path d="M6016 6272 c-3 -6 -1 -14 5 -17 14 -9 20 -2 10 14 -6 8 -11 9 -15 3z"/>
<path d="M8201 6264 c0 -11 3 -14 6 -6 3 7 2 16 -1 19 -3 4 -6 -2 -5 -13z"/>
<path d="M2553 6249 c-22 -22 -15 -91 11 -130 60 -87 189 -92 259 -10 33 39
44 93 27 129 l-13 27 -10 -44 c-11 -45 -68 -117 -86 -107 -6 4 -15 -3 -21 -14
-14 -25 -40 -26 -47 -1 -3 11 -17 21 -32 24 -34 7 -60 44 -69 98 -6 32 -9 38
-19 28z"/>
<path d="M2734 6242 c-1 -9 -3 -22 -5 -28 -2 -7 1 -14 6 -15 13 -5 20 40 8 52
-5 5 -9 1 -9 -9z"/>
<path d="M9639 6238 c5 -15 17 -23 32 -23 17 0 25 6 27 23 3 19 -1 22 -32 22
-32 0 -35 -2 -27 -22z"/>
<path d="M11926 6235 c-16 -24 -16 -27 1 -50 19 -26 43 -40 43 -25 0 5 -9 14
-20 20 -23 12 -27 50 -5 50 8 0 15 7 15 15 0 23 -16 18 -34 -10z"/>
<path d="M2650 6223 c0 -18 4 -33 9 -33 17 0 18 14 5 40 l-14 25 0 -32z"/>
<path d="M2772 6185 c-6 -14 -18 -25 -27 -25 -8 0 -15 -5 -15 -11 0 -6 5 -9
12 -7 15 5 53 56 46 63 -2 3 -10 -6 -16 -20z"/>
<path d="M2610 6190 c0 -13 40 -53 46 -47 3 3 -6 16 -20 30 -14 15 -26 22 -26
17z"/>
<path d="M7375 6190 c-4 -6 15 -10 49 -10 31 0 56 5 56 10 0 6 -22 10 -49 10
-28 0 -53 -4 -56 -10z"/>
<path d="M2396 3603 c-14 -38 -26 -74 -26 -81 0 -19 18 -14 25 8 5 15 15 20
40 20 25 0 35 -5 40 -20 3 -11 13 -20 21 -20 18 0 19 -8 -15 80 -16 41 -36 76
-44 78 -10 2 -23 -19 -41 -65z m57 -3 c3 -14 0 -23 -9 -27 -22 -8 -33 9 -23
35 10 26 24 23 32 -8z"/>
<path d="M2530 3590 c0 -47 4 -80 10 -80 6 0 10 33 10 80 0 47 -4 80 -10 80
-6 0 -10 -33 -10 -80z"/>
<path d="M2580 3590 c0 -47 4 -80 10 -80 6 0 10 33 10 80 0 47 -4 80 -10 80
-6 0 -10 -33 -10 -80z"/>
<path d="M2715 3595 c-15 -41 -25 -78 -22 -81 9 -9 27 5 27 22 0 9 11 14 36
14 27 0 37 -5 41 -20 3 -11 12 -20 20 -20 16 0 15 5 -20 95 -33 85 -49 83 -82
-10z m59 13 c9 -35 8 -38 -14 -38 -20 0 -25 15 -14 44 9 23 21 20 28 -6z"/>
<path d="M2878 3623 c-28 -4 -28 -5 -28 -79 0 -43 4 -74 10 -74 6 0 10 9 10
20 0 16 7 20 33 20 41 0 57 15 57 55 0 31 -26 67 -46 64 -5 -1 -21 -4 -36 -6z
m52 -28 c17 -21 4 -65 -19 -65 -30 0 -46 26 -33 55 13 28 34 32 52 10z"/>
<path d="M3018 3623 c-28 -4 -28 -5 -28 -79 0 -43 4 -74 10 -74 6 0 10 9 10
20 0 16 7 20 33 20 41 0 57 15 57 55 0 31 -26 67 -46 64 -5 -1 -21 -4 -36 -6z
m52 -27 c18 -22 9 -60 -16 -64 -31 -4 -50 23 -36 53 13 28 34 32 52 11z"/>
<path d="M3138 3619 c-28 -16 -21 -39 17 -55 47 -19 46 -38 -2 -29 -33 6 -35
5 -23 -10 9 -11 25 -15 49 -13 29 2 37 8 39 26 3 18 -4 26 -32 37 -20 9 -36
20 -36 25 0 13 16 13 41 0 15 -8 19 -7 19 4 0 24 -42 33 -72 15z"/>
<path d="M2584 2876 c-17 -7 -41 -26 -53 -42 l-22 -29 22 -18 c22 -18 23 -17
43 7 30 37 71 49 113 35 29 -9 38 -9 51 5 15 15 15 17 0 33 -23 22 -114 28
-154 9z"/>
<path d="M4920 2868 c-48 -25 -90 -89 -90 -138 1 -43 37 -108 72 -130 49 -30
58 -26 58 24 0 39 -3 45 -22 48 -18 2 -23 10 -23 33 0 23 5 31 23 33 18 3 22
10 22 37 0 41 29 65 77 65 30 0 33 -3 33 -30 0 -23 -5 -30 -19 -30 -10 0 -22
-7 -25 -16 -9 -22 -8 -22 17 -26 29 -4 31 -49 2 -62 -16 -7 -20 -18 -20 -52 0
-24 5 -44 10 -44 27 0 78 44 95 83 25 55 25 83 -2 137 -25 48 -89 90 -138 90
-14 0 -46 -10 -70 -22z"/>
<path d="M7225 2876 c-69 -31 -106 -120 -74 -177 13 -22 14 -20 20 43 8 98 20
108 129 108 115 0 124 -9 125 -122 0 -76 -1 -81 -29 -104 -31 -28 -30 -42 3
-25 54 30 75 170 33 228 -41 58 -137 80 -207 49z"/>
<path d="M9573 2851 c-45 -21 -83 -78 -83 -126 0 -37 23 -86 55 -115 23 -21
36 -25 91 -25 60 0 66 2 100 37 30 29 38 45 41 85 6 66 -19 111 -77 141 -54
27 -73 27 -127 3z m97 -40 c0 -5 -7 -14 -15 -21 -12 -10 -15 -10 -15 2 0 8 3
18 7 21 9 10 23 9 23 -2z m26 -43 c3 -4 1 -15 -5 -26 -7 -14 -6 -24 4 -39 22
-31 -4 -61 -52 -60 -47 0 -71 20 -79 64 -10 50 14 72 77 69 27 -1 51 -5 55 -8z"/>
<path d="M2934 2836 c-11 -27 1 -61 21 -64 18 -2 18 -2 3 8 -21 13 -23 41 -6
58 9 9 9 12 0 12 -7 0 -15 -6 -18 -14z"/>
<path d="M2970 2846 c0 -2 7 -7 16 -10 8 -3 12 -2 9 4 -6 10 -25 14 -25 6z"/>
<path d="M5271 2808 c0 -24 3 -36 6 -28 3 8 12 21 21 28 14 11 14 12 -1 12
-25 0 -21 18 6 23 19 4 18 4 -5 6 -27 1 -28 -1 -27 -41z"/>
<path d="M5541 2813 c-1 -24 3 -43 9 -43 5 0 9 10 7 23 -1 14 3 22 13 22 9 0
15 -9 14 -23 0 -14 3 -19 9 -13 6 6 16 6 27 -1 24 -15 50 -3 50 22 0 28 -26
36 -49 16 -16 -15 -19 -15 -24 -1 -4 8 -15 15 -26 15 -11 0 -22 6 -24 13 -3 6
-6 -7 -6 -30z m117 -16 c2 -10 -3 -17 -12 -17 -18 0 -29 16 -21 31 9 14 29 6
33 -14z"/>
<path d="M5761 2810 c-1 -34 2 -41 10 -30 8 11 12 12 16 3 2 -7 9 -13 14 -13
9 0 -8 39 -22 50 -3 3 -9 12 -12 20 -3 8 -6 -5 -6 -30z"/>
<path d="M7583 2810 c0 -25 2 -35 4 -22 2 12 2 32 0 45 -2 12 -4 2 -4 -23z"/>
<path d="M9925 2814 c-19 -46 -19 -47 4 -32 15 9 23 9 37 -3 16 -13 17 -12 11
4 -4 11 -10 30 -13 43 -9 34 -21 30 -39 -12z m35 -5 c0 -5 -4 -9 -10 -9 -5 0
-10 7 -10 16 0 8 5 12 10 9 6 -3 10 -10 10 -16z"/>
<path d="M10143 2810 c0 -25 2 -35 4 -22 2 12 2 32 0 45 -2 12 -4 2 -4 -23z"/>
<path d="M12213 2834 c3 -11 8 -29 12 -41 8 -29 25 -30 25 -2 0 11 -4 17 -10
14 -5 -3 -10 3 -10 14 0 11 -5 23 -11 27 -7 4 -9 0 -6 -12z"/>
<path d="M12250 2835 c0 -8 4 -15 10 -15 5 0 12 -11 16 -25 3 -14 10 -25 14
-25 9 0 24 70 16 78 -3 3 -6 -4 -6 -16 0 -31 -17 -36 -24 -7 -7 27 -26 34 -26
10z"/>
<path d="M12461 2808 c1 -24 3 -34 6 -23 8 31 22 42 33 25 6 -8 8 -21 5 -27
-2 -7 0 -13 5 -13 22 0 8 40 -20 60 l-30 21 1 -43z"/>
<path d="M7740 2811 c0 -42 16 -47 17 -5 1 19 -3 34 -8 34 -5 0 -9 -13 -9 -29z"/>
<path d="M12600 2805 c0 -19 4 -35 9 -35 5 0 9 16 9 35 0 19 -4 35 -9 35 -5 0
-9 -16 -9 -35z"/>
<path d="M3027 2823 c-10 -9 -8 -41 2 -47 5 -4 7 2 4 13 -6 22 14 38 29 23 8
-8 7 -16 -2 -27 -9 -11 -9 -15 -1 -15 18 0 25 29 11 45 -13 16 -32 19 -43 8z"/>
<path d="M3097 2823 c-10 -9 -8 -41 2 -47 5 -4 7 2 4 13 -6 22 14 38 29 23 8
-8 7 -16 -2 -27 -8 -9 -8 -15 -2 -15 16 0 24 18 17 40 -6 19 -35 27 -48 13z"/>
<path d="M3171 2816 c-12 -15 -5 -46 11 -46 6 0 5 7 -2 15 -16 20 3 46 21 28
12 -12 1 -63 -14 -63 -6 0 -8 -2 -5 -5 3 -3 13 -3 22 1 11 4 16 18 16 45 0 31
-4 39 -19 39 -10 0 -24 -6 -30 -14z"/>
<path d="M3272 2813 c-10 -19 -6 -43 7 -43 5 0 6 11 3 25 -2 15 0 25 7 25 6 0
11 -4 11 -10 0 -5 5 -10 11 -10 8 0 8 5 -1 15 -16 20 -27 19 -38 -2z"/>
<path d="M5358 2822 c7 -5 14 -19 15 -30 1 -12 5 -22 10 -22 4 0 7 12 5 27 -2
19 -10 29 -23 31 -14 2 -16 1 -7 -6z"/>
<path d="M5417 2823 c-4 -3 -7 -17 -7 -30 0 -18 5 -23 23 -22 16 1 18 2 5 6
-10 2 -18 13 -18 23 0 10 8 21 18 23 14 4 14 5 1 6 -9 0 -19 -2 -22 -6z"/>
<path d="M5480 2815 c-7 -9 -9 -22 -4 -32 6 -15 8 -13 12 10 3 25 22 40 22 17
0 -5 5 -10 11 -10 8 0 8 5 -1 15 -16 19 -24 19 -40 0z"/>
<path d="M5697 2824 c-10 -10 -9 -54 2 -54 4 0 6 11 3 25 -3 18 0 25 11 25 8
0 18 -5 20 -10 3 -6 4 -5 3 2 -3 15 -28 22 -39 12z"/>
<path d="M7233 2820 c-27 -11 -36 -40 -28 -90 8 -47 34 -56 27 -11 -5 35 34
81 68 81 22 0 70 -41 70 -60 0 -23 -31 -69 -50 -75 -26 -8 -16 -25 15 -25 51
0 55 7 55 91 0 76 -1 80 -26 89 -31 12 -101 12 -131 0z m147 -25 c0 -8 -6 -15
-14 -15 -17 0 -28 14 -19 24 12 12 33 6 33 -9z"/>
<path d="M7612 2800 c0 -19 2 -27 5 -17 2 9 2 25 0 35 -3 9 -5 1 -5 -18z"/>
<path d="M7636 2819 c7 -8 14 -23 17 -34 4 -13 5 -9 4 9 -1 16 -9 32 -17 34
-12 4 -13 2 -4 -9z"/>
<path d="M7680 2820 c0 -5 9 -19 20 -30 14 -14 20 -16 20 -6 0 8 -8 17 -17 20
-15 6 -15 8 -3 16 13 8 12 10 -2 10 -10 0 -18 -4 -18 -10z"/>
<path d="M7800 2822 c8 -4 15 -17 14 -29 -1 -13 3 -23 8 -23 5 0 8 12 6 27 -2
19 -9 29 -23 30 -15 2 -16 1 -5 -5z"/>
<path d="M7857 2823 c-10 -9 -9 -41 2 -47 4 -3 6 6 3 19 -3 18 0 25 12 25 12
0 16 -8 14 -32 -1 -18 -7 -37 -13 -41 -6 -5 -4 -7 5 -4 19 5 35 49 27 71 -6
16 -38 22 -50 9z"/>
<path d="M7927 2823 c-4 -3 -6 -18 -6 -32 1 -21 2 -22 6 -6 3 11 10 26 15 33
11 12 -3 18 -15 5z"/>
<path d="M7983 2824 c14 -4 18 -13 14 -30 -3 -15 0 -24 9 -24 21 0 1 55 -22
57 -17 2 -17 1 -1 -3z"/>
<path d="M8031 2798 c1 -29 2 -30 8 -9 10 36 31 38 32 4 1 -26 1 -26 7 -5 4
13 12 23 17 23 6 0 13 -10 17 -23 6 -20 7 -18 5 7 -2 28 -5 30 -44 33 -43 3
-43 2 -42 -30z"/>
<path d="M9998 2801 c-2 -17 -1 -36 4 -43 9 -15 12 -1 8 40 -1 15 4 22 15 22
13 0 16 -6 13 -25 -3 -14 -1 -25 4 -25 5 0 8 12 6 28 -2 19 -9 28 -24 30 -17
2 -22 -3 -26 -27z"/>
<path d="M10070 2789 c0 -24 4 -38 10 -34 6 3 7 17 4 30 -6 26 12 43 28 27 8
-8 7 -16 -2 -27 -7 -8 -8 -15 -2 -15 16 0 23 31 11 46 -6 8 -20 14 -30 14 -16
0 -19 -8 -19 -41z"/>
<path d="M10175 2810 c-4 -12 -3 -26 2 -31 5 -5 9 0 10 12 3 29 12 36 24 19 9
-13 10 -13 6 0 -6 24 -35 24 -42 0z"/>
<path d="M12337 2824 c-10 -11 -8 -54 2 -54 5 0 8 11 5 25 -3 18 0 25 11 25 9
0 13 -4 10 -10 -3 -5 -1 -10 5 -10 16 0 6 24 -11 28 -8 1 -18 0 -22 -4z"/>
<path d="M12401 2816 c-16 -19 -3 -46 23 -45 21 0 21 0 -1 9 -13 5 -23 14 -23
20 0 6 10 15 23 20 15 6 17 9 6 9 -9 1 -22 -5 -28 -13z"/>
<path d="M12553 2824 c14 -4 18 -13 14 -30 -3 -15 0 -24 9 -24 21 0 1 55 -22
57 -17 2 -17 1 -1 -3z"/>
<path d="M2984 2790 c0 -11 3 -20 7 -20 10 0 19 27 12 34 -12 11 -19 6 -19
-14z"/>
<path d="M5340 2780 c0 -5 5 -10 11 -10 5 0 7 5 4 10 -3 6 -8 10 -11 10 -2 0
-4 -4 -4 -10z"/>
<path d="M5725 2780 c-3 -5 -1 -10 4 -10 6 0 11 5 11 10 0 6 -2 10 -4 10 -3 0
-8 -4 -11 -10z"/>
<path d="M7780 2780 c0 -5 5 -10 11 -10 5 0 7 5 4 10 -3 6 -8 10 -11 10 -2 0
-4 -4 -4 -10z"/>
<path d="M7960 2780 c0 -5 5 -10 10 -10 6 0 10 5 10 10 0 6 -4 10 -10 10 -5 0
-10 -4 -10 -10z"/>
<path d="M12530 2780 c0 -5 5 -10 10 -10 6 0 10 5 10 10 0 6 -4 10 -10 10 -5
0 -10 -4 -10 -10z"/>
<path d="M7275 2754 c-18 -18 -16 -33 7 -47 35 -22 66 21 36 51 -16 16 -23 15
-43 -4z"/>
<path d="M2670 2730 c0 -17 6 -20 43 -18 l42 1 -37 4 c-21 2 -38 8 -38 13 0 7
37 8 104 1 13 -1 -4 -74 -21 -93 -9 -10 -12 -18 -7 -18 16 0 34 39 41 85 l6
45 -67 0 c-59 0 -66 -2 -66 -20z"/>
<path d="M2757 2685 c-4 -11 -10 -27 -13 -35 -5 -12 -3 -12 11 1 9 9 15 25 13
35 -4 18 -4 18 -11 -1z"/>
<path d="M9594 1844 c-40 -9 -103 -73 -114 -115 -29 -105 51 -208 160 -209 78
0 160 84 160 164 0 44 -35 108 -72 133 -34 22 -96 35 -134 27z"/>
<path d="M11903 1840 c-129 -30 -171 -185 -73 -273 20 -19 53 -37 73 -41 82
-15 166 37 187 115 31 114 -73 225 -187 199z m32 -117 c0 -18 2 -33 5 -33 13
0 35 37 32 53 -3 15 2 18 30 15 23 -2 33 -8 33 -20 0 -10 6 -23 13 -30 17 -17
15 -68 -5 -90 -20 -22 -51 -23 -80 -3 -18 13 -22 13 -33 0 -8 -10 -31 -15 -66
-15 l-54 0 0 79 c0 47 4 81 11 83 6 2 34 1 62 -2 51 -5 52 -6 52 -37z"/>
<path d="M11855 1720 c-8 -12 20 -24 35 -15 6 3 8 11 5 16 -8 12 -32 12 -40
-1z"/>
<path d="M11860 1655 c0 -8 9 -15 20 -15 11 0 20 7 20 15 0 8 -9 15 -20 15
-11 0 -20 -7 -20 -15z"/>
<path d="M11998 1643 c7 -3 16 -2 19 1 4 3 -2 6 -13 5 -11 0 -14 -3 -6 -6z"/>
<path d="M2943 1803 c-22 -8 -14 -33 12 -43 35 -13 33 -34 -2 -25 -21 5 -25 4
-17 -5 16 -17 48 -8 52 13 3 12 -4 20 -17 24 -12 3 -21 12 -21 20 0 10 7 12
23 8 17 -5 19 -4 7 4 -16 12 -19 12 -37 4z"/>
<path d="M7587 1803 c-15 -14 -6 -34 19 -43 28 -11 23 -35 -7 -27 -11 3 -19 1
-19 -5 0 -16 55 -4 58 13 1 9 -8 20 -23 27 -30 14 -34 37 -5 29 11 -3 18 -1
14 4 -6 11 -28 12 -37 2z"/>
<path d="M9920 1765 c0 -41 2 -45 25 -45 22 0 45 24 45 49 0 16 -30 41 -51 41
-16 0 -19 -7 -19 -45z m50 14 c9 -15 8 -24 -1 -35 -19 -24 -39 -17 -39 14 0
46 21 57 40 21z"/>
<path d="M12220 1765 c0 -40 2 -45 23 -45 13 0 28 5 35 12 8 8 15 8 26 -1 9
-7 21 -11 28 -8 8 4 7 6 -4 6 -20 1 -21 41 0 41 7 0 10 -4 7 -10 -3 -5 -1 -10
4 -10 17 0 13 20 -5 27 -10 4 -22 -1 -30 -11 -15 -21 -36 -13 -27 10 7 18 -12
34 -39 34 -15 0 -18 -9 -18 -45z m40 20 c0 -8 -7 -15 -15 -15 -16 0 -20 12 -8
23 11 12 23 8 23 -8z m8 -42 c2 -8 -5 -13 -17 -13 -12 0 -21 6 -21 16 0 18 31
15 38 -3z"/>
<path d="M3012 1760 c1 -29 2 -35 5 -17 2 15 10 27 18 27 8 0 16 -12 18 -27
l4 -28 2 28 c0 18 -5 30 -16 34 -10 4 -21 11 -25 17 -4 6 -7 -9 -6 -34z"/>
<path d="M3227 1793 c-3 -5 -2 -24 2 -43 l7 -35 5 32 c6 33 -4 63 -14 46z"/>
<path d="M5273 1760 c12 -42 27 -54 27 -20 0 11 -4 20 -10 20 -5 0 -10 9 -10
20 0 11 -4 20 -9 20 -4 0 -3 -18 2 -40z"/>
<path d="M5310 1786 c0 -8 5 -18 10 -21 6 -3 10 -15 10 -26 0 -32 18 -21 29
18 6 20 9 39 6 41 -2 2 -7 -7 -11 -22 -7 -29 -24 -26 -24 5 0 10 -4 19 -10 19
-5 0 -10 -6 -10 -14z"/>
<path d="M5381 1762 c0 -32 1 -34 9 -14 12 27 30 29 30 2 0 -11 4 -20 9 -20
18 0 -2 46 -25 57 -23 11 -24 10 -23 -25z"/>
<path d="M5520 1767 c0 -20 4 -38 8 -41 11 -6 9 60 -1 70 -4 4 -7 -9 -7 -29z"/>
<path d="M7931 1763 c0 -35 1 -36 11 -15 6 12 14 22 18 22 4 0 12 -10 19 -22
11 -23 11 -23 5 2 -4 14 -7 25 -8 25 0 0 -11 6 -23 13 -22 12 -23 11 -22 -25z"/>
<path d="M10072 1763 c3 -33 6 -38 28 -38 33 0 42 44 11 52 -12 3 -21 9 -21
14 0 5 -5 9 -11 9 -6 0 -9 -16 -7 -37z m48 -13 c0 -11 -7 -20 -15 -20 -8 0
-15 9 -15 20 0 11 7 20 15 20 8 0 15 -9 15 -20z"/>
<path d="M10151 1763 c-1 -24 3 -43 8 -43 4 0 6 11 3 25 -3 19 0 25 13 25 13
0 16 -6 13 -25 -6 -27 6 -34 16 -10 8 22 -4 45 -24 45 -10 0 -21 6 -23 13 -3
6 -6 -7 -6 -30z"/>
<path d="M10220 1762 c0 -41 1 -43 28 -40 21 2 27 8 27 28 0 17 -6 26 -20 29
-11 2 -23 8 -27 15 -4 6 -8 -8 -8 -32z m46 -3 c10 -17 -13 -36 -27 -22 -12 12
-4 33 11 33 5 0 12 -5 16 -11z"/>
<path d="M10303 1765 c0 -22 2 -30 4 -17 2 12 2 30 0 40 -3 9 -5 -1 -4 -23z"/>
<path d="M12372 1765 c0 -24 2 -31 5 -17 6 29 25 24 34 -9 7 -23 7 -23 8 4 1
18 -5 30 -16 34 -10 4 -21 11 -25 17 -4 6 -7 -7 -6 -29z"/>
<path d="M8070 1761 c0 -42 16 -47 17 -5 1 19 -3 34 -8 34 -5 0 -9 -13 -9 -29z"/>
<path d="M2715 1758 c-2 -13 -6 -67 -7 -121 -3 -106 1 -114 47 -74 26 22 26
23 15 92 -17 111 -21 125 -36 125 -7 0 -16 -10 -19 -22z"/>
<path d="M3076 1764 c-9 -22 17 -49 39 -40 10 3 15 15 13 28 -4 29 -42 37 -52
12z m44 -14 c0 -11 -7 -20 -15 -20 -8 0 -15 9 -15 20 0 11 7 20 15 20 8 0 15
-9 15 -20z"/>
<path d="M3150 1738 c0 -31 3 -39 10 -28 5 8 7 22 4 32 -6 20 14 34 28 20 8
-8 7 -16 -3 -28 -12 -15 -12 -17 1 -12 8 2 15 16 15 29 0 19 -6 25 -27 27 -27
3 -28 1 -28 -40z"/>
<path d="M3266 1765 c4 -11 8 -30 8 -42 1 -32 12 -28 25 8 13 39 14 49 1 29
-8 -13 -11 -12 -25 5 -17 20 -17 20 -9 0z"/>
<path d="M5471 1772 c9 -4 15 -17 14 -29 -1 -13 2 -23 7 -23 4 0 8 14 8 30 0
25 -4 30 -22 29 -18 0 -19 -2 -7 -7z"/>
<path d="M5560 1765 c0 -8 7 -15 15 -15 8 0 15 -7 15 -16 0 -9 5 -12 12 -8 8
5 4 13 -11 25 -19 16 -20 18 -4 22 14 4 13 5 -4 6 -14 1 -23 -5 -23 -14z"/>
<path d="M5641 1772 c9 -4 15 -17 14 -29 -1 -13 2 -23 7 -23 4 0 8 14 8 30 0
25 -4 30 -22 29 -18 0 -19 -2 -7 -7z"/>
<path d="M5690 1738 c0 -31 3 -39 10 -28 5 8 7 22 4 32 -6 20 14 34 28 20 8
-8 7 -16 -3 -28 -12 -15 -12 -17 1 -12 8 2 15 16 15 29 0 19 -6 25 -27 27 -27
3 -28 1 -28 -40z"/>
<path d="M5766 1771 c-4 -5 -5 -23 -4 -39 2 -28 3 -28 31 -14 20 10 27 20 25
36 -3 22 -41 35 -52 17z m44 -21 c0 -11 -6 -20 -13 -20 -19 0 -27 10 -20 26 8
21 33 17 33 -6z"/>
<path d="M7650 1748 c0 -36 4 -35 14 5 4 16 2 27 -4 27 -5 0 -10 -14 -10 -32z"/>
<path d="M7685 1770 c3 -5 8 -10 11 -10 2 0 4 5 4 10 0 6 -5 10 -11 10 -5 0
-7 -4 -4 -10z"/>
<path d="M7741 1772 c9 -4 15 -17 14 -29 -1 -13 2 -23 7 -23 4 0 8 14 8 30 0
25 -4 30 -22 29 -18 0 -19 -2 -7 -7z"/>
<path d="M7791 1738 c0 -24 3 -37 6 -30 2 6 13 12 23 12 10 0 22 5 26 11 4 8
9 8 17 0 6 -6 20 -11 32 -10 19 0 19 1 -2 9 -13 5 -23 14 -23 20 0 6 10 15 23
20 22 9 22 9 1 9 -12 1 -25 -7 -29 -16 -6 -17 -7 -17 -16 0 -6 9 -21 17 -34
17 -23 0 -25 -4 -24 -42z m47 9 c2 -10 -3 -17 -12 -17 -18 0 -29 16 -21 31 9
14 29 6 33 -14z"/>
<path d="M8021 1772 c9 -4 15 -17 14 -29 -1 -13 2 -23 7 -23 4 0 8 14 8 30 0
25 -4 30 -22 29 -18 0 -19 -2 -7 -7z"/>
<path d="M8110 1765 c0 -8 7 -15 15 -15 8 0 15 -7 15 -16 0 -9 5 -12 12 -8 8
5 4 13 -11 25 -19 16 -20 18 -4 22 14 4 13 5 -4 6 -14 1 -23 -5 -23 -14z"/>
<path d="M10001 1748 c1 -22 3 -26 6 -13 3 11 10 26 15 33 8 9 6 12 -6 12 -12
0 -16 -9 -15 -32z"/>
<path d="M10042 1755 c0 -16 2 -22 5 -12 2 9 2 23 0 30 -3 6 -5 -1 -5 -18z"/>
<path d="M10325 1760 c-8 -25 1 -40 23 -39 11 0 12 3 5 6 -15 6 -17 43 -3 43
6 0 10 -4 10 -10 0 -5 4 -10 10 -10 5 0 7 7 4 15 -9 22 -42 18 -49 -5z"/>
<path d="M12453 1772 c10 -4 18 -11 18 -15 -3 -25 0 -37 10 -37 6 0 9 12 7 28
-2 21 -9 28 -28 29 -20 2 -21 1 -7 -5z"/>
<path d="M12507 1773 c-4 -3 -7 -16 -6 -27 0 -20 1 -20 11 2 6 12 15 22 20 22
5 0 13 -10 18 -22 5 -13 9 -18 9 -11 2 34 -31 57 -52 36z"/>
<path d="M12575 1760 c-8 -26 1 -40 28 -39 l22 0 -22 9 c-13 5 -23 14 -23 20
0 6 10 15 23 20 l22 9 -22 0 c-13 1 -24 -7 -28 -19z"/>
<path d="M12647 1774 c-10 -10 -9 -42 2 -48 4 -3 7 6 5 19 -1 17 3 25 12 25 9
0 12 -4 9 -10 -3 -5 -1 -10 5 -10 16 0 6 24 -11 28 -8 1 -18 0 -22 -4z"/>
<path d="M12440 1735 c0 -8 4 -15 10 -15 5 0 7 7 4 15 -4 8 -8 15 -10 15 -2 0
-4 -7 -4 -15z"/>
<path d="M5450 1730 c0 -5 5 -10 11 -10 5 0 7 5 4 10 -3 6 -8 10 -11 10 -2 0
-4 -4 -4 -10z"/>
<path d="M5620 1730 c0 -5 5 -10 11 -10 5 0 7 5 4 10 -3 6 -8 10 -11 10 -2 0
-4 -4 -4 -10z"/>
<path d="M7720 1730 c0 -5 5 -10 11 -10 5 0 7 5 4 10 -3 6 -8 10 -11 10 -2 0
-4 -4 -4 -10z"/>
<path d="M8000 1730 c0 -5 5 -10 11 -10 5 0 7 5 4 10 -3 6 -8 10 -11 10 -2 0
-4 -4 -4 -10z"/>
<path d="M1290 1244 c0 -18 53 -74 69 -74 20 0 12 17 -19 41 -16 13 -30 30
-30 37 0 6 -4 12 -10 12 -5 0 -10 -7 -10 -16z"/>
</g>
</svg>
