<?xml version="1.0" standalone="no"?>
<!DOCTYPE svg PUBLIC "-//W3C//DTD SVG 20010904//EN"
 "http://www.w3.org/TR/2001/REC-SVG-20010904/DTD/svg10.dtd">
<svg version="1.0" xmlns="http://www.w3.org/2000/svg"
 width="512.000000pt" height="512.000000pt" viewBox="0 0 512.000000 512.000000"
 preserveAspectRatio="xMidYMid meet">

<g transform="translate(0.000000,512.000000) scale(0.100000,-0.100000)"
fill="#000000" stroke="none">
<path d="M3445 4169 c-31 -17 -305 -291 -321 -321 -18 -34 -18 -82 0 -116 8
-15 200 -211 425 -437 l411 -410 -1934 -5 -1935 -5 -28 -21 c-57 -42 -63 -68
-63 -294 0 -226 6 -252 63 -294 l28 -21 1935 -5 1934 -5 -411 -410 c-225 -225
-417 -422 -425 -437 -18 -34 -18 -81 0 -116 24 -45 308 -320 339 -327 15 -4
44 -4 65 0 33 6 125 94 805 773 550 550 770 776 778 800 27 82 62 43 -764 871
-442 443 -776 769 -794 777 -38 17 -80 18 -108 3z"/>
</g>
</svg>
