<?xml version="1.0" standalone="no"?>
<!DOCTYPE svg PUBLIC "-//W3C//DTD SVG 20010904//EN"
 "http://www.w3.org/TR/2001/REC-SVG-20010904/DTD/svg10.dtd">
<svg version="1.0" xmlns="http://www.w3.org/2000/svg"
 width="1208.000000pt" height="813.000000pt" viewBox="0 0 1208.000000 813.000000"
 preserveAspectRatio="xMidYMid meet">

<g transform="translate(0.000000,813.000000) scale(0.100000,-0.100000)"
fill="#000000" stroke="none">
<path d="M166 8112 c-2 -4 -1 -14 4 -21 10 -17 31 -5 23 14 -6 16 -19 20 -27
7z"/>
<path d="M364 8109 c-5 -9 -2 -10 11 -5 16 6 16 4 4 -10 -12 -15 -12 -17 1
-12 18 6 20 30 3 35 -6 2 -15 -1 -19 -8z"/>
<path d="M575 8110 c-7 -11 2 -30 15 -30 4 0 10 6 13 14 6 16 -19 30 -28 16z"/>
<path d="M776 8112 c-2 -4 0 -14 5 -22 8 -13 10 -13 18 0 10 15 6 30 -9 30 -5
0 -11 -4 -14 -8z"/>
<path d="M975 8110 c-7 -11 2 -30 15 -30 4 0 10 6 13 14 6 16 -19 30 -28 16z"/>
<path d="M1176 8112 c-2 -4 0 -14 5 -22 8 -13 10 -13 18 0 10 15 6 30 -9 30
-5 0 -11 -4 -14 -8z"/>
<path d="M1375 8111 c-2 -5 1 -14 9 -20 10 -9 15 -8 19 3 6 15 -19 31 -28 17z"/>
<path d="M1583 8112 c-8 -5 -9 -13 -3 -22 7 -12 12 -12 22 -2 14 14 -1 35 -19
24z"/>
<path d="M1775 8111 c-2 -5 1 -14 9 -20 10 -9 15 -8 19 3 6 15 -19 31 -28 17z"/>
<path d="M1983 8112 c-8 -5 -9 -13 -3 -22 7 -12 12 -12 22 -2 14 14 -1 35 -19
24z"/>
<path d="M2190 8110 c-12 -7 -12 -12 -3 -21 15 -15 26 -7 21 15 -2 11 -7 13
-18 6z"/>
<path d="M2384 8109 c-3 -6 -1 -16 5 -22 9 -9 14 -8 21 3 9 15 4 30 -10 30 -5
0 -12 -5 -16 -11z"/>
<path d="M2590 8110 c-12 -7 -12 -12 -3 -21 15 -15 26 -7 21 15 -2 11 -7 13
-18 6z"/>
<path d="M2786 8112 c-2 -4 -1 -14 4 -22 7 -11 12 -12 21 -3 6 6 8 16 5 22 -8
13 -23 14 -30 3z"/>
<path d="M2990 8099 c0 -12 5 -19 12 -17 18 6 20 25 3 31 -10 5 -15 0 -15 -14z"/>
<path d="M3186 8112 c-2 -4 -1 -14 4 -22 7 -11 12 -12 21 -3 6 6 8 16 5 22 -8
13 -23 14 -30 3z"/>
<path d="M3390 8099 c0 -12 5 -19 12 -17 18 6 20 25 3 31 -10 5 -15 0 -15 -14z"/>
<path d="M3595 8110 c-7 -11 2 -30 15 -30 4 0 10 6 13 14 6 16 -19 30 -28 16z"/>
<path d="M3803 8112 c-7 -4 -8 -13 -4 -20 6 -10 10 -10 20 2 13 16 2 29 -16
18z"/>
<path d="M3995 8110 c-7 -11 2 -30 15 -30 4 0 10 6 13 14 6 16 -19 30 -28 16z"/>
<path d="M4203 8112 c-7 -4 -8 -13 -4 -20 6 -10 10 -10 20 2 13 16 2 29 -16
18z"/>
<path d="M4396 8112 c-2 -4 0 -14 5 -22 8 -13 10 -13 18 0 10 15 6 30 -9 30
-5 0 -11 -4 -14 -8z"/>
<path d="M4603 8112 c-8 -5 -9 -13 -3 -22 7 -12 12 -12 22 -2 14 14 -1 35 -19
24z"/>
<path d="M4796 8112 c-2 -4 0 -14 5 -22 8 -13 10 -13 18 0 10 15 6 30 -9 30
-5 0 -11 -4 -14 -8z"/>
<path d="M5003 8112 c-8 -5 -9 -13 -3 -22 7 -12 12 -12 22 -2 14 14 -1 35 -19
24z"/>
<path d="M5205 8110 c-8 -12 2 -30 17 -30 6 0 6 6 -2 15 -11 13 -10 14 5 9 13
-5 16 -4 11 4 -9 15 -23 15 -31 2z"/>
<path d="M5407 8105 c-8 -19 13 -31 23 -14 9 14 4 29 -10 29 -4 0 -10 -7 -13
-15z"/>
<path d="M5605 8110 c-8 -12 2 -30 17 -30 6 0 6 6 -2 15 -11 13 -10 14 5 9 13
-5 16 -4 11 4 -9 15 -23 15 -31 2z"/>
<path d="M5804 8109 c-5 -9 -2 -10 11 -5 16 6 16 4 4 -10 -12 -15 -12 -17 1
-12 18 6 20 30 3 35 -6 2 -15 -1 -19 -8z"/>
<path d="M6006 8112 c-2 -4 -1 -14 4 -21 10 -17 31 -5 23 14 -6 16 -19 20 -27
7z"/>
<path d="M166 7822 c-2 -4 -1 -14 4 -22 7 -11 12 -12 21 -3 6 6 8 16 5 22 -8
13 -23 14 -30 3z"/>
<path d="M367 7823 c-3 -3 -3 -11 0 -18 5 -14 33 -9 33 5 0 10 -26 20 -33 13z"/>
<path d="M581 7816 c-10 -12 -6 -26 10 -26 11 0 19 29 10 35 -5 2 -14 -1 -20
-9z"/>
<path d="M774 7819 c-3 -6 -1 -16 5 -22 9 -9 14 -8 21 3 9 15 4 30 -10 30 -5
0 -12 -5 -16 -11z"/>
<path d="M974 7819 c-3 -6 -1 -16 5 -22 9 -9 14 -8 21 3 9 15 4 30 -10 30 -5
0 -12 -5 -16 -11z"/>
<path d="M1174 7819 c-3 -6 -1 -16 5 -22 9 -9 14 -8 21 3 9 15 4 30 -10 30 -5
0 -12 -5 -16 -11z"/>
<path d="M1376 7822 c-2 -4 -1 -14 4 -22 7 -11 12 -12 21 -3 6 6 8 16 5 22 -8
13 -23 14 -30 3z"/>
<path d="M1576 7822 c-2 -4 -1 -14 4 -22 7 -11 12 -12 21 -3 6 6 8 16 5 22 -8
13 -23 14 -30 3z"/>
<path d="M1776 7822 c-2 -4 -1 -14 4 -22 7 -11 12 -12 21 -3 6 6 8 16 5 22 -8
13 -23 14 -30 3z"/>
<path d="M1976 7822 c-2 -4 -1 -14 4 -22 7 -11 12 -12 21 -3 6 6 8 16 5 22 -8
13 -23 14 -30 3z"/>
<path d="M2184 7819 c-3 -6 -1 -16 5 -22 9 -9 14 -8 21 3 9 15 4 30 -10 30 -5
0 -12 -5 -16 -11z"/>
<path d="M2384 7819 c-3 -6 -1 -16 5 -22 9 -9 14 -8 21 3 9 15 4 30 -10 30 -5
0 -12 -5 -16 -11z"/>
<path d="M2584 7819 c-3 -6 -1 -16 5 -22 9 -9 14 -8 21 3 9 15 4 30 -10 30 -5
0 -12 -5 -16 -11z"/>
<path d="M2786 7822 c-2 -4 -1 -14 4 -22 7 -11 12 -12 21 -3 6 6 8 16 5 22 -8
13 -23 14 -30 3z"/>
<path d="M2986 7822 c-2 -4 -1 -14 4 -22 7 -11 12 -12 21 -3 6 6 8 16 5 22 -8
13 -23 14 -30 3z"/>
<path d="M3186 7822 c-2 -4 -1 -14 4 -22 7 -11 12 -12 21 -3 6 6 8 16 5 22 -8
13 -23 14 -30 3z"/>
<path d="M3386 7822 c-2 -4 -1 -14 4 -22 7 -11 12 -12 21 -3 6 6 8 16 5 22 -8
13 -23 14 -30 3z"/>
<path d="M3594 7819 c-3 -6 -1 -16 5 -22 9 -9 14 -8 21 3 9 15 4 30 -10 30 -5
0 -12 -5 -16 -11z"/>
<path d="M3794 7819 c-3 -6 -1 -16 5 -22 9 -9 14 -8 21 3 9 15 4 30 -10 30 -5
0 -12 -5 -16 -11z"/>
<path d="M3994 7819 c-3 -6 -1 -16 5 -22 9 -9 14 -8 21 3 9 15 4 30 -10 30 -5
0 -12 -5 -16 -11z"/>
<path d="M4194 7819 c-3 -6 -1 -16 5 -22 9 -9 14 -8 21 3 9 15 4 30 -10 30 -5
0 -12 -5 -16 -11z"/>
<path d="M4396 7822 c-2 -4 -1 -14 4 -22 7 -11 12 -12 21 -3 6 6 8 16 5 22 -8
13 -23 14 -30 3z"/>
<path d="M4596 7822 c-2 -4 -1 -14 4 -22 7 -11 12 -12 21 -3 6 6 8 16 5 22 -8
13 -23 14 -30 3z"/>
<path d="M4796 7822 c-2 -4 -1 -14 4 -22 7 -11 12 -12 21 -3 6 6 8 16 5 22 -8
13 -23 14 -30 3z"/>
<path d="M4996 7822 c-2 -4 -1 -14 4 -22 7 -11 12 -12 21 -3 6 6 8 16 5 22 -8
13 -23 14 -30 3z"/>
<path d="M5204 7819 c-3 -6 -1 -16 5 -22 9 -9 14 -8 21 3 9 15 4 30 -10 30 -5
0 -12 -5 -16 -11z"/>
<path d="M5404 7819 c-3 -6 -1 -16 5 -22 9 -9 14 -8 21 3 9 15 4 30 -10 30 -5
0 -12 -5 -16 -11z"/>
<path d="M5604 7819 c-3 -6 -1 -16 5 -22 9 -9 14 -8 21 3 9 15 4 30 -10 30 -5
0 -12 -5 -16 -11z"/>
<path d="M5806 7822 c-2 -4 -1 -14 4 -22 7 -11 12 -12 21 -3 6 6 8 16 5 22 -8
13 -23 14 -30 3z"/>
<path d="M6006 7822 c-2 -4 -1 -14 4 -22 7 -11 12 -12 21 -3 6 6 8 16 5 22 -8
13 -23 14 -30 3z"/>
<path d="M173 7532 c-8 -5 -9 -13 -3 -22 7 -12 12 -12 22 -2 14 14 -1 35 -19
24z"/>
<path d="M366 7531 c-3 -5 0 -14 8 -20 10 -9 15 -8 19 3 9 22 -15 37 -27 17z"/>
<path d="M575 7530 c-7 -12 2 -30 16 -30 5 0 9 9 9 20 0 21 -15 27 -25 10z"/>
<path d="M166 7242 c-2 -4 -1 -14 4 -22 7 -11 12 -12 21 -3 6 6 8 16 5 22 -8
13 -23 14 -30 3z"/>
<path d="M366 7242 c-2 -4 -1 -14 4 -22 7 -11 12 -12 21 -3 6 6 8 16 5 22 -8
13 -23 14 -30 3z"/>
<path d="M575 7240 c-7 -12 2 -30 16 -30 5 0 9 9 9 20 0 21 -15 27 -25 10z"/>
<path d="M2067 7013 c-10 -3 -20 -18 -24 -34 -3 -16 -12 -29 -19 -29 -8 0 -14
-7 -14 -15 0 -8 7 -15 15 -15 12 0 15 -14 15 -70 0 -63 2 -70 20 -70 18 0 20
7 20 70 0 56 3 70 15 70 8 0 15 7 15 15 0 8 -7 15 -15 15 -22 0 -18 28 5 40
36 19 13 35 -33 23z"/>
<path d="M1280 6997 c-14 -7 -33 -29 -44 -50 -55 -113 72 -222 157 -135 28 28
30 33 14 36 -11 2 -29 -6 -42 -18 -47 -45 -113 5 -102 76 3 20 11 42 18 50 18
22 76 18 91 -6 13 -21 48 -28 48 -9 0 6 -13 24 -29 40 -32 32 -69 37 -111 16z"/>
<path d="M1460 6895 c0 -107 1 -115 20 -115 16 0 19 8 22 61 3 65 19 88 52 76
12 -5 16 -20 16 -72 0 -58 2 -65 20 -65 18 0 20 7 20 68 0 54 -4 72 -18 85
-21 19 -45 21 -73 7 -17 -10 -19 -7 -19 30 0 33 -3 40 -20 40 -19 0 -20 -7
-20 -115z"/>
<path d="M2557 6990 c-15 -12 -27 -28 -27 -36 0 -21 29 -17 49 7 12 16 23 20
39 15 39 -13 28 -52 -33 -115 -30 -32 -55 -63 -55 -69 0 -8 25 -12 75 -12 60
0 75 3 75 15 0 11 -12 15 -45 15 -25 0 -45 3 -45 6 0 4 20 29 45 55 64 69 58
123 -15 135 -27 4 -42 1 -63 -16z"/>
<path d="M2768 6934 c-65 -101 -64 -114 7 -114 48 0 55 -2 55 -20 0 -11 7 -20
15 -20 8 0 15 9 15 20 0 11 7 20 15 20 8 0 15 6 15 14 0 8 -7 16 -15 20 -11 4
-15 23 -15 81 0 71 -1 75 -22 75 -18 0 -34 -18 -70 -76z m58 -70 c-5 -14 -66
-20 -66 -7 0 3 15 29 33 57 l32 51 3 -44 c2 -24 1 -50 -2 -57z"/>
<path d="M3010 6895 c0 -96 3 -115 15 -115 11 0 15 12 15 51 0 58 13 89 38 89
31 0 42 -22 42 -82 0 -53 2 -58 21 -58 21 0 21 4 17 70 -3 38 -11 77 -18 85
-14 17 -65 20 -75 5 -13 -22 -25 -8 -25 30 0 29 -4 40 -15 40 -12 0 -15 -19
-15 -115z"/>
<path d="M1840 6970 c0 -11 -4 -20 -10 -20 -5 0 -10 -7 -10 -15 0 -8 5 -15 10
-15 6 0 10 -24 10 -54 0 -61 16 -86 55 -86 26 0 26 24 -1 34 -20 8 -20 106 1
106 8 0 15 7 15 15 0 8 -7 15 -15 15 -8 0 -15 9 -15 20 0 13 -7 20 -20 20 -13
0 -20 -7 -20 -20z"/>
<path d="M166 6942 c-2 -4 -1 -14 4 -22 7 -11 12 -12 21 -3 6 6 8 16 5 22 -8
13 -23 14 -30 3z"/>
<path d="M366 6942 c-2 -4 -1 -14 4 -22 7 -11 12 -12 21 -3 6 6 8 16 5 22 -8
13 -23 14 -30 3z"/>
<path d="M575 6940 c-7 -12 2 -30 16 -30 5 0 9 9 9 20 0 21 -15 27 -25 10z"/>
<path d="M1669 6931 c-22 -18 -23 -20 -5 -27 11 -4 21 -2 26 5 10 17 55 10 55
-9 0 -9 -16 -17 -42 -23 -54 -10 -72 -37 -48 -73 17 -26 62 -33 83 -12 9 9 12
9 12 0 0 -7 9 -12 20 -12 18 0 20 7 20 69 0 61 -3 72 -22 85 -30 22 -71 20
-99 -3z m81 -91 c0 -23 -32 -43 -54 -34 -23 9 -19 33 7 44 35 14 47 12 47 -10z"/>
<path d="M2168 6939 c-42 -24 -40 -127 2 -149 47 -25 102 -6 118 39 13 38 -2
97 -28 111 -24 13 -70 12 -92 -1z m84 -44 c18 -41 0 -80 -37 -80 -23 0 -32 6
-39 27 -14 39 6 78 39 78 18 0 29 -8 37 -25z"/>
<path d="M2330 6865 c0 -78 2 -85 20 -85 18 0 20 7 20 58 0 60 11 82 42 82 10
0 18 7 18 15 0 18 -31 20 -48 3 -9 -9 -12 -9 -12 0 0 7 -9 12 -20 12 -18 0
-20 -7 -20 -85z"/>
<path d="M3215 6925 c-52 -51 -16 -145 55 -145 44 0 80 39 80 85 0 46 -36 85
-80 85 -19 0 -40 -9 -55 -25z m84 -19 c17 -20 10 -77 -11 -90 -26 -16 -52 4
-56 43 -4 36 12 61 38 61 10 0 23 -6 29 -14z"/>
<path d="M3390 6881 c0 -50 4 -74 16 -85 20 -21 53 -20 76 1 17 15 18 15 18 0
0 -10 7 -17 15 -17 12 0 15 16 15 85 0 69 -3 85 -15 85 -11 0 -15 -13 -15 -54
0 -36 -5 -60 -16 -70 -37 -38 -64 -7 -64 73 0 39 -4 51 -15 51 -12 0 -15 -14
-15 -69z"/>
<path d="M3580 6865 c0 -69 3 -85 15 -85 11 0 15 13 15 54 0 56 16 86 46 86 8
0 14 7 14 15 0 18 -14 19 -41 5 -13 -7 -19 -7 -19 0 0 5 -7 10 -15 10 -12 0
-15 -16 -15 -85z"/>
<path d="M3716 6934 c-34 -33 -13 -71 47 -83 18 -4 32 -13 32 -21 0 -18 -43
-26 -58 -11 -16 16 -37 14 -37 -4 0 -36 87 -48 120 -15 36 36 23 61 -40 77
-42 11 -55 43 -18 43 13 0 29 -5 36 -12 9 -9 15 -9 25 1 10 10 8 15 -7 27 -26
19 -81 18 -100 -2z"/>
<path d="M7595 6564 c-45 -15 -61 -33 -77 -85 -16 -54 -2 -107 37 -146 28 -28
40 -33 78 -33 50 0 100 32 110 70 8 30 -30 26 -55 -5 -27 -35 -79 -34 -107 1
-48 61 -14 164 54 164 32 0 65 -21 65 -41 0 -5 11 -9 25 -9 29 0 30 2 10 39
-12 25 -32 37 -85 54 -9 3 -34 -1 -55 -9z"/>
<path d="M7800 6435 c0 -128 1 -135 20 -135 18 0 20 7 20 69 0 73 14 101 49
101 32 0 41 -22 41 -97 0 -66 2 -73 20 -73 18 0 20 7 20 84 0 64 -4 88 -16
100 -24 25 -68 24 -96 -1 -17 -15 -18 -13 -18 35 0 45 -3 52 -20 52 -19 0 -20
-7 -20 -135z"/>
<path d="M8260 6525 c0 -16 -6 -25 -15 -25 -8 0 -15 -7 -15 -15 0 -8 7 -15 15
-15 12 0 15 -14 15 -69 0 -79 13 -101 62 -101 23 0 29 4 24 16 -3 9 -6 18 -6
20 0 2 -7 4 -15 4 -12 0 -15 14 -15 65 0 58 2 65 20 65 11 0 20 7 20 15 0 8
-9 15 -20 15 -15 0 -20 7 -20 25 0 20 -5 25 -25 25 -20 0 -25 -5 -25 -25z"/>
<path d="M8085 6503 c-23 -6 -55 -32 -55 -45 0 -12 34 -10 47 3 18 18 58 7 61
-17 3 -18 -4 -22 -44 -28 -26 -3 -53 -11 -60 -17 -19 -15 -18 -64 2 -83 20
-21 73 -20 96 1 17 15 18 15 18 0 0 -10 8 -17 20 -17 18 0 20 7 20 79 0 61 -4
83 -17 99 -19 22 -56 32 -88 25z m45 -159 c-16 -19 -59 -18 -66 1 -9 21 12 43
44 47 30 3 42 -23 22 -48z"/>
<path d="M5980 5970 c0 -17 -5 -30 -12 -30 -9 0 -9 -3 0 -12 7 -7 12 -25 12
-40 0 -15 -5 -28 -12 -28 -9 0 -9 -3 0 -12 7 -7 12 -25 12 -40 0 -15 -5 -28
-12 -28 -9 0 -9 -3 0 -12 16 -16 15 -65 0 -71 -10 -4 -10 -6 0 -6 7 -1 12 -15
12 -35 0 -19 -6 -37 -12 -39 -10 -4 -10 -6 0 -6 7 -1 12 -15 12 -35 0 -19 -6
-37 -12 -39 -10 -4 -10 -6 0 -6 7 -1 12 -15 12 -35 0 -19 -6 -37 -12 -39 -10
-4 -10 -6 0 -6 7 -1 12 -14 12 -31 0 -27 3 -30 30 -30 17 0 30 -5 30 -12 0 -9
3 -9 12 0 15 15 51 15 66 0 9 -9 12 -9 12 0 0 16 57 15 64 0 5 -10 7 -10 12 0
3 6 18 12 34 12 16 0 31 -6 34 -12 5 -10 7 -10 12 0 3 6 18 12 34 12 16 0 31
-6 34 -12 5 -10 7 -10 12 0 7 15 64 16 64 0 0 -9 3 -9 12 0 16 16 65 15 71 0
4 -10 6 -10 6 0 1 7 14 12 31 12 17 0 30 5 30 10 0 6 -13 10 -30 10 l-29 0 -4
153 -3 152 -2 -152 -2 -153 -32 0 -33 0 2 192 2 193 30 3 c27 3 30 0 34 -30 3
-29 4 -28 5 10 l2 42 -45 0 c-43 0 -45 -1 -45 -29 0 -27 -3 -30 -37 -33 -35
-3 -38 -6 -41 -35 -3 -31 -6 -33 -43 -33 -37 0 -39 -2 -39 -30 0 -28 -2 -30
-40 -30 -38 0 -40 -2 -40 -29 0 -27 -3 -30 -37 -33 -33 -3 -38 -6 -38 -28 0
-22 -5 -25 -37 -28 -32 -3 -38 -7 -37 -25 0 -12 3 -16 6 -9 2 6 20 12 39 12
33 0 34 -1 34 -40 0 -39 -1 -40 -34 -40 -24 0 -36 5 -39 18 -4 16 -5 16 -6 0
-1 -11 -9 -18 -21 -18 -20 0 -20 7 -20 295 0 190 -4 295 -10 295 -5 0 -10 -13
-10 -30z m450 -395 l0 -165 -30 0 -30 0 0 165 0 165 30 0 30 0 0 -165z m-80
-30 l0 -135 -30 0 -30 0 0 135 0 135 30 0 30 0 0 -135z m-80 -35 l0 -100 -30
0 -30 0 0 100 0 100 30 0 30 0 0 -100z m-80 -30 l0 -70 -30 0 -30 0 0 70 0 70
30 0 30 0 0 -70z"/>
<path d="M6320 5985 c-10 -13 -10 -19 4 -33 15 -17 7 -27 -134 -173 -82 -85
-149 -161 -150 -170 0 -9 7 -20 16 -23 19 -7 164 128 164 153 0 9 -34 -19 -79
-63 -43 -43 -81 -74 -84 -69 -3 5 68 83 159 174 90 90 164 167 164 171 0 5
-11 8 -25 8 -14 0 -25 5 -25 10 0 6 23 10 50 10 l50 0 0 -44 c0 -25 -4 -48
-10 -51 -5 -3 -10 3 -10 14 0 11 -4 22 -8 25 -10 6 -168 -151 -160 -159 3 -3
35 25 71 62 53 54 69 65 79 55 17 -17 45 -15 52 4 10 27 7 89 -6 102 -18 18
-103 15 -118 -3z"/>
<path d="M1552 5968 c-9 -9 -12 -81 -12 -264 0 -217 2 -255 16 -268 14 -14 49
-16 277 -14 l262 3 -2 263 c-1 184 -6 268 -14 278 -16 19 -508 21 -527 2z
m516 -10 c11 -13 22 -448 11 -448 -3 0 -27 25 -53 55 -72 84 -80 86 -132 30
-24 -26 -49 -45 -55 -43 -6 2 -35 44 -63 93 -36 62 -58 91 -73 93 -15 2 -37
-15 -79 -62 -33 -36 -61 -66 -64 -66 -3 0 -4 77 -2 172 2 121 7 175 15 180 7
4 118 8 248 8 177 0 239 -3 247 -12z m-302 -323 c63 -110 82 -118 132 -55 18
22 39 40 46 40 7 0 43 -31 80 -70 50 -51 67 -75 64 -92 l-3 -23 -260 3 c-143
2 -262 7 -265 12 -3 4 -3 37 0 73 5 62 8 68 65 136 33 39 67 70 74 68 8 -1 38
-43 67 -92z"/>
<path d="M1815 5845 c-14 -13 -25 -31 -25 -40 0 -21 44 -65 65 -65 9 0 27 11
41 25 29 29 26 58 -8 88 -27 23 -44 22 -73 -8z m73 -7 c28 -28 7 -78 -33 -78
-27 0 -45 18 -45 45 0 27 18 45 45 45 12 0 26 -5 33 -12z"/>
<path d="M2390 5880 l0 -90 55 0 c65 0 74 17 13 22 -39 3 -43 6 -46 31 -3 26
-1 27 37 27 23 0 41 5 41 10 0 6 -18 10 -40 10 -38 0 -40 2 -40 30 0 29 2 30
45 30 25 0 45 5 45 10 0 6 -25 10 -55 10 l-55 0 0 -90z"/>
<path d="M3035 5946 c-22 -34 -7 -59 44 -75 48 -14 56 -24 35 -45 -19 -20 -38
-20 -58 -1 -16 16 -36 20 -36 7 0 -18 38 -42 66 -42 44 0 66 20 62 55 -2 25
-10 32 -48 46 -47 17 -56 35 -28 52 12 8 24 7 42 -3 31 -16 43 -9 21 14 -26
25 -81 21 -100 -8z"/>
<path d="M3710 5955 c-7 -8 -10 -25 -6 -40 4 -16 0 -34 -10 -50 -15 -23 -15
-27 0 -50 14 -21 22 -24 75 -22 45 1 57 4 50 13 -5 7 -7 24 -3 38 7 28 -12 38
-22 11 -5 -12 -9 -11 -23 7 -17 20 -17 22 1 40 10 10 18 24 18 31 0 34 -57 50
-80 22z m48 -27 c-4 -27 -23 -34 -32 -13 -8 21 1 35 20 35 10 0 14 -8 12 -22z
m2 -111 c-11 -12 -50 1 -50 17 0 6 5 17 11 23 9 9 16 6 30 -10 10 -12 14 -26
9 -30z"/>
<path d="M3190 5941 c0 -11 -6 -22 -12 -24 -10 -4 -10 -6 0 -6 8 -1 12 -18 12
-49 0 -51 12 -72 42 -72 22 0 24 16 3 24 -21 8 -21 85 1 93 15 5 15 7 0 15 -9
5 -16 16 -16 23 0 8 -7 15 -15 15 -8 0 -15 -9 -15 -19z"/>
<path d="M3533 5935 c-6 -14 -7 -27 -2 -31 5 -3 9 -27 9 -54 0 -40 3 -50 21
-55 28 -9 35 0 15 20 -21 22 -21 84 0 92 15 5 15 7 0 15 -9 5 -16 16 -16 23 0
23 -14 17 -27 -10z"/>
<path d="M2539 5903 c-13 -15 -11 -16 11 -9 43 12 54 12 57 -5 3 -11 -8 -18
-34 -25 -31 -7 -39 -14 -41 -36 -4 -30 -3 -30 66 -33 l42 -1 0 47 c0 26 -3 54
-6 63 -8 22 -77 21 -95 -1z m67 -79 c-7 -19 -51 -15 -51 6 0 15 48 32 53 18 2
-5 1 -16 -2 -24z"/>
<path d="M2687 5913 c-4 -3 -7 -17 -7 -30 0 -18 7 -25 30 -29 39 -8 59 -31 35
-40 -10 -4 -26 -2 -36 4 -24 15 -29 15 -29 -2 0 -26 66 -36 88 -14 7 7 12 20
12 30 0 17 -14 27 -64 43 -18 5 -18 7 -4 21 13 13 19 14 36 3 22 -14 39 -8 27
10 -7 12 -78 15 -88 4z"/>
<path d="M2812 5908 c2 -7 12 -39 23 -72 18 -55 18 -59 2 -71 -20 -14 -22 -25
-4 -25 25 0 37 17 66 98 23 62 27 82 17 82 -8 0 -22 -23 -32 -52 l-18 -53 -15
53 c-9 29 -22 52 -29 52 -7 0 -12 -6 -10 -12z"/>
<path d="M3285 5910 c-11 -18 4 -25 25 -12 21 13 53 6 47 -12 -2 -6 -20 -14
-40 -19 -58 -14 -60 -77 -1 -77 31 0 40 18 12 22 -34 4 -29 32 6 36 23 3 28 0
23 -12 -8 -19 1 -46 15 -46 5 0 8 28 6 63 l-3 62 -42 3 c-23 2 -44 -2 -48 -8z"/>
<path d="M3430 5853 c0 -76 18 -85 22 -10 3 45 6 52 26 55 36 5 25 22 -13 20
l-35 -1 0 -64z"/>
<path d="M8562 5723 l-2 -93 45 0 c25 0 45 5 45 10 0 6 -18 10 -40 10 l-39 0
-4 83 -3 82 -2 -92z"/>
<path d="M10229 5773 c-2 -102 -1 -135 5 -140 3 -4 6 35 6 85 0 51 -2 92 -5
92 -3 0 -5 -17 -6 -37z"/>
<path d="M10440 5720 c0 -53 4 -90 10 -90 6 0 10 37 10 90 0 53 -4 90 -10 90
-6 0 -10 -37 -10 -90z"/>
<path d="M8706 5744 c-26 -26 -20 -81 10 -101 24 -15 29 -15 53 -2 32 18 41
77 16 103 -21 20 -59 21 -79 0z m72 -6 c28 -28 4 -98 -33 -98 -22 0 -45 30
-45 59 0 32 16 51 45 51 12 0 26 -5 33 -12z"/>
<path d="M8840 5695 c0 -37 4 -65 10 -65 6 0 10 28 10 65 0 37 -4 65 -10 65
-6 0 -10 -28 -10 -65z"/>
<path d="M8878 5753 c7 -3 16 -2 19 1 4 3 -2 6 -13 5 -11 0 -14 -3 -6 -6z"/>
<path d="M8934 5735 c-36 -55 14 -123 72 -96 15 6 24 14 21 17 -3 3 -15 -1
-26 -8 -24 -15 -54 -2 -59 26 -3 13 5 16 42 16 41 0 46 2 46 23 0 51 -67 66
-96 22z m76 11 c0 -2 3 -11 6 -20 5 -13 -2 -16 -35 -16 -39 0 -53 14 -34 33 7
8 63 10 63 3z"/>
<path d="M9070 5695 c0 -37 4 -65 10 -65 6 0 10 28 10 65 0 37 -4 65 -10 65
-6 0 -10 -28 -10 -65z"/>
<path d="M9123 5753 c26 -4 27 -7 27 -64 0 -33 4 -59 10 -59 14 0 12 104 -2
118 -7 7 -23 11 -37 11 -26 -2 -26 -2 2 -6z"/>
<path d="M9200 5752 c22 -7 26 -15 31 -67 l6 -60 -1 65 c-1 65 -1 65 -31 67
-28 2 -28 1 -5 -5z"/>
<path d="M9360 5695 c0 -37 4 -65 10 -65 6 0 10 28 10 65 0 37 -4 65 -10 65
-6 0 -10 -28 -10 -65z"/>
<path d="M9420 5670 c0 -53 4 -90 10 -90 6 0 10 16 10 35 0 33 1 34 20 23 25
-16 49 -3 68 35 19 40 -2 81 -43 83 -29 2 -29 2 -3 -3 43 -7 53 -83 16 -107
-32 -19 -53 4 -56 63 -5 86 -22 57 -22 -39z"/>
<path d="M9581 5746 c-17 -20 -4 -42 32 -53 22 -6 32 -15 32 -28 0 -25 -39
-32 -63 -13 -15 12 -16 11 -3 -4 26 -35 87 -13 79 28 -2 9 -19 22 -38 28 -48
15 -47 41 2 40 21 -1 35 3 32 7 -8 14 -60 10 -73 -5z"/>
<path d="M9700 5712 c0 -35 5 -54 18 -65 22 -20 38 -22 48 -5 4 6 3 8 -4 5
-26 -17 -42 5 -42 59 0 30 -4 54 -10 54 -5 0 -10 -22 -10 -48z"/>
<path d="M9793 5695 c0 -38 2 -53 4 -32 2 20 2 52 0 70 -2 17 -4 1 -4 -38z"/>
<path d="M9853 5695 c0 -38 2 -53 4 -32 2 20 2 52 0 70 -2 17 -4 1 -4 -38z"/>
<path d="M9900 5751 c22 -6 26 -14 31 -66 l6 -60 1 52 c3 68 -4 83 -37 82
l-26 -1 25 -7z"/>
<path d="M9977 5753 c24 -5 30 -20 36 -88 3 -35 4 -34 5 12 3 68 -4 83 -37 82
-23 -2 -24 -2 -4 -6z"/>
<path d="M10146 5738 c-9 -12 -16 -33 -16 -45 0 -27 33 -63 58 -63 12 0 10 4
-8 13 -21 11 -25 20 -25 57 0 42 2 45 30 51 30 7 30 7 3 8 -17 1 -32 -7 -42
-21z"/>
<path d="M10306 5744 c-26 -26 -20 -81 10 -101 24 -15 29 -15 53 -2 32 18 41
77 16 103 -21 20 -59 21 -79 0z m72 -6 c28 -28 4 -98 -33 -98 -22 0 -45 30
-45 59 0 32 16 51 45 51 12 0 26 -5 33 -12z"/>
<path d="M10516 5744 c-26 -26 -20 -81 10 -101 24 -15 29 -15 53 -2 32 18 41
77 16 103 -21 20 -59 21 -79 0z m72 -6 c28 -28 4 -98 -33 -98 -22 0 -45 30
-45 59 0 32 16 51 45 51 12 0 26 -5 33 -12z"/>
<path d="M10653 5695 c0 -38 2 -53 4 -32 2 20 2 52 0 70 -2 17 -4 1 -4 -38z"/>
<path d="M10688 5753 c7 -3 16 -2 19 1 4 3 -2 6 -13 5 -11 0 -14 -3 -6 -6z"/>
<path d="M2390 5461 c0 -54 4 -91 10 -91 6 0 10 27 10 62 0 70 9 69 38 -7 11
-27 24 -51 30 -53 5 -1 21 24 33 58 13 33 27 60 31 60 5 0 8 -27 8 -60 0 -33
4 -60 10 -60 6 0 10 37 10 90 0 79 -2 90 -18 90 -12 0 -25 -18 -41 -60 -14
-34 -27 -63 -31 -65 -4 -2 -18 24 -31 58 -15 38 -31 63 -42 65 -15 3 -17 -7
-17 -87z"/>
<path d="M3450 5521 c0 -29 -1 -30 -36 -24 -29 5 -40 2 -50 -12 -42 -57 17
-148 65 -102 11 10 14 10 18 0 13 -36 23 -3 23 77 0 53 -4 90 -10 90 -5 0 -10
-13 -10 -29z m-9 -62 c22 -42 -18 -88 -49 -57 -13 13 -16 60 -5 71 13 14 43 6
54 -14z"/>
<path d="M3580 5476 c0 -66 3 -77 22 -90 31 -22 74 -20 98 4 16 16 20 33 20
90 0 56 -3 70 -15 70 -12 0 -15 -14 -15 -70 0 -60 -3 -71 -21 -80 -16 -9 -26
-8 -45 5 -21 14 -24 23 -24 80 0 37 -4 65 -10 65 -6 0 -10 -31 -10 -74z"/>
<path d="M4010 5521 c0 -29 -1 -30 -36 -24 -29 5 -40 2 -50 -12 -42 -57 17
-148 65 -102 11 10 14 10 18 0 13 -36 23 -3 23 77 0 53 -4 90 -10 90 -5 0 -10
-13 -10 -29z m-9 -62 c22 -42 -18 -88 -49 -57 -13 13 -16 60 -5 71 13 14 43 6
54 -14z"/>
<path d="M4220 5521 c0 -11 -6 -22 -12 -24 -10 -4 -10 -6 0 -6 8 -1 12 -18 12
-49 0 -51 12 -72 42 -72 22 0 24 16 3 24 -21 8 -21 85 1 93 15 5 15 7 0 15 -9
5 -16 16 -16 23 0 8 -7 15 -15 15 -8 0 -15 -9 -15 -19z"/>
<path d="M8750 5491 c0 -11 -6 -22 -12 -24 -10 -4 -10 -6 0 -6 8 -1 12 -18 12
-49 0 -49 13 -72 40 -72 12 1 12 2 -2 11 -22 12 -26 104 -5 112 10 4 10 6 0 6
-7 1 -13 10 -13 21 0 11 -4 20 -10 20 -5 0 -10 -9 -10 -19z"/>
<path d="M9421 5493 c0 -12 -7 -24 -13 -26 -10 -4 -10 -6 0 -6 8 -1 12 -19 12
-55 0 -40 4 -55 16 -60 24 -9 31 -7 12 5 -13 7 -18 23 -18 59 0 38 4 50 18 53
15 4 15 5 0 6 -9 0 -19 11 -21 24 -4 22 -4 22 -6 0z"/>
<path d="M2615 5490 c-11 -18 4 -25 25 -12 21 13 53 6 47 -12 -2 -6 -20 -14
-40 -19 -58 -14 -60 -77 -1 -77 31 0 40 18 12 22 -34 4 -29 32 6 36 23 3 28 0
23 -12 -8 -19 1 -46 15 -46 5 0 8 28 6 63 l-3 62 -42 3 c-23 2 -44 -2 -48 -8z"/>
<path d="M2760 5435 c0 -79 17 -87 22 -10 3 61 1 75 -13 75 -5 0 -9 -29 -9
-65z"/>
<path d="M2790 5491 c0 -5 10 -11 23 -13 19 -3 22 -10 25 -55 2 -38 7 -53 18
-53 10 0 14 13 14 49 0 70 -6 81 -46 81 -19 0 -34 -4 -34 -9z"/>
<path d="M2909 5483 c-13 -15 -11 -16 11 -9 43 12 54 12 57 -5 3 -11 -8 -18
-34 -25 -31 -7 -39 -14 -41 -36 -4 -30 -3 -30 66 -33 l42 -1 0 47 c0 26 -3 54
-6 63 -8 22 -77 21 -95 -1z m67 -79 c-7 -19 -51 -15 -51 6 0 15 48 32 53 18 2
-5 1 -16 -2 -24z"/>
<path d="M3063 5487 c-19 -24 -22 -47 -11 -78 10 -28 14 -31 50 -27 34 3 38 1
36 -17 -3 -17 -10 -20 -46 -18 -37 2 -42 0 -32 -13 16 -19 75 -18 94 2 12 11
16 35 16 88 l0 73 -49 1 c-28 1 -53 -4 -58 -11z m77 -47 c0 -38 -31 -57 -54
-34 -33 33 -4 94 35 74 12 -7 19 -21 19 -40z"/>
<path d="M3210 5481 c-16 -30 -12 -76 8 -94 29 -26 92 -20 92 9 0 16 -16 19
-25 4 -11 -17 -44 -11 -55 10 -10 19 -8 20 40 20 53 0 61 10 40 51 -8 14 -21
19 -50 19 -29 0 -42 -5 -50 -19z m68 -3 c19 -19 14 -28 -18 -28 -16 0 -30 4
-30 8 0 9 21 32 30 32 3 0 11 -5 18 -12z"/>
<path d="M3760 5408 c0 -52 4 -88 10 -88 6 0 10 16 10 35 0 34 12 46 25 25 9
-15 42 -12 59 6 20 19 21 87 3 103 -8 6 -35 10 -60 9 l-47 -2 0 -88z m90 53
c12 -23 -3 -71 -22 -71 -33 1 -54 40 -38 71 14 25 46 25 60 0z"/>
<path d="M4075 5490 c-11 -18 4 -25 25 -12 21 13 53 6 47 -12 -2 -6 -20 -14
-40 -19 -58 -14 -60 -77 -1 -77 31 0 40 18 12 22 -34 4 -29 32 6 36 23 3 28 0
23 -12 -8 -19 1 -46 15 -46 5 0 8 28 6 63 l-3 62 -42 3 c-23 2 -44 -2 -48 -8z"/>
<path d="M4319 5484 c-20 -24 -16 -84 6 -100 24 -18 69 -18 84 -1 15 19 3 28
-20 14 -14 -9 -24 -9 -36 -1 -34 21 -26 34 21 34 41 0 46 2 46 23 0 13 -5 28
-12 35 -17 17 -73 15 -89 -4z m81 -24 c0 -6 -16 -10 -35 -10 -38 0 -46 13 -18
29 19 10 53 -2 53 -19z"/>
<path d="M4459 5484 c-18 -22 -1 -46 40 -57 18 -4 31 -13 28 -20 -5 -17 -38
-21 -47 -7 -4 7 -13 9 -19 5 -19 -11 7 -35 38 -35 66 0 81 55 21 75 -19 6 -35
18 -35 26 0 15 13 15 55 3 22 -7 24 -6 11 9 -17 22 -74 22 -92 1z"/>
<path d="M8561 5456 c-17 -20 -4 -42 32 -53 22 -6 32 -15 32 -28 0 -25 -39
-32 -63 -13 -15 12 -16 11 -3 -4 26 -35 87 -13 79 28 -2 9 -19 22 -38 28 -48
15 -47 41 2 40 21 -1 35 3 32 7 -8 14 -60 10 -73 -5z"/>
<path d="M8680 5405 c0 -37 4 -65 10 -65 6 0 10 28 10 65 0 37 -4 65 -10 65
-6 0 -10 -28 -10 -65z"/>
<path d="M8916 5462 c-2 -4 11 -6 30 -4 29 4 34 1 34 -16 0 -11 -8 -23 -17
-25 -17 -4 -17 -5 0 -6 13 -1 17 -10 17 -36 0 -19 5 -35 10 -35 14 0 12 104
-2 118 -13 13 -64 16 -72 4z"/>
<path d="M9040 5405 c0 -37 4 -65 10 -65 6 0 10 28 10 65 0 37 -4 65 -10 65
-6 0 -10 -28 -10 -65z"/>
<path d="M9093 5463 c26 -4 27 -7 27 -64 0 -33 4 -59 10 -59 14 0 12 104 -2
118 -7 7 -23 11 -37 11 -26 -2 -26 -2 2 -6z"/>
<path d="M9170 5462 c22 -7 26 -15 31 -67 l6 -60 -1 65 c-1 65 -1 65 -31 67
-28 2 -28 1 -5 -5z"/>
<path d="M9276 5454 c-24 -24 -20 -80 6 -98 29 -21 52 -20 69 1 13 15 12 15
-8 3 -26 -17 -73 0 -73 25 0 11 12 15 50 15 42 0 50 3 50 18 0 43 -63 67 -94
36z m74 -14 c10 -19 8 -20 -35 -20 -46 0 -54 7 -33 28 19 19 56 14 68 -8z"/>
<path d="M8903 5394 c-12 -33 35 -70 59 -46 6 6 0 8 -16 5 -34 -7 -48 24 -21
43 17 13 17 14 2 14 -10 0 -20 -7 -24 -16z"/>
<path d="M9507 5354 c-4 -4 -7 -19 -6 -33 l0 -26 10 24 c10 26 8 47 -4 35z"/>
<path d="M10500 4866 c-96 -20 -181 -91 -222 -183 -27 -61 -27 -175 0 -236 59
-134 202 -211 342 -185 99 17 190 90 232 185 27 61 27 175 0 236 -43 96 -133
167 -236 186 -33 6 -60 11 -60 10 -1 0 -26 -6 -56 -13z m70 -226 c0 -16 -7
-20 -30 -20 l-30 0 0 -75 c0 -68 -2 -75 -20 -75 -18 0 -20 7 -20 75 l0 75 -30
0 c-23 0 -30 4 -30 20 0 18 7 20 80 20 73 0 80 -2 80 -20z m120 7 c27 -14 38
-50 21 -71 -9 -10 -8 -15 4 -20 18 -7 20 -57 3 -74 -7 -7 -39 -12 -75 -12
l-63 0 0 95 0 95 43 0 c23 0 53 -6 67 -13z"/>
<path d="M10630 4600 c0 -13 7 -20 18 -20 26 0 34 11 21 27 -17 20 -39 16 -39
-7z"/>
<path d="M10630 4530 c0 -15 7 -20 25 -20 28 0 34 24 9 34 -26 10 -34 7 -34
-14z"/>
<path d="M7872 4683 l-2 -93 45 0 c25 0 45 5 45 10 0 6 -18 10 -40 10 l-39 0
-4 83 -3 82 -2 -92z"/>
<path d="M9539 4733 c-2 -102 -1 -135 5 -140 3 -4 6 35 6 85 0 51 -2 92 -5 92
-3 0 -5 -17 -6 -37z"/>
<path d="M9750 4680 c0 -53 4 -90 10 -90 6 0 10 37 10 90 0 53 -4 90 -10 90
-6 0 -10 -37 -10 -90z"/>
<path d="M8016 4704 c-26 -26 -20 -81 10 -101 24 -15 29 -15 53 -2 32 18 41
77 16 103 -21 20 -59 21 -79 0z m72 -6 c28 -28 4 -98 -33 -98 -22 0 -45 30
-45 59 0 32 16 51 45 51 12 0 26 -5 33 -12z"/>
<path d="M8150 4655 c0 -37 4 -65 10 -65 6 0 10 28 10 65 0 37 -4 65 -10 65
-6 0 -10 -28 -10 -65z"/>
<path d="M8188 4713 c7 -3 16 -2 19 1 4 3 -2 6 -13 5 -11 0 -14 -3 -6 -6z"/>
<path d="M8256 4704 c-24 -24 -20 -80 6 -98 29 -21 52 -20 69 2 11 14 11 15
-1 5 -19 -18 -45 -16 -64 3 -26 26 -18 34 34 34 43 0 50 3 50 19 0 27 -26 51
-55 51 -13 0 -31 -7 -39 -16z m74 -14 c10 -19 8 -20 -35 -20 -46 0 -54 7 -33
28 19 19 56 14 68 -8z"/>
<path d="M8393 4655 c0 -38 2 -53 4 -32 2 20 2 52 0 70 -2 17 -4 1 -4 -38z"/>
<path d="M8437 4713 c24 -5 30 -20 36 -88 2 -22 4 -11 3 25 -1 65 -1 65 -31
67 -20 1 -23 0 -8 -4z"/>
<path d="M8512 4713 c30 -5 35 -16 41 -88 3 -35 4 -34 5 12 3 71 -4 83 -42 82
-30 -2 -30 -2 -4 -6z"/>
<path d="M8670 4655 c0 -37 4 -65 10 -65 6 0 10 28 10 65 0 37 -4 65 -10 65
-6 0 -10 -28 -10 -65z"/>
<path d="M8730 4630 c0 -53 4 -90 10 -90 6 0 10 16 10 35 0 33 1 34 20 23 25
-16 49 -3 68 35 19 40 -2 81 -43 83 -29 2 -29 2 -3 -3 43 -7 53 -83 16 -107
-32 -19 -53 4 -56 63 -5 86 -22 57 -22 -39z"/>
<path d="M8894 4705 c-10 -24 3 -44 33 -51 34 -9 46 -24 31 -41 -13 -16 -40
-17 -56 -1 -9 9 -12 9 -12 0 0 -17 45 -25 70 -12 30 16 21 42 -20 61 -44 21
-46 44 -3 44 17 0 29 3 26 7 -8 14 -63 8 -69 -7z"/>
<path d="M9022 4669 c-2 -68 14 -89 53 -71 15 7 25 8 25 2 0 -6 5 -10 10 -10
6 0 10 28 10 65 0 37 -4 65 -10 65 -5 0 -10 -22 -10 -50 0 -38 -4 -52 -19 -59
-30 -16 -50 7 -54 64 l-3 50 -2 -56z"/>
<path d="M9160 4655 c0 -37 4 -65 10 -65 6 0 10 28 10 65 0 37 -4 65 -10 65
-6 0 -10 -28 -10 -65z"/>
<path d="M9210 4711 c22 -6 25 -13 28 -64 4 -74 20 -74 24 1 3 53 5 57 28 57
23 0 25 -4 31 -60 l6 -60 -1 65 c-1 60 -3 65 -24 68 -13 2 -29 -2 -37 -8 -9
-7 -15 -8 -20 0 -3 5 -18 10 -33 9 l-27 -1 25 -7z"/>
<path d="M9456 4698 c-9 -12 -16 -33 -16 -45 0 -27 33 -63 58 -63 12 0 10 4
-8 13 -21 11 -25 20 -25 57 0 42 2 45 30 51 30 7 30 7 3 8 -17 1 -32 -7 -42
-21z"/>
<path d="M9616 4698 c-22 -31 -20 -64 4 -88 36 -36 82 -18 96 36 15 60 -65
102 -100 52z m73 -2 c17 -20 10 -77 -11 -90 -26 -16 -52 4 -56 43 -2 18 -1 39
2 47 7 18 50 18 65 0z"/>
<path d="M9826 4704 c-26 -26 -20 -81 10 -101 24 -15 29 -15 53 -2 32 18 41
77 16 103 -21 20 -59 21 -79 0z m72 -6 c28 -28 4 -98 -33 -98 -22 0 -45 30
-45 59 0 32 16 51 45 51 12 0 26 -5 33 -12z"/>
<path d="M9960 4653 c0 -35 4 -63 10 -63 6 0 10 25 10 55 0 48 3 57 23 64 19
8 18 9 -10 9 l-33 -1 0 -64z"/>
<path d="M7990 4469 c0 -5 5 -7 10 -4 6 3 10 8 10 11 0 2 -4 4 -10 4 -5 0 -10
-5 -10 -11z"/>
<path d="M8060 4451 c0 -11 -6 -22 -12 -24 -10 -4 -10 -6 0 -6 8 -1 12 -18 12
-49 0 -49 13 -72 40 -72 12 1 12 2 -2 11 -22 12 -26 104 -5 112 10 4 10 6 0 6
-7 1 -13 10 -13 21 0 11 -4 20 -10 20 -5 0 -10 -9 -10 -19z"/>
<path d="M8731 4453 c0 -12 -7 -24 -13 -26 -10 -4 -10 -6 0 -6 8 -1 12 -19 12
-55 0 -40 4 -55 16 -60 24 -9 31 -7 12 5 -13 7 -18 23 -18 59 0 38 4 50 18 53
15 4 15 5 0 6 -9 0 -19 11 -21 24 -4 22 -4 22 -6 0z"/>
<path d="M7871 4416 c-17 -20 -4 -42 32 -53 22 -6 32 -15 32 -28 0 -25 -39
-32 -63 -13 -15 12 -16 11 -3 -4 26 -35 87 -13 79 28 -2 9 -19 22 -38 28 -48
15 -47 41 2 40 21 -1 35 3 32 7 -8 14 -60 10 -73 -5z"/>
<path d="M7990 4365 c0 -37 4 -65 10 -65 6 0 10 28 10 65 0 37 -4 65 -10 65
-6 0 -10 -28 -10 -65z"/>
<path d="M8226 4422 c-2 -4 11 -6 30 -4 29 4 34 1 34 -16 0 -11 -8 -23 -17
-25 -17 -4 -17 -5 0 -6 13 -1 17 -10 17 -36 0 -19 5 -35 10 -35 14 0 12 104
-2 118 -13 13 -64 16 -72 4z"/>
<path d="M8363 4365 c0 -38 2 -53 4 -32 2 20 2 52 0 70 -2 17 -4 1 -4 -38z"/>
<path d="M8410 4421 c22 -6 26 -14 31 -66 l6 -60 1 52 c3 68 -4 83 -37 82
l-26 -1 25 -7z"/>
<path d="M8487 4423 c24 -5 30 -20 36 -88 3 -35 4 -34 5 12 3 68 -4 83 -37 82
-23 -2 -24 -2 -4 -6z"/>
<path d="M8586 4414 c-24 -24 -20 -80 6 -98 29 -21 52 -20 69 1 13 15 12 15
-8 3 -26 -17 -73 0 -73 25 0 11 12 15 50 15 42 0 50 3 50 18 0 43 -63 67 -94
36z m74 -14 c10 -19 8 -20 -35 -20 -46 0 -54 7 -33 28 19 19 56 14 68 -8z"/>
<path d="M8213 4354 c-12 -33 35 -70 59 -46 6 6 0 8 -16 5 -34 -7 -48 24 -21
43 17 13 17 14 2 14 -10 0 -20 -7 -24 -16z"/>
<path d="M8817 4314 c-4 -4 -7 -19 -6 -33 l0 -26 10 24 c10 26 8 47 -4 35z"/>
<path d="M1927 4102 c-16 -17 -17 -100 -17 -989 l0 -970 31 -7 c17 -3 35 -6
40 -6 5 0 9 426 9 978 0 936 -1 980 -18 995 -23 21 -25 21 -45 -1z"/>
<path d="M3677 4102 c-16 -17 -17 -100 -17 -989 l0 -970 31 -7 c17 -3 35 -6
40 -6 5 0 9 426 9 978 0 936 -1 980 -18 995 -23 21 -25 21 -45 -1z"/>
<path d="M5383 4105 c-17 -13 -18 -54 -21 -995 l-2 -982 22 6 c13 3 33 6 46 6
l22 0 0 966 c0 606 -4 972 -10 983 -13 26 -35 32 -57 16z"/>
<path d="M4321 3811 l-21 -21 0 -824 c0 -742 2 -824 16 -830 28 -11 62 -6 68
9 3 8 4 382 3 830 l-2 814 -21 22 -22 21 -21 -21z"/>
<path d="M6027 3812 c-16 -17 -17 -88 -17 -845 l0 -827 24 0 c13 0 32 -3 40
-6 15 -6 16 70 14 831 -3 836 -3 838 -24 851 -18 13 -23 12 -37 -4z"/>
<path d="M8562 3643 l-2 -93 45 0 c25 0 45 5 45 10 0 6 -18 10 -40 10 l-39 0
-4 83 -3 82 -2 -92z"/>
<path d="M10229 3693 c-2 -102 -1 -135 5 -140 3 -4 6 35 6 85 0 51 -2 92 -5
92 -3 0 -5 -17 -6 -37z"/>
<path d="M10440 3640 c0 -53 4 -90 10 -90 6 0 10 37 10 90 0 53 -4 90 -10 90
-6 0 -10 -37 -10 -90z"/>
<path d="M8706 3664 c-26 -26 -20 -81 10 -101 24 -15 29 -15 53 -2 32 18 41
77 16 103 -21 20 -59 21 -79 0z m72 -6 c28 -28 4 -98 -33 -98 -22 0 -45 30
-45 59 0 32 16 51 45 51 12 0 26 -5 33 -12z"/>
<path d="M8840 3615 c0 -37 4 -65 10 -65 6 0 10 28 10 65 0 37 -4 65 -10 65
-6 0 -10 -28 -10 -65z"/>
<path d="M8878 3673 c7 -3 16 -2 19 1 4 3 -2 6 -13 5 -11 0 -14 -3 -6 -6z"/>
<path d="M8934 3655 c-36 -55 14 -123 72 -96 15 6 24 14 21 17 -3 3 -15 -1
-26 -8 -24 -15 -54 -2 -59 26 -3 13 5 16 42 16 41 0 46 2 46 23 0 51 -67 66
-96 22z m76 11 c0 -2 3 -11 6 -20 5 -13 -2 -16 -35 -16 -39 0 -53 14 -34 33 7
8 63 10 63 3z"/>
<path d="M9070 3615 c0 -37 4 -65 10 -65 6 0 10 28 10 65 0 37 -4 65 -10 65
-6 0 -10 -28 -10 -65z"/>
<path d="M9123 3673 c26 -4 27 -7 27 -64 0 -33 4 -59 10 -59 14 0 12 104 -2
118 -7 7 -23 11 -37 11 -26 -2 -26 -2 2 -6z"/>
<path d="M9200 3672 c22 -7 26 -15 31 -67 l6 -60 -1 65 c-1 65 -1 65 -31 67
-28 2 -28 1 -5 -5z"/>
<path d="M9360 3615 c0 -37 4 -65 10 -65 6 0 10 28 10 65 0 37 -4 65 -10 65
-6 0 -10 -28 -10 -65z"/>
<path d="M9420 3590 c0 -53 4 -90 10 -90 6 0 10 16 10 35 0 33 1 34 20 23 25
-16 49 -3 68 35 19 40 -2 81 -43 83 -29 2 -29 2 -3 -3 43 -7 53 -83 16 -107
-32 -19 -53 4 -56 63 -5 86 -22 57 -22 -39z"/>
<path d="M9581 3666 c-17 -20 -4 -42 32 -53 22 -6 32 -15 32 -28 0 -25 -39
-32 -63 -13 -15 12 -16 11 -3 -4 26 -35 87 -13 79 28 -2 9 -19 22 -38 28 -48
15 -47 41 2 40 21 -1 35 3 32 7 -8 14 -60 10 -73 -5z"/>
<path d="M9700 3632 c0 -35 5 -54 18 -65 22 -20 38 -22 48 -5 4 6 3 8 -4 5
-26 -17 -42 5 -42 59 0 30 -4 54 -10 54 -5 0 -10 -22 -10 -48z"/>
<path d="M9793 3615 c0 -38 2 -53 4 -32 2 20 2 52 0 70 -2 17 -4 1 -4 -38z"/>
<path d="M9853 3615 c0 -38 2 -53 4 -32 2 20 2 52 0 70 -2 17 -4 1 -4 -38z"/>
<path d="M9900 3671 c22 -6 26 -14 31 -66 l6 -60 1 52 c3 68 -4 83 -37 82
l-26 -1 25 -7z"/>
<path d="M9977 3673 c24 -5 30 -20 36 -88 3 -35 4 -34 5 12 3 68 -4 83 -37 82
-23 -2 -24 -2 -4 -6z"/>
<path d="M10146 3658 c-9 -12 -16 -33 -16 -45 0 -27 33 -63 58 -63 12 0 10 4
-8 13 -21 11 -25 20 -25 57 0 42 2 45 30 51 30 7 30 7 3 8 -17 1 -32 -7 -42
-21z"/>
<path d="M10306 3664 c-26 -26 -20 -81 10 -101 24 -15 29 -15 53 -2 32 18 41
77 16 103 -21 20 -59 21 -79 0z m72 -6 c28 -28 4 -98 -33 -98 -22 0 -45 30
-45 59 0 32 16 51 45 51 12 0 26 -5 33 -12z"/>
<path d="M10516 3664 c-26 -26 -20 -81 10 -101 24 -15 29 -15 53 -2 32 18 41
77 16 103 -21 20 -59 21 -79 0z m72 -6 c28 -28 4 -98 -33 -98 -22 0 -45 30
-45 59 0 32 16 51 45 51 12 0 26 -5 33 -12z"/>
<path d="M10653 3615 c0 -38 2 -53 4 -32 2 20 2 52 0 70 -2 17 -4 1 -4 -38z"/>
<path d="M10688 3673 c7 -3 16 -2 19 1 4 3 -2 6 -13 5 -11 0 -14 -3 -6 -6z"/>
<path d="M1276 3598 c-14 -20 -16 -107 -16 -740 l0 -718 23 0 c12 0 32 -3 45
-6 l22 -6 0 724 c0 639 -2 726 -16 746 -8 12 -21 22 -29 22 -8 0 -21 -10 -29
-22z"/>
<path d="M3027 3602 c-16 -17 -17 -83 -17 -740 l0 -722 23 0 c12 0 31 -3 42
-6 20 -5 20 -1 15 731 -4 639 -7 737 -20 745 -21 13 -25 13 -43 -8z"/>
<path d="M8750 3411 c0 -11 -6 -22 -12 -24 -10 -4 -10 -6 0 -6 8 -1 12 -18 12
-49 0 -49 13 -72 40 -72 12 1 12 2 -2 11 -22 12 -26 104 -5 112 10 4 10 6 0 6
-7 1 -13 10 -13 21 0 11 -4 20 -10 20 -5 0 -10 -9 -10 -19z"/>
<path d="M9421 3413 c0 -12 -7 -24 -13 -26 -10 -4 -10 -6 0 -6 8 -1 12 -19 12
-55 0 -40 4 -55 16 -60 24 -9 31 -7 12 5 -13 7 -18 23 -18 59 0 38 4 50 18 53
15 4 15 5 0 6 -9 0 -19 11 -21 24 -4 22 -4 22 -6 0z"/>
<path d="M8561 3376 c-17 -20 -4 -42 32 -53 22 -6 32 -15 32 -28 0 -25 -39
-32 -63 -13 -15 12 -16 11 -3 -4 26 -35 87 -13 79 28 -2 9 -19 22 -38 28 -48
15 -47 41 2 40 21 -1 35 3 32 7 -8 14 -60 10 -73 -5z"/>
<path d="M8680 3325 c0 -37 4 -65 10 -65 6 0 10 28 10 65 0 37 -4 65 -10 65
-6 0 -10 -28 -10 -65z"/>
<path d="M8916 3382 c-2 -4 11 -6 30 -4 29 4 34 1 34 -16 0 -11 -8 -23 -17
-25 -17 -4 -17 -5 0 -6 13 -1 17 -10 17 -36 0 -19 5 -35 10 -35 14 0 12 104
-2 118 -13 13 -64 16 -72 4z"/>
<path d="M9040 3325 c0 -37 4 -65 10 -65 6 0 10 28 10 65 0 37 -4 65 -10 65
-6 0 -10 -28 -10 -65z"/>
<path d="M9093 3383 c26 -4 27 -7 27 -64 0 -33 4 -59 10 -59 14 0 12 104 -2
118 -7 7 -23 11 -37 11 -26 -2 -26 -2 2 -6z"/>
<path d="M9170 3382 c22 -7 26 -15 31 -67 l6 -60 -1 65 c-1 65 -1 65 -31 67
-28 2 -28 1 -5 -5z"/>
<path d="M9276 3374 c-24 -24 -20 -80 6 -98 29 -21 52 -20 69 1 13 15 12 15
-8 3 -26 -17 -73 0 -73 25 0 11 12 15 50 15 42 0 50 3 50 18 0 43 -63 67 -94
36z m74 -14 c10 -19 8 -20 -35 -20 -46 0 -54 7 -33 28 19 19 56 14 68 -8z"/>
<path d="M8903 3314 c-12 -33 35 -70 59 -46 6 6 0 8 -16 5 -34 -7 -48 24 -21
43 17 13 17 14 2 14 -10 0 -20 -7 -24 -16z"/>
<path d="M9507 3274 c-4 -4 -7 -19 -6 -33 l0 -26 10 24 c10 26 8 47 -4 35z"/>
<path d="M1596 3104 c-14 -14 -16 -72 -16 -495 l0 -479 24 0 c60 0 56 -31 56
485 0 444 -1 473 -18 488 -23 21 -27 21 -46 1z"/>
<path d="M3336 3098 c-14 -20 -16 -84 -16 -495 l0 -473 29 0 c65 0 61 -34 61
479 0 406 -2 469 -16 489 -8 12 -21 22 -29 22 -8 0 -21 -10 -29 -22z"/>
<path d="M5047 3102 c-15 -17 -17 -65 -17 -489 l0 -471 31 -6 c17 -3 35 -6 40
-6 5 0 9 212 9 479 0 423 -2 481 -16 495 -20 20 -27 20 -47 -2z"/>
<path d="M10511 2908 c-67 -10 -125 -43 -175 -99 -57 -62 -78 -119 -78 -204 0
-194 171 -337 362 -303 148 26 252 152 252 303 0 194 -164 332 -361 303z m59
-208 c0 -16 -7 -20 -30 -20 l-30 0 0 -75 c0 -68 -2 -75 -20 -75 -18 0 -20 7
-20 75 l0 75 -30 0 c-23 0 -30 4 -30 20 0 18 7 20 80 20 73 0 80 -2 80 -20z
m120 7 c27 -14 38 -50 21 -71 -9 -10 -8 -15 4 -20 18 -7 20 -57 3 -74 -7 -7
-39 -12 -75 -12 l-63 0 0 95 0 95 43 0 c23 0 53 -6 67 -13z"/>
<path d="M10630 2660 c0 -13 7 -20 18 -20 26 0 34 11 21 27 -17 20 -39 16 -39
-7z"/>
<path d="M10630 2590 c0 -15 7 -20 25 -20 28 0 34 24 9 34 -26 10 -34 7 -34
-14z"/>
<path d="M2257 2792 c-15 -17 -17 -55 -17 -341 0 -291 2 -323 16 -317 9 3 27
6 40 6 l24 0 0 318 c0 296 -1 320 -18 335 -23 21 -25 21 -45 -1z"/>
<path d="M5717 2792 c-15 -17 -17 -54 -17 -340 l0 -322 28 0 c54 0 52 -8 50
334 -3 310 -4 319 -24 332 -18 13 -23 12 -37 -4z"/>
<path d="M7872 2723 l-2 -93 45 0 c25 0 45 5 45 10 0 6 -18 10 -40 10 l-39 0
-4 83 -3 82 -2 -92z"/>
<path d="M9539 2773 c-2 -102 -1 -135 5 -140 3 -4 6 35 6 85 0 51 -2 92 -5 92
-3 0 -5 -17 -6 -37z"/>
<path d="M9750 2720 c0 -53 4 -90 10 -90 6 0 10 37 10 90 0 53 -4 90 -10 90
-6 0 -10 -37 -10 -90z"/>
<path d="M4002 2788 c-9 -9 -12 -97 -12 -336 0 -291 2 -324 16 -318 9 3 27 6
40 6 l24 0 0 318 c0 327 -2 342 -40 342 -9 0 -21 -5 -28 -12z"/>
<path d="M8010 2741 c-19 -37 -12 -79 16 -98 24 -15 29 -15 53 -2 29 16 40 64
21 99 -15 27 -75 28 -90 1z m78 -3 c27 -27 2 -98 -34 -98 -21 0 -44 30 -44 59
0 32 16 51 45 51 12 0 26 -5 33 -12z"/>
<path d="M8150 2695 c0 -37 4 -65 10 -65 6 0 10 28 10 65 0 37 -4 65 -10 65
-6 0 -10 -28 -10 -65z"/>
<path d="M8188 2753 c7 -3 16 -2 19 1 4 3 -2 6 -13 5 -11 0 -14 -3 -6 -6z"/>
<path d="M8256 2744 c-24 -24 -20 -80 6 -98 29 -21 52 -20 69 1 13 15 12 15
-8 3 -26 -17 -73 0 -73 25 0 11 12 15 50 15 42 0 50 3 50 18 0 43 -63 67 -94
36z m74 -14 c10 -19 8 -20 -35 -20 -46 0 -54 7 -33 28 19 19 56 14 68 -8z"/>
<path d="M8393 2695 c0 -38 2 -53 4 -32 2 20 2 52 0 70 -2 17 -4 1 -4 -38z"/>
<path d="M8440 2751 c22 -6 26 -14 31 -66 l6 -60 1 52 c3 68 -4 83 -37 82
l-26 -1 25 -7z"/>
<path d="M8517 2753 c24 -5 30 -20 36 -88 3 -35 4 -34 5 12 3 68 -4 83 -37 82
-23 -2 -24 -2 -4 -6z"/>
<path d="M8670 2695 c0 -37 4 -65 10 -65 6 0 10 28 10 65 0 37 -4 65 -10 65
-6 0 -10 -28 -10 -65z"/>
<path d="M8730 2670 c0 -53 4 -90 10 -90 6 0 10 16 10 35 0 33 1 34 20 23 25
-16 49 -3 68 35 19 40 -2 81 -43 84 -19 1 -22 -1 -8 -4 31 -6 45 -27 41 -64
-4 -39 -30 -59 -55 -43 -13 8 -19 27 -21 63 -5 86 -22 57 -22 -39z"/>
<path d="M8894 2745 c-10 -24 3 -44 33 -51 34 -9 46 -24 31 -41 -13 -16 -40
-17 -56 -1 -9 9 -12 9 -12 0 0 -17 45 -25 69 -12 38 20 22 52 -32 65 -18 5
-27 14 -27 27 0 17 5 20 34 16 19 -2 32 0 30 4 -9 14 -64 9 -70 -7z"/>
<path d="M9022 2709 c-2 -68 14 -89 53 -71 15 7 25 8 25 2 0 -6 5 -10 10 -10
6 0 10 28 10 65 0 37 -4 65 -10 65 -5 0 -10 -22 -10 -50 0 -38 -4 -52 -19 -59
-30 -16 -50 7 -54 64 l-3 50 -2 -56z"/>
<path d="M9160 2695 c0 -37 4 -65 10 -65 6 0 10 28 10 65 0 37 -4 65 -10 65
-6 0 -10 -28 -10 -65z"/>
<path d="M9210 2751 c22 -6 25 -13 28 -64 4 -72 22 -75 22 -4 0 59 -12 77 -49
76 l-26 -1 25 -7z"/>
<path d="M9290 2752 c22 -7 26 -15 31 -67 l6 -60 -1 65 c-1 65 -1 65 -31 67
-28 2 -28 1 -5 -5z"/>
<path d="M9456 2738 c-9 -12 -16 -33 -16 -45 0 -27 33 -63 58 -63 12 0 10 4
-8 13 -21 11 -25 20 -25 57 0 42 2 45 30 51 30 7 30 7 3 8 -17 1 -32 -7 -42
-21z"/>
<path d="M9616 2738 c-22 -31 -20 -64 4 -88 36 -36 82 -18 96 36 15 60 -65
102 -100 52z m72 3 c19 -12 11 -81 -10 -95 -26 -16 -52 4 -56 43 -2 18 -1 39
2 47 6 15 43 19 64 5z"/>
<path d="M9826 2744 c-26 -26 -20 -81 10 -101 24 -15 29 -15 53 -2 29 16 40
64 21 99 -13 24 -61 27 -84 4z m72 -6 c27 -27 2 -98 -34 -98 -21 0 -44 30 -44
59 0 32 16 51 45 51 12 0 26 -5 33 -12z"/>
<path d="M9960 2695 c0 -37 4 -65 10 -65 6 0 10 28 10 65 0 37 -4 65 -10 65
-6 0 -10 -28 -10 -65z"/>
<path d="M9998 2753 c7 -3 16 -2 19 1 4 3 -2 6 -13 5 -11 0 -14 -3 -6 -6z"/>
<path d="M8060 2491 c0 -11 -6 -22 -12 -24 -10 -4 -10 -6 0 -6 8 -1 12 -18 12
-49 0 -49 13 -72 40 -72 12 1 12 2 -2 11 -22 12 -26 104 -5 112 10 4 10 6 0 6
-7 1 -13 10 -13 21 0 11 -4 20 -10 20 -5 0 -10 -9 -10 -19z"/>
<path d="M8731 2493 c0 -12 -7 -24 -13 -26 -10 -4 -10 -6 0 -6 8 -1 12 -19 12
-55 0 -40 4 -55 16 -60 24 -9 31 -7 12 5 -13 7 -18 23 -18 59 0 38 4 50 18 53
15 4 15 5 0 6 -9 0 -19 11 -21 24 -4 22 -4 22 -6 0z"/>
<path d="M7871 2456 c-17 -20 -4 -42 32 -53 22 -6 32 -15 32 -28 0 -25 -39
-32 -63 -13 -15 12 -16 11 -3 -4 26 -34 85 -17 79 22 -2 16 -14 26 -38 34 -48
15 -47 41 2 40 21 -1 35 3 32 7 -8 14 -60 10 -73 -5z"/>
<path d="M7990 2405 c0 -37 4 -65 10 -65 6 0 10 28 10 65 0 37 -4 65 -10 65
-6 0 -10 -28 -10 -65z"/>
<path d="M8226 2462 c-2 -4 11 -6 30 -4 29 4 34 1 34 -16 0 -11 -8 -23 -17
-25 -17 -4 -17 -5 0 -6 13 -1 17 -10 17 -36 0 -19 5 -35 10 -35 14 0 12 104
-2 118 -13 13 -64 16 -72 4z"/>
<path d="M8363 2405 c0 -38 2 -53 4 -32 2 20 2 52 0 70 -2 17 -4 1 -4 -38z"/>
<path d="M8410 2461 c22 -6 26 -14 31 -66 l6 -60 1 52 c3 68 -4 83 -37 82
l-26 -1 25 -7z"/>
<path d="M8482 2463 c30 -5 35 -16 41 -88 3 -35 4 -34 5 12 3 71 -4 83 -42 82
-30 -2 -30 -2 -4 -6z"/>
<path d="M8586 2454 c-35 -34 -9 -114 36 -114 24 0 48 11 48 21 0 5 -9 4 -19
-3 -24 -15 -71 3 -71 27 0 11 12 15 50 15 41 0 50 3 50 18 -1 46 -61 70 -94
36z m74 -14 c10 -19 8 -20 -35 -20 -46 0 -54 7 -33 28 19 19 56 14 68 -8z"/>
<path d="M8213 2394 c-12 -33 35 -70 59 -46 6 6 0 8 -16 5 -34 -7 -48 24 -21
43 17 13 17 14 2 14 -10 0 -20 -7 -24 -16z"/>
<path d="M8817 2354 c-4 -4 -7 -19 -6 -33 l0 -26 10 24 c10 26 8 47 -4 35z"/>
<path d="M8562 1853 l-2 -93 45 0 c25 0 45 5 45 10 0 6 -18 10 -40 10 l-39 0
-4 83 -3 82 -2 -92z"/>
<path d="M10229 1903 c-2 -102 -1 -135 5 -140 3 -4 6 35 6 85 0 51 -2 92 -5
92 -3 0 -5 -17 -6 -37z"/>
<path d="M10440 1850 c0 -53 4 -90 10 -90 6 0 10 37 10 90 0 53 -4 90 -10 90
-6 0 -10 -37 -10 -90z"/>
<path d="M8706 1874 c-26 -26 -20 -81 10 -101 24 -15 29 -15 53 -2 32 18 41
77 16 103 -21 20 -59 21 -79 0z m72 -6 c28 -28 4 -98 -33 -98 -22 0 -45 30
-45 59 0 32 16 51 45 51 12 0 26 -5 33 -12z"/>
<path d="M8840 1825 c0 -37 4 -65 10 -65 6 0 10 28 10 65 0 37 -4 65 -10 65
-6 0 -10 -28 -10 -65z"/>
<path d="M8878 1883 c7 -3 16 -2 19 1 4 3 -2 6 -13 5 -11 0 -14 -3 -6 -6z"/>
<path d="M8934 1865 c-36 -55 14 -123 72 -96 15 6 24 14 21 17 -3 3 -15 -1
-26 -8 -24 -15 -54 -2 -59 26 -3 13 5 16 42 16 41 0 46 2 46 23 0 51 -67 66
-96 22z m76 11 c0 -2 3 -11 6 -20 5 -13 -2 -16 -35 -16 -39 0 -53 14 -34 33 7
8 63 10 63 3z"/>
<path d="M9070 1825 c0 -37 4 -65 10 -65 6 0 10 28 10 65 0 37 -4 65 -10 65
-6 0 -10 -28 -10 -65z"/>
<path d="M9123 1883 c26 -4 27 -7 27 -64 0 -33 4 -59 10 -59 14 0 12 104 -2
118 -7 7 -23 11 -37 11 -26 -2 -26 -2 2 -6z"/>
<path d="M9200 1882 c22 -7 26 -15 31 -67 l6 -60 -1 65 c-1 65 -1 65 -31 67
-28 2 -28 1 -5 -5z"/>
<path d="M9360 1825 c0 -37 4 -65 10 -65 6 0 10 28 10 65 0 37 -4 65 -10 65
-6 0 -10 -28 -10 -65z"/>
<path d="M9420 1800 c0 -53 4 -90 10 -90 6 0 10 16 10 35 0 33 1 34 20 23 25
-16 49 -3 68 35 19 40 -2 81 -43 83 -29 2 -29 2 -3 -3 43 -7 53 -83 16 -107
-32 -19 -53 4 -56 63 -5 86 -22 57 -22 -39z"/>
<path d="M9581 1876 c-17 -20 -4 -42 32 -53 22 -6 32 -15 32 -28 0 -25 -39
-32 -63 -13 -15 12 -16 11 -3 -4 26 -35 87 -13 79 28 -2 9 -19 22 -38 28 -48
15 -47 41 2 40 21 -1 35 3 32 7 -8 14 -60 10 -73 -5z"/>
<path d="M9700 1842 c0 -35 5 -54 18 -65 22 -20 38 -22 48 -5 4 6 3 8 -4 5
-26 -17 -42 5 -42 59 0 30 -4 54 -10 54 -5 0 -10 -22 -10 -48z"/>
<path d="M9793 1825 c0 -38 2 -53 4 -32 2 20 2 52 0 70 -2 17 -4 1 -4 -38z"/>
<path d="M9853 1825 c0 -38 2 -53 4 -32 2 20 2 52 0 70 -2 17 -4 1 -4 -38z"/>
<path d="M9900 1881 c22 -6 26 -14 31 -66 l6 -60 1 52 c3 68 -4 83 -37 82
l-26 -1 25 -7z"/>
<path d="M9977 1883 c24 -5 30 -20 36 -88 3 -35 4 -34 5 12 3 68 -4 83 -37 82
-23 -2 -24 -2 -4 -6z"/>
<path d="M10146 1868 c-9 -12 -16 -33 -16 -45 0 -27 33 -63 58 -63 12 0 10 4
-8 13 -21 11 -25 20 -25 57 0 42 2 45 30 51 30 7 30 7 3 8 -17 1 -32 -7 -42
-21z"/>
<path d="M10306 1874 c-26 -26 -20 -81 10 -101 24 -15 29 -15 53 -2 32 18 41
77 16 103 -21 20 -59 21 -79 0z m72 -6 c28 -28 4 -98 -33 -98 -22 0 -45 30
-45 59 0 32 16 51 45 51 12 0 26 -5 33 -12z"/>
<path d="M10516 1874 c-26 -26 -20 -81 10 -101 24 -15 29 -15 53 -2 32 18 41
77 16 103 -21 20 -59 21 -79 0z m72 -6 c28 -28 4 -98 -33 -98 -22 0 -45 30
-45 59 0 32 16 51 45 51 12 0 26 -5 33 -12z"/>
<path d="M10653 1825 c0 -38 2 -53 4 -32 2 20 2 52 0 70 -2 17 -4 1 -4 -38z"/>
<path d="M10688 1883 c7 -3 16 -2 19 1 4 3 -2 6 -13 5 -11 0 -14 -3 -6 -6z"/>
<path d="M8750 1611 c0 -11 -6 -22 -12 -24 -10 -4 -10 -6 0 -6 8 -1 12 -18 12
-49 0 -49 13 -72 40 -72 12 1 12 2 -2 11 -22 12 -26 104 -5 112 10 4 10 6 0 6
-7 1 -13 10 -13 21 0 11 -4 20 -10 20 -5 0 -10 -9 -10 -19z"/>
<path d="M9421 1613 c0 -12 -7 -24 -13 -26 -10 -4 -10 -6 0 -6 8 -1 12 -19 12
-55 0 -40 4 -55 16 -60 24 -9 31 -7 12 5 -13 7 -18 23 -18 59 0 38 4 50 18 53
15 4 15 5 0 6 -9 0 -19 11 -21 24 -4 22 -4 22 -6 0z"/>
<path d="M8561 1576 c-17 -20 -4 -42 32 -53 22 -6 32 -15 32 -28 0 -25 -39
-32 -63 -13 -15 12 -16 11 -3 -4 26 -35 87 -13 79 28 -2 9 -19 22 -38 28 -48
15 -47 41 2 40 21 -1 35 3 32 7 -8 14 -60 10 -73 -5z"/>
<path d="M8680 1525 c0 -37 4 -65 10 -65 6 0 10 28 10 65 0 37 -4 65 -10 65
-6 0 -10 -28 -10 -65z"/>
<path d="M8916 1582 c-2 -4 11 -6 30 -4 29 4 34 1 34 -16 0 -11 -8 -23 -17
-25 -17 -4 -17 -5 0 -6 13 -1 17 -10 17 -36 0 -19 5 -35 10 -35 14 0 12 104
-2 118 -13 13 -64 16 -72 4z"/>
<path d="M9040 1525 c0 -37 4 -65 10 -65 6 0 10 28 10 65 0 37 -4 65 -10 65
-6 0 -10 -28 -10 -65z"/>
<path d="M9093 1583 c26 -4 27 -7 27 -64 0 -33 4 -59 10 -59 14 0 12 104 -2
118 -7 7 -23 11 -37 11 -26 -2 -26 -2 2 -6z"/>
<path d="M9170 1582 c22 -7 26 -15 31 -67 l6 -60 -1 65 c-1 65 -1 65 -31 67
-28 2 -28 1 -5 -5z"/>
<path d="M9276 1574 c-24 -24 -20 -80 6 -98 29 -21 52 -20 69 1 13 15 12 15
-8 3 -26 -17 -73 0 -73 25 0 11 12 15 50 15 42 0 50 3 50 18 0 43 -63 67 -94
36z m74 -14 c10 -19 8 -20 -35 -20 -46 0 -54 7 -33 28 19 19 56 14 68 -8z"/>
<path d="M8903 1514 c-12 -33 35 -70 59 -46 6 6 0 8 -16 5 -34 -7 -48 24 -21
43 17 13 17 14 2 14 -10 0 -20 -7 -24 -16z"/>
<path d="M9507 1474 c-4 -4 -7 -19 -6 -33 l0 -26 10 24 c10 26 8 47 -4 35z"/>
<path d="M4564 1459 c-3 -6 -1 -16 5 -22 9 -9 14 -8 21 3 9 15 4 30 -10 30 -5
0 -12 -5 -16 -11z"/>
<path d="M4764 1459 c-3 -6 -1 -16 5 -22 9 -9 14 -8 21 3 9 15 4 30 -10 30 -5
0 -12 -5 -16 -11z"/>
<path d="M4966 1462 c-2 -4 -1 -14 4 -22 7 -11 12 -12 21 -3 6 6 8 16 5 22 -8
13 -23 14 -30 3z"/>
<path d="M5166 1462 c-2 -4 -1 -14 4 -22 7 -11 12 -12 21 -3 6 6 8 16 5 22 -8
13 -23 14 -30 3z"/>
<path d="M5366 1462 c-2 -4 -1 -14 4 -22 7 -11 12 -12 21 -3 6 6 8 16 5 22 -8
13 -23 14 -30 3z"/>
<path d="M5566 1462 c-2 -4 -1 -14 4 -22 7 -11 12 -12 21 -3 6 6 8 16 5 22 -8
13 -23 14 -30 3z"/>
<path d="M5774 1459 c-3 -6 -1 -16 5 -22 9 -9 14 -8 21 3 9 15 4 30 -10 30 -5
0 -12 -5 -16 -11z"/>
<path d="M5974 1459 c-3 -6 -1 -16 5 -22 9 -9 14 -8 21 3 9 15 4 30 -10 30 -5
0 -12 -5 -16 -11z"/>
<path d="M6174 1459 c-3 -6 -1 -16 5 -22 9 -9 14 -8 21 3 9 15 4 30 -10 30 -5
0 -12 -5 -16 -11z"/>
<path d="M6374 1459 c-3 -6 -1 -16 5 -22 9 -9 14 -8 21 3 9 15 4 30 -10 30 -5
0 -12 -5 -16 -11z"/>
<path d="M6576 1462 c-2 -4 -1 -14 4 -22 7 -11 12 -12 21 -3 6 6 8 16 5 22 -8
13 -23 14 -30 3z"/>
<path d="M6776 1462 c-2 -4 -1 -14 4 -22 7 -11 12 -12 21 -3 6 6 8 16 5 22 -8
13 -23 14 -30 3z"/>
<path d="M4564 1169 c-3 -6 -1 -16 5 -22 9 -9 14 -8 21 3 9 15 4 30 -10 30 -5
0 -12 -5 -16 -11z"/>
<path d="M4764 1169 c-3 -6 -1 -16 5 -22 9 -9 14 -8 21 3 9 15 4 30 -10 30 -5
0 -12 -5 -16 -11z"/>
<path d="M4966 1172 c-2 -4 -1 -14 4 -22 7 -11 12 -12 21 -3 6 6 8 16 5 22 -8
13 -23 14 -30 3z"/>
<path d="M5166 1172 c-2 -4 -1 -14 4 -22 7 -11 12 -12 21 -3 6 6 8 16 5 22 -8
13 -23 14 -30 3z"/>
<path d="M5366 1172 c-2 -4 -1 -14 4 -22 7 -11 12 -12 21 -3 6 6 8 16 5 22 -8
13 -23 14 -30 3z"/>
<path d="M5566 1172 c-2 -4 -1 -14 4 -22 7 -11 12 -12 21 -3 6 6 8 16 5 22 -8
13 -23 14 -30 3z"/>
<path d="M5774 1169 c-3 -6 -1 -16 5 -22 9 -9 14 -8 21 3 9 15 4 30 -10 30 -5
0 -12 -5 -16 -11z"/>
<path d="M5974 1169 c-3 -6 -1 -16 5 -22 9 -9 14 -8 21 3 9 15 4 30 -10 30 -5
0 -12 -5 -16 -11z"/>
<path d="M6174 1169 c-3 -6 -1 -16 5 -22 9 -9 14 -8 21 3 9 15 4 30 -10 30 -5
0 -12 -5 -16 -11z"/>
<path d="M6374 1169 c-3 -6 -1 -16 5 -22 9 -9 14 -8 21 3 9 15 4 30 -10 30 -5
0 -12 -5 -16 -11z"/>
<path d="M6576 1172 c-2 -4 -1 -14 4 -22 7 -11 12 -12 21 -3 6 6 8 16 5 22 -8
13 -23 14 -30 3z"/>
<path d="M6776 1172 c-2 -4 -1 -14 4 -22 7 -11 12 -12 21 -3 6 6 8 16 5 22 -8
13 -23 14 -30 3z"/>
<path d="M4566 882 c-2 -4 0 -14 5 -22 8 -13 10 -13 18 0 10 15 6 30 -9 30 -5
0 -11 -4 -14 -8z"/>
<path d="M4765 880 c-7 -12 2 -30 16 -30 6 0 8 4 5 9 -4 5 -1 11 6 13 8 3 6 7
-5 11 -9 3 -19 2 -22 -3z"/>
<path d="M4970 880 c-11 -7 -11 -10 -2 -10 7 0 10 -4 7 -10 -3 -5 -2 -10 4
-10 15 0 25 20 15 30 -5 5 -16 5 -24 0z"/>
<path d="M5166 882 c-2 -4 0 -14 5 -22 8 -13 10 -13 18 0 10 15 6 30 -9 30 -5
0 -11 -4 -14 -8z"/>
<path d="M5370 880 c-11 -7 -11 -10 -2 -10 7 0 10 -4 7 -10 -3 -5 -2 -10 4
-10 15 0 25 20 15 30 -5 5 -16 5 -24 0z"/>
<path d="M5566 882 c-2 -4 0 -14 5 -22 8 -13 10 -13 18 0 10 15 6 30 -9 30 -5
0 -11 -4 -14 -8z"/>
<path d="M5781 876 c-10 -12 -6 -26 10 -26 11 0 19 29 10 35 -5 2 -14 -1 -20
-9z"/>
<path d="M5987 873 c5 -12 3 -14 -7 -8 -9 5 -11 4 -6 -4 6 -9 11 -9 22 0 14
11 10 29 -6 29 -5 0 -6 -7 -3 -17z"/>
<path d="M6181 876 c-10 -12 -6 -26 10 -26 11 0 19 29 10 35 -5 2 -14 -1 -20
-9z"/>
<path d="M6387 873 c5 -12 3 -14 -7 -8 -9 5 -11 4 -6 -4 6 -9 11 -9 22 0 14
11 10 29 -6 29 -5 0 -6 -7 -3 -17z"/>
<path d="M6574 879 c-5 -9 -2 -10 9 -6 18 7 24 -8 7 -16 -6 -3 -5 -4 2 -3 16
3 17 28 1 33 -6 2 -15 -1 -19 -8z"/>
<path d="M6775 881 c-3 -6 -1 -11 5 -11 6 0 8 -5 4 -11 -4 -7 -1 -10 7 -7 17
6 19 30 2 35 -6 2 -14 -1 -18 -6z"/>
<path d="M6976 882 c-2 -4 -1 -14 4 -22 7 -11 12 -12 21 -3 6 6 8 16 5 22 -8
13 -23 14 -30 3z"/>
<path d="M4565 590 c-8 -12 2 -30 17 -30 6 0 6 6 -2 15 -11 13 -10 14 5 9 13
-5 16 -4 11 4 -9 15 -23 15 -31 2z"/>
<path d="M4767 585 c-8 -19 13 -31 23 -14 9 14 4 29 -10 29 -4 0 -10 -7 -13
-15z"/>
<path d="M4966 592 c-2 -4 -1 -14 4 -21 10 -17 31 -5 23 14 -6 16 -19 20 -27
7z"/>
<path d="M5164 589 c-5 -9 -2 -10 11 -5 16 6 16 4 4 -10 -12 -15 -12 -17 1
-12 18 6 20 30 3 35 -6 2 -15 -1 -19 -8z"/>
<path d="M5366 592 c-2 -4 -1 -14 4 -21 10 -17 31 -5 23 14 -6 16 -19 20 -27
7z"/>
<path d="M5564 589 c-5 -9 -2 -10 11 -5 16 6 16 4 4 -10 -12 -15 -12 -17 1
-12 18 6 20 30 3 35 -6 2 -15 -1 -19 -8z"/>
<path d="M5775 590 c-7 -11 2 -30 15 -30 4 0 10 6 13 14 6 16 -19 30 -28 16z"/>
<path d="M5976 592 c-2 -4 0 -14 5 -22 8 -13 10 -13 18 0 10 15 6 30 -9 30 -5
0 -11 -4 -14 -8z"/>
<path d="M6175 590 c-7 -11 2 -30 15 -30 4 0 10 6 13 14 6 16 -19 30 -28 16z"/>
<path d="M6376 592 c-2 -4 0 -14 5 -22 8 -13 10 -13 18 0 10 15 6 30 -9 30 -5
0 -11 -4 -14 -8z"/>
<path d="M6577 594 c-8 -8 3 -34 14 -34 5 0 9 9 9 20 0 19 -11 26 -23 14z"/>
<path d="M6776 592 c-2 -4 -1 -14 4 -21 10 -17 31 -5 23 14 -6 16 -19 20 -27
7z"/>
<path d="M6976 591 c-3 -5 1 -14 8 -20 16 -13 32 2 21 19 -8 12 -22 13 -29 1z"/>
<path d="M7176 592 c-2 -4 -1 -14 4 -22 7 -11 12 -12 21 -3 6 6 8 16 5 22 -8
13 -23 14 -30 3z"/>
<path d="M7384 589 c-3 -6 -1 -16 5 -22 9 -9 14 -8 21 3 9 15 4 30 -10 30 -5
0 -12 -5 -16 -11z"/>
<path d="M7584 589 c-3 -6 -1 -16 5 -22 9 -9 14 -8 21 3 9 15 4 30 -10 30 -5
0 -12 -5 -16 -11z"/>
<path d="M7784 589 c-3 -6 -1 -16 5 -22 9 -9 14 -8 21 3 9 15 4 30 -10 30 -5
0 -12 -5 -16 -11z"/>
<path d="M7986 592 c-2 -4 -1 -14 4 -22 7 -11 12 -12 21 -3 6 6 8 16 5 22 -8
13 -23 14 -30 3z"/>
<path d="M8186 592 c-2 -4 -1 -14 4 -22 7 -11 12 -12 21 -3 6 6 8 16 5 22 -8
13 -23 14 -30 3z"/>
<path d="M8386 592 c-2 -4 -1 -14 4 -22 7 -11 12 -12 21 -3 6 6 8 16 5 22 -8
13 -23 14 -30 3z"/>
<path d="M8586 592 c-2 -4 -1 -14 4 -22 7 -11 12 -12 21 -3 6 6 8 16 5 22 -8
13 -23 14 -30 3z"/>
<path d="M8794 589 c-3 -6 -1 -16 5 -22 9 -9 14 -8 21 3 9 15 4 30 -10 30 -5
0 -12 -5 -16 -11z"/>
<path d="M8994 589 c-3 -6 -1 -16 5 -22 9 -9 14 -8 21 3 9 15 4 30 -10 30 -5
0 -12 -5 -16 -11z"/>
<path d="M9194 589 c-3 -6 -1 -16 5 -22 9 -9 14 -8 21 3 9 15 4 30 -10 30 -5
0 -12 -5 -16 -11z"/>
<path d="M9394 589 c-3 -6 -1 -16 5 -22 9 -9 14 -8 21 3 9 15 4 30 -10 30 -5
0 -12 -5 -16 -11z"/>
<path d="M9596 592 c-2 -4 -1 -14 4 -22 7 -11 12 -12 21 -3 6 6 8 16 5 22 -8
13 -23 14 -30 3z"/>
<path d="M9796 592 c-2 -4 -1 -14 4 -22 7 -11 12 -12 21 -3 6 6 8 16 5 22 -8
13 -23 14 -30 3z"/>
<path d="M9996 592 c-2 -4 -1 -14 4 -22 7 -11 12 -12 21 -3 6 6 8 16 5 22 -8
13 -23 14 -30 3z"/>
<path d="M10196 592 c-2 -4 -1 -14 4 -22 7 -11 12 -12 21 -3 6 6 8 16 5 22 -8
13 -23 14 -30 3z"/>
<path d="M10404 589 c-3 -6 -1 -16 5 -22 9 -9 14 -8 21 3 9 15 4 30 -10 30 -5
0 -12 -5 -16 -11z"/>
</g>
</svg>
