<?xml version="1.0" standalone="no"?>
<!DOCTYPE svg PUBLIC "-//W3C//DTD SVG 20010904//EN"
 "http://www.w3.org/TR/2001/REC-SVG-20010904/DTD/svg10.dtd">
<svg version="1.0" xmlns="http://www.w3.org/2000/svg"
 width="413.000000pt" height="385.000000pt" viewBox="0 0 413.000000 385.000000"
 preserveAspectRatio="xMidYMid meet">

<g transform="translate(0.000000,385.000000) scale(0.100000,-0.100000)"
fill="#000000" stroke="none">
<path d="M0 1925 l0 -1925 610 0 c596 0 610 0 628 20 13 15 28 19 53 16 19 -2
40 1 48 7 17 15 84 17 93 4 4 -7 12 -6 23 3 15 12 18 12 26 -3 16 -28 31 -20
24 13 -4 19 -3 30 4 30 6 0 11 -5 11 -11 0 -8 5 -8 15 1 13 11 15 8 15 -14 0
-14 5 -26 10 -26 6 0 10 4 10 10 0 13 57 70 70 70 6 0 8 5 5 10 -4 6 -31 9
-63 6 -31 -2 -46 -1 -33 3 14 3 26 12 28 18 6 16 -273 18 -282 3 -4 -6 1 -20
10 -30 16 -17 15 -19 -4 -30 -19 -10 -63 -4 -115 16 -8 3 -12 -7 -12 -30 0
-48 -10 -54 -39 -22 -24 26 -31 44 -37 96 -2 15 -9 24 -17 22 -11 -2 -13 9 -8
53 3 33 2 53 -4 50 -5 -4 -9 -12 -9 -18 0 -16 -38 -39 -50 -32 -6 4 -10 0 -10
-7 0 -8 -5 -5 -11 5 -6 10 -9 35 -7 55 3 19 -2 52 -9 71 l-13 36 2 -52 c2 -28
1 -49 -2 -47 -8 9 -52 138 -56 169 -3 17 -7 45 -10 62 -3 18 -10 32 -16 30
-18 -3 -53 209 -39 237 8 17 9 12 4 -21 -3 -27 -2 -43 5 -43 14 0 19 75 6 88
-7 6 -14 8 -17 6 -14 -14 -18 49 -11 150 5 61 9 121 9 134 -1 12 5 22 12 22 7
0 13 11 13 25 0 31 -20 33 -21 3 -1 -16 -4 -12 -10 12 -9 38 -3 87 13 108 8 9
15 7 29 -9 11 -12 19 -26 19 -31 0 -13 28 -9 33 5 3 9 10 7 25 -7 12 -10 19
-23 16 -27 -3 -5 0 -9 5 -9 15 0 14 12 -9 62 -23 51 -43 78 -59 78 -6 0 -11 4
-11 10 0 5 -12 26 -26 47 -21 31 -25 45 -20 81 3 23 14 59 24 80 11 20 23 59
27 87 22 151 176 316 382 407 35 15 43 22 32 30 -11 8 -10 9 4 4 22 -7 60 11
52 25 -4 5 -24 9 -46 9 -28 0 -39 -4 -39 -15 0 -8 -6 -15 -12 -16 -7 0 -4 -4
7 -9 13 -6 15 -9 5 -9 -8 0 -22 4 -30 9 -10 6 -11 10 -2 10 7 0 12 15 12 40 0
22 5 40 10 40 6 0 10 14 10 30 0 28 -2 30 -40 30 -22 0 -40 5 -40 10 0 6 -18
10 -40 10 l-40 0 0 40 c0 29 4 40 15 40 11 0 15 11 15 40 0 29 -4 40 -15 40
-12 0 -15 16 -15 80 l0 80 -40 0 -40 0 0 40 c0 30 4 40 16 40 12 0 14 10 12
47 -3 41 -7 50 -31 61 -15 7 -33 22 -40 33 -12 20 -37 26 -37 9 0 -5 -18 -10
-40 -10 -22 0 -40 5 -40 10 0 6 -18 10 -40 10 l-40 0 0 40 c0 22 -4 40 -10 40
-6 0 -10 47 -10 120 l0 120 -40 0 -40 0 0 40 c0 29 -4 40 -15 40 -11 0 -15 11
-15 40 0 29 -4 40 -15 40 -8 0 -15 -4 -15 -10 0 -5 -4 -10 -10 -10 -6 0 -10
37 -10 90 l0 90 40 0 40 0 0 40 c0 22 5 40 10 40 6 0 10 18 10 40 l0 40 40 0
40 0 0 40 c0 22 -4 40 -10 40 -5 0 -10 18 -10 40 0 22 5 40 10 40 6 0 10 -18
10 -40 l0 -40 40 0 c22 0 40 5 40 10 0 6 18 10 40 10 36 0 40 -2 40 -25 0 -22
4 -25 40 -25 29 0 40 4 40 15 0 13 24 15 160 15 l160 0 0 -40 0 -40 -40 0
c-29 0 -40 -4 -40 -15 0 -12 16 -15 80 -15 79 0 80 0 80 -25 0 -14 5 -25 10
-25 6 0 10 -18 10 -39 0 -37 2 -39 34 -43 28 -3 33 -1 31 14 -2 11 2 18 10 18
13 0 12 -6 -1 -40 -9 -22 -14 -52 -10 -67 3 -16 3 -22 0 -15 -3 6 -12 12 -20
12 -10 0 -14 -12 -14 -40 0 -28 4 -40 14 -40 8 0 17 6 19 13 3 6 3 -6 0 -27
-5 -31 -3 -37 7 -31 10 6 11 4 5 -11 -5 -10 -11 -62 -13 -114 -3 -89 -2 -94
13 -75 16 20 16 20 10 -2 -3 -12 -1 -24 5 -28 6 -3 7 -11 4 -17 -4 -6 -10 -5
-15 3 -13 21 2 -62 16 -91 8 -15 11 -44 8 -72 -4 -36 -1 -55 12 -75 10 -15 21
-41 25 -58 3 -16 15 -34 26 -39 15 -7 23 -25 32 -75 7 -36 12 -74 13 -83 0
-10 4 -18 8 -18 13 0 39 -74 44 -127 4 -54 11 -65 112 -178 32 -37 34 -38 25
-12 -5 16 -10 43 -10 62 0 18 -6 36 -12 39 -7 3 11 4 39 3 29 -1 53 -5 53 -8
0 -4 44 -7 98 -7 l98 -1 69 54 c38 31 74 68 80 83 7 15 24 41 38 58 15 18 27
35 27 38 0 4 9 16 20 28 11 12 20 30 20 40 0 11 4 17 9 14 5 -3 9 4 9 17 -1
12 2 39 5 60 4 28 0 47 -14 70 -17 28 -19 29 -19 10 0 -12 8 -27 18 -33 14
-10 13 -10 -9 -6 -25 5 -28 2 -48 -52 -11 -31 -23 -69 -27 -84 -8 -36 -18 -35
-44 2 -17 24 -19 34 -10 45 13 16 22 113 10 120 -4 3 -12 -1 -18 -8 -12 -14
-11 -67 2 -60 4 3 6 -3 2 -13 -13 -44 -27 -112 -30 -149 -2 -21 -9 -41 -15
-43 -17 -6 -13 -29 5 -36 14 -6 13 -11 -12 -35 -16 -16 -32 -25 -35 -20 -6 11
-39 1 -39 -12 0 -4 -7 -6 -15 -3 -8 4 -22 0 -31 -7 -13 -11 -18 -10 -26 5 -6
11 -13 14 -17 8 -3 -6 -19 -13 -34 -16 -24 -4 -27 -2 -27 24 0 22 -4 28 -15
24 -10 -4 -15 0 -15 15 0 14 -6 21 -19 21 -22 0 -36 15 -50 52 -8 22 -8 26 4
21 21 -7 19 14 -3 38 -13 13 -26 17 -38 13 -18 -6 -18 -6 1 9 19 15 19 17 3
34 -17 17 -18 17 -18 0 0 -10 5 -15 10 -12 6 3 10 1 10 -4 0 -6 -7 -11 -15
-11 -10 0 -15 10 -15 29 0 43 20 91 38 91 12 0 13 -3 4 -12 -17 -17 -15 -45 3
-52 8 -3 15 -13 15 -21 0 -9 4 -13 10 -10 5 3 10 -1 10 -9 0 -8 10 -21 22 -27
17 -9 24 -9 33 5 7 9 17 16 24 16 20 0 12 18 -11 26 -33 10 -54 47 -26 43 7
-1 24 -1 38 0 23 1 23 3 8 15 -16 12 -16 14 3 29 24 21 26 21 32 -3 3 -10 0
-21 -7 -24 -6 -2 -6 -5 -1 -5 14 -1 85 63 85 77 0 6 -5 14 -12 18 -7 5 -9 2
-5 -9 4 -12 2 -14 -10 -10 -9 4 -21 -1 -28 -11 -9 -11 -15 -14 -20 -6 -4 6
-16 8 -28 5 -20 -5 -20 -5 -6 7 14 12 15 17 5 37 -8 14 -11 43 -8 73 3 28 1
53 -4 57 -11 8 18 95 33 98 5 1 27 -27 48 -62 42 -72 66 -85 158 -85 106 0
154 51 145 157 -3 29 -7 55 -10 58 -3 3 -52 13 -109 21 -91 14 -107 14 -129 1
-68 -39 -92 -40 -202 -8 -57 16 -120 32 -140 36 -43 7 -51 30 -14 39 23 6 25
9 23 76 -1 39 0 70 3 70 3 0 6 10 7 22 4 43 25 76 61 94 20 10 44 24 52 30 8
6 26 14 40 17 14 3 54 12 90 20 60 14 68 13 102 -3 21 -10 36 -13 35 -8 -1 6
4 13 11 15 8 3 10 -1 6 -11 -4 -11 0 -16 14 -16 11 0 23 -7 26 -16 4 -9 9 -14
13 -11 3 4 12 2 19 -4 8 -6 20 -9 28 -6 16 6 36 -13 40 -37 1 -9 11 -26 23
-38 25 -28 47 -139 29 -150 -15 -10 -14 -129 1 -146 9 -9 10 -19 3 -31 -6 -12
-5 -22 2 -29 5 -5 14 -25 18 -44 l8 -33 1 30 c1 21 11 39 32 57 l30 27 2 143
c1 79 6 146 11 150 6 4 5 16 -2 32 -8 19 -8 43 2 103 8 43 11 80 7 83 -4 3
-10 13 -14 23 -4 10 -17 17 -34 18 -17 0 -22 3 -13 6 8 4 20 13 27 22 11 14
12 14 13 -1 0 -15 9 -18 45 -18 33 0 45 4 45 15 0 11 12 15 50 15 l50 0 0 -40
0 -40 70 0 70 0 0 -30 c0 -28 2 -30 40 -30 l40 0 0 -50 0 -50 40 0 40 0 0 40
0 40 80 0 80 0 0 40 c0 22 5 40 10 40 6 0 10 -33 10 -80 l0 -80 30 0 c28 0 30
-2 30 -40 l0 -40 40 0 40 0 0 -40 0 -40 -40 0 -40 0 0 -80 0 -80 80 0 80 0 0
-40 0 -40 -40 0 -40 0 0 -40 0 -40 40 0 40 0 0 -80 0 -80 40 0 40 0 0 -40 c0
-29 -4 -40 -15 -40 -12 0 -15 -16 -15 -80 0 -64 3 -80 15 -80 11 0 15 12 15
50 l0 50 40 0 40 0 0 -50 0 -50 40 0 40 0 0 -40 0 -40 40 0 c22 0 40 5 40 10
0 6 18 10 40 10 22 0 40 -4 40 -10 0 -5 -18 -10 -40 -10 l-40 0 0 -120 0 -120
50 0 50 0 0 -80 0 -80 -50 0 -50 0 0 -40 0 -40 -55 0 -55 0 0 -40 c0 -29 4
-40 15 -40 11 0 15 -11 15 -40 0 -22 5 -40 10 -40 6 0 10 -18 10 -40 0 -22 -4
-40 -10 -40 -5 0 -10 -18 -10 -40 0 -29 -4 -40 -15 -40 -11 0 -15 -11 -15 -40
l0 -40 -40 0 -40 0 0 -80 c0 -64 3 -80 15 -80 11 0 15 11 15 40 0 22 5 40 10
40 6 0 10 -17 10 -37 0 -32 -8 -45 -49 -86 -27 -26 -52 -53 -55 -60 -3 -6 -3
2 0 20 3 19 -1 43 -10 60 l-16 28 6 -45 c3 -25 12 -85 20 -135 19 -114 21
-136 34 -332 10 -140 9 -168 -5 -216 -9 -31 -26 -121 -39 -201 -13 -84 -30
-156 -40 -171 -19 -29 -53 -45 -97 -45 -49 0 -67 -16 -74 -63 -4 -23 -15 -54
-26 -67 l-19 -25 -29 35 -30 35 24 3 c21 3 42 29 31 39 -2 2 -32 -5 -67 -16
-75 -25 -117 -28 -100 -7 8 9 10 32 5 65 -4 35 -3 51 5 51 15 0 14 20 -3 50
-17 31 -61 119 -70 140 -3 8 -27 49 -54 90 -37 58 -57 80 -92 98 -25 12 -52
21 -60 18 -64 -18 -189 -69 -219 -89 -152 -103 -231 -160 -228 -164 3 -2 32
12 65 32 71 41 161 68 179 53 9 -8 15 -4 22 13 5 13 10 18 10 12 1 -16 37 -17
46 -3 4 6 1 18 -6 26 -10 12 -9 16 9 20 11 4 23 12 26 19 3 10 -1 12 -12 9
-18 -5 38 28 76 45 35 16 55 13 93 -12 39 -26 74 -84 83 -136 3 -20 24 -67 47
-106 22 -38 40 -79 40 -90 -1 -28 0 -56 2 -85 2 -20 -3 -26 -23 -28 -14 -2
-34 -7 -45 -12 -11 -5 -42 -11 -68 -13 -27 -3 -54 -10 -60 -16 -17 -17 69 -14
129 4 27 8 52 15 56 15 3 0 4 -38 1 -85 l-6 -85 592 0 591 0 0 1925 0 1925
-2065 0 -2065 0 0 -1925z m980 1855 c0 -5 -4 -10 -10 -10 -5 0 -10 5 -10 10 0
6 5 10 10 10 6 0 10 -4 10 -10z m903 -26 c-18 -9 -33 -21 -33 -26 0 -5 -5 -6
-10 -3 -14 9 30 44 55 44 15 1 11 -4 -12 -15z m131 6 c-6 -6 -26 -6 -54 -1
l-45 9 55 1 c35 1 51 -2 44 -9z m89 -2 c3 -10 8 -9 22 2 17 14 18 14 6 -8 -8
-16 -16 -20 -24 -14 -7 5 -25 14 -42 20 l-30 10 32 1 c17 1 33 -5 36 -11z
m-303 -18 c-70 -23 -90 -28 -85 -19 4 5 15 9 26 9 10 0 19 5 19 10 0 6 15 10
33 9 30 -1 31 -1 7 -9z m370 0 c0 -5 -2 -10 -4 -10 -3 0 -8 5 -11 10 -3 6 -1
10 4 10 6 0 11 -4 11 -10z m45 -10 c3 -5 2 -10 -4 -10 -5 0 -13 5 -16 10 -3 6
-2 10 4 10 5 0 13 -4 16 -10z m-516 -52 c1 -5 -3 -8 -7 -8 -4 0 -8 12 -9 28
-1 23 -1 24 7 7 5 -11 9 -23 9 -27z m98 36 c-3 -3 -12 -4 -19 -1 -8 3 -5 6 6
6 11 1 17 -2 13 -5z m553 -34 c0 -5 -4 -10 -9 -10 -6 0 -13 5 -16 10 -3 6 1
10 9 10 9 0 16 -4 16 -10z m-700 -10 c0 -5 -2 -10 -4 -10 -3 0 -8 5 -11 10 -3
6 -1 10 4 10 6 0 11 -4 11 -10z m746 -14 c-1 -23 -2 -24 -19 -8 -18 16 -18 17
0 23 10 4 19 8 19 8 1 1 1 -10 0 -23z m-766 -15 c0 -4 -6 -15 -13 -25 -13 -17
-14 -16 -14 12 0 21 4 29 14 25 7 -3 13 -8 13 -12z m-26 -76 c-7 -16 -24 -21
-24 -6 0 8 7 13 27 20 1 1 0 -6 -3 -14z m-77 -37 c-3 -8 -6 -5 -6 6 -1 11 2
17 5 13 3 -3 4 -12 1 -19z m20 -24 c-3 -3 -12 -4 -19 -1 -8 3 -5 6 6 6 11 1
17 -2 13 -5z m1753 -124 c0 -5 -4 -10 -10 -10 -5 0 -10 5 -10 10 0 6 5 10 10
10 6 0 10 -4 10 -10z m-1753 -192 c-3 -8 -6 -5 -6 6 -1 11 2 17 5 13 3 -3 4
-12 1 -19z m788 -158 c18 -18 18 -24 7 -76 -14 -68 -24 -81 -71 -94 -46 -12
-145 1 -169 23 -9 9 -26 41 -37 72 -17 52 -17 57 -2 72 37 37 235 39 272 3z
m-475 -1 c0 -18 -4 -20 -22 -14 -13 4 -38 7 -55 7 -18 0 -33 1 -33 4 0 9 45
23 78 23 26 1 32 -3 32 -20z m10 -68 c0 -9 -34 -21 -62 -21 -10 0 -18 4 -18 9
0 5 8 12 18 14 31 8 62 7 62 -2z m0 -52 c0 -7 7 -17 16 -24 14 -10 10 -14 -29
-24 -58 -17 -123 -7 -130 20 -4 16 0 19 31 19 21 0 44 5 52 10 21 13 60 12 60
-1z m-17 -105 c-14 -19 -28 -34 -32 -34 -17 0 -82 -69 -90 -95 -8 -27 -10 -25
-12 25 -1 30 -3 73 -3 96 l-1 41 82 0 82 1 -26 -34z m503 -160 c-4 -9 -9 -15
-11 -12 -3 3 -3 13 1 22 4 9 9 15 11 12 3 -3 3 -13 -1 -22z m-567 -39 c0 -5
-4 -3 -9 5 -5 8 -9 22 -9 30 0 16 17 -16 18 -35z m21 35 c0 -5 -4 -10 -10 -10
-5 0 -10 5 -10 10 0 6 5 10 10 10 6 0 10 -4 10 -10z m437 -102 c-3 -8 -6 -5
-6 6 -1 11 2 17 5 13 3 -3 4 -12 1 -19z m1533 -248 c0 -22 -4 -40 -10 -40 -5
0 -10 18 -10 40 0 22 5 40 10 40 6 0 10 -18 10 -40z m-37 -527 c-13 -2 -33 -2
-45 0 -13 2 -3 4 22 4 25 0 35 -2 23 -4z m0 -70 c-13 -2 -33 -2 -45 0 -13 2
-3 4 22 4 25 0 35 -2 23 -4z m-270 -548 c3 -37 2 -51 -3 -35 -8 25 -13 107 -6
99 2 -2 6 -31 9 -64z m37 43 c0 -19 -2 -20 -10 -8 -13 19 -13 30 0 30 6 0 10
-10 10 -22z m-22 -203 l1 -20 -9 20 c-5 11 -8 31 -8 45 l0 25 8 -25 c4 -14 8
-34 8 -45z m22 44 c0 -11 -4 -17 -10 -14 -5 3 -10 13 -10 21 0 8 5 14 10 14 6
0 10 -9 10 -21z m-16 -150 c-5 -51 -4 -70 4 -65 6 3 14 1 18 -5 4 -8 3 -9 -4
-5 -7 4 -12 1 -12 -6 0 -8 -5 -5 -11 6 -11 17 -4 146 7 146 3 0 2 -32 -2 -71z
m3 -181 c-3 -7 -5 -2 -5 12 0 14 2 19 5 13 2 -7 2 -19 0 -25z m1 -63 c-3 -3
-9 2 -12 12 -6 14 -5 15 5 6 7 -7 10 -15 7 -18z"/>
<path d="M2121 3016 c-19 -20 -20 -24 -6 -29 8 -4 37 -2 63 2 26 5 59 7 75 4
22 -4 26 -2 21 11 -3 9 -10 14 -14 11 -4 -3 -27 2 -50 10 -56 20 -63 19 -89
-9z"/>
<path d="M2510 3513 c0 -10 5 -25 10 -33 7 -11 10 -7 10 18 0 17 -4 32 -10 32
-5 0 -10 -8 -10 -17z"/>
<path d="M2545 3520 c3 -5 8 -10 11 -10 2 0 4 5 4 10 0 6 -5 10 -11 10 -5 0
-7 -4 -4 -10z"/>
<path d="M1433 3410 c0 -25 2 -35 4 -22 2 12 2 32 0 45 -2 12 -4 2 -4 -23z"/>
<path d="M2523 2977 c-1 -28 -6 -65 -12 -80 -12 -31 -15 -115 -4 -104 3 4 7
26 9 49 5 82 16 131 26 116 7 -9 8 -8 4 5 -3 10 -6 30 -6 43 0 48 -15 23 -17
-29z"/>
<path d="M2541 2894 c0 -11 3 -14 6 -6 3 7 2 16 -1 19 -3 4 -6 -2 -5 -13z"/>
<path d="M2435 2872 c9 -19 14 -40 11 -48 -3 -9 -1 -12 4 -9 16 10 11 38 -11
65 l-20 25 16 -33z"/>
<path d="M2530 2860 c0 -6 7 -10 15 -10 8 0 15 2 15 4 0 2 -7 6 -15 10 -8 3
-15 1 -15 -4z"/>
<path d="M2381 2824 c0 -11 3 -14 6 -6 3 7 2 16 -1 19 -3 4 -6 -2 -5 -13z"/>
<path d="M2535 2829 c-9 -14 -2 -20 14 -10 8 6 9 11 3 15 -6 3 -14 1 -17 -5z"/>
<path d="M2481 2764 c0 -11 3 -14 6 -6 3 7 2 16 -1 19 -3 4 -6 -2 -5 -13z"/>
<path d="M2517 2773 c-4 -3 -7 -16 -6 -27 0 -19 1 -19 10 3 10 24 8 36 -4 24z"/>
<path d="M2110 2731 c0 -5 7 -12 16 -15 24 -9 28 -7 14 9 -14 17 -30 20 -30 6z"/>
<path d="M2463 2701 c-6 -10 -8 -23 -3 -30 5 -9 9 -3 13 16 6 34 5 37 -10 14z"/>
<path d="M2291 2694 c0 -11 3 -14 6 -6 3 7 2 16 -1 19 -3 4 -6 -2 -5 -13z"/>
<path d="M2167 2663 c-4 -3 -7 -13 -7 -21 0 -8 -8 -21 -17 -29 -16 -13 -16
-13 5 -3 24 12 62 46 62 55 0 7 -36 6 -43 -2z"/>
<path d="M2362 2453 c-1 -27 5 -54 17 -74 l20 -32 -1 30 c-1 21 -5 30 -14 26
-9 -3 -14 9 -17 44 l-3 48 -2 -42z"/>
<path d="M2426 2305 c9 -14 20 -25 26 -25 11 0 -23 49 -35 50 -4 0 0 -11 9
-25z"/>
<path d="M2440 2320 c0 -5 7 -10 15 -10 8 0 15 -5 15 -12 0 -6 2 -9 5 -6 3 3
3 13 -1 22 -7 17 -34 22 -34 6z"/>
<path d="M2321 2234 c-13 -40 -47 -113 -76 -161 -45 -77 -54 -87 -79 -88 -23
0 -30 -6 -40 -35 -8 -23 -17 -35 -29 -34 -23 2 -22 -12 4 -48 12 -16 19 -31
16 -34 -15 -15 -126 77 -119 99 1 5 -2 6 -7 3 -5 -4 -12 -2 -16 4 -3 5 -14 10
-24 10 -22 0 -46 26 -46 49 0 8 -7 17 -16 19 -17 3 -111 -56 -116 -75 -6 -17
40 -20 54 -3 10 13 14 13 30 -3 11 -9 23 -14 26 -10 12 12 49 -31 103 -122 63
-106 67 -117 90 -258 9 -59 19 -106 21 -104 1 2 -2 55 -8 118 -10 109 -13 118
-62 209 -27 52 -61 113 -74 135 -19 32 -7 23 57 -44 45 -46 83 -82 84 -80 25
28 96 148 101 169 4 18 19 36 40 48 43 26 90 122 108 225 8 42 12 79 8 81 -3
2 -17 -29 -30 -70z"/>
<path d="M2530 2236 c103 -41 192 -66 236 -66 26 0 51 -7 66 -20 14 -10 28
-17 31 -13 7 7 108 -23 150 -44 15 -7 27 -11 27 -7 0 12 -34 33 -53 34 -11 0
-15 5 -11 11 4 8 -1 9 -15 4 -15 -4 -29 -1 -40 10 -24 21 -76 31 -65 13 3 -7
-7 2 -24 20 -25 26 -38 32 -74 32 -24 0 -64 6 -89 14 -25 8 -75 17 -110 20
-62 6 -63 6 -29 -8z m155 -27 c13 -6 4 -7 -25 -3 -25 3 -49 11 -55 16 -11 11
46 2 80 -13z"/>
<path d="M1600 2170 c0 -5 5 -10 11 -10 5 0 7 5 4 10 -3 6 -8 10 -11 10 -2 0
-4 -4 -4 -10z"/>
<path d="M1360 2160 c0 -5 10 -10 23 -10 18 0 19 2 7 10 -19 13 -30 13 -30 0z"/>
<path d="M1450 2160 c-8 -5 -10 -10 -5 -10 6 0 17 5 25 10 8 5 11 10 5 10 -5
0 -17 -5 -25 -10z"/>
<path d="M1480 2148 c-25 -15 -46 -19 -77 -15 -36 4 -40 2 -28 -9 17 -17 80
-6 121 21 25 16 26 16 19 -7 -5 -20 -5 -21 6 -5 18 29 -3 37 -41 15z"/>
<path d="M1572 2145 c-6 -14 -7 -25 -2 -25 9 0 25 39 18 46 -3 2 -10 -7 -16
-21z"/>
<path d="M2945 2160 c-13 -6 -15 -9 -5 -9 8 0 22 4 30 9 18 12 2 12 -25 0z"/>
<path d="M3490 2130 c0 -29 4 -40 15 -40 11 0 15 11 15 40 0 29 -4 40 -15 40
-11 0 -15 -11 -15 -40z"/>
<path d="M1590 2074 c-12 -58 -6 -122 10 -94 12 23 22 150 11 150 -5 0 -15
-25 -21 -56z"/>
<path d="M1443 2099 c-18 -12 -33 -28 -33 -36 0 -12 9 -10 42 10 43 25 60 47
36 47 -7 0 -28 -10 -45 -21z"/>
<path d="M1840 2082 c6 -13 14 -21 18 -18 3 4 -2 14 -12 24 -18 16 -18 16 -6
-6z"/>
<path d="M3075 2075 c55 -23 78 -28 71 -16 -4 6 -16 11 -27 11 -11 0 -18 3
-16 8 3 4 -9 7 -26 8 l-32 1 30 -12z"/>
<path d="M3160 2054 c0 -6 18 -31 41 -55 22 -24 48 -57 56 -73 11 -22 17 -26
23 -15 10 15 3 32 -11 24 -5 -4 -9 -1 -9 4 0 6 -7 19 -16 29 -9 9 -31 35 -50
57 -19 22 -34 35 -34 29z"/>
<path d="M2336 2024 c-8 -20 -8 -74 0 -74 3 0 14 10 23 22 19 22 41 18 41 -8
0 -8 5 -12 10 -9 6 4 18 1 26 -6 33 -27 21 1 -19 44 -44 49 -70 59 -81 31z"/>
<path d="M1728 1933 c-10 -2 -18 -9 -18 -14 0 -13 12 -11 34 6 20 15 16 17
-16 8z"/>
<path d="M2515 1930 c3 -5 13 -10 21 -10 8 0 14 5 14 10 0 6 -9 10 -21 10 -11
0 -17 -4 -14 -10z"/>
<path d="M3335 1920 c3 -5 8 -10 11 -10 2 0 4 5 4 10 0 6 -5 10 -11 10 -5 0
-7 -4 -4 -10z"/>
<path d="M1643 1892 c15 -15 27 -36 27 -45 0 -9 5 -17 10 -17 6 0 10 20 10 45
l0 45 -37 0 -37 0 27 -28z"/>
<path d="M3306 1905 c4 -8 8 -15 10 -15 2 0 4 7 4 15 0 8 -4 15 -10 15 -5 0
-7 -7 -4 -15z"/>
<path d="M3289 1872 c5 -10 14 -46 21 -80 6 -34 29 -99 50 -144 36 -74 40 -89
40 -162 0 -79 10 -120 24 -98 3 6 2 13 -4 17 -5 3 -10 15 -10 26 0 12 4 17 11
13 8 -4 8 -1 1 12 -6 11 -8 31 -5 45 2 14 -5 54 -17 89 -13 40 -18 65 -11 69
6 4 7 12 1 21 -8 13 -10 12 -10 -2 0 -10 -5 -18 -11 -18 -6 0 -9 7 -6 15 4 8
2 17 -4 21 -5 3 -9 13 -8 22 1 10 0 31 -1 47 l-3 30 -6 -35 c-6 -33 -7 -32
-19 30 -18 87 -22 100 -33 100 -6 0 -6 -6 0 -18z"/>
<path d="M1300 1810 c0 -26 51 -183 57 -176 5 5 -36 167 -48 186 -6 12 -8 9
-9 -10z"/>
<path d="M960 1667 c0 -8 28 -39 62 -68 35 -30 92 -83 127 -119 49 -49 60 -57
45 -32 -10 18 -50 61 -89 95 -38 34 -87 78 -107 99 -22 22 -38 33 -38 25z"/>
<path d="M3400 1629 c0 -5 5 -7 10 -4 6 3 10 8 10 11 0 2 -4 4 -10 4 -5 0 -10
-5 -10 -11z"/>
<path d="M3410 1605 c0 -5 5 -17 10 -25 5 -8 10 -10 10 -5 0 6 -5 17 -10 25
-5 8 -10 11 -10 5z"/>
<path d="M880 1545 c0 -8 4 -15 10 -15 5 0 7 7 4 15 -4 8 -8 15 -10 15 -2 0
-4 -7 -4 -15z"/>
<path d="M2887 1521 c-9 -16 -17 -37 -17 -47 0 -11 9 -1 20 21 24 47 22 68 -3
26z"/>
<path d="M880 1483 c0 -10 -3 -27 -6 -39 -4 -15 4 -30 26 -52 38 -39 59 -42
30 -5 -15 20 -18 28 -8 34 9 6 8 10 -5 15 -9 3 -17 17 -17 29 0 13 -4 27 -10
30 -5 3 -10 -2 -10 -12z"/>
<path d="M2942 1483 c-7 -2 -17 -14 -23 -26 -11 -21 -10 -20 15 2 14 14 26 26
26 28 0 3 0 3 -18 -4z"/>
<path d="M2939 1443 c-13 -16 -12 -17 4 -4 16 13 21 21 13 21 -2 0 -10 -8 -17
-17z"/>
<path d="M1381 1418 c-1 -15 4 -30 9 -33 12 -7 12 12 0 40 -8 18 -9 17 -9 -7z"/>
<path d="M2856 1393 c-3 -10 -10 -47 -16 -83 -6 -36 -14 -82 -19 -104 -15 -63
5 -27 27 49 27 95 35 142 23 149 -5 4 -12 -2 -15 -11z"/>
<path d="M2111 1300 c0 -14 4 -43 8 -65 l9 -40 0 45 c0 25 -3 54 -8 65 -8 18
-9 18 -9 -5z"/>
<path d="M999 1279 c18 -19 51 -45 72 -59 21 -14 47 -38 59 -53 12 -15 31 -32
43 -39 29 -15 -44 67 -96 107 -21 17 -43 35 -50 41 -7 6 -24 17 -37 24 -21 10
-20 7 9 -21z"/>
<path d="M2303 1225 c0 -38 2 -53 4 -32 2 20 2 52 0 70 -2 17 -4 1 -4 -38z"/>
<path d="M2330 1221 c0 -6 4 -13 10 -16 6 -3 7 1 4 9 -7 18 -14 21 -14 7z"/>
<path d="M2360 1192 c0 -6 5 -14 10 -17 6 -3 10 -18 11 -33 0 -24 1 -25 9 -7
7 19 8 19 15 1 5 -11 3 -21 -5 -26 -19 -12 6 -210 26 -210 21 0 23 10 25 146
l1 129 -28 6 c-16 4 -37 10 -46 14 -11 4 -18 3 -18 -3z"/>
<path d="M960 1160 c0 -11 13 -19 50 -30 41 -12 38 -6 -10 19 -22 11 -40 17
-40 11z"/>
<path d="M1200 1148 c1 -21 33 -55 60 -63 22 -5 21 -3 -7 15 -18 12 -33 28
-33 35 0 8 -4 17 -10 20 -5 3 -10 0 -10 -7z"/>
<path d="M1080 1140 c8 -5 20 -10 25 -10 6 0 3 5 -5 10 -8 5 -19 10 -25 10 -5
0 -3 -5 5 -10z"/>
<path d="M2780 1101 c-24 -52 -69 -97 -155 -154 -48 -32 -23 -37 30 -5 20 11
55 24 78 29 35 6 44 4 60 -14 53 -61 77 -162 49 -205 -16 -25 -16 -25 8 -11
35 19 38 27 46 89 3 30 21 93 40 140 18 46 32 86 30 87 -10 11 -57 -95 -71
-160 -6 -28 -6 -28 -45 32 -36 56 -39 66 -42 143 l-3 82 -25 -53z"/>
<path d="M1075 1084 c2 -26 19 -44 42 -44 6 0 20 -3 30 -6 10 -3 3 4 -16 15
-18 12 -35 31 -38 42 -8 28 -22 23 -18 -7z"/>
<path d="M1545 1079 c4 -5 12 -9 20 -9 23 0 26 -31 5 -65 -12 -19 -25 -35 -30
-37 -13 -4 30 -95 62 -133 14 -16 28 -40 32 -52 7 -21 13 -23 84 -23 59 0 73
3 64 12 -8 8 -12 47 -12 112 l0 99 -39 -40 c-32 -34 -43 -40 -67 -35 -16 3
-36 14 -46 24 -16 19 -16 19 -23 -2 -5 -16 -10 -19 -18 -11 -8 8 -4 23 12 56
12 25 21 53 19 63 -2 9 3 22 12 29 13 11 13 13 -5 14 -11 1 -32 3 -48 5 -15 1
-25 -1 -22 -7z"/>
<path d="M1698 1053 c6 -2 18 -2 25 0 6 3 1 5 -13 5 -14 0 -19 -2 -12 -5z"/>
<path d="M1190 1015 c0 -2 15 -12 33 -20 l32 -16 -25 20 c-24 20 -40 26 -40
16z"/>
<path d="M1045 999 c-9 -13 53 -69 77 -69 26 0 23 5 -17 29 -19 11 -35 27 -35
36 0 17 -16 20 -25 4z"/>
<path d="M1270 967 c0 -2 21 -19 46 -37 26 -18 45 -27 42 -19 -4 12 -88 66
-88 56z"/>
<path d="M2331 933 c0 -23 4 -45 9 -48 11 -7 11 16 0 60 -7 28 -8 28 -9 -12z"/>
<path d="M2153 853 c1 -24 5 -43 10 -43 9 0 8 40 -3 65 -6 15 -8 9 -7 -22z"/>
<path d="M1120 854 c0 -24 19 -54 35 -54 8 0 15 -4 15 -9 0 -5 8 -12 18 -15 9
-4 2 7 -15 24 -18 17 -33 40 -33 51 0 10 -4 19 -10 19 -5 0 -10 -7 -10 -16z"/>
<path d="M1424 838 c16 -21 30 -38 33 -38 8 0 -16 36 -38 55 -19 16 -18 13 5
-17z"/>
<path d="M1305 805 c22 -19 43 -34 47 -35 4 0 16 -10 28 -22 20 -22 20 -22 20
-1 0 11 -8 23 -17 27 -10 3 -36 19 -58 36 -55 40 -69 37 -20 -5z"/>
<path d="M2998 793 c7 -3 16 -2 19 1 4 3 -2 6 -13 5 -11 0 -14 -3 -6 -6z"/>
<path d="M2938 783 c7 -3 16 -2 19 1 4 3 -2 6 -13 5 -11 0 -14 -3 -6 -6z"/>
<path d="M3178 768 c5 -5 16 -8 23 -6 8 3 3 7 -10 11 -17 4 -21 3 -13 -5z"/>
<path d="M1818 763 c7 -3 16 -2 19 1 4 3 -2 6 -13 5 -11 0 -14 -3 -6 -6z"/>
<path d="M1165 750 c-3 -5 -1 -10 4 -10 6 0 11 5 11 10 0 6 -2 10 -4 10 -3 0
-8 -4 -11 -10z"/>
<path d="M935 637 c1 -138 3 -167 14 -167 5 0 11 37 15 83 5 64 2 93 -11 134
l-18 51 0 -101z"/>
<path d="M3143 691 c20 -25 47 -65 59 -90 12 -25 23 -40 25 -34 7 20 -34 87
-78 128 l-43 40 37 -44z"/>
<path d="M1217 703 c-4 -3 -7 -11 -7 -17 0 -6 5 -5 12 2 6 6 9 14 7 17 -3 3
-9 2 -12 -2z"/>
<path d="M991 524 c0 -11 3 -14 6 -6 3 7 2 16 -1 19 -3 4 -6 -2 -5 -13z"/>
<path d="M982 460 c0 -14 2 -19 5 -12 2 6 2 18 0 25 -3 6 -5 1 -5 -13z"/>
<path d="M946 413 c-6 -14 -5 -15 5 -6 7 7 10 15 7 18 -3 3 -9 -2 -12 -12z"/>
<path d="M2678 243 c7 -3 16 -2 19 1 4 3 -2 6 -13 5 -11 0 -14 -3 -6 -6z"/>
<path d="M1868 182 c-39 -5 -35 -22 5 -22 17 0 50 -4 72 -9 22 -5 84 -12 138
-16 87 -6 97 -9 97 -26 0 -18 1 -19 24 -4 l25 16 7 -48 c11 -78 23 -86 24 -15
0 36 4 61 9 57 5 -3 12 -1 16 5 3 5 0 10 -7 10 -74 2 -323 36 -362 49 -12 4
-33 5 -48 3z"/>
<path d="M1210 171 c0 -5 5 -13 10 -16 6 -3 10 -2 10 4 0 5 -4 13 -10 16 -5 3
-10 2 -10 -4z"/>
<path d="M1130 139 c0 -12 5 -19 12 -17 18 6 20 25 3 31 -10 5 -15 0 -15 -14z"/>
<path d="M2700 140 c0 -5 10 -10 23 -10 18 0 19 2 7 10 -19 13 -30 13 -30 0z"/>
<path d="M1715 127 c-10 -8 -14 -17 -9 -20 5 -3 21 3 34 14 29 22 6 28 -25 6z"/>
<path d="M2338 113 c7 -3 16 -2 19 1 4 3 -2 6 -13 5 -11 0 -14 -3 -6 -6z"/>
<path d="M2410 110 c0 -5 5 -10 10 -10 6 0 10 5 10 10 0 6 -4 10 -10 10 -5 0
-10 -4 -10 -10z"/>
<path d="M2474 63 l-1 -58 13 49 c12 48 11 66 -4 66 -4 0 -8 -26 -8 -57z"/>
<path d="M2670 111 c0 -5 5 -13 10 -16 6 -3 10 -2 10 4 0 5 -4 13 -10 16 -5 3
-10 2 -10 -4z"/>
<path d="M2523 103 c9 -2 23 -2 30 0 6 3 -1 5 -18 5 -16 0 -22 -2 -12 -5z"/>
<path d="M2604 94 c3 -9 6 -18 6 -20 0 -3 5 -2 10 1 16 10 12 35 -6 35 -11 0
-14 -5 -10 -16z"/>
</g>
</svg>
