<?xml version="1.0" standalone="no"?>
<!DOCTYPE svg PUBLIC "-//W3C//DTD SVG 20010904//EN"
 "http://www.w3.org/TR/2001/REC-SVG-20010904/DTD/svg10.dtd">
<svg version="1.0" xmlns="http://www.w3.org/2000/svg"
 width="1225.000000pt" height="739.000000pt" viewBox="0 0 1225.000000 739.000000"
 preserveAspectRatio="xMidYMid meet">

<g transform="translate(0.000000,739.000000) scale(0.100000,-0.100000)"
fill="#000000" stroke="none">
<path d="M6166 7372 c-2 -4 -1 -14 4 -21 10 -17 31 -5 23 14 -6 16 -19 20 -27
7z"/>
<path d="M6364 7369 c-5 -9 -2 -10 11 -5 16 6 16 4 4 -10 -12 -15 -12 -17 1
-12 18 6 20 30 3 35 -6 2 -15 -1 -19 -8z"/>
<path d="M6575 7370 c-7 -11 2 -30 15 -30 4 0 10 6 13 14 6 16 -19 30 -28 16z"/>
<path d="M6776 7372 c-2 -4 0 -14 5 -22 8 -13 10 -13 18 0 10 15 6 30 -9 30
-5 0 -11 -4 -14 -8z"/>
<path d="M6975 7370 c-7 -11 2 -30 15 -30 4 0 10 6 13 14 6 16 -19 30 -28 16z"/>
<path d="M7176 7372 c-2 -4 0 -14 5 -22 8 -13 10 -13 18 0 10 15 6 30 -9 30
-5 0 -11 -4 -14 -8z"/>
<path d="M7375 7371 c-2 -5 1 -14 9 -20 10 -9 15 -8 19 3 6 15 -19 31 -28 17z"/>
<path d="M7583 7372 c-8 -5 -9 -13 -3 -22 7 -12 12 -12 22 -2 14 14 -1 35 -19
24z"/>
<path d="M7775 7371 c-2 -5 1 -14 9 -20 10 -9 15 -8 19 3 6 15 -19 31 -28 17z"/>
<path d="M7984 7369 c-3 -6 -1 -16 5 -22 9 -9 14 -8 21 3 9 15 4 30 -10 30 -5
0 -12 -5 -16 -11z"/>
<path d="M8190 7370 c-12 -7 -12 -12 -3 -21 15 -15 26 -7 21 15 -2 11 -7 13
-18 6z"/>
<path d="M8384 7369 c-3 -6 -1 -16 5 -22 9 -9 14 -8 21 3 9 15 4 30 -10 30 -5
0 -12 -5 -16 -11z"/>
<path d="M8590 7370 c-12 -7 -12 -12 -3 -21 15 -15 26 -7 21 15 -2 11 -7 13
-18 6z"/>
<path d="M8786 7372 c-2 -4 -1 -14 4 -22 7 -11 12 -12 21 -3 6 6 8 16 5 22 -8
13 -23 14 -30 3z"/>
<path d="M8990 7359 c0 -12 5 -19 12 -17 18 6 20 25 3 31 -10 5 -15 0 -15 -14z"/>
<path d="M9186 7372 c-2 -4 -1 -14 4 -22 7 -11 12 -12 21 -3 6 6 8 16 5 22 -8
13 -23 14 -30 3z"/>
<path d="M9403 7372 c-7 -4 -8 -13 -4 -20 6 -10 10 -10 20 2 13 16 2 29 -16
18z"/>
<path d="M9595 7370 c-7 -11 2 -30 15 -30 4 0 10 6 13 14 6 16 -19 30 -28 16z"/>
<path d="M9803 7372 c-7 -4 -8 -13 -4 -20 6 -10 10 -10 20 2 13 16 2 29 -16
18z"/>
<path d="M9995 7370 c-7 -11 2 -30 15 -30 4 0 10 6 13 14 6 16 -19 30 -28 16z"/>
<path d="M10203 7372 c-8 -5 -9 -13 -3 -22 7 -12 12 -12 22 -2 14 14 -1 35
-19 24z"/>
<path d="M10396 7372 c-2 -4 0 -14 5 -22 8 -13 10 -13 18 0 10 15 6 30 -9 30
-5 0 -11 -4 -14 -8z"/>
<path d="M10603 7372 c-8 -5 -9 -13 -3 -22 7 -12 12 -12 22 -2 14 14 -1 35
-19 24z"/>
<path d="M10796 7372 c-2 -4 0 -14 5 -22 8 -13 10 -13 18 0 10 15 6 30 -9 30
-5 0 -11 -4 -14 -8z"/>
<path d="M11007 7365 c-8 -19 13 -31 23 -14 9 14 4 29 -10 29 -4 0 -10 -7 -13
-15z"/>
<path d="M11205 7370 c-8 -12 2 -30 17 -30 6 0 6 6 -2 15 -11 13 -10 14 5 9
13 -5 16 -4 11 4 -9 15 -23 15 -31 2z"/>
<path d="M11407 7365 c-8 -19 13 -31 23 -14 9 14 4 29 -10 29 -4 0 -10 -7 -13
-15z"/>
<path d="M11606 7372 c-2 -4 -1 -14 4 -21 10 -17 31 -5 23 14 -6 16 -19 20
-27 7z"/>
<path d="M11804 7369 c-5 -9 -2 -10 11 -5 16 6 16 4 4 -10 -12 -15 -12 -17 1
-12 18 6 20 30 3 35 -6 2 -15 -1 -19 -8z"/>
<path d="M12006 7372 c-2 -4 -1 -14 4 -21 10 -17 31 -5 23 14 -6 16 -19 20
-27 7z"/>
<path d="M6166 7082 c-2 -4 -1 -14 4 -22 7 -11 12 -12 21 -3 6 6 8 16 5 22 -8
13 -23 14 -30 3z"/>
<path d="M6366 7082 c-2 -4 -1 -14 4 -22 7 -11 12 -12 21 -3 6 6 8 16 5 22 -8
13 -23 14 -30 3z"/>
<path d="M6574 7079 c-3 -6 -1 -16 5 -22 9 -9 14 -8 21 3 9 15 4 30 -10 30 -5
0 -12 -5 -16 -11z"/>
<path d="M6774 7079 c-3 -6 -1 -16 5 -22 9 -9 14 -8 21 3 9 15 4 30 -10 30 -5
0 -12 -5 -16 -11z"/>
<path d="M6974 7079 c-3 -6 -1 -16 5 -22 9 -9 14 -8 21 3 9 15 4 30 -10 30 -5
0 -12 -5 -16 -11z"/>
<path d="M7174 7079 c-3 -6 -1 -16 5 -22 9 -9 14 -8 21 3 9 15 4 30 -10 30 -5
0 -12 -5 -16 -11z"/>
<path d="M7376 7082 c-2 -4 -1 -14 4 -22 7 -11 12 -12 21 -3 6 6 8 16 5 22 -8
13 -23 14 -30 3z"/>
<path d="M7576 7082 c-9 -14 9 -31 23 -23 7 5 10 14 7 20 -8 13 -23 14 -30 3z"/>
<path d="M7776 7082 c-2 -4 -1 -14 4 -22 7 -11 12 -12 21 -3 6 6 8 16 5 22 -8
13 -23 14 -30 3z"/>
<path d="M7984 7079 c-3 -6 -1 -16 5 -22 9 -9 14 -8 21 3 9 15 4 30 -10 30 -5
0 -12 -5 -16 -11z"/>
<path d="M8191 7080 c-14 -8 -7 -30 9 -30 11 0 21 28 12 34 -5 3 -14 1 -21 -4z"/>
<path d="M8384 7079 c-3 -6 -1 -16 5 -22 9 -9 14 -8 21 3 9 15 4 30 -10 30 -5
0 -12 -5 -16 -11z"/>
<path d="M8591 7080 c-14 -8 -7 -30 9 -30 11 0 21 28 12 34 -5 3 -14 1 -21 -4z"/>
<path d="M8786 7082 c-2 -4 -1 -14 4 -22 7 -11 12 -12 21 -3 6 6 8 16 5 22 -8
13 -23 14 -30 3z"/>
<path d="M8986 7082 c-8 -13 11 -35 23 -28 6 4 11 11 11 16 0 11 -28 21 -34
12z"/>
<path d="M9186 7082 c-2 -4 -1 -14 4 -22 7 -11 12 -12 21 -3 6 6 8 16 5 22 -8
13 -23 14 -30 3z"/>
<path d="M9394 7079 c-3 -6 -1 -16 5 -22 9 -9 14 -8 21 3 9 15 4 30 -10 30 -5
0 -12 -5 -16 -11z"/>
<path d="M9594 7079 c-3 -6 0 -15 7 -20 14 -8 32 9 23 23 -7 11 -22 10 -30 -3z"/>
<path d="M9794 7079 c-3 -6 -1 -16 5 -22 9 -9 14 -8 21 3 9 15 4 30 -10 30 -5
0 -12 -5 -16 -11z"/>
<path d="M9994 7079 c-3 -6 0 -15 7 -20 14 -8 32 9 23 23 -7 11 -22 10 -30 -3z"/>
<path d="M10196 7082 c-2 -4 -1 -14 4 -22 7 -11 12 -12 21 -3 6 6 8 16 5 22
-8 13 -23 14 -30 3z"/>
<path d="M10396 7082 c-2 -4 -1 -14 4 -22 7 -11 12 -12 21 -3 6 6 8 16 5 22
-8 13 -23 14 -30 3z"/>
<path d="M10596 7082 c-2 -4 -1 -14 4 -22 7 -11 12 -12 21 -3 6 6 8 16 5 22
-8 13 -23 14 -30 3z"/>
<path d="M10796 7082 c-2 -4 -1 -14 4 -22 7 -11 12 -12 21 -3 6 6 8 16 5 22
-8 13 -23 14 -30 3z"/>
<path d="M11004 7079 c-3 -6 -1 -16 5 -22 9 -9 14 -8 21 3 9 15 4 30 -10 30
-5 0 -12 -5 -16 -11z"/>
<path d="M11204 7079 c-3 -6 -1 -16 5 -22 9 -9 14 -8 21 3 9 15 4 30 -10 30
-5 0 -12 -5 -16 -11z"/>
<path d="M11404 7079 c-3 -6 -1 -16 5 -22 9 -9 14 -8 21 3 9 15 4 30 -10 30
-5 0 -12 -5 -16 -11z"/>
<path d="M11606 7082 c-2 -4 -1 -14 4 -22 7 -11 12 -12 21 -3 6 6 8 16 5 22
-8 13 -23 14 -30 3z"/>
<path d="M11806 7082 c-9 -14 9 -31 23 -23 7 5 10 14 7 20 -8 13 -23 14 -30 3z"/>
<path d="M12006 7082 c-2 -4 -1 -14 4 -22 7 -11 12 -12 21 -3 6 6 8 16 5 22
-8 13 -23 14 -30 3z"/>
<path d="M1096 6903 c11 -52 81 -188 128 -250 89 -118 243 -215 392 -248 116
-26 284 -17 389 21 171 62 312 188 391 349 24 49 47 105 50 123 l6 32 -681 0
-681 0 6 -27z m422 -171 c5 -30 49 -31 54 -2 6 43 23 18 23 -35 0 -53 -17 -78
-23 -35 -5 29 -49 28 -54 -2 -2 -12 -9 -23 -15 -26 -10 -3 -13 14 -13 63 0 49
3 66 13 63 6 -3 13 -14 15 -26z m206 -5 c19 -26 19 -30 5 -55 -35 -62 -119
-47 -119 23 0 65 74 86 114 32z m46 -17 l0 -50 40 0 c29 0 40 -4 40 -16 0 -12
-10 -14 -51 -12 l-52 3 1 58 c1 71 0 67 12 67 6 0 10 -22 10 -50z m188 34 c28
-19 29 -67 2 -94 -26 -26 -51 -25 -84 1 -31 25 -33 57 -6 87 24 26 57 28 88 6z
m78 -15 l29 -30 5 27 c3 15 11 29 18 32 9 3 12 -14 12 -64 l0 -68 -39 38 -40
39 -3 -34 c-5 -57 -23 -38 -26 29 -2 34 1 62 6 62 4 0 21 -14 38 -31z"/>
<path d="M1641 6716 c-9 -11 -10 -20 -1 -35 21 -40 79 -15 65 29 -7 24 -46 27
-64 6z"/>
<path d="M1883 6714 c-9 -24 10 -49 38 -49 20 0 24 5 24 30 0 25 -4 30 -28 33
-18 2 -29 -2 -34 -14z"/>
<path d="M11617 6779 c4 -13 9 -17 15 -11 11 11 3 32 -12 32 -4 0 -6 -9 -3
-21z"/>
<path d="M11806 6791 c-3 -5 1 -14 8 -20 16 -13 32 2 21 19 -8 12 -22 13 -29
1z"/>
<path d="M12006 6792 c-2 -4 -1 -14 4 -22 7 -11 12 -12 21 -3 6 6 8 16 5 22
-8 13 -23 14 -30 3z"/>
<path d="M10567 6652 c-18 -19 -22 -59 -9 -78 15 -24 51 -35 73 -24 17 9 25 8
42 -7 22 -18 22 -18 6 2 -11 13 -15 31 -12 53 10 61 -60 98 -100 54z m81 -4
c21 -21 14 -66 -13 -84 -23 -15 -27 -15 -50 0 -17 11 -25 26 -25 44 0 35 16
52 50 52 14 0 31 -5 38 -12z"/>
<path d="M10876 6662 c6 -4 14 -29 17 -56 9 -61 22 -79 48 -65 11 5 25 7 31 3
7 -4 8 -3 4 5 -4 6 -16 9 -27 6 -10 -4 -24 -3 -31 2 -8 5 8 10 41 13 37 3 56
10 58 20 4 12 3 12 -5 2 -6 -9 -26 -12 -58 -10 -45 3 -49 5 -52 31 -3 27 -3
27 57 27 38 0 61 -4 64 -12 3 -8 6 -6 6 5 1 14 -8 17 -63 17 -36 0 -68 5 -71
10 -3 6 -12 10 -18 10 -8 0 -9 -2 -1 -8z"/>
<path d="M9316 6624 c-3 -9 -6 -22 -6 -29 0 -18 37 -38 52 -29 7 5 4 10 -10
15 -29 11 -28 37 1 49 21 9 21 9 -4 9 -16 1 -29 -6 -33 -15z"/>
<path d="M9406 6616 c-3 -13 -9 -32 -12 -43 -6 -15 -4 -16 7 -5 7 6 21 12 30
12 10 0 20 -6 22 -12 3 -8 6 -6 6 4 1 25 -20 68 -35 68 -6 0 -15 -11 -18 -24z
m34 -17 c0 -5 -4 -9 -10 -9 -5 0 -10 7 -10 16 0 8 5 12 10 9 6 -3 10 -10 10
-16z"/>
<path d="M9478 6633 c6 -2 12 -20 12 -39 0 -19 5 -34 10 -34 6 0 10 15 10 34
0 19 6 37 13 39 6 3 -4 5 -23 5 -19 0 -29 -2 -22 -5z"/>
<path d="M9550 6600 c0 -33 3 -40 20 -40 25 0 27 20 3 20 -17 1 -17 1 0 14 14
11 15 15 5 19 -10 4 -10 8 2 16 12 9 11 11 -7 11 -20 0 -23 -5 -23 -40z"/>
<path d="M9617 6633 c-4 -3 -7 -17 -7 -30 0 -31 42 -52 65 -33 19 16 19 37 0
37 -9 0 -14 -6 -11 -14 3 -8 -2 -13 -14 -13 -15 0 -20 7 -20 26 0 23 3 26 25
22 14 -3 25 -1 25 3 0 10 -54 12 -63 2z"/>
<path d="M9720 6625 c-25 -30 14 -74 53 -59 41 15 26 74 -18 74 -12 0 -28 -7
-35 -15z m58 -18 c4 -20 -25 -34 -40 -19 -15 15 -1 44 19 40 10 -2 19 -11 21
-21z"/>
<path d="M9820 6606 c0 -35 20 -63 20 -29 1 17 2 17 15 -1 8 -11 18 -17 21
-13 4 4 2 13 -4 20 -8 10 -8 17 -1 24 16 16 2 33 -27 33 -21 0 -24 -5 -24 -34z
m40 14 c0 -5 -4 -10 -10 -10 -5 0 -10 5 -10 10 0 6 5 10 10 10 6 0 10 -4 10
-10z"/>
<path d="M9906 6605 c1 -51 14 -56 14 -7 0 23 -3 42 -7 42 -5 0 -8 -16 -7 -35z"/>
<path d="M9950 6600 c0 -33 3 -40 20 -40 22 0 27 15 8 23 -10 4 -10 8 1 15 11
8 11 10 0 15 -12 4 -11 7 1 16 12 9 11 11 -7 11 -20 0 -23 -5 -23 -40z"/>
<path d="M10020 6620 c0 -11 7 -20 15 -20 8 0 15 -4 15 -10 0 -5 -7 -10 -15
-10 -8 0 -15 -4 -15 -10 0 -5 9 -10 20 -10 29 0 38 30 14 47 -16 12 -17 15 -4
23 12 8 11 10 -7 10 -16 0 -23 -6 -23 -20z"/>
<path d="M4306 6608 c-20 -28 -4 -58 29 -58 33 0 49 30 29 58 -8 12 -21 22
-29 22 -8 0 -21 -10 -29 -22z m52 -22 c-2 -13 -10 -21 -23 -21 -23 0 -33 34
-14 45 20 13 40 -1 37 -24z"/>
<path d="M4517 6623 c-4 -3 -7 -21 -7 -40 0 -28 3 -33 23 -32 16 1 18 2 5 6
-22 5 -24 23 -3 23 21 0 19 18 -2 23 -17 4 -17 5 0 6 10 0 15 6 12 11 -7 12
-19 13 -28 3z"/>
<path d="M5414 6609 c-23 -25 -9 -53 29 -57 35 -4 52 26 31 56 -19 27 -36 28
-60 1z m53 -33 c-8 -20 -43 -21 -51 -1 -3 8 2 22 11 30 14 15 18 15 31 1 8 -8
12 -22 9 -30z"/>
<path d="M5576 6617 c-26 -19 -18 -61 12 -65 44 -7 67 32 36 62 -19 19 -25 20
-48 3z m44 -12 c17 -20 5 -45 -20 -45 -11 0 -23 7 -26 15 -6 15 11 45 26 45 4
0 13 -7 20 -15z"/>
<path d="M6195 6617 c-13 -10 -16 -21 -11 -40 5 -22 12 -27 34 -26 24 2 25 2
4 6 -13 3 -26 11 -29 19 -7 20 15 44 34 37 11 -4 14 -2 9 5 -9 15 -18 15 -41
-1z"/>
<path d="M6276 6614 c-31 -30 -8 -69 36 -62 30 4 38 46 12 65 -23 17 -29 16
-48 -3z m51 -38 c-8 -20 -43 -21 -51 -1 -3 8 2 22 11 30 14 15 18 15 31 1 8
-8 12 -22 9 -30z"/>
<path d="M6475 6619 c-11 -4 -14 -8 -7 -8 7 -1 13 -15 13 -33 1 -32 2 -32 9 7
4 22 7 41 6 41 0 1 -10 -2 -21 -7z"/>
<path d="M6616 6614 c-9 -8 -16 -21 -16 -28 0 -20 27 -38 47 -33 14 4 13 5 -5
6 -30 1 -41 30 -17 47 10 7 22 11 28 7 6 -3 7 -1 3 5 -10 16 -22 15 -40 -4z"/>
<path d="M6695 6619 c-11 -4 -14 -8 -7 -8 7 -1 13 -15 13 -33 1 -32 2 -32 9 7
4 22 7 41 6 41 0 1 -10 -2 -21 -7z"/>
<path d="M6881 6616 c-10 -12 -8 -17 8 -26 28 -14 27 -33 0 -25 -15 5 -19 4
-15 -4 4 -6 13 -11 21 -11 23 0 28 20 11 39 -18 20 -21 36 -6 26 6 -3 10 -1
10 4 0 15 -15 14 -29 -3z"/>
<path d="M7383 6623 c-8 -3 -13 -20 -12 -41 0 -20 3 -30 6 -22 3 8 11 19 17
23 8 6 7 10 -3 14 -11 4 -11 7 0 14 16 9 10 18 -8 12z"/>
<path d="M7576 6623 c-3 -3 -6 -21 -6 -40 0 -26 4 -33 19 -33 23 0 45 25 38
44 -7 18 -42 38 -51 29z m37 -25 c6 -19 -3 -38 -19 -38 -8 0 -14 10 -14 25 0
26 25 35 33 13z"/>
<path d="M7816 6614 c-31 -30 -8 -69 36 -62 30 4 38 46 12 65 -23 17 -29 16
-48 -3z m51 -38 c-8 -21 -43 -20 -51 1 -10 26 23 48 42 29 8 -8 12 -22 9 -30z"/>
<path d="M7916 6623 c-3 -4 -6 -22 -5 -42 0 -20 3 -30 6 -23 3 9 9 10 17 3 9
-8 12 -2 13 24 1 31 -16 52 -31 38z m24 -23 c0 -5 -4 -10 -10 -10 -5 0 -10 5
-10 10 0 6 5 10 10 10 6 0 10 -4 10 -10z"/>
<path d="M7987 6623 c-4 -3 -7 -21 -7 -40 0 -28 3 -33 23 -32 16 1 18 2 5 6
-22 5 -24 23 -3 23 21 0 19 18 -2 23 -17 4 -17 5 0 6 10 0 15 6 12 11 -7 12
-19 13 -28 3z"/>
<path d="M10167 6608 c18 -18 24 -19 37 -8 25 20 19 30 -21 30 l-37 0 21 -22z"/>
<path d="M4210 6585 c0 -19 5 -35 10 -35 6 0 10 7 10 15 0 21 28 19 33 -2 3
-10 5 0 5 22 0 22 -2 34 -5 28 -6 -15 -33 -17 -33 -3 0 6 -4 10 -10 10 -5 0
-10 -16 -10 -35z"/>
<path d="M4410 6603 c0 -12 -3 -30 -6 -40 -5 -17 -5 -17 6 0 11 18 12 18 26 0
10 -14 13 -15 13 -3 1 8 -8 26 -19 40 -19 24 -20 24 -20 3z"/>
<path d="M4456 6604 c-4 -10 -3 -20 2 -23 5 -3 12 -13 15 -21 3 -9 6 -5 6 10
1 35 -14 57 -23 34z"/>
<path d="M5000 6613 c0 -7 5 -24 12 -38 l12 -26 12 23 13 23 8 -23 c9 -22 9
-22 26 12 9 20 13 36 8 36 -5 0 -12 -10 -15 -22 l-6 -23 -14 24 -14 24 -7 -23
-7 -23 -14 24 c-7 13 -13 19 -14 12z"/>
<path d="M5122 6585 c0 -22 2 -32 5 -22 2 9 13 17 23 17 10 0 21 -8 23 -17 3
-10 5 0 5 22 0 22 -2 34 -5 28 -2 -7 -13 -13 -23 -13 -10 0 -21 6 -23 13 -3 6
-5 -6 -5 -28z"/>
<path d="M5214 6586 l10 -35 13 31 c17 39 16 43 -2 28 -10 -9 -15 -9 -15 -1 0
6 -4 11 -9 11 -4 0 -3 -15 3 -34z"/>
<path d="M5322 6585 c0 -22 2 -32 5 -22 2 9 13 17 23 17 10 0 21 -8 23 -17 3
-10 5 0 5 22 0 22 -2 34 -5 28 -2 -7 -13 -13 -23 -13 -10 0 -21 6 -23 13 -3 6
-5 -6 -5 -28z"/>
<path d="M5511 6588 c-1 -30 3 -38 17 -38 11 0 13 3 5 8 -6 4 -13 21 -16 37
-4 27 -4 27 -6 -7z"/>
<path d="M5666 6605 c-9 -25 -7 -55 4 -55 6 0 10 10 10 22 l0 21 25 -23 25
-23 -1 39 c-1 25 -3 31 -6 16 l-5 -24 -23 22 c-20 19 -23 19 -29 5z"/>
<path d="M6371 6584 c2 -32 3 -34 6 -10 l5 28 29 -28 29 -28 0 37 c0 20 -5 37
-11 37 -6 0 -8 -9 -4 -20 8 -26 -3 -25 -32 2 l-23 21 1 -39z"/>
<path d="M6537 6603 c-2 -10 -8 -27 -13 -38 -7 -18 -6 -19 10 -6 13 11 20 11
28 3 23 -23 28 -12 11 23 -19 39 -28 44 -36 18z m23 -13 c0 -5 -5 -10 -11 -10
-5 0 -7 5 -4 10 3 6 8 10 11 10 2 0 4 -4 4 -10z"/>
<path d="M6793 6588 c4 -57 56 -48 57 10 0 12 -5 22 -10 22 -6 0 -10 -6 -9
-12 7 -53 -26 -69 -35 -18 -6 30 -6 30 -3 -2z"/>
<path d="M7433 6585 c0 -22 2 -30 4 -17 2 12 2 30 0 40 -3 9 -5 -1 -4 -23z"/>
<path d="M7471 6583 c1 -24 3 -29 6 -15 5 27 11 28 40 0 l23 -21 -1 39 c-1 30
-2 34 -8 16 l-6 -24 -19 21 c-27 30 -36 26 -35 -16z"/>
<path d="M7710 6620 c0 -3 -4 -20 -9 -38 -6 -20 -6 -32 0 -32 5 0 9 8 9 18 1
15 2 15 15 -2 14 -18 15 -18 21 -1 7 17 8 17 22 -1 14 -18 14 -18 8 -1 -3 10
-6 28 -7 40 0 22 0 22 -16 -1 l-16 -24 -13 24 c-7 13 -13 21 -14 18z"/>
<path d="M10995 6549 c-4 -6 -5 -12 -2 -15 2 -3 7 2 10 11 7 17 1 20 -8 4z"/>
<path d="M11620 6490 c0 -19 3 -21 12 -12 9 9 9 15 0 24 -9 9 -12 7 -12 -12z"/>
<path d="M11806 6502 c-2 -4 -1 -14 4 -22 7 -11 12 -12 21 -3 6 6 8 16 5 22
-8 13 -23 14 -30 3z"/>
<path d="M12006 6502 c-2 -4 -1 -14 4 -22 7 -11 12 -12 21 -3 6 6 8 16 5 22
-8 13 -23 14 -30 3z"/>
<path d="M11620 6200 c0 -19 3 -21 12 -12 9 9 9 15 0 24 -9 9 -12 7 -12 -12z"/>
<path d="M11806 6212 c-2 -4 -1 -14 4 -22 7 -11 12 -12 21 -3 6 6 8 16 5 22
-8 13 -23 14 -30 3z"/>
<path d="M12006 6212 c-2 -4 0 -14 5 -22 8 -13 10 -13 18 0 10 15 6 30 -9 30
-5 0 -11 -4 -14 -8z"/>
<path d="M11084 5905 c-9 -22 1 -29 15 -11 8 10 9 16 1 21 -5 3 -13 -1 -16
-10z"/>
<path d="M11060 5841 c-44 -30 -59 -50 -60 -78 0 -35 21 -39 43 -9 l20 27 11
-23 c23 -47 86 -21 86 35 0 10 10 27 23 37 29 24 20 31 -39 33 -37 2 -57 -4
-84 -22z"/>
<path d="M8640 5725 c36 -38 66 -71 68 -74 1 -2 4 -2 7 0 2 3 -28 36 -68 75
l-72 69 65 -70z"/>
<path d="M9536 5741 c-10 -11 -15 -25 -11 -30 12 -20 -10 -11 -30 12 l-20 22
-9 -53 c-5 -29 -6 -55 -3 -58 3 -4 27 -7 52 -9 26 -2 49 -6 52 -9 4 -3 14 -6
23 -6 10 0 24 -7 31 -16 12 -15 11 -16 -11 -9 -77 25 -119 26 -144 5 -7 -5
-16 -7 -19 -3 -4 3 -7 -7 -7 -24 0 -34 34 -90 65 -107 11 -6 22 -13 25 -16 10
-10 39 -10 45 0 4 6 -4 27 -16 46 l-22 36 24 -12 c13 -7 28 -19 32 -27 6 -9
17 -13 32 -9 13 3 27 2 30 -4 12 -20 25 -9 25 21 0 40 21 34 33 -10 9 -38 -19
-97 -46 -95 -13 1 -17 -7 -17 -38 0 -35 6 -46 48 -86 56 -55 122 -136 122
-151 0 -6 -19 -20 -42 -32 -23 -12 -48 -28 -56 -35 -7 -8 -17 -14 -22 -14 -4
0 -19 -19 -33 -42 -20 -34 -23 -47 -15 -72 5 -17 9 -65 9 -106 -1 -126 14
-225 36 -247 24 -24 68 -25 68 -2 0 9 6 23 13 31 6 8 9 17 6 20 -3 3 9 16 25
28 l31 21 1 -28 c1 -26 2 -26 10 7 6 24 2 83 -12 186 -11 83 -19 166 -17 185
l3 33 40 -65 c39 -63 40 -66 40 -159 0 -121 -18 -197 -61 -261 -19 -29 -33
-53 -32 -53 2 -1 14 -7 28 -13 14 -6 61 -40 105 -76 78 -63 81 -67 104 -141
22 -70 23 -79 11 -137 -10 -46 -15 -57 -22 -44 -6 10 -5 21 2 31 10 11 10 14
1 14 -8 0 -10 8 -6 20 5 16 2 20 -15 20 -16 0 -20 -5 -16 -15 3 -9 0 -15 -10
-15 -9 0 -25 -10 -36 -22 -15 -18 -18 -19 -14 -5 3 9 1 17 -4 17 -6 0 -10 -4
-10 -8 0 -4 -15 -23 -34 -42 -18 -19 -43 -63 -56 -97 -12 -35 -25 -63 -27 -63
-3 0 -2 8 2 18 3 9 10 36 14 59 7 34 5 45 -8 56 -22 19 -54 30 -45 15 5 -8 2
-9 -10 -5 -10 4 -25 7 -35 7 -9 0 -27 9 -39 20 -12 12 -22 16 -22 10 0 -6 6
-13 13 -16 7 -2 13 -13 14 -23 1 -16 -2 -17 -22 -7 -13 6 -19 14 -13 17 7 4 7
12 1 24 -9 16 -12 15 -27 -6 -9 -13 -16 -19 -16 -13 0 6 8 22 18 35 25 33 72
153 72 185 0 14 7 53 16 86 8 33 13 62 10 65 -3 3 -18 -4 -34 -16 -41 -29 -47
-27 -48 17 -3 72 -10 121 -18 129 -5 4 -6 0 -3 -9 9 -25 0 -22 -28 8 -19 21
-27 24 -44 15 -11 -6 -26 -8 -34 -5 -11 4 -13 -1 -10 -20 3 -14 10 -23 15 -20
5 4 8 -3 6 -15 -5 -35 -21 -27 -47 24 -24 46 -24 48 -6 61 25 18 36 18 29 -1
-5 -13 -3 -13 19 -2 15 8 35 24 45 37 l19 23 5 -26 c3 -15 1 -27 -3 -27 -5 0
-9 -5 -9 -11 0 -6 9 -8 20 -4 11 4 20 2 20 -4 0 -6 5 -11 11 -11 11 0 9 51 -7
245 -3 33 -6 66 -6 73 -2 20 -49 14 -55 -7 -5 -20 -64 -38 -85 -25 -7 4 -8 3
-4 -5 6 -8 -2 -11 -28 -8 -39 5 -45 -7 -26 -44 10 -18 7 -19 -57 -19 -40 -1
-78 -7 -93 -15 -24 -14 -22 -14 25 -9 28 3 56 7 63 10 14 4 16 -12 2 -21 -20
-12 -9 -23 50 -49 56 -26 84 -46 61 -46 -6 0 -11 -7 -11 -16 0 -14 2 -15 17
-3 14 12 16 12 11 -1 -3 -8 -13 -15 -24 -15 -10 0 -26 -4 -34 -9 -13 -8 -13
-7 -2 7 14 16 3 54 -15 51 -4 -1 -18 2 -31 7 -34 13 -42 11 -42 -11 0 -10 -8
-23 -17 -29 -10 -5 -15 -12 -12 -16 4 -3 21 6 38 21 34 28 49 27 33 -3 -25
-46 -60 -64 -183 -93 -181 -44 -181 -44 -193 -62 -15 -24 2 -38 53 -48 45 -8
86 11 77 36 -3 9 4 19 19 26 14 6 25 15 25 19 0 4 7 9 15 13 12 4 13 2 3 -13
-16 -26 -4 -49 29 -57 47 -11 60 -29 59 -82 -1 -32 -8 -57 -24 -80 -13 -17
-18 -32 -12 -32 6 0 8 -4 5 -10 -9 -14 39 -12 105 4 75 19 86 24 158 73 70 48
102 59 127 46 13 -8 9 -12 -23 -21 -21 -7 -56 -29 -78 -50 -46 -46 -169 -140
-201 -155 -27 -12 -30 -25 -8 -33 10 -4 12 -10 6 -18 -5 -6 -8 -32 -7 -58 1
-25 -2 -44 -6 -42 -12 8 -10 -1 15 -46 12 -24 28 -45 35 -47 7 -3 34 4 61 16
71 30 119 34 161 13 41 -20 47 -49 20 -102 -24 -46 -93 -115 -127 -128 -16 -5
-37 -14 -48 -18 -22 -8 -22 -8 -87 1 -28 3 -63 18 -88 36 l-41 30 47 32 c26
18 56 48 66 68 18 36 18 36 -8 82 -29 53 -49 71 -34 32 6 -15 6 -24 1 -20 -5
3 -13 0 -17 -6 -4 -8 -9 -7 -15 2 -6 10 -9 5 -9 -14 0 -46 -39 -186 -65 -236
-34 -65 -89 -121 -113 -114 -15 3 -34 -12 -77 -64 -63 -73 -99 -143 -110 -210
-4 -24 -11 -43 -16 -43 -5 0 -4 11 1 25 6 17 6 25 -1 25 -13 0 -131 -111 -125
-117 2 -3 25 12 51 32 26 20 49 34 51 33 1 -2 -3 -22 -9 -45 -17 -65 -1 -111
48 -139 22 -13 47 -23 56 -24 9 0 21 -6 27 -13 6 -7 28 -14 49 -15 20 -2 42
-7 48 -12 7 -6 15 -7 19 -2 4 4 12 -1 17 -11 6 -9 15 -14 21 -11 6 4 14 0 19
-7 7 -11 9 -11 9 -1 0 10 4 10 23 0 28 -15 49 -19 41 -7 -3 5 2 9 10 9 9 0 16
-4 16 -9 0 -6 12 -6 30 0 l30 11 -26 44 c-23 39 -24 45 -9 50 11 4 25 -4 42
-25 14 -17 32 -31 40 -31 7 0 16 -6 19 -14 4 -9 19 -13 47 -11 58 3 59 4 52
15 -3 5 -1 10 4 10 6 0 18 17 26 38 10 24 36 53 70 80 53 41 72 68 40 56 -10
-4 -13 -2 -10 8 4 10 -17 32 -61 66 -68 53 -84 61 -84 41 0 -12 -29 -38 -43
-39 -9 0 14 42 28 53 7 4 6 10 0 15 -6 4 -32 22 -58 40 -26 18 -47 35 -47 38
0 3 27 -10 61 -28 60 -33 61 -33 76 -13 14 19 15 18 11 -13 -4 -31 -1 -35 69
-81 l73 -49 0 39 c0 21 4 39 9 39 5 0 11 10 14 23 7 40 29 -32 24 -80 -4 -34
-2 -40 10 -36 12 5 14 1 8 -17 -6 -20 2 -32 56 -81 34 -32 65 -56 68 -53 3 2
0 18 -6 34 -13 35 3 109 28 127 9 7 20 24 23 38 4 14 11 25 16 25 6 0 10 11
10 25 0 15 11 37 28 51 22 22 34 25 69 21 27 -3 40 -1 37 5 -10 15 37 -1 69
-23 33 -24 33 -20 6 56 -12 33 -22 76 -23 96 -1 29 -4 35 -19 31 -24 -6 -76
17 -87 39 -30 54 10 148 75 180 29 14 36 15 46 3 17 -20 25 -18 48 15 l21 28
-45 29 c-43 27 -56 46 -18 26 10 -5 35 -12 56 -16 l38 -7 -21 29 c-24 32 -24
52 -1 139 8 33 8 58 -4 113 -17 80 -18 102 -6 80 5 -8 12 -39 16 -67 8 -59 16
-66 34 -27 6 15 14 24 17 21 3 -2 -4 -21 -16 -41 -11 -20 -20 -46 -20 -57 0
-21 1 -20 20 2 10 13 19 18 20 12 0 -7 7 -13 15 -13 8 0 15 -1 15 -2 0 -2 3
-27 6 -55 5 -38 3 -53 -6 -53 -7 0 -10 7 -7 14 4 10 1 13 -8 10 -10 -4 -12
-15 -9 -34 4 -15 1 -31 -5 -34 -6 -4 -11 -12 -11 -19 0 -6 7 -4 16 5 16 15 20
15 67 -10 28 -15 61 -43 75 -64 25 -39 37 -44 61 -29 10 6 11 13 2 29 -9 17
-8 23 4 29 9 5 22 40 30 78 19 90 19 94 -4 88 -10 -3 -22 0 -25 6 -4 6 17 9
59 8 49 -1 60 -4 45 -11 -20 -9 -40 -60 -40 -103 0 -16 5 -20 20 -16 11 3 20
9 20 13 0 5 18 -1 40 -13 50 -28 75 -16 75 34 0 40 9 49 52 49 50 0 108 28
124 58 8 15 20 31 26 35 7 4 13 11 13 15 0 4 -98 7 -218 7 -186 0 -221 -2
-242 -17 -28 -18 -43 -9 -47 29 -4 36 -91 156 -109 149 -14 -6 -4 38 17 71 10
17 15 19 26 8 7 -8 13 -19 13 -25 0 -6 5 -8 12 -4 8 5 9 2 5 -10 -5 -13 -3
-17 7 -13 10 4 13 1 10 -7 -6 -15 22 -29 39 -19 6 4 8 0 4 -10 -4 -12 -2 -14
10 -10 13 5 14 3 4 -15 -10 -19 -9 -22 9 -22 12 0 19 -4 16 -9 -3 -5 5 -11 18
-13 19 -4 23 -1 19 11 -4 9 8 3 27 -14 l33 -30 -5 25 c-3 14 -9 34 -14 45 -7
17 -6 18 8 7 20 -16 21 -15 48 78 15 49 20 89 17 119 l-5 44 20 -32 c12 -18
29 -31 41 -32 12 -1 27 -2 32 -4 6 -1 19 -3 30 -4 18 -2 18 -3 -3 -12 -47 -18
-10 -29 101 -29 89 0 109 -2 99 -12 -9 -9 -44 -13 -100 -13 -77 0 -92 3 -134
28 l-47 27 -11 -42 c-6 -24 -15 -58 -20 -77 -11 -41 -8 -46 18 -32 15 8 23 7
33 -5 8 -9 22 -14 37 -11 14 3 26 -1 29 -9 3 -8 13 -14 22 -14 14 0 14 2 1 11
-12 9 -12 10 3 5 10 -3 21 -6 23 -6 2 0 4 -9 4 -20 0 -13 -9 -21 -27 -25 -16
-4 -34 -9 -41 -13 -15 -8 -12 -29 3 -23 19 9 230 9 246 0 11 -6 22 -3 33 10
19 21 22 66 4 55 -10 -6 -10 -4 0 8 9 11 9 17 2 20 -17 5 22 46 40 41 13 -4
13 -3 0 6 -13 9 -13 14 -2 33 11 19 8 18 -12 -4 -42 -46 -53 -30 -12 17 20 23
22 32 14 56 -5 16 -14 32 -20 35 -5 3 0 13 12 21 15 11 19 18 11 26 -8 8 -6
16 6 29 15 17 15 18 -1 18 -11 0 -14 4 -9 13 4 6 8 25 9 40 1 21 -5 31 -27 43
-16 8 -33 12 -38 10 -10 -6 -71 22 -71 32 0 4 17 17 38 30 20 13 62 40 92 62
60 42 72 47 64 26 -4 -10 1 -12 19 -9 13 3 30 -2 38 -9 8 -8 20 -13 28 -10 10
3 12 -1 9 -16 -7 -25 15 -61 26 -44 4 7 2 12 -3 12 -6 0 -11 5 -11 10 0 6 7
10 14 10 8 0 26 10 40 23 19 18 23 30 19 48 -6 22 -5 23 10 9 37 -33 49 -42
53 -37 3 3 -7 14 -22 26 -22 17 -27 30 -28 66 0 25 -3 45 -6 45 -3 0 -5 14 -4
30 1 17 -2 30 -7 30 -5 0 -9 7 -9 15 0 18 12 19 28 3 9 -9 12 -9 12 -1 0 7 -9
15 -20 18 -11 3 -20 10 -20 14 0 4 -9 17 -21 29 -11 12 -17 27 -13 34 4 6 3 8
-3 5 -6 -4 -14 0 -17 9 -3 8 -10 12 -16 9 -6 -3 -13 2 -16 12 -3 10 -10 26
-15 36 -7 13 -6 23 2 33 8 10 8 14 1 14 -6 0 -9 7 -6 15 5 11 2 13 -10 9 -10
-4 -16 -1 -16 9 0 9 -9 23 -21 31 -13 9 -18 19 -14 27 5 7 4 10 -2 6 -6 -4
-16 -1 -22 6 -8 11 -1 16 37 25 72 16 138 58 151 93 10 29 9 31 -27 46 -43 18
-164 29 -217 19 -33 -7 -125 -77 -125 -96 0 -4 9 -18 20 -30 l21 -24 6 22 c3
13 13 22 24 22 17 0 17 -2 3 -36 -13 -30 -13 -38 -2 -45 7 -5 17 -9 21 -9 5 0
6 -4 2 -9 -3 -5 3 -12 12 -15 10 -3 29 -21 41 -40 15 -22 29 -33 38 -29 10 4
12 0 7 -13 -4 -11 -3 -15 5 -10 6 3 15 -2 21 -11 6 -11 11 -13 11 -5 0 7 5 10
10 7 6 -4 8 -16 4 -28 -6 -19 -5 -20 10 -8 9 8 16 9 16 3 0 -21 -23 -25 -37
-6 -11 15 -16 16 -22 6 -7 -11 -9 -11 -14 2 -4 9 -11 16 -17 16 -7 0 -8 -6 0
-19 5 -11 10 -33 10 -49 l0 -30 -47 18 c-29 11 -47 24 -45 32 13 48 -26 135
-71 162 -62 37 -102 54 -143 61 -35 5 -46 3 -70 -18 -24 -21 -28 -32 -28 -80
-1 -41 4 -63 19 -82 11 -15 22 -26 25 -24 3 1 14 -2 25 -8 11 -6 32 -13 47
-17 27 -6 27 -6 23 44 -2 27 1 50 6 50 5 0 9 -7 9 -15 0 -9 7 -18 16 -22 11
-4 13 -13 9 -33 -7 -30 9 -50 19 -25 3 8 10 15 16 15 6 0 9 -4 6 -9 -3 -5 1
-11 9 -14 9 -4 12 -1 8 9 -4 10 3 14 26 14 27 0 31 -4 31 -26 0 -20 -4 -25
-16 -20 -8 3 -12 2 -9 -4 3 -6 -3 -10 -14 -10 -10 0 -21 -5 -23 -11 -2 -6 -14
-2 -30 10 l-26 21 -6 -23 c-3 -12 -6 -32 -6 -43 0 -20 3 -21 38 -13 20 5 53 8
72 8 28 0 22 -3 -27 -14 -79 -17 -183 -75 -227 -126 -34 -41 -52 -79 -35 -79
5 0 9 -4 9 -10 0 -5 -13 -10 -30 -10 -16 0 -30 5 -30 10 0 6 -8 10 -17 10 -30
-1 25 -40 55 -40 16 0 22 -4 17 -9 -6 -5 -86 -19 -180 -31 -159 -20 -286 -53
-390 -102 l-20 -9 20 17 c11 9 33 22 49 29 l28 12 -29 6 c-16 3 -44 3 -63 1
l-33 -6 7 48 c3 26 11 53 17 60 6 8 7 14 2 14 -5 0 -10 15 -10 33 0 17 -4 43
-8 57 -4 14 -8 40 -9 58 -1 17 -4 32 -8 32 -4 0 -4 7 -1 17 4 11 3 14 -5 9 -7
-4 -12 -2 -12 3 0 6 5 11 10 11 6 0 10 5 10 11 0 6 -7 9 -14 6 -10 -4 -13 -1
-10 7 3 7 -2 19 -11 26 -18 15 -19 43 -4 72 8 15 8 19 0 14 -15 -10 -14 7 1
22 7 7 8 12 4 12 -4 0 -15 -9 -25 -21 l-17 -21 -12 26 c-11 25 -11 26 9 15 16
-8 20 -8 14 1 -4 6 3 22 14 34 21 22 21 24 3 28 -10 3 -45 -5 -77 -18 l-59
-24 26 27 c14 16 39 48 54 73 16 25 41 61 55 80 34 45 37 55 44 174 l6 98 -28
-7 c-78 -19 -169 -83 -238 -168 -51 -62 -75 -72 -30 -12 26 33 27 37 11 54 -9
9 -16 22 -16 27 0 14 -57 46 -78 43 -29 -3 -32 0 -21 27 7 21 6 31 -6 44 -16
18 -20 35 -6 26 12 -8 9 27 -3 36 -5 3 -10 15 -11 25 -1 18 -34 63 -46 63 -3
0 -14 -9 -23 -19z m152 -411 c-7 -11 -17 -20 -22 -20 -5 0 -1 9 9 20 10 11 20
20 22 20 2 0 -2 -9 -9 -20z m1016 -105 c3 -9 0 -15 -9 -15 -8 0 -15 7 -15 15
0 8 4 15 9 15 5 0 11 -7 15 -15z m324 -272 c-10 -2 -26 -2 -35 0 -10 3 -2 5
17 5 19 0 27 -2 18 -5z m202 -53 c0 -5 -7 -7 -15 -4 -8 4 -15 8 -15 10 0 2 7
4 15 4 8 0 15 -4 15 -10z m-467 -142 c-12 -6 -30 -30 -39 -54 -15 -41 -34 -59
-34 -33 0 31 55 99 79 98 11 0 9 -4 -6 -11z m35 -137 c29 -27 46 -61 23 -47
-5 4 -11 0 -14 -6 -7 -19 -45 24 -51 56 -6 33 2 33 42 -3z m-375 -9 c-12 -4
-32 -16 -45 -28 -41 -35 -53 -39 -29 -9 25 32 45 44 76 43 18 0 18 -1 -2 -6z
m-719 -18 c3 -8 2 -12 -4 -9 -6 3 -10 10 -10 16 0 14 7 11 14 -7z m336 -48 c0
-2 -8 -10 -17 -17 -16 -13 -17 -12 -4 4 13 16 21 21 21 13z m-624 -33 c-7 -7
-26 7 -26 19 0 6 6 6 15 -2 9 -7 13 -15 11 -17z m911 -5 c-3 -7 -5 -2 -5 12 0
14 2 19 5 13 2 -7 2 -19 0 -25z m513 -4 c0 -2 -7 -4 -15 -4 -8 0 -15 4 -15 10
0 5 7 7 15 4 8 -4 15 -8 15 -10z m-742 -34 c30 -11 51 -16 48 -11 -4 5 6 11
21 13 38 4 68 -27 65 -67 l-3 -30 20 25 c11 14 22 22 26 18 10 -10 -36 -47
-50 -41 -9 3 -18 -10 -26 -39 -12 -43 -33 -77 -29 -48 1 8 2 20 1 26 -2 17
-43 25 -60 11 -12 -10 -14 -9 -8 7 5 14 3 17 -8 13 -8 -4 -21 0 -29 8 -8 8
-21 15 -30 15 -8 0 -23 13 -32 29 -10 17 -21 28 -26 25 -4 -3 -8 2 -8 10 0 9
6 16 13 16 8 0 62 34 62 40 0 0 24 -9 53 -20z m710 -22 c-2 -6 -14 -12 -26
-13 -28 -2 -28 3 1 15 29 12 29 12 25 -2z m197 2 c3 -5 2 -10 -4 -10 -5 0 -13
5 -16 10 -3 6 -2 10 4 10 5 0 13 -4 16 -10z m-1370 -10 c3 -5 1 -10 -4 -10 -6
0 -11 5 -11 10 0 6 2 10 4 10 3 0 8 -4 11 -10z m1355 -117 c0 -5 -5 -15 -10
-23 -9 -13 -11 -13 -19 0 -5 8 -7 18 -5 22 6 10 34 11 34 1z m-649 -315 c-23
-68 -37 -95 -45 -87 -3 3 9 40 26 82 37 92 49 95 19 5z m-537 -165 c3 -21 6
-47 6 -58 -1 -16 -2 -17 -9 -5 -14 24 -24 100 -13 100 5 0 12 -17 16 -37z m87
-84 c-35 -4 -67 -13 -71 -20 -6 -8 -9 -8 -14 0 -4 6 -1 13 6 15 7 3 20 7 28 9
8 3 38 5 65 5 50 -1 49 -1 -14 -9z m-569 -277 c-16 -26 -44 -76 -62 -112 -41
-80 -88 -150 -100 -150 -19 0 -10 28 25 76 69 96 87 127 90 156 4 25 -3 35
-55 75 -33 25 -58 48 -56 50 2 2 32 -14 66 -36 35 -23 66 -41 69 -41 4 0 15
20 26 45 20 44 20 44 23 14 2 -20 -6 -46 -26 -77z m242 62 c-8 -29 -53 -114
-61 -114 -3 0 -2 21 1 48 5 34 15 53 34 69 34 29 34 29 26 -3z m-94 3 c0 -2
-9 -14 -20 -27 -11 -13 -20 -19 -20 -15 0 5 7 17 17 27 15 17 23 22 23 15z
m237 -41 c20 -18 32 -35 27 -38 -5 -3 -24 13 -43 34 -41 47 -32 50 16 4z m183
24 c0 -13 -95 -82 -158 -114 -29 -14 -52 -25 -52 -22 0 5 170 129 190 138 21
9 20 9 20 -2z m-801 -81 c-15 -22 -31 -27 -37 -10 -2 6 3 8 12 5 11 -4 16 -1
16 10 0 9 5 16 11 16 8 0 7 -7 -2 -21z m236 -269 c21 -22 37 -40 34 -40 -3 0
-23 18 -44 40 -21 22 -37 40 -34 40 3 0 23 -18 44 -40z"/>
<path d="M10770 4615 c7 -9 15 -13 17 -11 7 7 -7 26 -19 26 -6 0 -6 -6 2 -15z"/>
<path d="M10876 5711 c25 -43 77 -101 70 -78 -6 19 3 16 53 -20 24 -17 24 -17
13 4 -14 25 -77 80 -122 107 l-33 19 19 -32z"/>
<path d="M11215 5691 c-9 -15 -2 -71 10 -72 24 -2 -49 -17 -114 -24 -39 -4
-74 -12 -78 -18 -4 -7 12 -8 50 -4 71 7 169 -2 161 -15 -4 -6 2 -5 13 1 14 7
23 7 33 -2 10 -10 11 -6 6 17 -7 27 -6 28 10 15 17 -13 17 -13 1 10 -10 15
-14 34 -10 49 5 23 4 23 -17 12 -20 -11 -22 -10 -17 4 5 13 1 15 -18 12 -17
-3 -22 -1 -18 10 6 16 -3 19 -12 5z"/>
<path d="M9717 5632 c3 -12 9 -25 14 -28 14 -8 11 10 -6 32 -13 18 -14 18 -8
-4z"/>
<path d="M8806 5548 c146 -150 164 -173 164 -214 0 -19 -6 -47 -14 -62 -14
-26 -601 -614 -828 -830 -176 -167 -209 -177 -303 -91 -30 29 -58 49 -61 47
-5 -6 123 -122 174 -157 43 -30 128 -36 165 -12 39 25 148 123 254 228 51 51
93 90 93 88 0 -2 95 91 210 206 116 116 210 208 210 205 0 -8 112 115 130 143
l16 24 1 -35 c1 -48 28 -96 58 -104 27 -7 69 5 48 13 -9 3 -9 10 3 28 9 13 13
29 9 35 -3 6 3 10 14 10 14 0 19 -5 15 -15 -5 -11 -2 -13 12 -8 13 5 16 3 11
-10 -7 -19 4 -22 20 -6 7 7 15 6 27 -6 15 -15 17 -14 27 9 16 35 3 91 -26 114
l-25 20 56 27 c40 20 53 30 45 38 -14 14 -99 -7 -121 -29 -13 -13 -13 -14 3
-8 13 5 16 2 11 -10 -5 -12 -20 -16 -69 -16 -49 0 -68 -5 -90 -22 l-28 -21 12
22 c7 12 18 24 25 27 18 7 14 86 -7 117 -23 36 -55 73 -153 176 -45 47 -99
105 -120 129 -21 23 -43 42 -48 42 -6 0 30 -42 80 -92z m449 -457 c3 -5 1 -12
-5 -16 -5 -3 -10 1 -10 9 0 18 6 21 15 7z"/>
<path d="M9272 5518 c5 -106 20 -144 88 -220 46 -53 60 -59 60 -25 0 12 9 41
20 65 11 24 15 42 8 42 -10 0 -7 29 7 62 5 13 -4 24 -42 47 -26 16 -65 50 -86
75 -21 25 -43 46 -49 46 -7 0 -9 -31 -6 -92z"/>
<path d="M9755 5553 c4 -10 9 -35 12 -55 6 -40 23 -53 23 -18 0 24 -26 90 -36
90 -3 0 -3 -8 1 -17z"/>
<path d="M8504 5443 c-2 -143 -35 -235 -142 -386 -124 -177 -360 -306 -559
-307 -35 0 -63 -4 -63 -10 0 -5 4 -10 9 -10 4 0 20 -12 34 -26 56 -55 196 -86
288 -63 30 7 56 14 59 14 20 4 87 39 134 69 31 20 62 36 70 36 18 0 38 25 28
35 -4 5 -2 5 4 2 6 -3 31 15 56 41 49 50 138 170 138 185 0 5 8 21 18 35 33
48 74 187 74 252 0 37 -46 140 -63 140 -5 0 -9 7 -9 15 0 8 -5 15 -10 15 -6 0
-23 14 -38 31 l-27 30 -1 -98z"/>
<path d="M10805 5449 c-8 -12 24 -51 36 -43 4 2 18 -1 29 -8 17 -11 22 -11 30
2 6 10 5 16 -3 19 -7 2 -29 12 -49 22 -24 13 -39 15 -43 8z"/>
<path d="M9470 5444 c0 -6 6 -16 13 -23 10 -10 8 -11 -8 -5 -40 14 -6 -8 71
-46 58 -30 80 -37 86 -27 14 21 9 25 -44 32 -43 6 -59 14 -85 43 -18 20 -33
31 -33 26z"/>
<path d="M11315 5420 c4 -6 11 -8 16 -5 14 9 11 15 -7 15 -8 0 -12 -5 -9 -10z"/>
<path d="M11300 5400 c0 -5 5 -10 10 -10 6 0 10 5 10 10 0 6 -4 10 -10 10 -5
0 -10 -4 -10 -10z"/>
<path d="M11270 5389 c0 -5 5 -7 10 -4 6 3 10 8 10 11 0 2 -4 4 -10 4 -5 0
-10 -5 -10 -11z"/>
<path d="M11327 5393 c-12 -19 1 -33 29 -33 15 0 23 4 19 11 -4 6 -13 8 -20 5
-8 -3 -15 3 -17 12 -3 13 -6 14 -11 5z"/>
<path d="M11395 5343 c4 -16 2 -23 -7 -23 -7 -1 -3 -9 11 -20 29 -25 57 -10
40 21 -13 26 -17 24 -11 -6 3 -20 1 -24 -12 -19 -10 4 -14 13 -12 23 3 9 1 23
-5 31 -8 12 -9 10 -4 -7z"/>
<path d="M2010 5065 l0 -175 -235 0 c-150 0 -235 -4 -235 -10 0 -6 85 -10 235
-10 l235 0 0 -695 0 -695 -235 0 c-150 0 -235 -4 -235 -10 0 -6 85 -10 235
-10 l235 0 0 -190 c0 -120 4 -190 10 -190 6 0 10 70 10 190 l0 190 2155 0
2155 0 0 -195 c0 -123 4 -195 10 -195 6 0 10 72 10 195 l0 195 195 0 c123 0
195 4 195 10 0 6 -72 10 -195 10 l-195 0 0 695 0 695 195 0 c123 0 195 4 195
10 0 6 -72 10 -195 10 l-195 0 0 160 c0 100 -4 160 -10 160 -6 0 -10 -60 -10
-160 l0 -160 -2155 0 -2155 0 0 175 c0 110 -4 175 -10 175 -6 0 -10 -65 -10
-175z m752 -417 l3 -223 1530 0 1530 0 3 223 2 222 255 0 255 0 0 -695 0 -695
-563 0 -563 0 -41 58 -40 57 28 26 c34 31 38 75 10 110 -14 18 -31 23 -80 27
l-61 4 0 -141 0 -141 -77 0 -78 0 32 20 c86 52 95 161 18 229 -64 56 -150 49
-204 -17 -54 -64 -39 -166 31 -211 l33 -21 -82 0 -83 0 0 120 0 120 30 0 c23
0 30 4 30 20 0 18 -7 20 -85 20 -78 0 -85 -2 -85 -20 0 -16 7 -20 30 -20 l30
0 0 -120 0 -120 -50 0 -50 0 0 140 0 140 -25 0 c-25 0 -25 -1 -25 -92 l-1 -93
-94 98 c-51 53 -96 97 -99 97 -3 0 -6 -65 -6 -145 l0 -145 -25 0 c-18 0 -25 5
-25 20 0 18 -7 20 -55 20 l-55 0 0 44 0 45 53 3 c44 3 52 6 52 23 0 17 -8 20
-52 23 -51 3 -53 4 -53 33 0 29 1 29 55 29 48 0 55 2 55 20 0 18 -7 20 -81 20
l-80 0 3 -140 3 -140 -72 0 c-40 0 -73 4 -73 9 0 5 16 47 36 93 20 45 44 104
55 131 l19 47 -24 0 c-20 0 -29 -13 -61 -90 -21 -50 -40 -89 -42 -87 -2 2 -19
42 -37 88 -29 72 -38 84 -59 87 l-26 3 55 -131 c29 -73 54 -136 54 -141 0 -5
-31 -9 -70 -9 l-70 0 0 140 c0 133 -1 140 -20 140 -19 0 -20 -7 -20 -90 0 -49
-2 -90 -5 -90 -3 0 -47 43 -97 95 -49 52 -95 95 -100 95 -5 0 -8 -60 -6 -145
l3 -145 -32 0 -33 0 0 140 0 140 -26 0 -25 0 3 -140 3 -140 -87 0 -88 0 0 140
c0 133 -1 140 -20 140 -19 0 -20 -7 -20 -90 0 -49 -2 -90 -5 -90 -3 0 -47 43
-97 95 -49 52 -95 95 -100 95 -5 0 -8 -60 -6 -145 4 -195 -7 -195 -93 0 -35
79 -67 145 -70 145 -3 0 -36 -65 -74 -145 l-68 -145 -90 0 -90 0 21 23 c52 56
35 110 -48 152 -28 14 -50 27 -50 29 0 34 52 50 78 24 9 -10 16 -9 28 4 14 14
13 17 -13 38 -53 41 -133 6 -133 -60 0 -31 18 -49 78 -79 31 -16 42 -27 42
-44 0 -50 -62 -66 -82 -22 -7 15 -18 24 -27 23 -26 -5 -24 -36 3 -63 l25 -25
-39 0 c-23 0 -40 5 -40 11 0 14 -109 260 -121 273 -5 5 -34 -44 -68 -115 l-59
-124 -1 550 c-1 541 -1 549 18 515 54 -103 204 -106 247 -5 27 66 22 75 -46
75 -53 0 -60 -2 -60 -20 0 -16 7 -20 35 -20 42 0 44 -12 9 -45 -89 -83 -206
56 -125 147 24 28 36 33 71 32 27 -1 49 -9 64 -23 20 -19 24 -20 36 -6 27 32
-48 80 -115 72 -54 -6 -89 -31 -115 -82 l-20 -40 0 98 0 97 365 0 365 0 2
-222z m1024 144 c6 -4 13 -24 16 -45 3 -31 1 -36 -11 -31 -43 18 -70 16 -95
-9 -31 -31 -33 -65 -5 -101 15 -19 30 -26 54 -26 19 0 37 5 40 10 14 22 21 8
16 -32 l-6 -43 -47 -3 c-81 -5 -141 43 -153 124 -8 53 27 121 75 146 35 18 96
24 116 10z m536 -10 c20 -20 -8 -47 -49 -47 -31 0 -38 -4 -38 -19 0 -13 12
-23 40 -33 50 -17 65 -36 65 -85 0 -58 -34 -88 -100 -88 -42 0 -79 9 -98 25
-1 1 3 14 9 29 12 26 33 34 44 16 9 -15 62 -12 68 3 8 21 -4 33 -45 46 -73 24
-90 90 -38 143 28 28 35 30 81 26 28 -3 55 -10 61 -16z m1092 12 c11 -4 16
-19 16 -45 0 -36 -2 -39 -19 -29 -50 26 -111 -9 -111 -66 0 -60 57 -92 111
-63 19 10 20 8 17 -33 l-3 -43 -50 -3 c-156 -9 -213 200 -74 270 34 18 84 23
113 12z m-2384 -33 c0 -28 -2 -30 -47 -33 -51 -3 -62 -21 -16 -26 78 -9 110
-106 54 -163 -25 -24 -38 -29 -78 -29 -79 0 -93 7 -93 47 0 32 2 35 23 28 57
-18 80 -18 94 1 17 23 16 29 -3 48 -9 10 -33 16 -58 16 l-42 0 10 70 10 70 73
0 73 0 0 -29z m192 12 c44 -39 7 -113 -57 -113 -63 0 -99 67 -58 112 21 23 89
24 115 1z m126 -5 c-8 -13 -45 -76 -82 -140 -38 -67 -74 -118 -83 -118 -21 0
-16 11 66 153 55 96 78 127 93 127 19 0 19 -2 6 -22z m715 -100 c59 -159 59
-152 20 -156 -27 -3 -35 1 -45 22 -10 23 -17 26 -63 26 -46 0 -53 -3 -63 -26
-10 -21 -18 -25 -45 -22 -39 4 -39 -3 20 156 l46 122 42 0 42 0 46 -122z m397
72 l0 -50 50 0 50 0 0 50 0 50 40 0 41 0 -3 -137 -3 -138 -35 0 -35 0 -3 58
-3 57 -49 0 -49 0 -3 -57 c-3 -57 -3 -58 -35 -61 l-33 -3 0 140 0 141 35 0 35
0 0 -50z m402 33 c19 -17 24 -68 9 -91 -5 -9 0 -22 15 -37 30 -30 30 -66 1
-101 -21 -24 -32 -28 -105 -32 l-82 -5 0 142 0 141 72 0 c52 0 76 -4 90 -17z
m291 -105 c59 -159 59 -152 20 -156 -27 -3 -35 1 -45 22 -10 23 -17 26 -63 26
-46 0 -53 -3 -63 -26 -10 -21 -18 -25 -45 -22 -39 4 -39 -3 20 156 l46 122 42
0 42 0 46 -122z m407 72 c0 -27 3 -50 8 -49 4 0 24 22 45 50 35 46 40 49 83
49 l46 0 -51 -59 c-28 -32 -51 -64 -51 -71 0 -7 23 -38 50 -70 28 -32 50 -63
50 -69 0 -6 -17 -11 -39 -11 -36 0 -44 5 -83 55 -23 30 -47 55 -51 55 -5 0 -7
-24 -6 -52 l3 -53 -34 0 -35 0 -3 138 -3 137 36 0 35 0 0 -50z m-2149 -108
c50 -41 15 -122 -53 -122 -34 0 -78 39 -78 70 0 31 44 70 78 70 17 0 40 -8 53
-18z m1493 -943 c57 -68 15 -169 -71 -169 -89 1 -135 101 -77 169 22 27 32 31
74 31 42 0 52 -4 74 -31z m220 25 c10 -4 16 -18 16 -35 0 -22 -6 -32 -26 -39
-33 -13 -40 -8 -38 27 1 15 3 34 3 41 1 13 20 16 45 6z m-2934 -116 c0 -5 -16
-8 -35 -8 -39 0 -42 7 -19 52 l17 32 18 -35 c10 -19 18 -37 19 -41z m588 39
c17 -46 16 -47 -23 -47 -19 0 -35 2 -35 5 0 10 34 75 40 75 3 0 11 -15 18 -33z
m307 -84 l68 -73 -91 0 -92 0 0 97 0 98 23 -25 c13 -14 54 -58 92 -97z m553
-25 l46 -48 -92 0 -92 0 0 98 0 97 46 -50 c26 -27 67 -71 92 -97z m726 46 l90
-94 -95 0 -94 0 0 95 c0 52 2 94 5 94 3 -1 45 -44 94 -95z m760 -39 l36 -55
-42 0 -43 0 0 55 c0 30 3 55 6 55 3 0 23 -25 43 -55z m-2899 -22 l14 -33 -89
0 -90 0 17 35 c17 36 17 36 76 33 56 -3 59 -5 72 -35z m604 6 c6 -18 11 -34
11 -35 0 -2 -38 -4 -85 -4 -47 0 -85 2 -85 5 0 4 7 19 15 35 15 28 19 30 74
30 57 0 59 -1 70 -31z"/>
<path d="M2360 4650 l0 -140 76 0 c72 0 75 1 72 23 -3 19 -9 22 -53 23 l-50 1
0 44 0 44 50 0 c44 0 50 3 53 23 3 21 0 22 -52 22 -56 0 -56 0 -56 30 0 30 1
30 55 30 48 0 55 2 55 20 0 18 -7 20 -75 20 l-75 0 0 -140z"/>
<path d="M2532 4773 c2 -12 14 -19 36 -21 l32 -3 0 -120 c0 -112 1 -119 20
-119 19 0 20 7 20 119 l0 120 32 3 c22 2 34 9 36 21 3 15 -6 17 -88 17 -82 0
-91 -2 -88 -17z"/>
<path d="M3590 4290 c0 -3 -13 -69 -29 -147 l-28 -143 23 0 c24 0 28 11 40 98
3 28 10 52 15 52 5 0 9 -4 9 -9 0 -4 15 -42 34 -82 l34 -74 38 84 c42 92 46
91 59 -12 7 -51 10 -57 31 -57 13 0 24 1 24 3 0 15 -51 281 -54 285 -3 2 -11
-11 -19 -29 -8 -19 -29 -65 -47 -104 l-32 -70 -29 65 c-38 87 -68 146 -69 140z"/>
<path d="M5470 4286 c-3 -2 -4 -68 -2 -145 3 -132 4 -141 23 -141 17 0 19 7
19 90 0 50 2 90 4 90 1 0 46 -44 99 -97 l97 -98 0 148 c0 140 -1 147 -20 147
-19 0 -20 -7 -20 -97 l-1 -98 -97 103 c-54 57 -100 101 -102 98z"/>
<path d="M2050 4140 l0 -140 75 0 c68 0 75 2 75 20 0 18 -7 20 -55 20 l-55 0
0 45 0 45 55 0 c48 0 55 2 55 20 0 18 -7 20 -56 20 l-55 0 3 32 c3 31 4 32 53
33 43 1 50 4 53 23 3 21 0 22 -72 22 l-76 0 0 -140z"/>
<path d="M2230 4267 c0 -12 106 -277 114 -284 3 -3 36 73 123 285 3 8 -4 12
-20 12 -22 0 -29 -10 -62 -92 -20 -51 -38 -94 -39 -96 -2 -1 -11 19 -21 45
-43 115 -57 143 -76 143 -11 0 -19 -6 -19 -13z"/>
<path d="M2507 4273 c-4 -3 -7 -66 -7 -140 l0 -133 80 0 c73 0 80 2 80 20 0
18 -7 20 -55 20 l-55 0 0 45 0 45 55 0 c48 0 55 2 55 20 0 18 -7 20 -56 20
l-55 0 3 32 c3 31 4 32 53 33 44 0 50 3 53 23 3 21 0 22 -71 22 -40 0 -77 -3
-80 -7z"/>
<path d="M2710 4141 l0 -141 26 0 c26 0 26 1 22 55 -3 30 -2 55 1 55 3 0 22
-25 41 -55 29 -45 40 -55 63 -55 l29 0 -40 56 -39 55 28 29 c35 35 37 70 6
106 -19 22 -34 28 -80 32 l-57 4 0 -141z m84 89 c43 -16 30 -80 -16 -80 -15 0
-18 8 -18 45 0 25 2 45 4 45 3 0 16 -4 30 -10z"/>
<path d="M2905 4250 c9 -16 29 -53 45 -80 24 -41 30 -62 30 -110 0 -53 2 -60
20 -60 18 0 20 7 20 55 0 48 6 67 45 134 25 43 45 81 45 84 0 4 -10 7 -23 7
-17 0 -30 -14 -53 -56 l-31 -56 -32 56 c-26 44 -38 56 -57 56 -24 0 -24 -1 -9
-30z"/>
<path d="M3230 4260 c0 -19 5 -22 40 -24 12 -1 16 -23 18 -118 l3 -118 24 0
25 0 0 119 c0 106 2 118 18 118 36 0 42 4 42 23 0 18 -7 20 -85 20 -78 0 -85
-2 -85 -20z"/>
<path d="M3430 4141 l0 -141 25 0 26 0 -3 138 c-3 134 -4 137 -25 140 -23 3
-23 3 -23 -137z"/>
<path d="M3900 4140 l0 -140 75 0 c68 0 75 2 75 20 0 18 -7 20 -55 20 l-55 0
0 45 0 45 55 0 c48 0 55 2 55 20 0 18 -7 20 -56 20 l-55 0 3 33 c3 31 4 32 56
35 44 3 52 6 52 23 0 17 -7 19 -75 19 l-75 0 0 -140z"/>
<path d="M4190 4261 c0 -15 8 -21 33 -23 l32 -3 2 -115 c1 -109 2 -115 22
-118 20 -3 21 0 21 117 l0 121 30 0 c23 0 30 4 30 20 0 18 -7 20 -85 20 -77 0
-85 -2 -85 -19z"/>
<path d="M4446 4261 c-45 -30 -66 -70 -66 -128 0 -44 5 -58 30 -87 58 -65 141
-71 205 -15 104 92 43 249 -97 249 -25 0 -55 -8 -72 -19z m145 -50 c23 -24 29
-38 29 -73 0 -119 -165 -140 -194 -25 -25 100 92 170 165 98z"/>
<path d="M4851 4254 c-40 -50 -20 -91 62 -129 30 -14 37 -23 37 -46 0 -50 -65
-61 -84 -14 -7 19 -46 20 -46 1 0 -25 43 -66 75 -71 44 -8 92 25 100 68 9 48
-7 73 -66 103 -40 20 -50 29 -47 47 3 25 41 35 62 18 14 -12 46 -5 46 10 0 17
-46 39 -81 39 -29 0 -43 -6 -58 -26z"/>
<path d="M5050 4140 c0 -133 1 -140 20 -140 19 0 20 7 20 140 0 133 -1 140
-20 140 -19 0 -20 -7 -20 -140z"/>
<path d="M5213 4260 c-86 -52 -95 -161 -18 -229 46 -40 93 -48 141 -25 47 23
72 58 76 104 l3 35 -55 0 c-49 0 -55 -2 -58 -22 -3 -19 2 -22 34 -25 l38 -3
-26 -30 c-34 -39 -87 -39 -129 1 -61 58 -21 174 61 174 33 0 70 -15 82 -34 5
-8 12 -6 23 5 15 15 14 18 -15 43 -40 33 -109 36 -157 6z"/>
<path d="M5897 4274 c-4 -4 -7 -50 -7 -101 0 -111 14 -147 67 -169 46 -20 86
-10 118 28 23 28 25 37 25 139 0 102 -1 109 -20 109 -19 0 -20 -7 -20 -100 0
-94 -2 -103 -25 -125 -29 -30 -45 -31 -74 -7 -18 15 -21 29 -23 122 -3 85 -6
105 -18 108 -9 1 -19 0 -23 -4z"/>
<path d="M6160 4141 c0 -134 1 -141 20 -141 18 0 20 7 20 55 0 54 0 55 29 55
46 0 83 38 83 84 0 55 -27 78 -96 84 l-56 4 0 -141z m91 89 c40 -22 14 -80
-35 -80 -12 0 -16 11 -16 45 0 48 11 56 51 35z"/>
<path d="M3144 4745 c-8 -21 2 -45 19 -45 8 0 20 7 27 15 10 12 10 18 0 30 -7
8 -19 15 -27 15 -7 0 -16 -7 -19 -15z"/>
<path d="M3962 4671 c-17 -47 -15 -51 13 -51 28 0 30 11 11 55 l-12 30 -12
-34z"/>
<path d="M4770 4710 c0 -20 5 -30 15 -30 21 0 37 34 23 48 -21 21 -38 13 -38
-18z"/>
<path d="M4770 4600 c0 -28 3 -31 28 -28 21 2 27 8 27 28 0 20 -6 26 -27 28
-25 3 -28 0 -28 -28z"/>
<path d="M5047 4660 l-15 -40 33 0 34 0 -16 38 c-8 20 -16 38 -17 40 -2 1 -10
-16 -19 -38z"/>
<path d="M3334 4595 c-9 -23 3 -45 26 -45 25 0 37 25 20 45 -16 19 -39 19 -46
0z"/>
<path d="M2050 5145 c-11 -13 -9 -19 9 -39 22 -23 18 -44 -6 -25 -8 7 -13 8
-13 1 0 -5 7 -15 15 -22 12 -10 18 -10 30 0 21 18 19 36 -7 54 -19 14 -20 16
-4 16 10 0 16 5 14 12 -7 19 -24 20 -38 3z"/>
<path d="M3412 5148 c-18 -18 -15 -36 8 -48 11 -6 18 -15 14 -21 -4 -6 -11 -6
-20 2 -11 9 -14 8 -14 -4 0 -19 24 -29 39 -14 15 15 14 32 -4 47 -20 17 -19
31 3 23 15 -6 15 -5 3 10 -16 20 -14 20 -29 5z"/>
<path d="M10300 5146 c0 -8 5 -18 10 -21 6 -3 10 1 10 9 0 8 -4 18 -10 21 -5
3 -10 -1 -10 -9z"/>
<path d="M2145 5111 c1 -48 10 -61 18 -29 8 30 3 61 -10 65 -5 2 -9 -14 -8
-36z"/>
<path d="M2204 5137 c-3 -9 -4 -28 -2 -44 2 -22 8 -28 28 -28 23 0 25 4 25 40
0 34 -3 40 -23 43 -13 2 -24 -3 -28 -11z m41 -17 c8 -13 -4 -50 -16 -50 -5 0
-9 14 -9 30 0 30 13 40 25 20z"/>
<path d="M2338 5124 c-8 -18 -9 -30 -1 -42 11 -19 63 -29 63 -13 0 6 -6 8 -12
6 -20 -7 -40 10 -36 31 2 11 13 20 26 22 30 5 28 22 -3 22 -18 0 -29 -8 -37
-26z"/>
<path d="M2442 5105 c-12 -25 -18 -45 -12 -45 5 0 12 5 15 10 9 14 42 12 48
-2 2 -7 7 -10 11 -7 6 6 -25 89 -35 89 -3 0 -15 -20 -27 -45z"/>
<path d="M2535 5139 c-4 -6 2 -21 14 -33 23 -24 17 -44 -7 -23 -13 10 -14 9
-10 -3 7 -22 47 -25 55 -4 4 11 -1 23 -16 36 -18 14 -20 18 -7 18 9 0 16 5 16
10 0 13 -37 13 -45 -1z"/>
<path d="M2610 5105 c0 -25 5 -45 10 -45 6 0 10 9 10 20 0 11 7 20 15 20 8 0
15 -9 15 -20 0 -11 5 -20 10 -20 6 0 10 20 10 45 0 25 -4 45 -10 45 -5 0 -10
-7 -10 -15 0 -8 -7 -15 -15 -15 -8 0 -15 7 -15 15 0 8 -4 15 -10 15 -5 0 -10
-20 -10 -45z"/>
<path d="M2710 5106 c0 -43 2 -46 25 -46 31 0 38 15 27 55 -6 20 -16 31 -30
33 -20 3 -22 -1 -22 -42z m35 -15 c3 -5 1 -12 -5 -16 -5 -3 -10 1 -10 9 0 18
6 21 15 7z"/>
<path d="M2802 5105 c-21 -44 -19 -58 6 -33 10 10 17 10 32 0 29 -18 30 -16
14 26 -23 55 -28 56 -52 7z"/>
<path d="M2889 5129 c-16 -31 3 -69 36 -69 14 0 25 4 25 10 0 5 -6 7 -13 4
-18 -7 -41 22 -33 41 3 8 15 15 26 15 11 0 20 5 20 10 0 19 -49 10 -61 -11z"/>
<path d="M2980 5105 c0 -25 5 -45 10 -45 6 0 10 7 10 17 0 14 2 14 20 -2 11
-10 22 -16 25 -13 3 3 -4 13 -15 23 l-20 18 22 24 c25 26 14 32 -14 6 -17 -15
-18 -15 -18 0 0 10 -4 17 -10 17 -5 0 -10 -20 -10 -45z"/>
<path d="M3126 5128 c-13 -19 -14 -25 -2 -43 26 -40 86 -27 86 19 0 47 -57 63
-84 24z m64 -24 c0 -29 -24 -41 -45 -24 -19 16 -19 25 0 44 21 20 45 9 45 -20z"/>
<path d="M3240 5107 c0 -28 5 -47 11 -47 7 0 9 10 7 25 -3 14 -1 25 3 25 5 0
16 -11 25 -25 24 -37 34 -31 34 20 0 25 -4 45 -10 45 -5 0 -10 -12 -10 -27 l0
-27 -30 29 -30 29 0 -47z"/>
<path d="M3494 5134 c3 -9 6 -29 6 -45 0 -16 5 -29 10 -29 6 0 10 20 10 45 0
35 -4 45 -16 45 -11 0 -14 -5 -10 -16z"/>
<path d="M3558 5126 c-12 -28 -5 -54 17 -62 35 -14 61 46 33 74 -19 19 -37 14
-50 -12z m40 -21 c-2 -14 -7 -26 -13 -26 -5 0 -11 12 -13 26 -2 18 1 25 13 25
12 0 15 -7 13 -25z"/>
<path d="M3644 5136 c-3 -8 -4 -27 -2 -43 2 -22 8 -28 27 -28 28 0 42 30 30
63 -9 25 -46 30 -55 8z m41 -16 c8 -13 -3 -50 -15 -50 -12 0 -23 37 -15 50 3
5 10 10 15 10 5 0 12 -5 15 -10z"/>
<path d="M3777 5143 c-7 -11 -1 -72 7 -80 3 -3 6 1 6 9 0 9 10 22 22 30 14 9
19 20 15 31 -6 17 -42 24 -50 10z m33 -23 c0 -5 -4 -10 -10 -10 -5 0 -10 5
-10 10 0 6 5 10 10 10 6 0 10 -4 10 -10z"/>
<path d="M3852 5108 c3 -40 5 -43 33 -43 28 0 30 3 33 43 2 23 -1 42 -7 42 -5
0 -11 -17 -13 -37 -2 -21 -7 -38 -13 -38 -5 0 -11 17 -13 38 -2 20 -8 37 -13
37 -6 0 -9 -19 -7 -42z"/>
<path d="M3950 5106 c0 -25 5 -46 10 -46 6 0 10 5 10 12 0 9 3 9 12 0 16 -16
31 -15 21 1 -4 6 -8 26 -8 42 0 23 -5 31 -22 33 -21 3 -23 -1 -23 -42z m40 20
c0 -3 -4 -8 -10 -11 -5 -3 -10 -1 -10 4 0 6 5 11 10 11 6 0 10 -2 10 -4z"/>
<path d="M4042 5138 c-29 -29 -7 -78 35 -78 13 0 23 4 23 9 0 5 -9 7 -19 4
-28 -7 -46 30 -26 51 9 8 22 13 30 10 8 -4 15 -1 15 5 0 15 -43 14 -58 -1z"/>
<path d="M4132 5105 c-1 -39 1 -45 8 -27 12 27 40 29 40 2 0 -11 5 -20 10 -20
6 0 10 20 10 45 0 25 -4 45 -10 45 -5 0 -10 -7 -10 -15 0 -21 -38 -19 -43 3
-3 9 -5 -5 -5 -33z"/>
<path d="M4241 5111 c-13 -24 -19 -46 -15 -49 4 -4 9 -1 11 6 3 6 12 12 22 12
9 0 23 -6 30 -12 11 -11 12 -8 6 12 -4 14 -13 36 -20 49 l-13 25 -21 -43z"/>
<path d="M4333 5134 c-4 -10 1 -22 10 -29 10 -7 17 -18 17 -25 0 -10 -3 -10
-14 -1 -10 8 -16 9 -21 1 -8 -13 20 -24 40 -16 21 8 19 32 -5 49 -22 15 -17
29 8 20 10 -4 13 -2 8 5 -11 17 -36 15 -43 -4z"/>
<path d="M4410 5105 c0 -42 2 -45 27 -45 14 0 23 3 19 8 -4 4 -13 7 -18 7 -22
0 -18 24 4 27 l23 5 -25 11 c-17 7 -20 11 -8 11 28 1 31 21 4 21 -24 0 -26 -3
-26 -45z"/>
<path d="M10010 5076 c0 -8 5 -18 11 -22 8 -4 7 -9 -2 -15 -10 -6 -10 -9 -2
-9 17 0 25 17 18 40 -7 23 -25 27 -25 6z"/>
<path d="M10720 5070 c0 -5 5 -10 11 -10 5 0 7 5 4 10 -3 6 -8 10 -11 10 -2 0
-4 -4 -4 -10z"/>
<path d="M10010 5011 c0 -5 5 -13 10 -16 6 -3 10 -2 10 4 0 5 -4 13 -10 16 -5
3 -10 2 -10 -4z"/>
<path d="M10338 4977 l-26 -12 22 -20 c12 -11 26 -20 32 -20 16 0 74 -29 74
-37 0 -5 5 -8 11 -8 7 0 9 10 5 26 -5 18 -3 24 5 18 8 -5 9 -3 5 5 -5 7 -10
10 -13 7 -3 -3 -16 8 -30 25 -27 31 -43 34 -85 16z"/>
<path d="M10352 4875 c0 -16 2 -22 5 -12 2 9 2 23 0 30 -3 6 -5 -1 -5 -18z"/>
<path d="M10661 4863 c7 -12 15 -20 18 -17 3 2 -3 12 -13 22 -17 16 -18 16 -5
-5z"/>
<path d="M8910 4863 c-8 -3 -26 -10 -39 -15 -21 -8 -23 -11 -10 -23 18 -18
159 -57 224 -63 47 -3 49 -3 30 12 -19 15 -18 16 23 10 51 -8 55 5 12 36 -51
36 -191 61 -240 43z"/>
<path d="M10081 4726 c-14 -15 -19 -26 -12 -31 6 -3 11 -3 11 1 0 3 6 1 14 -5
11 -9 16 -9 22 0 4 7 3 9 -3 6 -6 -4 -14 0 -17 9 -9 24 -7 28 7 15 15 -12 27
-5 27 16 0 21 -24 15 -49 -11z"/>
<path d="M11260 4720 c0 -5 5 -10 11 -10 5 0 7 5 4 10 -3 6 -8 10 -11 10 -2 0
-4 -4 -4 -10z"/>
<path d="M11237 4703 c-4 -3 -7 -11 -7 -17 0 -6 5 -5 12 2 6 6 9 14 7 17 -3 3
-9 2 -12 -2z"/>
<path d="M9816 4553 c-6 -14 -5 -15 5 -6 7 7 10 15 7 18 -3 3 -9 -2 -12 -12z"/>
<path d="M9680 4500 c0 -34 16 -58 29 -45 7 7 4 20 -9 40 l-20 30 0 -25z"/>
<path d="M11010 4409 c0 -5 5 -7 10 -4 6 3 10 8 10 11 0 2 -4 4 -10 4 -5 0
-10 -5 -10 -11z"/>
<path d="M9190 4229 c-52 -16 -99 -20 -230 -22 -146 -2 -170 -5 -204 -23 -54
-29 -32 -36 59 -19 42 8 83 15 91 15 23 0 -74 -113 -117 -137 -22 -12 -55 -39
-74 -60 -27 -29 -35 -34 -35 -19 0 13 -5 16 -17 11 -10 -4 -30 -11 -45 -17
-23 -8 -28 -17 -34 -66 -8 -68 7 -116 48 -154 l29 -28 39 31 c34 28 38 34 28
52 -9 17 -7 24 15 41 l26 21 -35 25 c-48 35 -87 70 -77 70 5 0 33 -16 63 -35
57 -37 70 -34 70 13 0 12 5 22 10 22 6 0 10 21 10 46 0 42 2 46 21 41 16 -4
111 44 159 81 2 2 -3 17 -13 34 l-18 31 93 -9 c51 -5 116 -8 144 -7 44 2 53
-1 57 -17 3 -11 10 -20 17 -20 7 0 9 8 5 20 -4 13 -2 20 7 20 7 0 24 9 38 20
l25 20 -27 0 c-16 0 -28 5 -28 10 0 6 5 10 10 10 6 0 10 5 10 10 0 15 -48 11
-120 -11z"/>
<path d="M10620 4166 c0 -2 7 -7 16 -10 8 -3 12 -2 9 4 -6 10 -25 14 -25 6z"/>
<path d="M7416 4148 c-12 -39 -14 -65 -6 -78 8 -12 10 -11 10 5 0 12 3 16 8 9
9 -14 45 -27 37 -14 -10 16 11 12 25 -5 15 -18 40 -20 40 -2 0 9 2 9 9 -1 7
-11 9 -11 14 2 4 9 1 16 -6 16 -8 0 -7 4 3 10 8 5 12 10 10 12 -72 53 -136 73
-144 46z"/>
<path d="M9767 4123 c-9 -2 -15 -8 -12 -13 6 -10 45 -1 45 11 0 9 -4 10 -33 2z"/>
<path d="M8965 3988 c-14 -85 -33 -115 -78 -130 -29 -9 -42 -19 -41 -31 1 -9
-5 -17 -13 -17 -9 0 -11 5 -7 13 5 6 -18 -16 -51 -50 -32 -34 -63 -60 -69 -56
-6 3 -8 3 -4 -2 5 -5 -1 -14 -12 -22 -11 -8 -25 -24 -31 -36 l-12 -22 24 22
c22 19 28 20 62 10 20 -7 37 -15 37 -19 0 -5 4 -8 10 -8 5 0 6 7 3 17 -4 11
-3 14 5 9 7 -4 12 -13 12 -21 0 -8 9 -23 20 -33 19 -18 19 -18 -36 -46 -49
-25 -64 -28 -116 -23 -56 5 -108 -6 -108 -23 0 -3 15 -20 33 -36 32 -30 197
-120 197 -108 0 3 16 -3 36 -15 38 -23 74 -15 74 15 0 29 50 110 110 179 l61
70 -24 20 c-13 11 -48 39 -77 63 -73 58 -50 53 34 -8 38 -27 72 -50 76 -50 4
0 13 34 19 75 7 46 23 99 42 136 17 34 28 63 25 66 -2 3 -34 6 -70 7 -53 2
-70 -2 -86 -16 -20 -19 -20 -18 -20 47 0 73 -15 87 -25 23z"/>
<path d="M7651 4005 c3 -53 -1 -65 -22 -65 -18 0 -19 -2 -9 -15 12 -14 15 -14
31 1 20 18 23 47 8 79 l-9 20 1 -20z"/>
<path d="M7595 3900 c4 -6 -4 -14 -17 -19 -16 -7 -18 -10 -6 -10 40 -2 63 21
32 33 -8 3 -12 2 -9 -4z"/>
<path d="M10283 3718 c-99 -19 -123 -31 -85 -41 15 -4 14 -6 -4 -12 -12 -4
-27 -18 -33 -31 -6 -13 -14 -24 -18 -24 -5 0 -16 -7 -26 -14 -17 -13 -16 -17
2 -92 34 -140 29 -137 92 -53 59 80 100 112 120 92 9 -9 6 -19 -12 -42 -13
-16 -30 -30 -37 -30 -7 -1 -10 -5 -7 -11 3 -5 -2 -10 -12 -10 -19 0 -83 -54
-83 -71 0 -5 7 -12 15 -15 12 -5 12 -9 -2 -30 -15 -23 -15 -43 2 -124 3 -14
-1 -7 -10 14 -8 22 -17 41 -19 43 -2 3 -19 -3 -38 -12 -30 -15 -31 -15 -13 0
11 9 26 20 32 24 7 3 14 19 15 33 1 15 5 25 9 22 4 -2 11 1 15 7 3 6 0 15 -7
20 -15 9 -27 -6 -32 -42 -3 -15 -12 -25 -25 -27 -21 -3 -31 2 -72 40 -18 16
-20 15 -39 -35 -38 -100 -69 -163 -105 -210 -20 -26 -36 -51 -36 -57 0 -5 20
-38 45 -73 25 -36 45 -68 45 -72 0 -5 -23 24 -52 64 -41 57 -55 70 -71 65 -17
-5 -19 -2 -15 20 5 23 3 26 -16 20 -17 -5 -19 -4 -8 7 10 11 2 24 -44 70 l-56
57 -53 -101 c-54 -107 -57 -134 -18 -162 15 -11 14 -13 -6 -20 -13 -4 -51 -7
-86 -8 -61 -1 -66 1 -133 50 -43 32 -74 48 -82 43 -7 -4 -10 -12 -6 -18 4 -6
-2 -25 -13 -43 -25 -40 -19 -53 36 -86 53 -31 109 -45 181 -44 44 0 51 -3 42
-14 -13 -16 3 -30 23 -19 6 4 -18 -24 -54 -62 -63 -66 -66 -71 -68 -121 -1
-35 4 -61 15 -78 9 -14 19 -24 21 -21 3 2 18 0 35 -5 17 -4 66 -9 109 -10 68
-1 80 -5 93 -23 25 -38 53 -66 66 -66 8 0 11 -9 7 -26 -8 -42 18 -57 81 -51
31 3 59 12 63 19 4 7 7 32 5 56 -4 51 4 48 15 -5 6 -34 8 -35 14 -15 7 22 25
31 25 12 0 -21 20 -9 26 16 5 18 0 34 -15 55 -25 34 -17 39 10 7 19 -21 19
-21 41 -2 16 15 20 15 16 3 -5 -12 5 -15 62 -17 40 -2 71 2 75 8 3 6 11 7 17
4 6 -4 14 0 19 7 7 12 9 11 9 -1 0 -23 -50 -92 -99 -135 l-43 -40 28 -12 c16
-7 26 -12 23 -13 -3 0 25 -31 62 -69 51 -52 65 -71 56 -80 -9 -9 -7 -10 7 -5
16 6 18 4 13 -9 -5 -12 -1 -17 12 -17 26 0 73 -40 67 -56 -3 -8 -1 -14 4 -14
6 0 10 -8 10 -17 0 -10 4 -24 9 -31 6 -10 11 -9 22 4 12 15 12 17 -1 12 -13
-5 -15 13 -15 122 0 71 4 132 8 136 4 5 7 -7 6 -26 0 -19 7 -91 16 -160 10
-69 18 -140 19 -157 0 -18 6 -31 11 -30 6 2 9 34 8 75 -3 77 12 137 27 113 11
-19 70 -22 70 -4 0 7 -4 13 -9 13 -5 0 -20 23 -32 50 -18 40 -27 49 -41 44
-14 -4 -18 0 -18 23 0 15 -7 37 -15 47 -12 16 -12 22 -2 28 8 6 7 8 -6 6 -10
-2 -22 7 -30 22 -7 14 -20 25 -29 25 -10 0 -23 6 -29 12 -13 13 -5 43 12 43 6
0 9 -6 6 -14 -5 -13 18 -31 36 -27 10 2 113 -64 121 -78 4 -6 13 -11 19 -11 7
0 1 9 -12 19 -15 12 -21 23 -16 31 6 10 4 12 -7 7 -10 -3 -27 6 -44 24 -18 19
-38 29 -58 30 -17 0 -25 3 -18 6 21 8 13 33 -10 33 l-23 1 24 20 c36 30 66 22
67 -18 0 -36 38 -85 59 -77 7 3 26 -14 44 -38 17 -24 47 -56 66 -71 46 -36 46
-58 0 -23 -49 38 -44 21 10 -31 25 -23 45 -45 45 -49 0 -3 7 -12 15 -20 13
-14 16 -14 21 -1 3 9 0 26 -7 39 -15 26 -20 86 -8 93 4 3 6 21 5 40 -2 19 1
35 5 35 5 0 9 -8 9 -19 0 -10 6 -24 14 -30 12 -10 14 -8 12 11 -1 13 -6 30
-10 37 -5 8 -4 16 3 21 9 5 8 11 -4 24 -9 9 -21 13 -27 10 -8 -5 -8 2 -3 22 5
16 9 41 8 56 0 18 4 25 13 21 8 -3 15 1 16 8 0 8 2 19 2 26 1 6 21 26 44 43
24 17 41 36 39 43 -3 7 7 25 22 41 24 26 24 28 4 17 l-22 -11 17 32 c9 18 23
37 30 41 6 4 12 15 12 23 0 10 5 12 13 8 7 -5 6 0 -3 11 -14 17 -13 18 3 12
12 -4 16 -3 11 4 -4 6 -1 15 6 19 9 5 9 9 1 14 -6 4 -11 2 -11 -3 0 -6 -5 -11
-12 -11 -9 0 -9 3 -1 11 6 6 9 17 7 24 -3 7 0 16 6 20 8 5 8 11 -1 21 -6 8 -8
14 -3 14 18 0 -33 28 -63 34 -17 4 -34 14 -37 21 -3 9 -12 12 -21 9 -11 -5
-18 0 -22 15 -4 16 -11 20 -24 16 -14 -5 -19 -1 -19 14 0 11 -5 23 -11 27 -6
3 -8 15 -5 26 4 19 1 20 -37 15 l-42 -6 40 19 c22 10 41 24 41 29 1 6 2 16 3
22 0 6 7 9 14 6 9 -3 13 2 13 15 -1 12 6 23 14 26 12 4 13 3 3 -10 -7 -8 -10
-18 -6 -21 12 -12 32 28 27 53 -5 20 -3 22 5 10 7 -9 11 -10 11 -3 0 6 -4 14
-10 18 -5 3 -7 12 -3 20 3 9 -1 15 -11 15 -9 0 -16 7 -16 16 0 8 -4 13 -9 10
-5 -3 -11 1 -15 9 -3 8 -12 15 -20 15 -9 0 -16 11 -18 28 -2 16 -8 26 -16 24
-8 -1 -11 2 -7 8 3 5 2 10 -2 10 -5 0 -9 9 -9 20 0 10 2 17 5 15 7 -8 30 29
31 48 0 9 3 17 6 17 4 0 13 -8 20 -17 12 -17 12 -17 11 2 -2 15 4 20 20 19 12
0 20 3 18 7 -6 9 64 51 75 44 4 -3 10 2 14 10 3 8 10 15 16 15 15 0 41 26 33
34 -4 3 4 17 17 31 13 14 20 28 17 32 -4 3 -7 1 -7 -5 0 -7 -5 -12 -11 -12 -7
0 -5 10 5 25 9 14 12 25 7 25 -5 0 -14 14 -20 30 -5 17 -16 30 -24 30 -8 0
-20 6 -26 14 -21 26 -65 29 -102 7 -45 -25 -196 -45 -235 -31 -16 6 -36 13
-44 16 -12 4 -12 7 -1 13 27 17 -1 31 -57 30 -31 0 -103 -10 -159 -21z m150
-25 c11 -6 9 -41 -3 -48 -11 -7 -99 45 -100 58 0 8 87 -1 103 -10z m47 7 c0
-5 -4 -10 -9 -10 -6 0 -13 5 -16 10 -3 6 1 10 9 10 9 0 16 -4 16 -10z m-19
-141 c-15 -134 -15 -132 10 -124 15 5 19 4 15 -4 -13 -20 -80 -13 -94 10 -12
18 -11 19 6 10 16 -9 21 -7 26 12 3 12 6 31 6 42 0 30 34 178 38 165 2 -6 -1
-55 -7 -111z m283 -88 c7 -10 -54 -21 -109 -20 -35 1 -33 3 25 14 36 7 68 13
72 14 4 0 9 -3 12 -8z m-155 -25 c-11 -9 -69 -15 -64 -6 3 6 20 10 37 10 17 0
29 -2 27 -4z m-335 -30 c-4 -17 1 -31 15 -45 12 -12 26 -19 30 -17 5 3 9 -6 9
-19 0 -35 -13 -31 -39 13 -13 20 -25 39 -28 42 -5 4 -6 18 -2 43 0 4 6 7 11 7
6 0 8 -10 4 -24z m-34 -30 c0 -3 -4 -8 -10 -11 -5 -3 -10 -1 -10 4 0 6 5 11
10 11 6 0 10 -2 10 -4z m232 -119 c2 -48 0 -67 -9 -67 -15 0 -19 145 -5 177 8
20 9 9 14 -110z m-42 -86 c0 -16 -20 -23 -46 -17 -36 9 -29 26 11 26 19 0 35
-4 35 -9z m-95 -98 c-11 -3 -30 -14 -42 -25 -12 -11 -26 -17 -32 -13 -18 11
-12 -15 10 -47 12 -16 19 -32 16 -34 -3 -3 -11 5 -18 17 -7 13 -19 30 -26 38
-13 12 -16 12 -23 0 -13 -20 -19 -8 -13 23 5 29 43 44 113 45 19 0 26 -2 15
-4z m161 -40 c31 -36 132 -239 140 -280 5 -26 3 -33 -9 -33 -11 0 -14 5 -10
17 5 13 2 15 -15 11 -12 -3 -26 0 -32 7 -6 8 -19 11 -28 8 -14 -6 -15 -4 -4 9
10 13 10 17 -5 23 -10 5 -22 9 -27 9 -5 1 -11 7 -14 15 -3 10 0 12 12 8 9 -4
16 -2 16 3 0 5 7 6 17 3 11 -4 14 -3 9 5 -4 7 -2 12 3 12 6 0 11 5 11 11 0 5
-5 7 -12 3 -8 -5 -9 -2 -5 9 3 10 2 17 -4 17 -6 0 -7 5 -4 11 4 6 -2 13 -14
16 -12 3 -21 12 -21 19 0 8 -4 14 -9 14 -10 0 -22 40 -26 83 -2 34 2 34 31 0z
m-344 -153 c-2 -25 -4 -92 -5 -150 l-2 -105 -25 2 c-72 6 -99 4 -138 -8 -45
-14 -66 -8 -86 24 -8 12 -5 22 11 39 23 24 73 129 73 152 0 16 31 30 39 18 10
-14 41 -22 41 -10 0 18 64 87 80 85 11 -2 14 -13 12 -47z m554 -341 c20 -55
17 -78 -12 -89 -41 -16 -129 -1 -180 31 -24 16 -49 29 -54 29 -5 0 -12 5 -16
11 -3 6 1 10 12 9 11 -1 26 -2 34 -1 13 1 13 2 0 11 -11 7 -1 10 35 11 28 0
73 7 100 14 64 16 66 15 81 -26z m-751 -72 c2 -16 0 -16 -16 -1 -22 20 -33 50
-23 65 8 13 37 -34 39 -64z m453 8 c-3 -3 -9 2 -12 12 -6 14 -5 15 5 6 7 -7
10 -15 7 -18z m49 -22 c-3 -10 -5 -4 -5 12 0 17 2 24 5 18 2 -7 2 -21 0 -30z
m-87 -78 c7 -8 8 -15 2 -15 -5 0 -15 7 -22 15 -7 8 -8 15 -2 15 5 0 15 -7 22
-15z m373 0 c-3 -9 -8 -14 -10 -11 -3 3 -2 9 2 15 9 16 15 13 8 -4z m14 -90
c0 -8 -4 -12 -9 -9 -5 3 -6 10 -3 15 9 13 12 11 12 -6z"/>
<path d="M7921 3610 c1 -32 5 -57 9 -55 12 7 20 65 14 91 -11 45 -25 24 -23
-36z"/>
<path d="M8520 3555 c7 -9 15 -13 17 -11 7 7 -7 26 -19 26 -6 0 -6 -6 2 -15z"/>
<path d="M7859 3373 c-13 -16 -12 -17 4 -4 9 7 17 15 17 17 0 8 -8 3 -21 -13z"/>
<path d="M7820 3350 c-9 -6 -10 -10 -3 -10 6 0 15 5 18 10 8 12 4 12 -15 0z"/>
<path d="M2518 3254 c-12 -11 -10 -102 2 -109 6 -4 10 5 10 19 0 14 5 26 10
26 6 0 10 -9 10 -19 0 -11 5 -23 10 -26 6 -4 10 7 10 25 0 23 -5 33 -19 37
-12 3 -21 15 -23 30 -2 14 -6 21 -10 17z"/>
<path d="M2822 3248 c-18 -18 -14 -46 8 -58 11 -6 20 -15 20 -20 0 -15 -28
-12 -33 3 -2 6 -8 9 -12 5 -5 -5 0 -17 10 -28 17 -19 19 -19 37 -4 23 22 23
41 -2 54 -23 12 -27 35 -5 26 19 -7 20 8 2 23 -10 8 -17 7 -25 -1z"/>
<path d="M4698 3254 c-12 -11 -9 -102 3 -109 5 -4 21 -4 35 -1 20 5 25 12 22
34 -2 19 -10 28 -25 30 -15 2 -23 11 -25 29 -2 14 -6 21 -10 17z m42 -80 c0
-17 -22 -14 -28 4 -2 7 3 12 12 12 9 0 16 -7 16 -16z"/>
<path d="M5377 3253 c-11 -10 -8 -113 3 -113 6 0 10 10 11 23 1 12 2 39 3 60
3 35 -3 45 -17 30z"/>
<path d="M2040 3195 c0 -52 1 -55 25 -55 14 0 25 5 25 10 0 6 -7 10 -15 10
-11 0 -15 12 -15 45 0 25 -4 45 -10 45 -5 0 -10 -25 -10 -55z"/>
<path d="M2905 3235 c-3 -8 -7 -22 -10 -31 -4 -11 0 -14 14 -9 12 3 21 0 25
-10 6 -17 -16 -31 -34 -20 -5 3 -10 2 -10 -4 0 -16 18 -23 40 -16 24 8 26 42
3 67 -15 17 -15 18 0 18 10 0 17 5 17 10 0 16 -40 12 -45 -5z"/>
<path d="M2986 3234 c-20 -19 -21 -54 -2 -79 16 -23 42 -14 58 19 9 20 8 30
-6 51 -19 29 -29 31 -50 9z m38 -20 c9 -23 -3 -56 -17 -51 -22 7 -21 67 2 67
5 0 12 -7 15 -16z"/>
<path d="M3110 3197 c0 -31 5 -57 10 -57 6 0 10 14 10 30 0 38 7 38 41 -2 l28
-33 1 58 c0 36 -4 56 -10 52 -5 -3 -10 -18 -10 -33 l0 -26 -35 34 -35 34 0
-57z"/>
<path d="M3367 3243 c-4 -3 -7 -28 -7 -55 0 -44 2 -48 23 -48 29 0 57 29 57
58 0 31 -54 65 -73 45z m37 -19 c31 -12 14 -64 -20 -64 -2 0 -4 16 -4 35 0 38
0 38 24 29z"/>
<path d="M4157 3232 c-9 -10 -17 -28 -17 -39 0 -25 33 -56 56 -51 29 5 26 24
-3 23 -24 0 -28 4 -28 30 0 26 4 30 28 30 15 -1 26 4 24 10 -6 18 -43 16 -60
-3z"/>
<path d="M4967 3203 c8 -69 25 -81 21 -14 -2 30 -8 56 -14 58 -8 3 -10 -11 -7
-44z"/>
<path d="M5036 3234 c-20 -19 -20 -54 -2 -80 12 -15 18 -17 33 -8 21 13 29 69
12 90 -15 18 -24 18 -43 -2z m38 -20 c9 -23 -3 -56 -17 -51 -22 7 -21 67 2 67
5 0 12 -7 15 -16z"/>
<path d="M5122 3238 c-17 -17 -15 -73 4 -89 35 -29 69 34 44 81 -12 23 -30 26
-48 8z m36 -46 c2 -24 -1 -32 -12 -32 -12 0 -16 10 -16 36 0 45 24 42 28 -4z"/>
<path d="M5201 3236 c-16 -19 -6 -36 20 -36 15 0 20 6 17 22 -4 27 -21 33 -37
14z m29 -16 c0 -5 -4 -10 -10 -10 -5 0 -10 5 -10 10 0 6 5 10 10 10 6 0 10 -4
10 -10z"/>
<path d="M5730 3201 c0 -28 5 -53 10 -56 6 -4 10 5 10 19 0 14 5 26 10 26 6 0
10 -9 10 -19 0 -11 5 -23 10 -26 6 -4 10 7 10 25 0 23 -5 33 -20 37 -11 3 -20
14 -20 24 0 11 -4 19 -10 19 -5 0 -10 -22 -10 -49z"/>
<path d="M3460 3229 c0 -5 5 -7 10 -4 6 3 10 8 10 11 0 2 -4 4 -10 4 -5 0 -10
-5 -10 -11z"/>
<path d="M5259 3218 c-7 -13 -19 -34 -28 -48 -10 -15 -11 -21 -3 -16 13 8 56
86 48 86 -3 0 -11 -10 -17 -22z"/>
<path d="M5810 3230 c0 -5 5 -10 10 -10 6 0 10 5 10 10 0 6 -4 10 -10 10 -5 0
-10 -4 -10 -10z"/>
<path d="M6020 3229 c0 -5 5 -7 10 -4 6 3 10 8 10 11 0 2 -4 4 -10 4 -5 0 -10
-5 -10 -11z"/>
<path d="M2470 3185 c0 -25 4 -45 9 -45 10 0 21 59 14 78 -11 27 -23 9 -23
-33z"/>
<path d="M3867 3217 c-3 -8 -2 -29 3 -48 9 -39 10 -38 15 13 4 37 -8 60 -18
35z"/>
<path d="M4857 3217 c-3 -8 -2 -29 3 -48 9 -39 10 -38 16 13 3 37 -9 60 -19
35z"/>
<path d="M2103 3194 c-15 -39 38 -67 60 -32 8 12 7 21 -2 32 -17 21 -50 20
-58 0z m47 -19 c0 -8 -7 -15 -15 -15 -8 0 -15 7 -15 15 0 8 7 15 15 15 8 0 15
-7 15 -15z"/>
<path d="M2180 3205 c0 -2 5 -16 12 -30 12 -26 28 -34 28 -12 1 7 6 4 15 -6
13 -18 14 -17 30 13 18 35 12 54 -8 25 -13 -17 -14 -17 -21 1 -6 16 -9 16 -17
4 -8 -11 -12 -12 -16 -2 -4 11 -23 18 -23 7z"/>
<path d="M2294 3196 c-11 -29 0 -51 26 -51 21 0 25 5 25 30 0 24 -5 31 -23 33
-13 2 -24 -3 -28 -12z"/>
<path d="M2370 3174 c0 -21 4 -33 10 -29 6 3 10 15 10 26 0 10 5 19 10 19 6 0
10 5 10 10 0 6 -9 10 -20 10 -16 0 -20 -7 -20 -36z"/>
<path d="M2593 3194 c-9 -24 10 -49 38 -49 20 0 24 5 24 30 0 25 -4 30 -28 33
-18 2 -29 -2 -34 -14z m47 -19 c0 -8 -7 -15 -15 -15 -8 0 -15 7 -15 15 0 8 7
15 15 15 8 0 15 -7 15 -15z"/>
<path d="M2680 3174 c0 -21 4 -33 10 -29 6 3 10 15 10 26 0 29 18 23 23 -8 3
-23 4 -21 6 10 1 33 -2 37 -24 37 -22 0 -25 -4 -25 -36z"/>
<path d="M3231 3196 c-9 -11 -10 -20 -1 -35 13 -26 46 -27 59 -3 20 38 -31 71
-58 38z m44 -15 c7 -12 -12 -24 -25 -16 -11 7 -4 25 10 25 5 0 11 -4 15 -9z"/>
<path d="M3460 3175 c0 -22 4 -34 10 -30 6 3 10 17 10 30 0 13 -4 27 -10 30
-6 4 -10 -8 -10 -30z"/>
<path d="M3500 3197 c0 -7 5 -18 12 -25 9 -9 9 -12 0 -12 -7 0 -12 -4 -12 -10
0 -5 7 -10 15 -10 19 0 33 32 17 38 -6 2 -8 10 -5 18 3 8 -1 14 -11 14 -9 0
-16 -6 -16 -13z"/>
<path d="M3561 3192 c-12 -23 4 -52 29 -52 26 0 26 16 0 23 -11 3 -20 10 -20
16 0 6 9 11 20 11 11 0 20 5 20 10 0 17 -39 11 -49 -8z"/>
<path d="M3632 3198 c-26 -26 1 -65 38 -53 16 5 20 14 18 33 -3 30 -35 41 -56
20z m38 -23 c0 -8 -7 -15 -15 -15 -8 0 -15 7 -15 15 0 8 7 15 15 15 8 0 15 -7
15 -15z"/>
<path d="M3712 3178 c2 -25 8 -33 22 -33 25 0 41 27 31 51 -8 17 -9 16 -13 -8
-4 -35 -22 -37 -22 -3 0 14 -5 25 -11 25 -6 0 -9 -14 -7 -32z"/>
<path d="M3790 3174 c0 -21 4 -33 10 -29 6 3 10 15 10 26 0 10 5 19 10 19 6 0
10 -12 10 -27 0 -20 3 -24 11 -16 7 7 9 23 5 37 -5 19 -13 26 -31 26 -22 0
-25 -4 -25 -36z"/>
<path d="M3962 3198 c-26 -26 1 -65 38 -53 16 5 20 14 18 33 -3 30 -35 41 -56
20z m38 -23 c0 -8 -7 -15 -15 -15 -8 0 -15 7 -15 15 0 8 7 15 15 15 8 0 15 -7
15 -15z"/>
<path d="M4040 3175 c0 -19 5 -35 10 -35 6 0 10 11 10 25 0 14 5 25 10 25 6 0
10 5 10 10 0 6 -9 10 -20 10 -16 0 -20 -7 -20 -35z"/>
<path d="M4241 3192 c-12 -23 4 -52 29 -52 25 0 41 30 29 53 -13 22 -46 22
-58 -1z m49 -11 c0 -14 -18 -23 -30 -16 -6 4 -8 11 -5 16 8 12 35 12 35 0z"/>
<path d="M4325 3196 c-10 -24 6 -51 31 -51 14 0 20 8 22 33 2 18 -1 32 -7 32
-6 0 -11 -11 -11 -25 0 -34 -18 -32 -22 3 -4 24 -5 25 -13 8z"/>
<path d="M4400 3160 c0 -27 5 -50 10 -50 6 0 10 6 10 14 0 7 9 16 20 19 45 12
31 67 -16 67 -22 0 -24 -4 -24 -50z m50 15 c0 -8 -7 -15 -15 -15 -8 0 -15 7
-15 15 0 8 7 15 15 15 8 0 15 -7 15 -15z"/>
<path d="M4492 3198 c-26 -26 1 -65 38 -53 16 5 20 14 18 33 -3 30 -35 41 -56
20z m38 -23 c0 -8 -7 -15 -15 -15 -8 0 -15 7 -15 15 0 8 7 15 15 15 8 0 15 -7
15 -15z"/>
<path d="M4570 3176 c0 -20 5 -36 10 -36 6 0 10 11 10 25 0 14 5 25 10 25 6 0
10 -12 10 -27 0 -19 3 -24 11 -16 6 6 9 21 7 34 -2 18 -10 25 -30 27 -26 3
-28 1 -28 -32z"/>
<path d="M4782 3178 c2 -25 8 -33 22 -33 25 0 41 27 31 51 -8 17 -9 16 -13 -8
-4 -35 -22 -37 -22 -3 0 14 -5 25 -11 25 -6 0 -9 -14 -7 -32z"/>
<path d="M5420 3174 c0 -21 4 -33 10 -29 6 4 8 11 4 16 -3 6 2 19 12 30 16 18
16 19 -4 19 -18 0 -22 -6 -22 -36z"/>
<path d="M5477 3204 c-15 -16 -7 -53 14 -59 27 -9 42 6 37 36 -3 24 -36 38
-51 23z"/>
<path d="M5557 3204 c-11 -11 -8 -52 3 -59 6 -3 19 -3 31 0 28 9 23 59 -6 63
-12 2 -24 0 -28 -4z"/>
<path d="M5674 3198 c-4 -6 1 -17 10 -24 16 -12 16 -13 -1 -17 -17 -4 -17 -4
1 -12 20 -9 41 14 26 29 -4 4 -6 15 -3 22 6 17 -23 19 -33 2z"/>
<path d="M5810 3181 c0 -17 5 -33 10 -36 6 -4 10 8 10 29 0 20 -4 36 -10 36
-5 0 -10 -13 -10 -29z"/>
<path d="M5850 3160 c0 -27 5 -50 10 -50 6 0 10 6 10 14 0 7 9 16 20 19 45 12
31 67 -16 67 -22 0 -24 -4 -24 -50z m50 15 c0 -8 -7 -15 -15 -15 -8 0 -15 7
-15 15 0 8 7 15 15 15 8 0 15 -7 15 -15z"/>
<path d="M5937 3204 c-11 -11 -8 -94 3 -94 6 0 10 6 10 13 0 7 10 17 23 22 33
15 31 59 -3 63 -14 2 -29 0 -33 -4z m43 -29 c0 -8 -7 -15 -15 -15 -8 0 -15 7
-15 15 0 8 7 15 15 15 8 0 15 -7 15 -15z"/>
<path d="M6020 3174 c0 -21 4 -33 10 -29 6 3 10 19 10 36 0 16 -4 29 -10 29
-5 0 -10 -16 -10 -36z"/>
<path d="M6060 3174 c0 -21 4 -33 10 -29 6 3 10 15 10 26 0 10 5 19 10 19 6 0
10 -12 10 -26 0 -14 4 -22 10 -19 5 3 8 16 6 28 -3 12 -5 25 -5 30 -1 4 -12 7
-26 7 -22 0 -25 -4 -25 -36z"/>
<path d="M6140 3195 c-7 -9 -9 -22 -5 -32 5 -10 9 -25 9 -33 1 -19 36 -26 47
-8 5 7 9 30 9 51 0 32 -3 37 -24 37 -13 0 -29 -7 -36 -15z m40 -20 c0 -8 -7
-15 -15 -15 -8 0 -15 7 -15 15 0 8 7 15 15 15 8 0 15 -7 15 -15z m0 -39 c0
-11 -19 -15 -25 -6 -3 5 1 10 9 10 9 0 16 -2 16 -4z"/>
<path d="M5263 3174 c-3 -8 -1 -20 6 -27 14 -14 47 15 37 32 -10 16 -36 13
-43 -5z m27 -4 c0 -5 -5 -10 -11 -10 -5 0 -7 5 -4 10 3 6 8 10 11 10 2 0 4 -4
4 -10z"/>
<path d="M6225 3150 c3 -5 8 -10 11 -10 2 0 4 5 4 10 0 6 -5 10 -11 10 -5 0
-7 -4 -4 -10z"/>
<path d="M8406 3101 c-21 -22 -37 -43 -35 -49 8 -19 386 -365 434 -396 55 -36
183 -163 219 -217 39 -59 78 -141 108 -229 24 -69 28 -95 23 -135 -3 -27 -8
-64 -10 -82 -4 -33 -27 -65 -84 -119 -34 -32 -110 -62 -129 -50 -5 3 -40 8
-78 11 -76 6 -197 42 -289 86 -72 34 -173 122 -232 203 -39 52 -427 426 -443
426 -3 0 -24 -18 -45 -41 l-40 -41 80 -71 c79 -72 267 -247 654 -610 265 -249
335 -310 340 -294 2 6 16 24 32 39 16 15 29 31 29 36 0 5 -19 26 -42 46 -65
59 -233 220 -236 228 -2 4 37 -9 86 -29 79 -31 101 -46 192 -131 93 -86 104
-93 111 -74 4 11 23 31 42 44 l35 23 -29 35 c-26 31 -27 35 -13 51 19 21 33
19 68 -9 16 -12 31 -22 35 -21 3 0 24 21 45 45 l39 45 -64 66 c-35 36 -54 60
-42 54 27 -14 36 -14 28 0 -4 5 -8 21 -10 35 -3 28 -6 30 81 -48 l42 -37 45
42 45 42 -115 110 c-103 99 -119 119 -157 198 -23 48 -40 87 -38 87 2 0 65
-57 140 -127 75 -70 149 -138 165 -152 l27 -25 40 39 c22 22 39 42 38 45 -2 4
-149 143 -328 310 -179 167 -412 389 -519 492 -106 103 -197 188 -200 188 -4
0 -24 -18 -45 -39z m501 -1287 c-3 -3 -12 -4 -19 -1 -8 3 -5 6 6 6 11 1 17 -2
13 -5z"/>
<path d="M8269 2954 l-44 -46 79 -73 78 -73 84 2 c46 0 83 3 81 6 -1 3 -54 56
-118 118 l-116 111 -44 -45z"/>
<path d="M8801 2925 c1 -10 89 -92 89 -83 0 2 -20 24 -45 48 -25 24 -45 40
-44 35z"/>
<path d="M2042 2898 c-17 -17 -17 -409 0 -426 18 -18 1511 -17 1526 1 16 19
17 403 2 423 -11 12 -121 14 -764 14 -572 0 -755 -3 -764 -12z m1371 -192 l26
-33 -29 -22 c-37 -26 -49 -27 -25 -1 18 20 17 20 -18 20 -21 0 -37 5 -37 10 0
6 16 10 37 10 34 0 35 1 20 18 -19 21 -22 32 -8 32 5 0 20 -15 34 -34z m-1117
-21 c-1 -52 -21 -57 -21 -5 -1 39 2 50 14 50 4 0 7 -20 7 -45z m364 -5 c0 -27
-4 -50 -10 -50 -5 0 -10 23 -10 50 0 28 5 50 10 50 6 0 10 -22 10 -50z m40 0
c0 -27 -4 -50 -10 -50 -5 0 -10 23 -10 50 0 28 5 50 10 50 6 0 10 -22 10 -50z
m340 5 c0 -49 -18 -67 -49 -48 -23 15 -20 46 7 58 12 5 22 15 22 22 0 7 5 13
10 13 6 0 10 -20 10 -45z m-833 14 c6 -21 6 -21 24 2 23 31 35 18 19 -20 -22
-53 -37 -57 -55 -16 -18 44 -19 55 -4 55 6 0 13 -10 16 -21z m406 -16 c17 -42
13 -60 -9 -42 -7 6 -21 9 -29 5 -32 -12 -35 -3 -15 50 14 35 36 29 53 -13z
m211 20 c7 -17 -46 -78 -58 -66 -3 3 -6 24 -6 45 0 35 2 38 29 38 18 0 31 -6
35 -17z m402 -6 c7 -19 -14 -69 -26 -62 -11 7 -14 58 -3 68 10 11 23 8 29 -6z
m-858 -26 c5 -30 -10 -45 -37 -36 -13 4 -21 15 -21 30 0 40 53 46 58 6z m39
13 c5 -14 7 -14 16 2 9 16 11 16 22 0 11 -14 13 -15 19 -1 3 8 10 15 16 15 16
0 12 -26 -9 -51 -18 -22 -20 -22 -26 -6 -7 17 -8 17 -20 0 -11 -15 -14 -14
-29 15 -19 36 -20 42 -6 42 6 0 13 -7 17 -16z m473 -1 c0 -7 -4 -13 -10 -13
-5 0 -10 -6 -10 -14 0 -8 -4 -18 -10 -21 -6 -4 -10 8 -10 29 0 29 4 34 20 33
11 -1 20 -7 20 -14z m64 11 c24 -9 20 -51 -4 -59 -37 -12 -64 27 -38 53 14 14
20 14 42 6z m136 -20 c0 -14 4 -23 10 -19 6 3 10 15 10 26 0 10 5 19 11 19 6
0 9 -14 7 -32 -2 -28 -7 -33 -28 -33 -21 0 -26 5 -28 33 -2 18 1 32 7 32 6 0
11 -12 11 -26z m100 12 c0 -8 -6 -17 -12 -19 -10 -4 -9 -8 2 -16 18 -12 7 -26
-15 -17 -22 8 -29 34 -15 51 16 19 40 19 40 1z"/>
<path d="M3000 2659 c0 -5 5 -7 10 -4 6 3 10 8 10 11 0 2 -4 4 -10 4 -5 0 -10
-5 -10 -11z"/>
<path d="M2920 2659 c0 -5 5 -7 10 -4 6 3 10 8 10 11 0 2 -4 4 -10 4 -5 0 -10
-5 -10 -11z"/>
<path d="M8121 2803 c-17 -21 -31 -40 -31 -44 0 -7 136 -129 144 -129 8 0 75
73 76 82 0 13 -126 128 -142 128 -9 0 -30 -17 -47 -37z"/>
<path d="M8910 2818 c8 -8 47 -43 85 -78 l70 -64 -65 68 c-36 37 -74 72 -85
78 -18 9 -18 9 -5 -4z"/>
<path d="M10930 2780 c0 -6 7 -10 15 -10 8 0 15 2 15 4 0 2 -7 6 -15 10 -8 3
-15 1 -15 -4z"/>
<path d="M7986 2661 c-21 -22 -37 -43 -35 -48 4 -9 245 -233 251 -233 2 0 2
38 1 84 l-1 83 -59 56 c-58 55 -108 97 -115 97 -2 0 -21 -18 -42 -39z"/>
<path d="M9180 2565 c19 -19 36 -35 39 -35 3 0 -10 16 -29 35 -19 19 -36 35
-39 35 -3 0 10 -16 29 -35z"/>
<path d="M10790 2469 c0 -5 5 -7 10 -4 6 3 10 8 10 11 0 2 -4 4 -10 4 -5 0
-10 -5 -10 -11z"/>
<path d="M9300 2457 c0 -2 15 -16 33 -33 l32 -29 -29 33 c-28 30 -36 37 -36
29z"/>
<path d="M7897 2253 c60 -58 107 -111 105 -116 -1 -5 7 -11 18 -14 11 -3 20
-9 20 -14 0 -5 7 -9 15 -9 8 0 15 -7 15 -15 0 -9 7 -18 16 -22 9 -3 89 -78
177 -165 87 -87 162 -158 166 -158 3 0 57 -50 119 -110 62 -61 116 -110 119
-110 3 0 14 -11 25 -25 11 -14 26 -25 34 -25 8 0 14 -4 14 -8 0 -5 11 -14 25
-20 14 -6 25 -19 25 -28 0 -10 3 -14 6 -11 4 4 21 -3 38 -14 47 -31 -93 103
-449 432 -176 162 -379 350 -452 417 -72 67 -134 122 -137 122 -4 0 42 -48
101 -107z"/>
<path d="M10560 2151 c0 -5 7 -14 16 -21 8 -8 21 -27 28 -44 8 -17 24 -42 36
-56 l22 -25 -5 35 c-3 25 -17 48 -47 78 -46 44 -50 47 -50 33z"/>
<path d="M9526 1962 c-66 -70 -230 -241 -364 -381 l-244 -254 23 -18 c13 -10
30 -19 37 -19 6 0 12 -6 12 -13 0 -16 67 -50 74 -38 3 5 16 6 28 4 22 -4 82
19 73 29 -2 2 20 24 50 49 30 24 54 49 55 54 1 14 68 85 80 85 6 0 10 5 10 10
0 6 15 24 34 40 18 16 44 45 57 65 13 19 30 33 37 30 7 -3 10 0 7 6 -4 6 23
39 59 73 36 35 66 69 66 75 0 7 5 9 10 6 6 -3 10 -3 10 2 0 4 18 28 40 53 22
24 40 50 40 56 0 7 5 14 11 16 6 2 12 26 14 53 3 48 1 52 -43 97 -26 26 -49
48 -52 48 -3 0 -59 -57 -124 -128z"/>
<path d="M10666 1977 c3 -10 9 -15 12 -12 3 3 0 11 -7 18 -10 9 -11 8 -5 -6z"/>
<path d="M10752 1899 c-13 -16 -21 -33 -17 -39 3 -5 -1 -10 -11 -10 -14 0 -14
-3 -4 -15 12 -14 16 -13 42 12 16 15 24 29 18 31 -7 3 -6 10 5 22 12 14 13 19
3 22 -7 3 -23 -8 -36 -23z"/>
<path d="M7640 1851 c-7 -13 -7 -22 0 -26 11 -7 11 -8 14 23 3 27 0 28 -14 3z"/>
<path d="M7520 1819 c0 -5 5 -7 10 -4 6 3 10 8 10 11 0 2 -4 4 -10 4 -5 0 -10
-5 -10 -11z"/>
<path d="M7740 1782 c0 -23 5 -42 10 -42 16 0 16 57 -1 75 -5 5 -9 -7 -9 -33z"/>
<path d="M7565 1800 c-3 -5 -1 -11 4 -15 6 -3 8 -12 4 -20 -3 -10 2 -15 16
-15 32 0 36 1 34 11 -2 5 8 4 22 -1 l25 -10 -15 30 c-16 32 -30 38 -38 18 -3
-10 -9 -10 -25 -1 -12 7 -23 9 -27 3z"/>
<path d="M10722 1785 c0 -16 2 -22 5 -12 2 9 2 23 0 30 -3 6 -5 -1 -5 -18z"/>
<path d="M7697 1784 c-12 -13 -7 -20 13 -20 11 0 19 5 17 10 -4 13 -21 18 -30
10z"/>
<path d="M7520 1760 c20 -13 33 -13 25 0 -3 6 -14 10 -23 10 -15 0 -15 -2 -2
-10z"/>
<path d="M10720 1735 c0 -8 4 -15 10 -15 5 0 7 7 4 15 -4 8 -8 15 -10 15 -2 0
-4 -7 -4 -15z"/>
<path d="M7560 1716 c7 -7 13 -7 20 0 6 6 3 10 -10 10 -13 0 -16 -4 -10 -10z"/>
<path d="M7751 1694 c0 -11 3 -14 6 -6 3 7 2 16 -1 19 -3 4 -6 -2 -5 -13z"/>
<path d="M7560 1689 c0 -5 5 -7 10 -4 6 3 10 8 10 11 0 2 -4 4 -10 4 -5 0 -10
-5 -10 -11z"/>
<path d="M10705 1682 c-3 -9 -10 -35 -14 -57 -5 -22 -12 -48 -16 -59 -6 -14
-4 -17 5 -14 15 5 51 136 39 143 -4 3 -10 -3 -14 -13z"/>
<path d="M7741 1634 c0 -11 3 -14 6 -6 3 7 2 16 -1 19 -3 4 -6 -2 -5 -13z"/>
<path d="M7709 1583 l-24 -28 28 24 c15 14 27 26 27 28 0 8 -8 1 -31 -24z"/>
<path d="M7640 1550 c-21 -7 -21 -8 -5 -9 11 0 27 4 35 9 18 11 5 11 -30 0z"/>
<path d="M2196 1531 c-11 -12 -15 -27 -11 -40 7 -24 43 -37 58 -22 11 11 9 12
-15 15 -22 2 -20 33 3 39 11 3 18 10 14 16 -10 17 -30 13 -49 -8z"/>
<path d="M2027 1533 c-3 -5 -4 -21 -3 -38 1 -22 6 -31 22 -33 28 -4 43 17 37
51 -4 20 -11 27 -29 27 -12 0 -25 -3 -27 -7z"/>
<path d="M2112 1515 c-7 -14 -12 -32 -12 -40 0 -18 17 -20 23 -2 3 9 9 9 26
-1 24 -14 28 -2 11 42 -12 33 -34 33 -48 1z"/>
<path d="M2262 1503 c2 -21 8 -36 13 -34 6 1 9 8 7 14 -2 6 6 3 17 -7 26 -23
37 -16 20 12 -10 17 -10 23 0 36 11 13 11 16 -1 16 -8 0 -19 -5 -26 -12 -9 -9
-12 -9 -12 0 0 7 -5 12 -11 12 -6 0 -9 -16 -7 -37z"/>
<path d="M2402 1493 c2 -27 8 -48 13 -48 6 0 11 21 13 48 3 38 0 47 -13 47
-13 0 -16 -9 -13 -47z"/>
<path d="M2728 1533 c7 -3 16 -2 19 1 4 3 -2 6 -13 5 -11 0 -14 -3 -6 -6z"/>
<path d="M7573 1533 c9 -2 23 -2 30 0 6 3 -1 5 -18 5 -16 0 -22 -2 -12 -5z"/>
<path d="M2671 1504 c0 -11 3 -14 6 -6 3 7 2 16 -1 19 -3 4 -6 -2 -5 -13z"/>
<path d="M2732 1495 c0 -16 2 -22 5 -12 2 9 2 23 0 30 -3 6 -5 -1 -5 -18z"/>
<path d="M105 1191 c-3 -6 -1 -11 5 -11 6 0 8 -5 4 -11 -4 -7 -1 -10 7 -7 17
6 19 30 2 35 -6 2 -14 -1 -18 -6z"/>
<path d="M306 1192 c-2 -4 -1 -14 4 -22 7 -11 12 -12 21 -3 6 6 8 16 5 22 -8
13 -23 14 -30 3z"/>
<path d="M506 1192 c-2 -4 -1 -14 4 -22 7 -11 12 -12 21 -3 6 6 8 16 5 22 -8
13 -23 14 -30 3z"/>
<path d="M110 890 c0 -19 11 -26 23 -14 8 8 -3 34 -14 34 -5 0 -9 -9 -9 -20z"/>
<path d="M306 902 c-9 -14 9 -31 23 -23 7 5 10 14 7 20 -8 13 -23 14 -30 3z"/>
<path d="M506 902 c-2 -4 -1 -14 4 -22 7 -11 12 -12 21 -3 6 6 8 16 5 22 -8
13 -23 14 -30 3z"/>
<path d="M113 599 c-2 -19 11 -26 21 -10 3 5 0 14 -7 19 -10 8 -13 6 -14 -9z"/>
<path d="M306 612 c-2 -4 -1 -14 4 -22 7 -11 12 -12 21 -3 6 6 8 16 5 22 -8
13 -23 14 -30 3z"/>
<path d="M506 612 c-2 -4 -1 -14 4 -22 7 -11 12 -12 21 -3 6 6 8 16 5 22 -8
13 -23 14 -30 3z"/>
<path d="M3012 513 c-2 -60 -1 -63 21 -62 16 1 17 3 5 6 -13 3 -18 18 -21 61
l-3 57 -2 -62z"/>
<path d="M3087 563 c-4 -3 -7 -30 -7 -60 l0 -53 38 1 c30 2 32 3 10 6 -22 3
-28 10 -28 28 0 18 6 25 28 28 l27 4 -28 2 c-21 1 -28 5 -25 19 2 9 11 17 20
17 9 0 20 4 24 8 4 4 -6 7 -23 7 -16 0 -33 -3 -36 -7z"/>
<path d="M3187 563 c-4 -3 -7 -30 -7 -60 0 -52 1 -53 28 -53 55 0 83 68 44
103 -19 17 -53 22 -65 10z m51 -19 c12 -8 22 -24 22 -34 0 -17 -34 -50 -52
-50 -5 0 -8 23 -8 50 0 54 4 58 38 34z"/>
<path d="M3369 554 c-11 -14 -9 -20 18 -43 30 -26 34 -51 8 -51 -7 0 -15 6
-18 13 -2 6 -8 9 -12 4 -14 -12 11 -29 36 -25 35 5 37 38 4 64 -30 24 -26 49
7 38 14 -4 18 -2 14 5 -10 16 -42 13 -57 -5z"/>
<path d="M3470 565 c-3 -5 -3 -35 1 -65 4 -36 6 -44 7 -22 2 30 5 33 29 30 22
-2 29 -10 34 -33 4 -20 7 -8 6 35 0 36 -2 53 -4 38 -4 -23 -9 -28 -33 -28 -24
0 -29 5 -32 28 -2 15 -5 23 -8 17z"/>
<path d="M3614 562 c-13 -8 -34 -46 -34 -61 0 -20 40 -51 65 -51 30 0 65 32
65 60 0 42 -62 75 -96 52z m57 -12 c39 -21 16 -90 -30 -90 -16 0 -41 30 -41
50 0 20 25 50 41 50 6 0 19 -5 30 -10z"/>
<path d="M3731 565 c-2 -16 32 -105 40 -105 4 0 12 15 19 33 l12 32 18 -38 17
-38 23 56 c26 65 22 85 -6 24 l-18 -42 -17 39 -17 39 -12 -32 c-15 -42 -24
-41 -43 5 -8 20 -16 33 -16 27z"/>
<path d="M3917 563 c-3 -5 -5 -32 -5 -60 l0 -53 37 1 c30 2 31 3 9 6 -22 3
-28 10 -28 28 0 18 6 25 28 28 l27 4 -27 2 c-21 1 -28 6 -28 22 0 16 5 20 20
16 11 -3 23 -1 26 4 3 5 -8 9 -25 9 -16 0 -32 -3 -34 -7z"/>
<path d="M4010 510 c0 -33 4 -60 10 -60 6 0 10 12 10 28 l1 27 17 -27 c9 -16
21 -28 25 -28 5 0 3 10 -6 23 -12 19 -13 26 -1 41 18 25 1 56 -31 56 -24 0
-25 -3 -25 -60z m48 22 c-5 -27 -28 -26 -28 2 0 19 4 24 15 19 9 -3 15 -12 13
-21z"/>
<path d="M4170 511 c0 -34 4 -61 10 -61 6 0 10 14 10 30 0 25 4 30 25 30 21 0
25 -5 25 -30 0 -16 5 -30 10 -30 6 0 10 27 10 61 0 37 -4 58 -10 54 -5 -3 -10
-15 -10 -26 0 -14 -7 -19 -25 -19 -18 0 -25 5 -25 19 0 11 -4 23 -10 26 -6 4
-10 -17 -10 -54z"/>
<path d="M4300 510 l0 -60 33 1 c29 1 30 2 7 8 -15 4 -26 15 -28 28 -3 17 3
22 25 26 l28 4 -28 2 c-36 1 -34 32 3 42 23 6 22 7 -7 8 l-33 1 0 -60z"/>
<path d="M4520 510 c0 -59 0 -60 28 -60 16 0 36 8 45 18 37 41 9 102 -46 102
-26 0 -27 -2 -27 -60z m60 30 c26 -26 25 -45 -2 -64 -34 -24 -38 -20 -38 34 0
54 9 61 40 30z"/>
<path d="M4707 563 c-4 -3 -7 -30 -7 -60 0 -49 2 -53 24 -53 30 0 51 24 41 47
-5 10 -7 24 -6 31 5 28 -34 53 -52 35z m37 -34 c-10 -16 -24 -9 -24 12 0 18 2
19 15 9 8 -7 12 -16 9 -21z m9 -36 c8 -7 -11 -33 -24 -33 -5 0 -9 9 -9 20 0
19 20 27 33 13z"/>
<path d="M4818 510 c-14 -33 -23 -60 -18 -60 4 0 10 7 14 15 8 21 62 20 70 -1
4 -9 9 -15 11 -12 5 5 -41 118 -48 118 -1 0 -14 -27 -29 -60z m42 0 c0 -11 -7
-20 -15 -20 -17 0 -18 2 -9 24 9 23 24 20 24 -4z"/>
<path d="M4923 558 c10 -8 17 -32 20 -63 l3 -50 2 52 c2 38 7 55 20 62 14 8 9
10 -22 11 -34 0 -37 -2 -23 -12z"/>
<path d="M5013 510 c0 -36 2 -50 4 -32 4 28 8 32 33 32 25 0 29 -4 33 -32 2
-18 4 -4 4 32 0 36 -2 53 -4 38 -4 -23 -9 -28 -33 -28 -24 0 -29 5 -33 28 -2
15 -4 -2 -4 -38z"/>
<path d="M5130 511 c0 -34 4 -61 10 -61 6 0 10 12 10 26 l0 25 25 -28 c13 -15
25 -23 25 -17 0 6 -7 17 -15 24 -14 11 -14 15 2 32 22 24 7 52 -31 56 -26 3
-26 2 -26 -57z m48 22 c-5 -25 -28 -28 -28 -4 0 12 6 21 16 21 9 0 14 -7 12
-17z"/>
<path d="M5247 552 c-36 -40 -9 -102 45 -102 51 0 78 69 40 103 -24 22 -65 21
-85 -1z m75 -9 c22 -20 23 -41 1 -65 -20 -22 -41 -23 -65 -1 -22 20 -23 32 -2
61 18 26 41 28 66 5z"/>
<path d="M5397 552 c-36 -40 -9 -102 45 -102 51 0 78 69 40 103 -24 22 -65 21
-85 -1z m75 -9 c22 -20 23 -41 1 -65 -22 -24 -49 -23 -67 4 -20 29 -20 34 4
58 24 24 38 25 62 3z"/>
<path d="M6517 563 c-16 -15 -6 -44 18 -53 26 -10 33 -34 14 -46 -6 -3 -16 -1
-22 5 -17 17 -31 13 -17 -4 17 -20 47 -19 58 3 13 24 4 42 -25 53 -30 11 -25
35 6 32 13 -2 20 1 16 7 -7 11 -38 13 -48 3z"/>
<path d="M6613 559 c12 -7 17 -24 19 -62 l2 -52 3 50 c3 27 9 55 15 62 8 10 3
13 -23 13 -28 -1 -31 -2 -16 -11z"/>
<path d="M6704 516 c-14 -31 -23 -60 -20 -63 3 -3 8 2 12 11 8 21 53 21 70 -1
24 -34 21 -7 -7 51 l-28 60 -27 -58z m39 -1 c7 -16 -8 -29 -23 -20 -10 6 -2
35 10 35 4 0 10 -7 13 -15z"/>
<path d="M6817 563 c-11 -10 -8 -113 3 -113 6 0 10 27 10 60 0 61 -1 65 -13
53z"/>
<path d="M6872 510 c1 -48 2 -54 5 -22 2 23 8 42 13 42 5 0 25 -19 44 -42 l36
-42 -2 65 c-1 49 -2 54 -5 22 -2 -24 -6 -43 -8 -43 -2 0 -22 19 -44 43 l-40
42 1 -65z"/>
<path d="M7010 511 c0 -60 0 -61 28 -60 25 0 25 1 6 9 -19 7 -21 14 -17 53 3
27 1 47 -6 51 -8 5 -11 -11 -11 -53z"/>
<path d="M7090 510 l0 -60 38 1 c36 1 36 2 7 8 -38 8 -42 42 -5 52 l25 6 -25
4 c-32 5 -34 34 -2 33 12 0 22 3 22 8 0 4 -13 8 -30 8 l-30 0 0 -60z"/>
<path d="M7197 563 c-15 -14 -6 -40 18 -51 26 -12 33 -36 14 -48 -6 -3 -16 -1
-22 5 -17 17 -31 13 -17 -4 28 -34 81 -4 61 34 -6 11 -20 23 -32 26 -26 9 -18
31 10 28 13 -2 20 1 16 7 -7 11 -38 13 -48 3z"/>
<path d="M7297 563 c-15 -14 -6 -40 18 -51 26 -12 33 -36 14 -48 -6 -3 -16 -1
-22 5 -17 17 -31 13 -17 -4 17 -20 50 -16 64 8 9 15 5 23 -23 46 -34 28 -31
48 5 34 12 -4 15 -3 10 5 -8 13 -39 16 -49 5z"/>
<path d="M7457 563 c-15 -14 -6 -40 18 -51 26 -12 33 -36 14 -48 -6 -3 -16 -1
-22 5 -17 17 -31 13 -17 -4 28 -34 81 -4 61 34 -6 11 -20 23 -32 26 -26 9 -18
31 10 28 13 -2 20 1 16 7 -7 11 -38 13 -48 3z"/>
<path d="M7553 558 c10 -8 17 -32 20 -63 l3 -50 2 52 c2 38 7 55 20 62 14 8 9
10 -22 11 -34 0 -37 -2 -23 -12z"/>
<path d="M7640 510 l0 -60 33 1 c30 2 30 2 5 6 -22 3 -28 10 -28 28 0 18 6 25
28 28 l27 4 -28 2 c-36 1 -34 32 3 42 23 6 22 7 -7 8 l-33 1 0 -60z"/>
<path d="M7730 510 l0 -60 38 1 c30 2 32 3 10 6 -22 3 -28 10 -28 28 0 18 6
25 28 28 l27 4 -28 2 c-21 1 -28 5 -25 19 2 9 11 17 20 17 9 0 20 4 24 8 4 4
-9 7 -29 7 l-37 0 0 -60z"/>
<path d="M7830 511 c0 -60 0 -61 28 -60 23 0 24 2 7 8 -16 6 -19 16 -16 53 1
25 -2 49 -8 53 -7 4 -11 -14 -11 -54z"/>
<path d="M7970 510 c0 -56 2 -60 23 -60 45 0 75 45 56 83 -15 28 -28 37 -56
37 -21 0 -23 -4 -23 -60z m68 3 c3 -23 -22 -53 -44 -53 -10 0 -14 12 -14 43 0
24 3 47 7 50 11 11 48 -18 51 -40z"/>
<path d="M8090 524 c0 -55 12 -74 47 -74 27 0 43 27 43 74 0 57 -19 52 -22 -6
-3 -45 -6 -53 -23 -53 -17 0 -21 8 -23 45 -5 65 -22 76 -22 14z"/>
<path d="M8227 515 c-15 -32 -26 -60 -23 -63 3 -3 8 3 12 12 8 22 60 21 73 -1
5 -10 12 -16 14 -13 3 3 -7 31 -21 63 l-27 59 -28 -57z m43 -11 c0 -8 -7 -14
-15 -14 -15 0 -21 21 -9 33 10 9 24 -2 24 -19z"/>
<path d="M8342 513 c-2 -63 -2 -63 26 -62 23 0 24 1 7 8 -15 6 -21 20 -26 62
l-6 54 -1 -62z"/>
<path d="M8482 558 c-19 -19 -14 -36 13 -54 14 -9 25 -21 25 -26 0 -6 -11 -7
-25 -4 -18 5 -25 2 -25 -9 0 -10 10 -15 28 -15 53 0 72 48 27 68 -30 14 -33
32 -5 32 11 0 20 5 20 10 0 14 -43 13 -58 -2z"/>
<path d="M8580 510 c0 -47 3 -60 15 -60 12 0 15 13 15 60 0 47 -3 60 -15 60
-12 0 -15 -13 -15 -60z"/>
<path d="M8650 568 c-1 -2 -2 -29 -3 -60 l-2 -58 32 0 c37 0 73 29 73 60 0 29
-36 60 -70 60 -16 0 -30 -1 -30 -2z m70 -58 c0 -20 -32 -44 -44 -33 -3 3 -6
18 -6 33 0 15 3 30 6 33 12 11 44 -13 44 -33z"/>
<path d="M8780 510 l0 -60 30 0 c17 0 30 5 30 10 0 6 -7 10 -15 10 -8 0 -15 7
-15 15 0 8 7 15 15 15 8 0 15 5 15 10 0 6 -7 10 -15 10 -8 0 -15 7 -15 15 0 8
9 15 21 15 11 0 17 5 14 10 -3 6 -19 10 -36 10 -29 0 -29 0 -29 -60z"/>
<path d="M8880 510 c0 -59 0 -60 28 -60 41 0 72 26 72 60 0 34 -31 60 -72 60
-28 0 -28 -1 -28 -60z m64 17 c8 -12 8 -22 0 -34 -21 -33 -34 -26 -34 17 0 43
13 50 34 17z"/>
<path d="M9081 520 c-14 -66 -14 -70 4 -70 10 0 15 10 15 30 0 39 12 38 29 -2
l13 -33 16 35 15 35 10 -32 c16 -54 36 -42 26 15 -16 84 -29 94 -53 40 l-14
-33 -12 33 c-18 47 -37 40 -49 -18z"/>
<path d="M9267 528 c-8 -24 -18 -51 -22 -60 -5 -13 -2 -18 9 -18 9 0 16 5 16
10 0 14 57 13 62 -2 2 -6 9 -9 15 -7 17 6 -28 113 -48 117 -12 2 -21 -10 -32
-40z m43 -24 c0 -8 -4 -14 -10 -14 -5 0 -10 9 -10 21 0 11 5 17 10 14 6 -3 10
-13 10 -21z"/>
<path d="M9396 554 c-9 -8 -16 -28 -16 -44 0 -36 23 -60 59 -60 28 0 61 26 61
48 0 7 -13 12 -30 12 -16 0 -30 -4 -30 -10 0 -5 7 -10 16 -10 8 0 12 -4 9 -10
-11 -17 -44 -11 -55 10 -20 37 19 77 47 49 17 -17 37 -1 22 17 -15 19 -64 18
-83 -2z"/>
<path d="M9530 510 c0 -46 3 -60 14 -60 10 0 16 13 18 37 l3 37 25 -37 c14
-20 33 -37 43 -37 16 0 18 8 15 57 -4 66 -28 89 -28 26 l-1 -38 -32 38 c-46
53 -57 49 -57 -23z"/>
<path d="M9687 563 c-4 -3 -7 -30 -7 -60 l0 -53 35 0 c38 0 47 14 15 23 -11 3
-20 10 -20 16 0 6 9 11 20 11 11 0 20 5 20 10 0 6 -9 10 -20 10 -11 0 -20 5
-20 11 0 6 9 13 20 16 11 3 20 9 20 14 0 10 -53 12 -63 2z"/>
<path d="M9770 561 c0 -5 7 -11 15 -15 10 -4 15 -20 15 -51 0 -25 5 -45 10
-45 6 0 10 20 10 45 0 31 5 47 15 51 28 11 15 24 -25 24 -22 0 -40 -4 -40 -9z"/>
<path d="M9879 568 c0 -2 -1 -29 -2 -61 -1 -40 2 -57 11 -57 8 0 12 19 12 60
0 33 -4 60 -10 60 -5 0 -10 -1 -11 -2z"/>
<path d="M9955 556 c-11 -8 -18 -26 -18 -46 0 -20 7 -38 18 -46 25 -19 65 -18
65 1 0 8 -6 12 -14 9 -13 -5 -46 20 -46 36 0 16 31 39 45 34 9 -4 15 0 15 10
0 20 -39 21 -65 2z"/>
<path d="M4410 510 c-13 -27 -20 -53 -17 -56 4 -4 9 1 13 10 4 9 17 16 34 16
17 0 30 -7 34 -16 4 -9 9 -14 13 -10 7 7 -37 106 -47 106 -4 0 -17 -22 -30
-50z m43 5 c7 -16 -8 -29 -23 -20 -10 6 -2 35 10 35 4 0 10 -7 13 -15z"/>
<path d="M5550 548 c-1 -7 -5 -32 -9 -55 -5 -24 -5 -43 -1 -43 4 0 11 17 15
38 l8 37 17 -39 18 -40 18 40 18 39 4 -30 c2 -16 8 -34 14 -40 6 -7 7 7 3 40
-10 70 -15 73 -38 29 l-21 -39 -15 37 c-16 38 -31 49 -31 26z"/>
<path d="M106 312 c-2 -4 0 -14 5 -22 8 -13 10 -13 18 0 10 15 6 30 -9 30 -5
0 -11 -4 -14 -8z"/>
<path d="M306 312 c-2 -4 -1 -14 4 -22 7 -11 12 -12 21 -3 6 6 8 16 5 22 -8
13 -23 14 -30 3z"/>
<path d="M506 312 c-2 -4 -1 -14 4 -22 7 -11 12 -12 21 -3 6 6 8 16 5 22 -8
13 -23 14 -30 3z"/>
<path d="M706 312 c-2 -4 -1 -14 4 -22 7 -11 12 -12 21 -3 6 6 8 16 5 22 -8
13 -23 14 -30 3z"/>
<path d="M914 309 c-3 -6 -1 -16 5 -22 9 -9 14 -8 21 3 9 15 4 30 -10 30 -5 0
-12 -5 -16 -11z"/>
<path d="M1114 309 c-3 -6 -1 -16 5 -22 9 -9 14 -8 21 3 9 15 4 30 -10 30 -5
0 -12 -5 -16 -11z"/>
<path d="M1314 309 c-3 -6 -1 -16 5 -22 9 -9 14 -8 21 3 9 15 4 30 -10 30 -5
0 -12 -5 -16 -11z"/>
<path d="M1516 312 c-2 -4 -1 -14 4 -22 7 -11 12 -12 21 -3 6 6 8 16 5 22 -8
13 -23 14 -30 3z"/>
<path d="M1716 312 c-2 -4 -1 -14 4 -22 7 -11 12 -12 21 -3 6 6 8 16 5 22 -8
13 -23 14 -30 3z"/>
<path d="M1916 312 c-2 -4 -1 -14 4 -22 7 -11 12 -12 21 -3 6 6 8 16 5 22 -8
13 -23 14 -30 3z"/>
<path d="M2116 312 c-2 -4 -1 -14 4 -22 7 -11 12 -12 21 -3 6 6 8 16 5 22 -8
13 -23 14 -30 3z"/>
<path d="M2324 309 c-3 -6 -1 -16 5 -22 9 -9 14 -8 21 3 9 15 4 30 -10 30 -5
0 -12 -5 -16 -11z"/>
<path d="M2524 309 c-3 -6 -1 -16 5 -22 9 -9 14 -8 21 3 9 15 4 30 -10 30 -5
0 -12 -5 -16 -11z"/>
<path d="M2724 309 c-3 -6 -1 -16 5 -22 9 -9 14 -8 21 3 9 15 4 30 -10 30 -5
0 -12 -5 -16 -11z"/>
<path d="M2924 309 c-3 -6 -1 -16 5 -22 9 -9 14 -8 21 3 9 15 4 30 -10 30 -5
0 -12 -5 -16 -11z"/>
<path d="M3126 312 c-2 -4 -1 -14 4 -22 7 -11 12 -12 21 -3 6 6 8 16 5 22 -8
13 -23 14 -30 3z"/>
<path d="M3326 312 c-2 -4 -1 -14 4 -22 7 -11 12 -12 21 -3 6 6 8 16 5 22 -8
13 -23 14 -30 3z"/>
<path d="M3526 312 c-2 -4 -1 -14 4 -22 7 -11 12 -12 21 -3 6 6 8 16 5 22 -8
13 -23 14 -30 3z"/>
<path d="M3734 309 c-3 -6 -1 -16 5 -22 9 -9 14 -8 21 3 9 15 4 30 -10 30 -5
0 -12 -5 -16 -11z"/>
<path d="M3934 309 c-3 -6 -1 -16 5 -22 9 -9 14 -8 21 3 9 15 4 30 -10 30 -5
0 -12 -5 -16 -11z"/>
<path d="M4134 309 c-3 -6 -1 -16 5 -22 9 -9 14 -8 21 3 9 15 4 30 -10 30 -5
0 -12 -5 -16 -11z"/>
<path d="M4334 309 c-3 -6 -1 -16 5 -22 9 -9 14 -8 21 3 9 15 4 30 -10 30 -5
0 -12 -5 -16 -11z"/>
<path d="M4536 312 c-2 -4 -1 -14 4 -22 7 -11 12 -12 21 -3 6 6 8 16 5 22 -8
13 -23 14 -30 3z"/>
<path d="M4736 312 c-2 -4 -1 -14 4 -22 7 -11 12 -12 21 -3 6 6 8 16 5 22 -8
13 -23 14 -30 3z"/>
<path d="M4936 312 c-2 -4 -1 -14 4 -22 7 -11 12 -12 21 -3 6 6 8 16 5 22 -8
13 -23 14 -30 3z"/>
<path d="M5144 309 c-3 -6 -1 -16 5 -22 9 -9 14 -8 21 3 9 15 4 30 -10 30 -5
0 -12 -5 -16 -11z"/>
<path d="M5344 309 c-3 -6 -1 -16 5 -22 9 -9 14 -8 21 3 9 15 4 30 -10 30 -5
0 -12 -5 -16 -11z"/>
<path d="M5544 309 c-3 -6 -1 -16 5 -22 9 -9 14 -8 21 3 9 15 4 30 -10 30 -5
0 -12 -5 -16 -11z"/>
<path d="M5744 309 c-3 -6 -1 -16 5 -22 9 -9 14 -8 21 3 9 15 4 30 -10 30 -5
0 -12 -5 -16 -11z"/>
<path d="M5946 312 c-2 -4 -1 -14 4 -22 7 -11 12 -12 21 -3 6 6 8 16 5 22 -8
13 -23 14 -30 3z"/>
<path d="M105 20 c-3 -6 1 -13 10 -16 19 -8 30 0 20 15 -8 14 -22 14 -30 1z"/>
<path d="M312 21 c-11 -6 -10 -10 4 -15 20 -8 32 0 18 14 -5 5 -15 5 -22 1z"/>
<path d="M705 20 c-3 -6 1 -13 10 -16 19 -8 30 0 20 15 -8 14 -22 14 -30 1z"/>
<path d="M915 19 c-10 -15 1 -23 20 -15 9 3 13 10 10 16 -8 13 -22 13 -30 -1z"/>
<path d="M1115 19 c-10 -15 1 -23 20 -15 9 3 13 10 10 16 -8 13 -22 13 -30 -1z"/>
<path d="M1315 19 c-10 -15 1 -23 20 -15 9 3 13 10 10 16 -8 13 -22 13 -30 -1z"/>
<path d="M1515 20 c-3 -6 1 -13 10 -16 19 -8 30 0 20 15 -8 14 -22 14 -30 1z"/>
<path d="M1715 20 c-3 -6 1 -13 10 -16 19 -8 30 0 20 15 -8 14 -22 14 -30 1z"/>
<path d="M1915 20 c-3 -6 1 -13 10 -16 19 -8 30 0 20 15 -8 14 -22 14 -30 1z"/>
<path d="M2115 20 c-3 -6 1 -13 10 -16 19 -8 30 0 20 15 -8 14 -22 14 -30 1z"/>
<path d="M2325 19 c-10 -15 1 -23 20 -15 9 3 13 10 10 16 -8 13 -22 13 -30 -1z"/>
<path d="M2525 19 c-10 -15 1 -23 20 -15 9 3 13 10 10 16 -8 13 -22 13 -30 -1z"/>
<path d="M2725 19 c-10 -15 1 -23 20 -15 9 3 13 10 10 16 -8 13 -22 13 -30 -1z"/>
<path d="M2925 19 c-10 -15 1 -23 20 -15 9 3 13 10 10 16 -8 13 -22 13 -30 -1z"/>
<path d="M3125 20 c-3 -6 1 -13 10 -16 19 -8 30 0 20 15 -8 14 -22 14 -30 1z"/>
<path d="M3325 20 c-3 -6 1 -13 10 -16 19 -8 30 0 20 15 -8 14 -22 14 -30 1z"/>
<path d="M3525 20 c-3 -6 1 -13 10 -16 19 -8 30 0 20 15 -8 14 -22 14 -30 1z"/>
<path d="M3735 19 c-10 -15 1 -23 20 -15 9 3 13 10 10 16 -8 13 -22 13 -30 -1z"/>
<path d="M3935 19 c-10 -15 1 -23 20 -15 9 3 13 10 10 16 -8 13 -22 13 -30 -1z"/>
<path d="M4135 19 c-10 -15 1 -23 20 -15 9 3 13 10 10 16 -8 13 -22 13 -30 -1z"/>
<path d="M4335 19 c-10 -15 1 -23 20 -15 9 3 13 10 10 16 -8 13 -22 13 -30 -1z"/>
<path d="M4535 20 c-3 -6 1 -13 10 -16 19 -8 30 0 20 15 -8 14 -22 14 -30 1z"/>
<path d="M4735 20 c-3 -6 1 -13 10 -16 19 -8 30 0 20 15 -8 14 -22 14 -30 1z"/>
<path d="M4935 20 c-3 -6 1 -13 10 -16 19 -8 30 0 20 15 -8 14 -22 14 -30 1z"/>
<path d="M5145 19 c-10 -15 1 -23 20 -15 9 3 13 10 10 16 -8 13 -22 13 -30 -1z"/>
<path d="M5345 19 c-10 -15 1 -23 20 -15 9 3 13 10 10 16 -8 13 -22 13 -30 -1z"/>
<path d="M5545 19 c-10 -15 1 -23 20 -15 9 3 13 10 10 16 -8 13 -22 13 -30 -1z"/>
<path d="M5745 19 c-10 -15 1 -23 20 -15 9 3 13 10 10 16 -8 13 -22 13 -30 -1z"/>
<path d="M5945 20 c-3 -6 1 -13 10 -16 19 -8 30 0 20 15 -8 14 -22 14 -30 1z"/>
</g>
</svg>
